<?xml version="1.0" standalone="no"?>
<!DOCTYPE svg PUBLIC "-//W3C//DTD SVG 1.1//EN" "http://www.w3.org/Graphics/SVG/1.1/DTD/svg11.dtd">
<svg width="4935" height="1091" viewBox="0 -1091 4935 1091" xmlns="http://www.w3.org/2000/svg" version="1.1">
<title>OpenSCAD Model</title>
<path d="
M 2727.27,-1090.91 L 0,-1090.91 L 0,-0 L 2727.27,-0 z
M 535.455,-245.455 L 535.455,-845.455 L 555.455,-845.455 L 555.455,-245.455 z
M 1080.91,-245.455 L 1080.91,-845.455 L 1100.91,-845.455 L 1100.91,-245.455 z
M 1626.36,-245.455 L 1626.36,-845.455 L 1646.36,-845.455 L 1646.36,-245.455 z
M 2171.82,-245.455 L 2171.82,-845.455 L 2191.82,-845.455 L 2191.82,-245.455 z
M 3818.18,-244.455 L 3838.18,-244.455 L 3838.18,-846.455 L 3818.18,-846.455 L 3818.18,-1090.91 L 2767.27,-1090.91
 L 2767.27,-846.455 L 2747.27,-846.455 L 2747.27,-244.455 L 2767.27,-244.455 L 2767.27,-0 L 3818.18,-0
 z
M 4914.09,-244.455 L 4934.09,-244.455 L 4934.09,-846.455 L 4914.09,-846.455 L 4914.09,-1090.91 L 3863.18,-1090.91
 L 3863.18,-846.455 L 3843.18,-846.455 L 3843.18,-244.455 L 3863.18,-244.455 L 3863.18,-0 L 4914.09,-0
 z
" stroke="black" fill="lightgray" stroke-width="0.5"/></svg>
