<?xml version="1.0" encoding="UTF-8" standalone="no"?>
<!-- Created with Inkscape (http://www.inkscape.org/) -->

<svg
   xmlns:dc="http://purl.org/dc/elements/1.1/"
   xmlns:cc="http://creativecommons.org/ns#"
   xmlns:rdf="http://www.w3.org/1999/02/22-rdf-syntax-ns#"
   xmlns:svg="http://www.w3.org/2000/svg"
   xmlns="http://www.w3.org/2000/svg"
   xmlns:sodipodi="http://sodipodi.sourceforge.net/DTD/sodipodi-0.dtd"
   xmlns:inkscape="http://www.inkscape.org/namespaces/inkscape"
   width="210mm"
   height="297mm"
   viewBox="0 0 744.09448819 1052.3622047"
   id="svg2"
   version="1.1"
   inkscape:version="0.91 r13725"
   sodipodi:docname="curve_spike_lariat.svg">
  <sodipodi:namedview
     id="base"
     pagecolor="#ffffff"
     bordercolor="#666666"
     borderopacity="1.0"
     inkscape:pageopacity="0.0"
     inkscape:pageshadow="2"
     inkscape:zoom="0.98994949"
     inkscape:cx="-32.362556"
     inkscape:cy="585.5948"
     inkscape:document-units="px"
     inkscape:current-layer="layer1"
     showgrid="false"
     inkscape:window-width="1920"
     inkscape:window-height="1017"
     inkscape:window-x="-8"
     inkscape:window-y="-8"
     inkscape:window-maximized="1" />
  <defs
     id="defs4" />
  <metadata
     id="metadata7">
    <rdf:RDF>
      <cc:Work
         rdf:about="">
        <dc:format>image/svg+xml</dc:format>
        <dc:type
           rdf:resource="http://purl.org/dc/dcmitype/StillImage" />
        <dc:title></dc:title>
      </cc:Work>
    </rdf:RDF>
  </metadata>
  <g
     inkscape:label="Layer 1"
     inkscape:groupmode="layer"
     id="layer1">
    <path
       inkscape:connector-curvature="0"
       style="fill:#0000a0;fill-opacity:0.55769228;fill-rule:evenodd;stroke:#000000;stroke-width:0.0035433;stroke-linecap:butt;stroke-linejoin:miter;stroke-miterlimit:4;stroke-dasharray:none;stroke-opacity:1"
       d="M248.03032 450.00253L247.4846 450.80355L248.02807 450.02062L248.03007 450.00252L248.03007 450.00252M245.05844 455.78281L244.8119 455.79801L244.5716 455.84231L244.33985 455.91461L244.11899 456.01381L243.91134 456.13852L243.71922 456.28759L243.54497 456.4598L243.39091 456.65392L243.37851 456.64892L242.40996 457.98332L241.36115 459.41156L240.23517 460.92626L239.03513 462.52007L237.76411 464.18564L236.4252 465.91561L235.02152 467.70265L233.55616 469.53937L232.03221 471.41846L230.45276 473.33255L228.82092 475.27428L227.13977 477.2363L225.41242 479.21125L223.64197 481.19182L221.83149 483.17061L220.91221 484.15704L219.98409 485.14028L219.04752 486.11941L218.10289 487.09348L217.15056 488.06162L216.19094 489.02288L215.22442 489.97634L214.25138 490.92109L213.27219 491.85621L212.28728 492.78079L211.297 493.69388L210.30174 494.5946L209.3019 495.482L208.29785 496.35519L207.29001 497.21321L206.27873 498.05519L205.26443 498.88017L204.24746 499.68726L203.22823 500.47552L202.20713 501.24404L201.18454 501.9919L200.16084 502.71818L199.13643 503.42197L198.1117 504.10234L197.08702 504.75837L196.06279 505.38915L195.03938 505.99376L194.01721 506.57127L192.99663 507.12076L191.97805 507.64133L190.96185 508.13206L189.94841 508.592L188.93813 509.02027L187.9314 509.41592L187.66894 509.50922L187.40538 509.59182L187.1409 509.66402L186.87567 509.72612L186.60988 509.77842L186.34369 509.82122L186.07729 509.85482L185.81085 509.87952L185.27856 509.90362L184.74826 509.89562L184.22133 509.85842L183.69921 509.79422L183.1833 509.70552L182.67503 509.59468L182.17579 509.46419L181.68703 509.31647L181.21015 509.15394L180.74655 508.97907L180.29767 508.79427L179.8649 508.602L179.70475 508.5537L179.54149 508.5189L179.37594 508.4975L179.20893 508.4895L179.00724 508.5L178.80894 508.5296L178.61541 508.5785L178.42797 508.6459L178.24793 508.7314L178.07669 508.83442L177.91552 508.95431L177.7658 509.09056L177.63022 509.24103L177.5109 509.40302L177.40843 509.57516L177.32333 509.75612L177.25613 509.94458L177.20743 510.13915L177.17773 510.33852L177.16713 510.54131L177.18163 510.77426L177.22233 511.00405L177.22133 511.00505L178.49636 517.22187L179.38807 521.61555L180.41728 526.73064L181.55999 532.46554L182.79221 538.71866L184.08996 545.3884L185.42926 552.37318L186.7861 559.57142L188.13652 566.88151L188.80183 570.54675L189.45652 574.20186L190.09762 577.83414L190.72213 581.43088L191.32703 584.97941L191.90933 588.46701L192.46605 591.88097L192.99418 595.20861L193.49071 598.43723L193.95266 601.55412L194.37702 604.54658L194.7608 607.40194L194.92293 608.68593L195.07874 609.99872L195.22833 611.33907L195.37181 612.70572L195.64092 615.513L195.88697 618.41065L196.11084 621.38874L196.31346 624.43738L196.49572 627.54666L196.65852 630.70663L196.80277 633.90741L196.92936 637.13905L197.03912 640.39166L197.13312 643.65532L197.21222 646.92012L197.27712 650.17613L197.32892 653.41343L197.36842 656.62212L197.39662 659.79229L197.41442 662.91401L197.42242 665.97736L197.42198 668.97244L197.39878 674.71812L197.35188 680.07169L197.28838 684.95386L197.21558 689.28528L197.14068 692.98665L197.07068 695.97864L197.07068 695.98764L197.08248 696.19666L197.11408 696.39959L197.16488 696.59542L197.23398 696.7831L197.32018 696.96164L197.42253 697.13L197.54006 697.28717L197.67171 697.43213L197.81645 697.56385L197.97329 697.68132L198.14117 697.78352L198.31911 697.86942L198.50607 697.93802L198.70104 697.98832L198.90299 698.01922L199.11092 698.02972L199.36834 698.01282L199.6206 697.96372L199.86472 697.88312L200.09772 697.77182L201.26164 696.81355L202.50077 695.76157L203.13466 695.20875L203.77069 694.64244L204.40334 694.06599L205.02702 693.4827L205.63621 692.8959L206.22535 692.30889L206.7889 691.725L207.32129 691.14755L207.81698 690.57985L208.27041 690.02521L208.67606 689.48698L208.85922 689.22504L209.02835 688.96845L209.49282 688.256L209.9403 687.59683L210.37221 686.98145L210.79001 686.40035L211.58899 685.30307L211.97308 684.7679L212.34881 684.22906L212.71762 683.67708L213.08098 683.10244L213.44029 682.49566L213.79703 681.84726L214.15262 681.14773L214.5085 680.38761L214.86612 679.55737L215.22692 678.64757L215.59235 677.64867L215.96383 676.55121L216.34281 675.3457L216.73073 674.02265L217.12905 672.57255L217.53919 670.98592L217.96261 669.25328L218.40073 667.36513L218.85501 665.312L219.32688 663.08437L219.81777 660.67277L220.32916 658.06771L220.86245 655.25968L221.41911 652.23922L222.00056 648.99681L222.60827 645.52299L222.90404 643.78382L223.21344 641.90913L223.87108 637.77207L224.57693 633.14956L225.32683 628.07939L226.11654 622.59935L226.94185 616.74718L227.79855 610.5607L228.68243 604.07765L229.58927 597.33583L230.51486 590.373L231.45499 583.22696L232.40545 575.93547L234.3205 561.06725L236.2263 546.07055L238.08916 531.24761L239.87536 516.90063L241.55122 503.33182L243.08304 490.8434L245.57971 470.31658L247.09578 457.73789L247.07658 457.53553L247.03848 457.33956L246.98248 457.1509L246.90938 456.97046L246.82028 456.79917L246.71616 456.63795L246.59796 456.48771L246.46665 456.34938L246.32314 456.22388L246.16841 456.11211L246.00342 456.01501L245.82913 455.93351L245.64649 455.86851L245.45647 455.82091L245.26001 455.79161L245.0581 455.78111L245.0581 455.78111"
       id="path4142" />
    <path
       style="fill:#0000a0;fill-opacity:0.55769228;fill-rule:evenodd;stroke:#000000;stroke-width:0.0035433;stroke-linecap:butt;stroke-linejoin:miter;stroke-miterlimit:4;stroke-dasharray:none;stroke-opacity:1"
       d="M196.68451 528.4284L209.85245 630.62868L227.13537 504.01619L196.68451 528.4284"
       id="path4146"
       inkscape:connector-curvature="0"
       sodipodi:nodetypes="cccc" />
    <path
       inkscape:connector-curvature="0"
       style="fill:#0000a0;fill-opacity:0.55769228;stroke:#000000;stroke-width:0.00354331;stroke-linejoin:miter;stroke-miterlimit:4;stroke-dasharray:none;stroke-opacity:1"
       d="M210.82916 501.37816L210.83816 501.1972L210.86496 501.02147L210.90856 500.85186L210.96806 500.68926L211.04256 500.53455L211.13126 500.38863L211.23315 500.25238L211.34738 500.12669L211.47306 500.01247L211.60931 499.91058L211.75523 499.82198L211.90994 499.74748L212.07255 499.68798L212.24216 499.64438L212.41789 499.61758L212.59884 499.60858L212.7798 499.61758L212.95553 499.64438L213.12514 499.68798L213.28775 499.74748L213.44246 499.82198L213.58838 499.91058L213.72462 500.01246L213.85031 500.12669L213.96454 500.25238L214.06642 500.38862L214.15502 500.53454L214.22952 500.68925L214.28902 500.85186L214.33262 501.02147L214.35942 501.1972L214.36842 501.37816L214.35942 501.55911L214.33262 501.73484L214.28902 501.90445L214.22952 502.06705L214.15502 502.22176L214.06642 502.36768L213.96453 502.50393L213.8503 502.62962L213.72462 502.74385L213.58837 502.84573L213.44245 502.93443L213.28774 503.00893L213.12513 503.06843L212.95552 503.11203L212.77979 503.13883L212.59883 503.14783L212.4239 503.13883L212.25194 503.11313L212.0841 503.07093L211.92154 503.01273L211.76543 502.93893L211.61692 502.85013L211.47718 502.74667L211.34736 502.62911L211.22979 502.49929L211.12634 502.35955L211.03744 502.21104L210.96364 502.05493L210.90544 501.89237L210.86324 501.72453L210.83764 501.55257L210.82864 501.37765L210.82864 501.37765"
       id="circle4204" />
    <path
       id="path4139"
       d="M221.16682 698.02971L221.71254 697.22869L221.16907 698.01162L221.16707 698.02972L221.16707 698.02972M224.1387 692.24943L224.38524 692.23423L224.62554 692.18993L224.85729 692.11763L225.07815 692.01843L225.2858 691.89372L225.47792 691.74465L225.65217 691.57244L225.80623 691.37832L225.81863 691.38332L226.78718 690.04892L227.83599 688.62068L228.96197 687.10598L230.16201 685.51217L231.43303 683.8466L232.77194 682.11663L234.17562 680.32959L235.64098 678.49287L237.16493 676.61378L238.74438 674.69969L240.37622 672.75796L242.05737 670.79594L243.78472 668.82099L245.55517 666.84042L247.36565 664.86163L248.28493 663.8752L249.21305 662.89196L250.14962 661.91283L251.09425 660.93876L252.04658 659.97062L253.0062 659.00936L253.97272 658.0559L254.94576 657.11115L255.92495 656.17603L256.90986 655.25145L257.90014 654.33836L258.8954 653.43764L259.89524 652.55024L260.89929 651.67705L261.90713 650.81903L262.91841 649.97705L263.93271 649.15207L264.94968 648.34498L265.96891 647.55672L266.99001 646.7882L268.0126 646.04034L269.0363 645.31406L270.06071 644.61027L271.08544 643.9299L272.11012 643.27387L273.13435 642.64309L274.15776 642.03848L275.17993 641.46097L276.20051 640.91148L277.21909 640.39091L278.23529 639.90018L279.24873 639.44024L280.25901 639.01197L281.26574 638.61632L281.5282 638.52302L281.79176 638.44042L282.05624 638.36822L282.32147 638.30612L282.58726 638.25382L282.85345 638.21102L283.11985 638.17742L283.38629 638.15272L283.91858 638.12862L284.44888 638.13662L284.97581 638.17382L285.49793 638.23802L286.01384 638.32672L286.52211 638.43756L287.02135 638.56805L287.51011 638.71577L287.98699 638.8783L288.45059 639.05317L288.89947 639.23797L289.33224 639.43024L289.49239 639.47854L289.65565 639.51334L289.8212 639.53474L289.98821 639.54274L290.1899 639.53224L290.3882 639.50264L290.58173 639.45374L290.76917 639.38634L290.94921 639.30084L291.12045 639.19782L291.28162 639.07793L291.43134 638.94168L291.56692 638.79121L291.68624 638.62922L291.78871 638.45708L291.87381 638.27612L291.94101 638.08766L291.98971 637.89309L292.01941 637.69372L292.03001 637.49093L292.01551 637.25798L291.97481 637.02819L291.97581 637.02719L290.70078 630.81037L289.80907 626.41669L288.77986 621.3016L287.63715 615.5667L286.40493 609.31358L285.10718 602.64384L283.76788 595.65906L282.41104 588.46082L281.06062 581.15073L280.39531 577.48549L279.74062 573.83038L279.09952 570.1981L278.47501 566.60136L277.87011 563.05283L277.28781 559.56523L276.73109 556.15127L276.20296 552.82363L275.70643 549.59501L275.24448 546.47812L274.82012 543.48566L274.43634 540.6303L274.27421 539.34631L274.1184 538.03352L273.96881 536.69317L273.82533 535.32652L273.55622 532.51924L273.31017 529.62159L273.0863 526.6435L272.88368 523.59486L272.70142 520.48558L272.53862 517.32561L272.39437 514.12483L272.26778 510.89319L272.15802 507.64058L272.06402 504.37692L271.98492 501.11212L271.92002 497.85611L271.86822 494.61881L271.82872 491.41012L271.80052 488.23995L271.78272 485.11823L271.77472 482.05488L271.77516 479.0598L271.79836 473.31412L271.84526 467.96055L271.90876 463.07838L271.98156 458.74696L272.05646 455.04559L272.12646 452.0536L272.12646 452.0446L272.11466 451.83558L272.08306 451.63265L272.03226 451.43682L271.96316 451.24914L271.87696 451.0706L271.77461 450.90224L271.65708 450.74507L271.52543 450.60011L271.38069 450.46839L271.22385 450.35092L271.05597 450.24872L270.87803 450.16282L270.69107 450.09422L270.4961 450.04392L270.29415 450.01302L270.08622 450.00252L269.8288 450.01942L269.57654 450.06852L269.33242 450.14912L269.09942 450.26042L267.9355 451.21869L266.69637 452.27067L266.06248 452.82349L265.42645 453.3898L264.7938 453.96625L264.17012 454.54954L263.56093 455.13634L262.97179 455.72335L262.40824 456.30724L261.87585 456.88469L261.38016 457.45239L260.92673 458.00703L260.52108 458.54526L260.33792 458.8072L260.16879 459.06379L259.70432 459.77624L259.25684 460.43541L258.82493 461.05079L258.40713 461.63189L257.60815 462.72917L257.22406 463.26434L256.84833 463.80318L256.47952 464.35516L256.11616 464.9298L255.75685 465.53658L255.40011 466.18498L255.04452 466.88451L254.68864 467.64463L254.33102 468.47487L253.97022 469.38467L253.60479 470.38357L253.23331 471.48103L252.85433 472.68654L252.46641 474.00959L252.06809 475.45969L251.65795 477.04632L251.23453 478.77896L250.79641 480.66711L250.34213 482.72024L249.87026 484.94787L249.37937 487.35947L248.86798 489.96453L248.33469 492.77256L247.77803 495.79302L247.19658 499.03543L246.58887 502.50925L246.2931 504.24842L245.9837 506.12311L245.32606 510.26017L244.62021 514.88268L243.87031 519.95285L243.0806 525.43289L242.25529 531.28506L241.39859 537.47154L240.51471 543.95459L239.60787 550.69641L238.68228 557.65924L237.74215 564.80528L236.79169 572.09677L234.87664 586.96499L232.97084 601.96169L231.10798 616.78463L229.32178 631.13161L227.64592 644.70042L226.1141 657.18884L223.61743 677.71566L222.10136 690.29435L222.12056 690.49671L222.15866 690.69268L222.21466 690.88134L222.28776 691.06178L222.37686 691.23307L222.48098 691.39429L222.59918 691.54453L222.73049 691.68286L222.874 691.80836L223.02873 691.92013L223.19372 692.01723L223.36801 692.09873L223.55065 692.16373L223.74067 692.21133L223.93713 692.24063L224.13904 692.25113L224.13904 692.25113"
       style="fill:#0000a0;fill-opacity:0.55769228;fill-rule:evenodd;stroke:#000000;stroke-width:0.0035433;stroke-linecap:butt;stroke-linejoin:miter;stroke-miterlimit:4;stroke-dasharray:none;stroke-opacity:1"
       inkscape:connector-curvature="0" />
    <path
       sodipodi:nodetypes="cccc"
       inkscape:connector-curvature="0"
       id="path4141"
       d="M272.51263 619.60384L259.34469 517.40356L242.06177 644.01605L272.51263 619.60384"
       style="fill:#0000a0;fill-opacity:0.55769228;fill-rule:evenodd;stroke:#000000;stroke-width:0.0035433;stroke-linecap:butt;stroke-linejoin:miter;stroke-miterlimit:4;stroke-dasharray:none;stroke-opacity:1" />
    <path
       id="path4143"
       d="M258.36798 646.65408L258.35898 646.83504L258.33218 647.01077L258.28858 647.18038L258.22908 647.34298L258.15458 647.49769L258.06588 647.64361L257.96399 647.77986L257.84976 647.90555L257.72408 648.01977L257.58783 648.12166L257.44191 648.21026L257.2872 648.28476L257.12459 648.34426L256.95498 648.38786L256.77925 648.41466L256.5983 648.42366L256.41734 648.41466L256.24161 648.38786L256.072 648.34426L255.90939 648.28476L255.75468 648.21026L255.60876 648.12166L255.47252 648.01978L255.34683 647.90555L255.2326 647.77986L255.13072 647.64362L255.04212 647.4977L254.96762 647.34299L254.90812 647.18038L254.86452 647.01077L254.83772 646.83504L254.82872 646.65408L254.83772 646.47313L254.86452 646.2974L254.90812 646.12779L254.96762 645.96519L255.04212 645.81048L255.13072 645.66456L255.23261 645.52831L255.34684 645.40262L255.47252 645.28839L255.60877 645.18651L255.75469 645.09781L255.9094 645.02331L256.07201 644.96381L256.24162 644.92021L256.41735 644.89341L256.59831 644.88441L256.77324 644.89341L256.9452 644.91911L257.11304 644.96131L257.2756 645.01951L257.43171 645.09331L257.58022 645.18211L257.71996 645.28557L257.84978 645.40313L257.96735 645.53295L258.0708 645.67269L258.1597 645.8212L258.2335 645.97731L258.2917 646.13987L258.3339 646.30771L258.3595 646.47967L258.3685 646.65459L258.3685 646.65459"
       style="fill:#0000a0;fill-opacity:0.55769228;stroke:#000000;stroke-width:0.00354331;stroke-linejoin:miter;stroke-miterlimit:4;stroke-dasharray:none;stroke-opacity:1"
       inkscape:connector-curvature="0" />
  </g>
</svg>
