<?xml version="1.0" encoding="UTF-8" standalone="no"?>
<!-- Created with Inkscape (http://www.inkscape.org/) -->

<svg
   xmlns:dc="http://purl.org/dc/elements/1.1/"
   xmlns:cc="http://creativecommons.org/ns#"
   xmlns:rdf="http://www.w3.org/1999/02/22-rdf-syntax-ns#"
   xmlns:svg="http://www.w3.org/2000/svg"
   xmlns="http://www.w3.org/2000/svg"
   xmlns:sodipodi="http://sodipodi.sourceforge.net/DTD/sodipodi-0.dtd"
   xmlns:inkscape="http://www.inkscape.org/namespaces/inkscape"
   width="210mm"
   height="297mm"
   viewBox="0 0 744.09448819 1052.3622047"
   id="svg2"
   version="1.1"
   inkscape:version="0.91 r13725"
   sodipodi:docname="triangle_lariat.svg">
  <defs
     id="defs4" />
  <sodipodi:namedview
     id="base"
     pagecolor="#ffffff"
     bordercolor="#666666"
     borderopacity="1.0"
     inkscape:pageopacity="0.0"
     inkscape:pageshadow="2"
     inkscape:zoom="2.8"
     inkscape:cx="280.02265"
     inkscape:cy="583.29014"
     inkscape:document-units="px"
     inkscape:current-layer="layer1"
     showgrid="false"
     inkscape:window-width="1440"
     inkscape:window-height="851"
     inkscape:window-x="0"
     inkscape:window-y="1"
     inkscape:window-maximized="1" />
  <metadata
     id="metadata7">
    <rdf:RDF>
      <cc:Work
         rdf:about="">
        <dc:format>image/svg+xml</dc:format>
        <dc:type
           rdf:resource="http://purl.org/dc/dcmitype/StillImage" />
        <dc:title />
      </cc:Work>
    </rdf:RDF>
  </metadata>
  <g
     inkscape:label="Layer 1"
     inkscape:groupmode="layer"
     id="layer1">
    <path
       style="fill:#0000ce;fill-rule:evenodd;stroke:#000000;stroke-width:0.001;stroke-linecap:butt;stroke-linejoin:miter;stroke-opacity:1;stroke-miterlimit:4;stroke-dasharray:none;fill-opacity:0.51923078"
       d="M 183.50977 343.70117 A 5.313189 5.313189 0 0 0 178.28516 349.00977 A 5.313189 5.313189 0 0 0 178.39844 350.07031 L 178.39258 350.07812 L 216.2793 547.08984 A 5.313189 5.313189 0 0 0 221.46094 551.25977 A 5.313189 5.313189 0 0 0 226.60938 547.22266 L 264.52148 350.08008 L 264.51367 350.07227 A 5.313189 5.313189 0 0 0 264.62695 349.01172 A 5.313189 5.313189 0 0 0 259.40234 343.70312 L 259.40039 343.70117 L 183.50977 343.70117 z "
       id="path4136" />
    <path
       style="fill:#0000ce;fill-opacity:0.5192308;fill-rule:evenodd;stroke:#000000;stroke-width:0.001;stroke-linecap:butt;stroke-linejoin:miter;stroke-miterlimit:4;stroke-dasharray:none;stroke-opacity:1"
       d="m 200.10742,367.83203 c 7.47603,36.94176 14.01498,74.07947 21.28711,111.04883 7.5571,-39.03418 15.27557,-78.00581 22.29492,-117.13281 -14.95125,0.10198 -29.90246,-0.0657 -44.85351,-0.12696 0.42383,2.07032 0.84765,4.14063 1.27148,6.21094 z"
       id="path4200"
       inkscape:connector-curvature="0" />
    <circle
       style="fill:#c300d6;fill-opacity:0.48076926;stroke:#000000;stroke-width:0.001;stroke-linejoin:miter;stroke-miterlimit:4;stroke-dasharray:none;stroke-opacity:1"
       id="path4222"
       cx="221.4567"
       cy="352.55905"
       r="1.7711536" />
    <path
       id="path4224"
       d="m 234.36691,551.9742 a 5.313189,5.313189 0 0 1 -5.22461,-5.3086 5.313189,5.313189 0 0 1 0.11328,-1.06054 l -0.006,-0.008 37.88672,-197.01172 a 5.313189,5.313189 0 0 1 5.18164,-4.16993 5.313189,5.313189 0 0 1 5.14844,4.03711 l 37.9121,197.14258 -0.008,0.008 a 5.313189,5.313189 0 0 1 0.11328,1.06055 5.313189,5.313189 0 0 1 -5.22461,5.3086 l -0.002,0.002 -75.89062,0 z"
       style="fill:#0000ce;fill-opacity:0.5192308;fill-rule:evenodd;stroke:#000000;stroke-width:0.001;stroke-linecap:butt;stroke-linejoin:miter;stroke-miterlimit:4;stroke-dasharray:none;stroke-opacity:1"
       inkscape:connector-curvature="0" />
    <path
       inkscape:connector-curvature="0"
       id="path4226"
       d="m 248.96456,527.84334 c 7.47603,-36.94176 14.01498,-74.07947 21.28711,-111.04883 7.5571,39.03418 15.27557,78.00581 22.29492,117.13281 -14.95125,-0.10198 -29.90246,0.0657 -44.85351,0.12696 0.42383,-2.07032 0.84765,-4.14063 1.27148,-6.21094 z"
       style="fill:#0000ce;fill-opacity:0.5192308;fill-rule:evenodd;stroke:#000000;stroke-width:0.001;stroke-linecap:butt;stroke-linejoin:miter;stroke-miterlimit:4;stroke-dasharray:none;stroke-opacity:1" />
    <circle
       r="1.7711536"
       cy="-543.11456"
       cx="270.31384"
       id="circle4228"
       style="fill:#c300d6;fill-opacity:0.48076926;stroke:#000000;stroke-width:0.001;stroke-linejoin:miter;stroke-miterlimit:4;stroke-dasharray:none;stroke-opacity:1"
       transform="scale(1,-1)" />
  </g>
</svg>
