  0
SECTION
  2
HEADER
  9
$ACADVER
  1
AC1027
  9
$ACADMAINTVER
 70
   125
  9
$DWGCODEPAGE
  3
ANSI_1252
  9
$LASTSAVEDBY
  1
elena_nadolinski
  9
$REQUIREDVERSIONS
160
                 0
  9
$INSBASE
 10
0.0
 20
0.0
 30
0.0
  9
$EXTMIN
 10
-2.514152586918505
 20
-32.00000000000001
 30
0.0
  9
$EXTMAX
 10
48.0
 20
75.07973222743465
 30
0.0
  9
$LIMMIN
 10
0.0
 20
0.0
  9
$LIMMAX
 10
12.0
 20
9.0
  9
$ORTHOMODE
 70
     0
  9
$REGENMODE
 70
     1
  9
$FILLMODE
 70
     1
  9
$QTEXTMODE
 70
     0
  9
$MIRRTEXT
 70
     0
  9
$LTSCALE
 40
1.0
  9
$ATTMODE
 70
     1
  9
$TEXTSIZE
 40
0.2
  9
$TRACEWID
 40
0.05
  9
$TEXTSTYLE
  7
STANDARD
  9
$CLAYER
  8
0
  9
$CELTYPE
  6
Continuous
  9
$CECOLOR
 62
   256
  9
$CELTSCALE
 40
1.0
  9
$DISPSILH
 70
     0
  9
$DIMSCALE
 40
1.0
  9
$DIMASZ
 40
0.18
  9
$DIMEXO
 40
0.0625
  9
$DIMDLI
 40
0.38
  9
$DIMRND
 40
0.0
  9
$DIMDLE
 40
0.0
  9
$DIMEXE
 40
0.18
  9
$DIMTP
 40
0.0
  9
$DIMTM
 40
0.0
  9
$DIMTXT
 40
0.18
  9
$DIMCEN
 40
0.09
  9
$DIMTSZ
 40
0.0
  9
$DIMTOL
 70
     0
  9
$DIMLIM
 70
     0
  9
$DIMTIH
 70
     1
  9
$DIMTOH
 70
     1
  9
$DIMSE1
 70
     0
  9
$DIMSE2
 70
     0
  9
$DIMTAD
 70
     0
  9
$DIMZIN
 70
     0
  9
$DIMBLK
  1

  9
$DIMASO
 70
     1
  9
$DIMSHO
 70
     1
  9
$DIMPOST
  1

  9
$DIMAPOST
  1

  9
$DIMALT
 70
     0
  9
$DIMALTD
 70
     2
  9
$DIMALTF
 40
25.4
  9
$DIMLFAC
 40
1.0
  9
$DIMTOFL
 70
     0
  9
$DIMTVP
 40
0.0
  9
$DIMTIX
 70
     0
  9
$DIMSOXD
 70
     0
  9
$DIMSAH
 70
     0
  9
$DIMBLK1
  1

  9
$DIMBLK2
  1

  9
$DIMSTYLE
  2
Standard
  9
$DIMCLRD
 70
     0
  9
$DIMCLRE
 70
     0
  9
$DIMCLRT
 70
     0
  9
$DIMTFAC
 40
1.0
  9
$DIMGAP
 40
0.09
  9
$DIMJUST
 70
     0
  9
$DIMSD1
 70
     0
  9
$DIMSD2
 70
     0
  9
$DIMTOLJ
 70
     1
  9
$DIMTZIN
 70
     0
  9
$DIMALTZ
 70
     0
  9
$DIMALTTZ
 70
     0
  9
$DIMUPT
 70
     0
  9
$DIMDEC
 70
     4
  9
$DIMTDEC
 70
     4
  9
$DIMALTU
 70
     2
  9
$DIMALTTD
 70
     2
  9
$DIMTXSTY
  7
STANDARD
  9
$DIMAUNIT
 70
     0
  9
$DIMADEC
 70
     0
  9
$DIMALTRND
 40
0.0
  9
$DIMAZIN
 70
     0
  9
$DIMDSEP
 70
    46
  9
$DIMATFIT
 70
     3
  9
$DIMFRAC
 70
     0
  9
$DIMLDRBLK
  1

  9
$DIMLUNIT
 70
     2
  9
$DIMLWD
 70
    -2
  9
$DIMLWE
 70
    -2
  9
$DIMTMOVE
 70
     0
  9
$DIMFXL
 40
1.0
  9
$DIMFXLON
 70
     0
  9
$DIMJOGANG
 40
0.7853981633974483
  9
$DIMTFILL
 70
     0
  9
$DIMTFILLCLR
 70
     0
  9
$DIMARCSYM
 70
     0
  9
$DIMLTYPE
  6

  9
$DIMLTEX1
  6

  9
$DIMLTEX2
  6

  9
$DIMTXTDIRECTION
 70
     0
  9
$LUNITS
 70
     2
  9
$LUPREC
 70
     4
  9
$SKETCHINC
 40
0.1
  9
$FILLETRAD
 40
0.0
  9
$AUNITS
 70
     0
  9
$AUPREC
 70
     0
  9
$MENU
  1
.
  9
$ELEVATION
 40
0.0
  9
$PELEVATION
 40
0.0
  9
$THICKNESS
 40
0.0
  9
$LIMCHECK
 70
     0
  9
$CHAMFERA
 40
0.0
  9
$CHAMFERB
 40
0.0
  9
$CHAMFERC
 40
0.0
  9
$CHAMFERD
 40
0.0
  9
$SKPOLY
 70
     0
  9
$TDCREATE
 40
2457902.540671297
  9
$TDUCREATE
 40
2457902.832337963
  9
$TDUPDATE
 40
2457902.543182870
  9
$TDUUPDATE
 40
2457902.834849537
  9
$TDINDWG
 40
0.0025115741
  9
$TDUSRTIMER
 40
0.0025115741
  9
$USRTIMER
 70
     1
  9
$ANGBASE
 50
0.0
  9
$ANGDIR
 70
     0
  9
$PDMODE
 70
     0
  9
$PDSIZE
 40
0.0
  9
$PLINEWID
 40
0.0
  9
$SPLFRAME
 70
     0
  9
$SPLINETYPE
 70
     6
  9
$SPLINESEGS
 70
     8
  9
$HANDSEED
  5
1010094
  9
$SURFTAB1
 70
     6
  9
$SURFTAB2
 70
     6
  9
$SURFTYPE
 70
     6
  9
$SURFU
 70
     6
  9
$SURFV
 70
     6
  9
$UCSBASE
  2

  9
$UCSNAME
  2

  9
$UCSORG
 10
0.0
 20
0.0
 30
0.0
  9
$UCSXDIR
 10
1.0
 20
0.0
 30
0.0
  9
$UCSYDIR
 10
0.0
 20
1.0
 30
0.0
  9
$UCSORTHOREF
  2

  9
$UCSORTHOVIEW
 70
     0
  9
$UCSORGTOP
 10
0.0
 20
0.0
 30
0.0
  9
$UCSORGBOTTOM
 10
0.0
 20
0.0
 30
0.0
  9
$UCSORGLEFT
 10
0.0
 20
0.0
 30
0.0
  9
$UCSORGRIGHT
 10
0.0
 20
0.0
 30
0.0
  9
$UCSORGFRONT
 10
0.0
 20
0.0
 30
0.0
  9
$UCSORGBACK
 10
0.0
 20
0.0
 30
0.0
  9
$PUCSBASE
  2

  9
$PUCSNAME
  2

  9
$PUCSORG
 10
0.0
 20
0.0
 30
0.0
  9
$PUCSXDIR
 10
1.0
 20
0.0
 30
0.0
  9
$PUCSYDIR
 10
0.0
 20
1.0
 30
0.0
  9
$PUCSORTHOREF
  2

  9
$PUCSORTHOVIEW
 70
     0
  9
$PUCSORGTOP
 10
0.0
 20
0.0
 30
0.0
  9
$PUCSORGBOTTOM
 10
0.0
 20
0.0
 30
0.0
  9
$PUCSORGLEFT
 10
0.0
 20
0.0
 30
0.0
  9
$PUCSORGRIGHT
 10
0.0
 20
0.0
 30
0.0
  9
$PUCSORGFRONT
 10
0.0
 20
0.0
 30
0.0
  9
$PUCSORGBACK
 10
0.0
 20
0.0
 30
0.0
  9
$USERI1
 70
     0
  9
$USERI2
 70
     0
  9
$USERI3
 70
     0
  9
$USERI4
 70
     0
  9
$USERI5
 70
     0
  9
$USERR1
 40
0.0
  9
$USERR2
 40
0.0
  9
$USERR3
 40
0.0
  9
$USERR4
 40
0.0
  9
$USERR5
 40
0.0
  9
$WORLDVIEW
 70
     1
  9
$SHADEDGE
 70
     3
  9
$SHADEDIF
 70
    70
  9
$TILEMODE
 70
     1
  9
$MAXACTVP
 70
    64
  9
$PINSBASE
 10
0.0
 20
0.0
 30
0.0
  9
$PLIMCHECK
 70
     0
  9
$PEXTMIN
 10
1.000000000000000E+20
 20
1.000000000000000E+20
 30
1.000000000000000E+20
  9
$PEXTMAX
 10
-1.000000000000000E+20
 20
-1.000000000000000E+20
 30
-1.000000000000000E+20
  9
$PLIMMIN
 10
0.0
 20
0.0
  9
$PLIMMAX
 10
12.0
 20
9.0
  9
$UNITMODE
 70
     0
  9
$VISRETAIN
 70
     1
  9
$PLINEGEN
 70
     0
  9
$PSLTSCALE
 70
     1
  9
$TREEDEPTH
 70
  3020
  9
$CMLSTYLE
  2
Standard
  9
$CMLJUST
 70
     0
  9
$CMLSCALE
 40
1.0
  9
$PROXYGRAPHICS
 70
     1
  9
$MEASUREMENT
 70
     0
  9
$CELWEIGHT
370
    -1
  9
$ENDCAPS
280
     0
  9
$JOINSTYLE
280
     0
  9
$LWDISPLAY
290
     0
  9
$INSUNITS
 70
     1
  9
$HYPERLINKBASE
  1

  9
$STYLESHEET
  1

  9
$XEDIT
290
     1
  9
$CEPSNTYPE
380
     0
  9
$PSTYLEMODE
290
     1
  9
$FINGERPRINTGUID
  2
{3C31E6F0-A07F-2444-9AB4-AE2650824296}
  9
$VERSIONGUID
  2
{14B79D7B-4D1C-6C42-9F38-14F0E5742286}
  9
$EXTNAMES
290
     1
  9
$PSVPSCALE
 40
0.0
  9
$OLESTARTUP
290
     0
  9
$SORTENTS
280
   127
  9
$INDEXCTL
280
     0
  9
$HIDETEXT
280
     0
  9
$XCLIPFRAME
280
     2
  9
$HALOGAP
280
     0
  9
$OBSCOLOR
 70
   257
  9
$OBSLTYPE
280
     0
  9
$INTERSECTIONDISPLAY
280
     0
  9
$INTERSECTIONCOLOR
 70
   257
  9
$DIMASSOC
280
     1
  9
$PROJECTNAME
  1

  9
$CAMERADISPLAY
290
     0
  9
$LENSLENGTH
 40
50.0
  9
$CAMERAHEIGHT
 40
0.0
  9
$STEPSPERSEC
 40
2.0
  9
$STEPSIZE
 40
6.0
  9
$3DDWFPREC
 40
2.0
  9
$PSOLWIDTH
 40
0.25
  9
$PSOLHEIGHT
 40
4.0
  9
$LOFTANG1
 40
1.570796326794896
  9
$LOFTANG2
 40
1.570796326794896
  9
$LOFTMAG1
 40
0.0
  9
$LOFTMAG2
 40
0.0
  9
$LOFTPARAM
 70
     7
  9
$LOFTNORMALS
280
     1
  9
$LATITUDE
 40
37.795
  9
$LONGITUDE
 40
-122.394
  9
$NORTHDIRECTION
 40
0.0
  9
$TIMEZONE
 70
 -8000
  9
$LIGHTGLYPHDISPLAY
280
     1
  9
$TILEMODELIGHTSYNCH
280
     1
  9
$CMATERIAL
347
1010005
  9
$SOLIDHIST
280
     0
  9
$SHOWHIST
280
     1
  9
$DWFFRAME
280
     2
  9
$DGNFRAME
280
     0
  9
$REALWORLDSCALE
290
     1
  9
$INTERFERECOLOR
 62
     1
  9
$INTERFEREOBJVS
345
1010027
  9
$INTERFEREVPVS
346
1010024
  9
$CSHADOW
280
     0
  9
$SHADOWPLANELOCATION
 40
0.0
  0
ENDSEC
  0
SECTION
  2
CLASSES
  0
CLASS
  1
ACDBDICTIONARYWDFLT
  2
AcDbDictionaryWithDefault
  3
ObjectDBX Classes
 90
        0
 91
        1
280
     0
281
     0
  0
CLASS
  1
MATERIAL
  2
AcDbMaterial
  3
ObjectDBX Classes
 90
     1153
 91
        3
280
     0
281
     0
  0
CLASS
  1
VISUALSTYLE
  2
AcDbVisualStyle
  3
ObjectDBX Classes
 90
     4095
 91
       24
280
     0
281
     0
  0
CLASS
  1
TABLESTYLE
  2
AcDbTableStyle
  3
ObjectDBX Classes
 90
     4095
 91
        1
280
     0
281
     0
  0
CLASS
  1
SCALE
  2
AcDbScale
  3
ObjectDBX Classes
 90
     1153
 91
       17
280
     0
281
     0
  0
CLASS
  1
MLEADERSTYLE
  2
AcDbMLeaderStyle
  3
ACDB_MLEADERSTYLE_CLASS
 90
     4095
 91
        1
280
     0
281
     0
  0
CLASS
  1
ACDBSECTIONVIEWSTYLE
  2
AcDbSectionViewStyle
  3
ObjectDBX Classes
 90
     1025
 91
        1
280
     0
281
     0
  0
CLASS
  1
ACDBDETAILVIEWSTYLE
  2
AcDbDetailViewStyle
  3
ObjectDBX Classes
 90
     1025
 91
        1
280
     0
281
     0
  0
CLASS
  1
DICTIONARYVAR
  2
AcDbDictionaryVar
  3
ObjectDBX Classes
 90
        0
 91
       18
280
     0
281
     0
  0
CLASS
  1
CELLSTYLEMAP
  2
AcDbCellStyleMap
  3
ObjectDBX Classes
 90
     1152
 91
        1
280
     0
281
     0
  0
ENDSEC
  0
SECTION
  2
TABLES
  0
TABLE
  2
VPORT
  5
8
330
0
100
AcDbSymbolTable
 70
     1
1001
ACAD
1000
DbSaveVer
1071
       26
  0
VPORT
  5
1010059
330
8
100
AcDbSymbolTableRecord
100
AcDbViewportTableRecord
  2
*Active
 70
     0
 10
0.0
 20
0.0
 11
1.0
 21
1.0
 12
27.79338683838029
 22
11.83049376054527
 13
0.0
 23
0.0
 14
1.0
 24
1.0
 15
0.0
 25
0.0
 16
0.0
 26
0.0
 36
1.0
 17
0.0
 27
0.0
 37
0.0
 40
53.03357663459736
 41
1.488179669030732
 42
50.0
 43
0.0
 44
0.0
 50
0.0
 51
0.0
 71
     0
 72
  1000
 73
     1
 74
     3
 75
     0
 76
     0
 77
     0
 78
     0
281
     0
 65
     1
110
0.0
120
0.0
130
0.0
111
1.0
121
0.0
131
0.0
112
0.0
122
1.0
132
0.0
 79
     0
146
0.0
348
1010023
 60
     3
 61
     5
292
     1
282
     1
141
0.0
142
0.0
 63
   250
421
  3355443
1001
ACAD_NAV_VCDISPLAY
1070
     1
  0
ENDTAB
  0
TABLE
  2
LTYPE
  5
5
330
0
100
AcDbSymbolTable
 70
     2
  0
LTYPE
  5
14
330
5
100
AcDbSymbolTableRecord
100
AcDbLinetypeTableRecord
  2
BYBLOCK
 70
     0
  3

 72
    65
 73
     0
 40
0.0
  0
LTYPE
  5
15
330
5
100
AcDbSymbolTableRecord
100
AcDbLinetypeTableRecord
  2
BYLAYER
 70
     0
  3

 72
    65
 73
     0
 40
0.0
  0
LTYPE
  5
1010001
330
5
100
AcDbSymbolTableRecord
100
AcDbLinetypeTableRecord
  2
Continuous
 70
     0
  3
Solid line
 72
    65
 73
     0
 40
0.0
  0
ENDTAB
  0
TABLE
  2
LAYER
  5
2
102
{ACAD_XDICTIONARY
360
1010067
102
}
330
0
100
AcDbSymbolTable
 70
     1
  0
LAYER
  5
50
102
{ACAD_XDICTIONARY
360
1010062
102
}
330
2
100
AcDbSymbolTableRecord
100
AcDbLayerTableRecord
  2
0
 70
     0
 62
     7
  6
Continuous
370
    -3
390
1010003
347
1010015
348
0
  0
ENDTAB
  0
TABLE
  2
STYLE
  5
3
330
0
100
AcDbSymbolTable
 70
     1
  0
STYLE
  5
11
330
3
100
AcDbSymbolTableRecord
100
AcDbTextStyleTableRecord
  2
STANDARD
 70
     0
 40
0.0
 41
1.0
 50
0.0
 71
     0
 42
0.2
  3

  4

  0
ENDTAB
  0
TABLE
  2
VIEW
  5
6
330
0
100
AcDbSymbolTable
 70
     2
  0
ENDTAB
  0
TABLE
  2
UCS
  5
7
330
0
100
AcDbSymbolTable
 70
     0
  0
ENDTAB
  0
TABLE
  2
APPID
  5
9
330
0
100
AcDbSymbolTable
 70
     3
  0
APPID
  5
12
330
9
100
AcDbSymbolTableRecord
100
AcDbRegAppTableRecord
  2
ACAD
 70
     0
  0
APPID
  5
1010058
330
9
100
AcDbSymbolTableRecord
100
AcDbRegAppTableRecord
  2
ACAD_NAV_VCDISPLAY
 70
     0
  0
APPID
  5
101005B
330
9
100
AcDbSymbolTableRecord
100
AcDbRegAppTableRecord
  2
ACAD_EXEMPT_FROM_CAD_STANDARDS
 70
     0
  0
ENDTAB
  0
TABLE
  2
DIMSTYLE
  5
A
330
0
100
AcDbSymbolTable
 70
     2
100
AcDbDimStyleTable
 71
     1
340
1010052
  0
DIMSTYLE
105
1010052
330
A
100
AcDbSymbolTableRecord
100
AcDbDimStyleTableRecord
  2
Standard
 70
     0
340
11
  0
ENDTAB
  0
TABLE
  2
BLOCK_RECORD
  5
1
330
0
100
AcDbSymbolTable
 70
     1
  0
BLOCK_RECORD
  5
1F
330
1
100
AcDbSymbolTableRecord
100
AcDbBlockTableRecord
  2
*MODEL_SPACE
340
1010055
 70
     0
280
     1
281
     0
  0
BLOCK_RECORD
  5
1B
330
1
100
AcDbSymbolTableRecord
100
AcDbBlockTableRecord
  2
*PAPER_SPACE
340
1010056
 70
     0
280
     1
281
     0
  0
ENDTAB
  0
ENDSEC
  0
SECTION
  2
BLOCKS
  0
BLOCK
  5
20
330
1F
100
AcDbEntity
  8
0
100
AcDbBlockBegin
  2
*MODEL_SPACE
 70
     0
 10
0.0
 20
0.0
 30
0.0
  3
*MODEL_SPACE
  1

  0
ENDBLK
  5
21
330
1F
100
AcDbEntity
  8
0
100
AcDbBlockEnd
  0
BLOCK
  5
1C
330
1B
100
AcDbEntity
 67
     1
  8
0
100
AcDbBlockBegin
  2
*PAPER_SPACE
 70
     0
 10
0.0
 20
0.0
 30
0.0
  3
*PAPER_SPACE
  1

  0
ENDBLK
  5
1D
330
1B
100
AcDbEntity
 67
     1
  8
0
100
AcDbBlockEnd
  0
ENDSEC
  0
SECTION
  2
ENTITIES
  0
LWPOLYLINE
  5
100
330
1F
100
AcDbEntity
  8
0
100
AcDbPolyline
 90
        4
 70
     1
 43
0.0
 10
35.71030225521744
 20
15.57970726006648
 10
35.71030225521744
 20
14.57970726006648
 10
35.89780225521745
 20
14.57970726006648
 10
35.89780225521745
 20
15.57970726006648
  0
LWPOLYLINE
  5
101
330
1F
100
AcDbEntity
  8
0
100
AcDbPolyline
 90
        4
 70
     1
 43
0.0
 10
16.14780225521744
 20
11.90161127714769
 10
15.96030225521744
 20
11.90161127714769
 10
15.96030225521744
 20
10.90161127714769
 10
16.14780225521744
 20
10.90161127714769
  0
LWPOLYLINE
  5
102
330
1F
100
AcDbEntity
  8
0
100
AcDbPolyline
 90
        4
 70
     1
 43
0.0
 10
20.89780225521744
 20
15.57970726006649
 10
20.89780225521744
 20
14.57970726006649
 10
21.08530225521743
 20
14.57970726006649
 10
21.08530225521743
 20
15.57970726006649
  0
LWPOLYLINE
  5
103
330
1F
100
AcDbEntity
  8
0
100
AcDbPolyline
 90
        4
 70
     1
 43
0.0
 10
1.335302255217437
 20
17.5797072600665
 10
1.335302255217437
 20
16.5797072600665
 10
1.147802255217437
 20
16.5797072600665
 10
1.147802255217437
 20
17.5797072600665
  0
LWPOLYLINE
  5
104
330
1F
100
AcDbEntity
  8
0
100
AcDbPolyline
 90
        4
 70
     1
 43
0.0
 10
6.272802255217436
 20
15.5797072600665
 10
6.272802255217436
 20
14.5797072600665
 10
6.085302255217437
 20
14.5797072600665
 10
6.085302255217438
 20
15.5797072600665
  0
LWPOLYLINE
  5
105
330
1F
100
AcDbEntity
  8
0
100
AcDbPolyline
 90
        4
 70
     1
 43
0.0
 10
30.96030225521745
 20
15.57970726006649
 10
30.96030225521745
 20
14.57970726006649
 10
30.77280225521745
 20
14.57970726006649
 10
30.77280225521745
 20
15.57970726006649
  0
LWPOLYLINE
  5
106
330
1F
100
AcDbEntity
  8
0
100
AcDbPolyline
 90
        4
 70
     1
 43
0.0
 10
35.89780225521744
 20
9.901611277147683
 10
35.89780225521744
 20
8.90161127714769
 10
35.71030225521744
 20
8.901611277147683
 10
35.71030225521744
 20
9.901611277147683
  0
LWPOLYLINE
  5
107
330
1F
100
AcDbEntity
  8
0
100
AcDbPolyline
 90
        4
 70
     1
 43
0.0
 10
15.96030225521744
 20
17.57970726006649
 10
16.14780225521744
 20
17.57970726006649
 10
16.14780225521744
 20
16.57970726006649
 10
15.96030225521744
 20
16.57970726006649
  0
LWPOLYLINE
  5
108
330
1F
100
AcDbEntity
  8
0
100
AcDbPolyline
 90
        4
 70
     1
 43
0.0
 10
1.147802255217438
 20
19.5797072600665
 10
1.335302255217438
 20
19.5797072600665
 10
1.335302255217437
 20
18.5797072600665
 10
1.147802255217438
 20
18.5797072600665
  0
LWPOLYLINE
  5
109
330
1F
100
AcDbEntity
  8
0
100
AcDbPolyline
 90
       44
 70
     1
 43
0.0
 10
1.1394724374095
 20
30.8147649960996
 10
0.1394724374095006
 20
30.8147649960996
 10
0.1394724374094986
 20
20.81476499609961
 10
46.78245583535601
 20
20.8147649960996
 10
46.76447243740951
 20
30.81476499609959
 10
45.7644724374095
 20
30.81476499609959
 10
45.7644724374095
 20
29.81476499609959
 10
45.57697243740949
 20
29.81476499609959
 10
45.57697243740949
 20
30.81476499609959
 10
40.82697243740951
 20
30.81476499609959
 10
40.82697243740949
 20
29.81476499609959
 10
40.63947243740949
 20
29.81476499609959
 10
40.63947243740949
 20
30.81476499609959
 10
35.8894724374095
 20
30.81476499609959
 10
35.8894724374095
 20
29.81476499609959
 10
35.7019724374095
 20
29.81476499609959
 10
35.7019724374095
 20
30.81476499609959
 10
30.9519724374095
 20
30.81476499609959
 10
30.9519724374095
 20
29.81476499609959
 10
30.7644724374095
 20
29.81476499609959
 10
30.76447243740951
 20
30.81476499609959
 10
26.0144724374095
 20
30.81476499609959
 10
26.0144724374095
 20
29.81476499609959
 10
25.8269724374095
 20
29.81476499609959
 10
25.8269724374095
 20
30.81476499609959
 10
21.0769724374095
 20
30.8147649960996
 10
21.0769724374095
 20
29.8147649960996
 10
20.8894724374095
 20
29.8147649960996
 10
20.88947243740951
 20
30.8147649960996
 10
16.1394724374095
 20
30.8147649960996
 10
16.1394724374095
 20
29.8147649960996
 10
15.9519724374095
 20
29.8147649960996
 10
15.9519724374095
 20
30.8147649960996
 10
11.2019724374095
 20
30.8147649960996
 10
11.2019724374095
 20
29.8147649960996
 10
11.0144724374095
 20
29.8147649960996
 10
11.01447243740949
 20
30.8147649960996
 10
6.264472437409501
 20
30.8147649960996
 10
6.264472437409501
 20
29.8147649960996
 10
6.0769724374095
 20
29.8147649960996
 10
6.0769724374095
 20
30.8147649960996
 10
1.326972437409501
 20
30.8147649960996
 10
1.326972437409501
 20
29.8147649960996
 10
1.139472437409499
 20
29.8147649960996
  0
LWPOLYLINE
  5
110
330
1F
100
AcDbEntity
  8
0
100
AcDbPolyline
 90
        4
 70
     1
 43
0.0
 10
20.89780225521744
 20
11.90161127714769
 10
20.89780225521744
 20
10.90161127714769
 10
21.08530225521744
 20
10.90161127714769
 10
21.08530225521744
 20
11.90161127714769
  0
LWPOLYLINE
  5
111
330
1F
100
AcDbEntity
  8
0
100
AcDbPolyline
 90
        4
 70
     1
 43
0.0
 10
45.7644724374095
 20
28.81476499609959
 10
45.7644724374095
 20
27.81476499609959
 10
45.57697243740949
 20
27.81476499609959
 10
45.57697243740949
 20
28.81476499609959
  0
LWPOLYLINE
  5
112
330
1F
100
AcDbEntity
  8
0
100
AcDbPolyline
 90
        4
 70
     1
 43
0.0
 10
45.58530225521746
 20
17.57970726006648
 10
45.58530225521746
 20
16.57970726006648
 10
45.77280225521744
 20
16.57970726006648
 10
45.77280225521744
 20
17.57970726006648
  0
LWPOLYLINE
  5
113
330
1F
100
AcDbEntity
  8
0
100
AcDbPolyline
 90
        4
 70
     1
 43
0.0
 10
25.8269724374095
 20
23.8147649960996
 10
25.8269724374095
 20
24.8147649960996
 10
26.01447243740951
 20
24.8147649960996
 10
26.0144724374095
 20
23.8147649960996
  0
LWPOLYLINE
  5
114
330
1F
100
AcDbEntity
  8
0
100
AcDbPolyline
 90
        4
 70
     1
 43
0.0
 10
30.95197243740951
 20
28.8147649960996
 10
30.7644724374095
 20
28.8147649960996
 10
30.7644724374095
 20
27.8147649960996
 10
30.9519724374095
 20
27.8147649960996
  0
LWPOLYLINE
  5
115
330
1F
100
AcDbEntity
  8
0
100
AcDbPolyline
 90
        4
 70
     1
 43
0.0
 10
11.02280225521743
 20
5.901611277147694
 10
11.02280225521743
 20
4.901611277147694
 10
11.21030225521743
 20
4.901611277147694
 10
11.21030225521743
 20
5.901611277147694
  0
LWPOLYLINE
  5
116
330
1F
100
AcDbEntity
  8
0
100
AcDbPolyline
 90
        4
 70
     1
 43
0.0
 10
25.8269724374095
 20
25.81476499609959
 10
25.8269724374095
 20
26.8147649960996
 10
26.01447243740951
 20
26.8147649960996
 10
26.0144724374095
 20
25.81476499609959
  0
LWPOLYLINE
  5
117
330
1F
100
AcDbEntity
  8
0
100
AcDbPolyline
 90
        4
 70
     1
 43
0.0
 10
30.95197243740951
 20
22.8147649960996
 10
30.7644724374095
 20
22.8147649960996
 10
30.7644724374095
 20
21.8147649960996
 10
30.9519724374095
 20
21.8147649960996
  0
LWPOLYLINE
  5
118
330
1F
100
AcDbEntity
  8
0
100
AcDbPolyline
 90
        4
 70
     1
 43
0.0
 10
6.27280225521744
 20
5.901611277147697
 10
6.08530225521744
 20
5.901611277147697
 10
6.085302255217439
 20
4.901611277147697
 10
6.272802255217439
 20
4.901611277147697
  0
LWPOLYLINE
  5
119
330
1F
100
AcDbEntity
  8
0
100
AcDbPolyline
 90
        4
 70
     1
 43
0.0
 10
6.264472437409501
 20
28.8147649960996
 10
6.0769724374095
 20
28.8147649960996
 10
6.076972437409499
 20
27.8147649960996
 10
6.264472437409501
 20
27.8147649960996
  0
LWPOLYLINE
  5
120
330
1F
100
AcDbEntity
  8
0
100
AcDbPolyline
 90
        4
 70
     1
 43
0.0
 10
35.89780225521745
 20
19.57970726006648
 10
35.89780225521745
 20
18.57970726006648
 10
35.71030225521744
 20
18.57970726006648
 10
35.71030225521744
 20
19.57970726006648
  0
LWPOLYLINE
  5
121
330
1F
100
AcDbEntity
  8
0
100
AcDbPolyline
 90
        4
 70
     1
 43
0.0
 10
45.77280225521743
 20
8.901611277147676
 10
45.58530225521743
 20
8.901611277147676
 10
45.58530225521743
 20
9.901611277147676
 10
45.77280225521743
 20
9.901611277147676
  0
LWPOLYLINE
  5
122
330
1F
100
AcDbEntity
  8
0
100
AcDbPolyline
 90
        4
 70
     1
 43
0.0
 10
15.96030225521744
 20
15.57970726006649
 10
15.96030225521744
 20
14.57970726006649
 10
16.14780225521744
 20
14.57970726006649
 10
16.14780225521744
 20
15.57970726006649
  0
LWPOLYLINE
  5
123
330
1F
100
AcDbEntity
  8
0
100
AcDbPolyline
 90
        4
 70
     1
 43
0.0
 10
11.21030225521743
 20
2.901611277147694
 10
11.02280225521743
 20
2.901611277147694
 10
11.02280225521743
 20
3.901611277147694
 10
11.21030225521743
 20
3.901611277147694
  0
LWPOLYLINE
  5
124
330
1F
100
AcDbEntity
  8
0
100
AcDbPolyline
 90
        4
 70
     1
 43
0.0
 10
11.02280225521743
 20
15.57970726006649
 10
11.21030225521743
 20
15.57970726006649
 10
11.21030225521743
 20
14.57970726006649
 10
11.02280225521743
 20
14.57970726006649
  0
LWPOLYLINE
  5
125
330
1F
100
AcDbEntity
  8
0
100
AcDbPolyline
 90
        4
 70
     1
 43
0.0
 10
21.08530225521744
 20
2.901611277147686
 10
20.89780225521744
 20
2.901611277147686
 10
20.89780225521744
 20
3.901611277147679
 10
21.08530225521744
 20
3.901611277147679
  0
LWPOLYLINE
  5
126
330
1F
100
AcDbEntity
  8
0
100
AcDbPolyline
 90
        4
 70
     1
 43
0.0
 10
16.14780225521744
 20
18.57970726006649
 10
15.96030225521744
 20
18.57970726006649
 10
15.96030225521744
 20
19.57970726006649
 10
16.14780225521744
 20
19.57970726006649
  0
LWPOLYLINE
  5
127
330
1F
100
AcDbEntity
  8
0
100
AcDbPolyline
 90
        4
 70
     1
 43
0.0
 10
1.3269724374095
 20
26.8147649960996
 10
1.3269724374095
 20
25.8147649960996
 10
1.139472437409499
 20
25.8147649960996
 10
1.139472437409499
 20
26.8147649960996
  0
LWPOLYLINE
  5
128
330
1F
100
AcDbEntity
  8
0
100
AcDbPolyline
 90
        4
 70
     1
 43
0.0
 10
26.02280225521745
 20
17.57970726006649
 10
26.02280225521745
 20
16.57970726006649
 10
25.83530225521745
 20
16.57970726006649
 10
25.83530225521745
 20
17.57970726006649
  0
LWPOLYLINE
  5
129
330
1F
100
AcDbEntity
  8
0
100
AcDbPolyline
 90
        4
 70
     1
 43
0.0
 10
35.89780225521744
 20
7.901611277147683
 10
35.71030225521744
 20
7.901611277147683
 10
35.71030225521744
 20
6.901611277147683
 10
35.89780225521744
 20
6.901611277147683
  0
LWPOLYLINE
  5
130
330
1F
100
AcDbEntity
  8
0
100
AcDbPolyline
 90
        4
 70
     1
 43
0.0
 10
45.57697243740949
 20
23.81476499609959
 10
45.57697243740949
 20
24.81476499609959
 10
45.7644724374095
 20
24.81476499609959
 10
45.7644724374095
 20
23.81476499609959
  0
LWPOLYLINE
  5
131
330
1F
100
AcDbEntity
  8
0
100
AcDbPolyline
 90
        4
 70
     1
 43
0.0
 10
45.77280225521743
 20
4.901611277147683
 10
45.58530225521743
 20
4.901611277147683
 10
45.58530225521743
 20
5.901611277147683
 10
45.77280225521743
 20
5.901611277147683
  0
LWPOLYLINE
  5
132
330
1F
100
AcDbEntity
  8
0
100
AcDbPolyline
 90
        4
 70
     1
 43
0.0
 10
11.20197243740949
 20
21.8147649960996
 10
11.01447243740949
 20
21.8147649960996
 10
11.01447243740949
 20
22.8147649960996
 10
11.20197243740949
 20
22.8147649960996
  0
LWPOLYLINE
  5
133
330
1F
100
AcDbEntity
  8
0
100
AcDbPolyline
 90
        4
 70
     1
 43
0.0
 10
11.01447243740949
 20
25.8147649960996
 10
11.0144724374095
 20
26.8147649960996
 10
11.2019724374095
 20
26.8147649960996
 10
11.20197243740949
 20
25.8147649960996
  0
LWPOLYLINE
  5
134
330
1F
100
AcDbEntity
  8
0
100
AcDbPolyline
 90
        4
 70
     1
 43
0.0
 10
25.82697243740949
 20
27.8147649960996
 10
26.0144724374095
 20
27.8147649960996
 10
26.01447243740951
 20
28.8147649960996
 10
25.8269724374095
 20
28.8147649960996
  0
LWPOLYLINE
  5
135
330
1F
100
AcDbEntity
  8
0
100
AcDbPolyline
 90
        4
 70
     1
 43
0.0
 10
11.20197243740949
 20
24.8147649960996
 10
11.20197243740949
 20
23.8147649960996
 10
11.01447243740949
 20
23.8147649960996
 10
11.01447243740949
 20
24.8147649960996
  0
LWPOLYLINE
  5
136
330
1F
100
AcDbEntity
  8
0
100
AcDbPolyline
 90
        4
 70
     1
 43
0.0
 10
35.89780225521744
 20
2.901611277147683
 10
35.71030225521744
 20
2.901611277147683
 10
35.71030225521744
 20
3.901611277147676
 10
35.89780225521744
 20
3.901611277147676
  0
LWPOLYLINE
  5
137
330
1F
100
AcDbEntity
  8
0
100
AcDbPolyline
 90
        4
 70
     1
 43
0.0
 10
15.9519724374095
 20
25.8147649960996
 10
15.9519724374095
 20
26.8147649960996
 10
16.1394724374095
 20
26.8147649960996
 10
16.1394724374095
 20
25.8147649960996
  0
LWPOLYLINE
  5
138
330
1F
100
AcDbEntity
  8
0
100
AcDbPolyline
 90
        4
 70
     1
 43
0.0
 10
1.147802255217437
 20
15.5797072600665
 10
1.147802255217437
 20
14.5797072600665
 10
1.335302255217437
 20
14.5797072600665
 10
1.335302255217437
 20
15.5797072600665
  0
LWPOLYLINE
  5
139
330
1F
100
AcDbEntity
  8
0
100
AcDbPolyline
 90
        4
 70
     1
 43
0.0
 10
6.076972437409499
 20
25.8147649960996
 10
6.264472437409501
 20
25.8147649960996
 10
6.264472437409501
 20
26.8147649960996
 10
6.076972437409499
 20
26.8147649960996
  0
LWPOLYLINE
  5
140
330
1F
100
AcDbEntity
  8
0
100
AcDbPolyline
 90
        4
 70
     1
 43
0.0
 10
35.8894724374095
 20
22.8147649960996
 10
35.8894724374095
 20
21.81476499609959
 10
35.7019724374095
 20
21.81476499609959
 10
35.7019724374095
 20
22.8147649960996
  0
LWPOLYLINE
  5
141
330
1F
100
AcDbEntity
  8
0
100
AcDbPolyline
 90
        4
 70
     1
 43
0.0
 10
40.83530225521744
 20
14.57970726006648
 10
40.64780225521744
 20
14.57970726006648
 10
40.64780225521744
 20
15.57970726006648
 10
40.83530225521744
 20
15.57970726006648
  0
LWPOLYLINE
  5
142
330
1F
100
AcDbEntity
  8
0
100
AcDbPolyline
 90
        4
 70
     1
 43
0.0
 10
40.83530225521744
 20
17.57970726006648
 10
40.83530225521744
 20
16.57970726006648
 10
40.64780225521744
 20
16.57970726006648
 10
40.64780225521744
 20
17.57970726006648
  0
LWPOLYLINE
  5
143
330
1F
100
AcDbEntity
  8
0
100
AcDbPolyline
 90
        4
 70
     1
 43
0.0
 10
40.82697243740949
 20
28.81476499609959
 10
40.82697243740949
 20
27.8147649960996
 10
40.63947243740949
 20
27.8147649960996
 10
40.6394724374095
 20
28.81476499609959
  0
LWPOLYLINE
  5
144
330
1F
100
AcDbEntity
  8
0
100
AcDbPolyline
 90
        4
 70
     1
 43
0.0
 10
40.82697243740949
 20
24.81476499609959
 10
40.82697243740949
 20
23.81476499609959
 10
40.6394724374095
 20
23.81476499609959
 10
40.6394724374095
 20
24.81476499609959
  0
LWPOLYLINE
  5
145
330
1F
100
AcDbEntity
  8
0
100
AcDbPolyline
 90
        4
 70
     1
 43
0.0
 10
6.085302255217441
 20
7.901611277147697
 10
6.085302255217441
 20
6.901611277147697
 10
6.272802255217441
 20
6.901611277147697
 10
6.27280225521744
 20
7.901611277147697
  0
LWPOLYLINE
  5
146
330
1F
100
AcDbEntity
  8
0
100
AcDbPolyline
 90
        4
 70
     1
 43
0.0
 10
35.89780225521745
 20
16.57970726006648
 10
35.71030225521744
 20
16.57970726006648
 10
35.71030225521744
 20
17.57970726006649
 10
35.89780225521745
 20
17.57970726006649
  0
LWPOLYLINE
  5
147
330
1F
100
AcDbEntity
  8
0
100
AcDbPolyline
 90
        4
 70
     1
 43
0.0
 10
11.02280225521744
 20
19.57970726006649
 10
11.02280225521744
 20
18.5797072600665
 10
11.21030225521744
 20
18.5797072600665
 10
11.21030225521744
 20
19.57970726006649
  0
LWPOLYLINE
  5
148
330
1F
100
AcDbEntity
  8
0
100
AcDbPolyline
 90
        4
 70
     1
 43
0.0
 10
30.96030225521744
 20
9.90161127714769
 10
30.77280225521744
 20
9.90161127714769
 10
30.77280225521744
 20
8.90161127714769
 10
30.96030225521744
 20
8.90161127714769
  0
LWPOLYLINE
  5
149
330
1F
100
AcDbEntity
  8
0
100
AcDbPolyline
 90
        4
 70
     1
 43
0.0
 10
11.21030225521744
 20
10.90161127714769
 10
11.02280225521744
 20
10.90161127714769
 10
11.02280225521744
 20
11.90161127714769
 10
11.21030225521744
 20
11.90161127714769
  0
LWPOLYLINE
  5
150
330
1F
100
AcDbEntity
  8
0
100
AcDbPolyline
 90
        4
 70
     1
 43
0.0
 10
26.02280225521744
 20
11.90161127714769
 10
25.83530225521744
 20
11.90161127714769
 10
25.83530225521744
 20
10.90161127714769
 10
26.02280225521744
 20
10.90161127714769
  0
LWPOLYLINE
  5
151
330
1F
100
AcDbEntity
  8
0
100
AcDbPolyline
 90
        4
 70
     1
 43
0.0
 10
35.71030225521744
 20
5.901611277147683
 10
35.71030225521744
 20
4.901611277147683
 10
35.89780225521744
 20
4.901611277147683
 10
35.89780225521744
 20
5.901611277147683
  0
LWPOLYLINE
  5
152
330
1F
100
AcDbEntity
  8
0
100
AcDbPolyline
 90
        4
 70
     1
 43
0.0
 10
1.326972437409499
 20
24.8147649960996
 10
1.139472437409499
 20
24.8147649960996
 10
1.139472437409498
 20
23.8147649960996
 10
1.326972437409499
 20
23.8147649960996
  0
LWPOLYLINE
  5
153
330
1F
100
AcDbEntity
  8
0
100
AcDbPolyline
 90
        4
 70
     1
 43
0.0
 10
35.89780225521744
 20
11.90161127714768
 10
35.71030225521744
 20
11.90161127714768
 10
35.71030225521744
 20
10.90161127714768
 10
35.89780225521744
 20
10.90161127714768
  0
LWPOLYLINE
  5
154
330
1F
100
AcDbEntity
  8
0
100
AcDbPolyline
 90
        4
 70
     1
 43
0.0
 10
40.83530225521744
 20
7.901611277147683
 10
40.83530225521744
 20
6.901611277147683
 10
40.64780225521743
 20
6.901611277147683
 10
40.64780225521743
 20
7.901611277147683
  0
LWPOLYLINE
  5
155
330
1F
100
AcDbEntity
  8
0
100
AcDbPolyline
 90
        4
 70
     1
 43
0.0
 10
1.14780225521744
 20
7.901611277147697
 10
1.14780225521744
 20
6.901611277147697
 10
1.33530225521744
 20
6.901611277147697
 10
1.33530225521744
 20
7.901611277147697
  0
LWPOLYLINE
  5
156
330
1F
100
AcDbEntity
  8
0
100
AcDbPolyline
 90
        4
 70
     1
 43
0.0
 10
1.147802255217441
 20
9.901611277147697
 10
1.147802255217441
 20
8.901611277147697
 10
1.33530225521744
 20
8.901611277147697
 10
1.33530225521744
 20
9.901611277147697
  0
LWPOLYLINE
  5
157
330
1F
100
AcDbEntity
  8
0
100
AcDbPolyline
 90
        4
 70
     1
 43
0.0
 10
0.1478022552174377
 20
13.5797072600665
 10
0.1478022552174398
 20
20.5797072600665
 10
46.77280225521744
 20
20.57970726006649
 10
46.77280225521744
 20
13.57970726006649
  0
LWPOLYLINE
  5
158
330
1F
100
AcDbEntity
  8
0
100
AcDbPolyline
 90
        4
 70
     1
 43
0.0
 10
40.83530225521744
 20
11.90161127714768
 10
40.64780225521743
 20
11.90161127714768
 10
40.64780225521743
 20
10.90161127714768
 10
40.83530225521744
 20
10.90161127714768
  0
LWPOLYLINE
  5
159
330
1F
100
AcDbEntity
  8
0
100
AcDbPolyline
 90
        4
 70
     1
 43
0.0
 10
26.02280225521744
 20
9.901611277147694
 10
26.02280225521744
 20
8.901611277147694
 10
25.83530225521744
 20
8.901611277147694
 10
25.83530225521744
 20
9.901611277147694
  0
LWPOLYLINE
  5
160
330
1F
100
AcDbEntity
  8
0
100
AcDbPolyline
 90
        4
 70
     1
 43
0.0
 10
1.139472437409498
 20
21.8147649960996
 10
1.139472437409498
 20
22.8147649960996
 10
1.326972437409498
 20
22.81476499609961
 10
1.326972437409498
 20
21.8147649960996
  0
LWPOLYLINE
  5
161
330
1F
100
AcDbEntity
  8
0
100
AcDbPolyline
 90
        4
 70
     1
 43
0.0
 10
16.1394724374095
 20
22.8147649960996
 10
15.9519724374095
 20
22.8147649960996
 10
15.9519724374095
 20
21.8147649960996
 10
16.1394724374095
 20
21.8147649960996
  0
LWPOLYLINE
  5
162
330
1F
100
AcDbEntity
  8
0
100
AcDbPolyline
 90
        4
 70
     1
 43
0.0
 10
6.272802255217436
 20
16.5797072600665
 10
6.085302255217438
 20
16.5797072600665
 10
6.085302255217438
 20
17.5797072600665
 10
6.272802255217436
 20
17.5797072600665
  0
LWPOLYLINE
  5
163
330
1F
100
AcDbEntity
  8
0
100
AcDbPolyline
 90
        4
 70
     1
 43
0.0
 10
15.96030225521744
 20
3.901611277147694
 10
15.96030225521744
 20
2.901611277147694
 10
16.14780225521744
 20
2.901611277147694
 10
16.14780225521744
 20
3.901611277147694
  0
LWPOLYLINE
  5
164
330
1F
100
AcDbEntity
  8
0
100
AcDbPolyline
 90
        4
 70
     1
 43
0.0
 10
40.64780225521744
 20
19.57970726006648
 10
40.83530225521744
 20
19.57970726006648
 10
40.83530225521744
 20
18.57970726006648
 10
40.64780225521744
 20
18.57970726006648
  0
LWPOLYLINE
  5
165
330
1F
100
AcDbEntity
  8
0
100
AcDbPolyline
 90
        4
 70
     1
 43
0.0
 10
30.96030225521745
 20
18.57970726006649
 10
30.77280225521745
 20
18.57970726006649
 10
30.77280225521745
 20
19.57970726006649
 10
30.96030225521745
 20
19.57970726006649
  0
LWPOLYLINE
  5
166
330
1F
100
AcDbEntity
  8
0
100
AcDbPolyline
 90
        4
 70
     1
 43
0.0
 10
45.58530225521743
 20
7.901611277147676
 10
45.58530225521743
 20
6.901611277147683
 10
45.77280225521743
 20
6.901611277147683
 10
45.77280225521743
 20
7.901611277147676
  0
LWPOLYLINE
  5
167
330
1F
100
AcDbEntity
  8
0
100
AcDbPolyline
 90
        4
 70
     1
 43
0.0
 10
35.88947243740951
 20
28.8147649960996
 10
35.7019724374095
 20
28.8147649960996
 10
35.7019724374095
 20
27.8147649960996
 10
35.8894724374095
 20
27.8147649960996
  0
LWPOLYLINE
  5
168
330
1F
100
AcDbEntity
  8
0
100
AcDbPolyline
 90
        4
 70
     1
 43
0.0
 10
16.14780225521744
 20
7.901611277147694
 10
15.96030225521744
 20
7.901611277147694
 10
15.96030225521744
 20
6.901611277147694
 10
16.14780225521744
 20
6.901611277147694
  0
LWPOLYLINE
  5
169
330
1F
100
AcDbEntity
  8
0
100
AcDbPolyline
 90
        4
 70
     1
 43
0.0
 10
45.77280225521743
 20
11.90161127714767
 10
45.58530225521743
 20
11.90161127714767
 10
45.58530225521743
 20
10.90161127714767
 10
45.77280225521743
 20
10.90161127714767
  0
LWPOLYLINE
  5
170
330
1F
100
AcDbEntity
  8
0
100
AcDbPolyline
 90
        4
 70
     1
 43
0.0
 10
15.9519724374095
 20
23.8147649960996
 10
16.1394724374095
 20
23.8147649960996
 10
16.1394724374095
 20
24.8147649960996
 10
15.9519724374095
 20
24.8147649960996
  0
LWPOLYLINE
  5
171
330
1F
100
AcDbEntity
  8
0
100
AcDbPolyline
 90
        4
 70
     1
 43
0.0
 10
40.83530225521744
 20
8.901611277147683
 10
40.64780225521743
 20
8.901611277147683
 10
40.64780225521743
 20
9.901611277147683
 10
40.83530225521744
 20
9.901611277147683
  0
LWPOLYLINE
  5
172
330
1F
100
AcDbEntity
  8
0
100
AcDbPolyline
 90
        4
 70
     1
 43
0.0
 10
1.33530225521744
 20
11.9016112771477
 10
1.33530225521744
 20
10.9016112771477
 10
1.147802255217442
 20
10.9016112771477
 10
1.147802255217442
 20
11.9016112771477
  0
LWPOLYLINE
  5
173
330
1F
100
AcDbEntity
  8
0
100
AcDbPolyline
 90
        4
 70
     1
 43
0.0
 10
15.9519724374095
 20
27.8147649960996
 10
16.1394724374095
 20
27.8147649960996
 10
16.1394724374095
 20
28.8147649960996
 10
15.9519724374095
 20
28.8147649960996
  0
LWPOLYLINE
  5
174
330
1F
100
AcDbEntity
  8
0
100
AcDbPolyline
 90
        4
 70
     1
 43
0.0
 10
21.0769724374095
 20
22.8147649960996
 10
21.0769724374095
 20
21.8147649960996
 10
20.8894724374095
 20
21.8147649960996
 10
20.8894724374095
 20
22.8147649960996
  0
LWPOLYLINE
  5
175
330
1F
100
AcDbEntity
  8
0
100
AcDbPolyline
 90
        4
 70
     1
 43
0.0
 10
11.2019724374095
 20
28.8147649960996
 10
11.0144724374095
 20
28.8147649960996
 10
11.0144724374095
 20
27.8147649960996
 10
11.2019724374095
 20
27.8147649960996
  0
LWPOLYLINE
  5
176
330
1F
100
AcDbEntity
  8
0
100
AcDbPolyline
 90
        4
 70
     1
 43
0.0
 10
1.3269724374095
 20
28.8147649960996
 10
1.139472437409499
 20
28.8147649960996
 10
1.139472437409499
 20
27.8147649960996
 10
1.3269724374095
 20
27.8147649960996
  0
LWPOLYLINE
  5
177
330
1F
100
AcDbEntity
  8
0
100
AcDbPolyline
 90
        4
 70
     1
 43
0.0
 10
20.89780225521744
 20
7.901611277147694
 10
20.89780225521744
 20
6.901611277147694
 10
21.08530225521744
 20
6.901611277147694
 10
21.08530225521744
 20
7.901611277147694
  0
LWPOLYLINE
  5
178
330
1F
100
AcDbEntity
  8
0
100
AcDbPolyline
 90
        4
 70
     1
 43
0.0
 10
6.272802255217439
 20
2.901611277147697
 10
6.085302255217439
 20
2.901611277147697
 10
6.085302255217439
 20
3.901611277147697
 10
6.272802255217439
 20
3.901611277147697
  0
LWPOLYLINE
  5
179
330
1F
100
AcDbEntity
  8
0
100
AcDbPolyline
 90
        4
 70
     1
 43
0.0
 10
20.89780225521744
 20
9.901611277147694
 10
20.89780225521744
 20
8.901611277147694
 10
21.08530225521744
 20
8.901611277147694
 10
21.08530225521744
 20
9.901611277147694
  0
LWPOLYLINE
  5
180
330
1F
100
AcDbEntity
  8
0
100
AcDbPolyline
 90
        4
 70
     1
 43
0.0
 10
1.33530225521744
 20
4.901611277147697
 10
1.14780225521744
 20
4.901611277147697
 10
1.14780225521744
 20
5.901611277147697
 10
1.33530225521744
 20
5.901611277147697
  0
LWPOLYLINE
  5
181
330
1F
100
AcDbEntity
  8
0
100
AcDbPolyline
 90
        4
 70
     1
 43
0.0
 10
35.8894724374095
 20
24.81476499609959
 10
35.8894724374095
 20
23.81476499609959
 10
35.7019724374095
 20
23.81476499609959
 10
35.7019724374095
 20
24.81476499609959
  0
LWPOLYLINE
  5
182
330
1F
100
AcDbEntity
  8
0
100
AcDbPolyline
 90
        4
 70
     1
 43
0.0
 10
35.88947243740951
 20
26.8147649960996
 10
35.7019724374095
 20
26.8147649960996
 10
35.7019724374095
 20
25.81476499609959
 10
35.8894724374095
 20
25.81476499609959
  0
LWPOLYLINE
  5
183
330
1F
100
AcDbEntity
  8
0
100
AcDbPolyline
 90
        4
 70
     1
 43
0.0
 10
40.8269724374095
 20
22.8147649960996
 10
40.6394724374095
 20
22.8147649960996
 10
40.6394724374095
 20
21.81476499609959
 10
40.82697243740949
 20
21.81476499609959
  0
LWPOLYLINE
  5
184
330
1F
100
AcDbEntity
  8
0
100
AcDbPolyline
 90
        4
 70
     1
 43
0.0
 10
40.83530225521744
 20
3.901611277147676
 10
40.83530225521744
 20
2.901611277147683
 10
40.64780225521743
 20
2.901611277147683
 10
40.64780225521743
 20
3.901611277147676
  0
LWPOLYLINE
  5
185
330
1F
100
AcDbEntity
  8
0
100
AcDbPolyline
 90
        4
 70
     1
 43
0.0
 10
45.77280225521743
 20
2.901611277147683
 10
45.58530225521743
 20
2.901611277147683
 10
45.58530225521743
 20
3.901611277147676
 10
45.77280225521743
 20
3.901611277147676
  0
LWPOLYLINE
  5
186
330
1F
100
AcDbEntity
  8
0
100
AcDbPolyline
 90
        4
 70
     1
 43
0.0
 10
40.83530225521744
 20
5.901611277147683
 10
40.64780225521743
 20
5.901611277147683
 10
40.64780225521743
 20
4.901611277147683
 10
40.83530225521744
 20
4.901611277147683
  0
LWPOLYLINE
  5
187
330
1F
100
AcDbEntity
  8
0
100
AcDbPolyline
 90
        4
 70
     1
 43
0.0
 10
21.0769724374095
 20
28.8147649960996
 10
20.8894724374095
 20
28.8147649960996
 10
20.8894724374095
 20
27.8147649960996
 10
21.0769724374095
 20
27.8147649960996
  0
LWPOLYLINE
  5
188
330
1F
100
AcDbEntity
  8
0
100
AcDbPolyline
 90
        4
 70
     1
 43
0.0
 10
30.96030225521744
 20
2.901611277147683
 10
30.77280225521743
 20
2.901611277147683
 10
30.77280225521744
 20
3.901611277147676
 10
30.96030225521744
 20
3.901611277147676
  0
LWPOLYLINE
  5
189
330
1F
100
AcDbEntity
  8
0
100
AcDbPolyline
 90
        4
 70
     1
 43
0.0
 10
30.77280225521744
 20
11.90161127714768
 10
30.77280225521744
 20
10.90161127714769
 10
30.96030225521744
 20
10.90161127714769
 10
30.96030225521744
 20
11.90161127714768
  0
LWPOLYLINE
  5
190
330
1F
100
AcDbEntity
  8
0
100
AcDbPolyline
 90
        4
 70
     1
 43
0.0
 10
45.7644724374095
 20
22.8147649960996
 10
45.7644724374095
 20
21.81476499609959
 10
45.57697243740949
 20
21.81476499609959
 10
45.57697243740949
 20
22.81476499609959
  0
LWPOLYLINE
  5
191
330
1F
100
AcDbEntity
  8
0
100
AcDbPolyline
 90
        4
 70
     1
 43
0.0
 10
-0.0334427190036877
 20
-0.0141087273109406
 10
-0.0334427190036819
 20
31.98589127268905
 10
47.96655728099632
 20
31.98589127268905
 10
47.96655728099631
 20
-0.0141087273109477
  0
LWPOLYLINE
  5
192
330
1F
100
AcDbEntity
  8
0
100
AcDbPolyline
 90
        4
 70
     1
 43
0.0
 10
16.14780225521744
 20
5.901611277147694
 10
15.96030225521744
 20
5.901611277147694
 10
15.96030225521744
 20
4.901611277147694
 10
16.14780225521744
 20
4.901611277147694
  0
LWPOLYLINE
  5
193
330
1F
100
AcDbEntity
  8
0
100
AcDbPolyline
 90
        4
 70
     1
 43
0.0
 10
6.085302255217439
 20
19.5797072600665
 10
6.272802255217438
 20
19.5797072600665
 10
6.272802255217438
 20
18.5797072600665
 10
6.085302255217439
 20
18.5797072600665
  0
LWPOLYLINE
  5
194
330
1F
100
AcDbEntity
  8
0
100
AcDbPolyline
 90
        4
 70
     1
 43
0.0
 10
11.21030225521743
 20
7.901611277147694
 10
11.21030225521743
 20
6.901611277147694
 10
11.02280225521743
 20
6.901611277147694
 10
11.02280225521743
 20
7.901611277147694
  0
LWPOLYLINE
  5
195
330
1F
100
AcDbEntity
  8
0
100
AcDbPolyline
 90
        4
 70
     1
 43
0.0
 10
0.1478022552174454
 20
12.90161127714771
 10
46.77280225521744
 20
12.90161127714771
 10
46.77280225521744
 20
1.90161127714769
 10
0.1478022552174407
 20
1.901611277147697
  0
LWPOLYLINE
  5
196
330
1F
100
AcDbEntity
  8
0
100
AcDbPolyline
 90
        4
 70
     1
 43
0.0
 10
6.264472437409498
 20
22.8147649960996
 10
6.076972437409498
 20
22.8147649960996
 10
6.076972437409498
 20
21.8147649960996
 10
6.264472437409498
 20
21.8147649960996
  0
LWPOLYLINE
  5
197
330
1F
100
AcDbEntity
  8
0
100
AcDbPolyline
 90
        4
 70
     1
 43
0.0
 10
11.21030225521744
 20
8.901611277147694
 10
11.02280225521744
 20
8.901611277147694
 10
11.02280225521744
 20
9.901611277147694
 10
11.21030225521744
 20
9.901611277147694
  0
LWPOLYLINE
  5
198
330
1F
100
AcDbEntity
  8
0
100
AcDbPolyline
 90
        4
 70
     1
 43
0.0
 10
21.08530225521744
 20
5.901611277147694
 10
21.08530225521744
 20
4.901611277147694
 10
20.89780225521744
 20
4.901611277147694
 10
20.89780225521744
 20
5.901611277147686
  0
LWPOLYLINE
  5
199
330
1F
100
AcDbEntity
  8
0
100
AcDbPolyline
 90
        4
 70
     1
 43
0.0
 10
30.96030225521745
 20
16.57970726006649
 10
30.77280225521745
 20
16.57970726006649
 10
30.77280225521745
 20
17.57970726006649
 10
30.96030225521745
 20
17.57970726006649
  0
LWPOLYLINE
  5
200
330
1F
100
AcDbEntity
  8
0
100
AcDbPolyline
 90
        4
 70
     1
 43
0.0
 10
45.7644724374095
 20
26.81476499609959
 10
45.7644724374095
 20
25.81476499609959
 10
45.57697243740949
 20
25.81476499609959
 10
45.57697243740949
 20
26.81476499609959
  0
LWPOLYLINE
  5
201
330
1F
100
AcDbEntity
  8
0
100
AcDbPolyline
 90
        4
 70
     1
 43
0.0
 10
30.96030225521744
 20
4.90161127714769
 10
30.77280225521744
 20
4.90161127714769
 10
30.77280225521744
 20
5.90161127714769
 10
30.96030225521744
 20
5.901611277147683
  0
LWPOLYLINE
  5
202
330
1F
100
AcDbEntity
  8
0
100
AcDbPolyline
 90
        4
 70
     1
 43
0.0
 10
26.02280225521744
 20
3.901611277147679
 10
26.02280225521744
 20
2.901611277147686
 10
25.83530225521744
 20
2.901611277147686
 10
25.83530225521744
 20
3.901611277147694
  0
LWPOLYLINE
  5
203
330
1F
100
AcDbEntity
  8
0
100
AcDbPolyline
 90
        4
 70
     1
 43
0.0
 10
21.08530225521743
 20
18.57970726006649
 10
20.89780225521744
 20
18.57970726006649
 10
20.89780225521744
 20
19.57970726006649
 10
21.08530225521743
 20
19.57970726006649
  0
LWPOLYLINE
  5
204
330
1F
100
AcDbEntity
  8
0
100
AcDbPolyline
 90
        4
 70
     1
 43
0.0
 10
30.9519724374095
 20
26.8147649960996
 10
30.9519724374095
 20
25.81476499609959
 10
30.7644724374095
 20
25.81476499609959
 10
30.7644724374095
 20
26.8147649960996
  0
LWPOLYLINE
  5
205
330
1F
100
AcDbEntity
  8
0
100
AcDbPolyline
 90
        4
 70
     1
 43
0.0
 10
25.83530225521745
 20
19.57970726006649
 10
26.02280225521745
 20
19.57970726006649
 10
26.02280225521745
 20
18.57970726006649
 10
25.83530225521745
 20
18.57970726006649
  0
LWPOLYLINE
  5
206
330
1F
100
AcDbEntity
  8
0
100
AcDbPolyline
 90
        4
 70
     1
 43
0.0
 10
25.83530225521744
 20
7.901611277147694
 10
25.83530225521744
 20
6.901611277147694
 10
26.02280225521744
 20
6.901611277147694
 10
26.02280225521744
 20
7.901611277147694
  0
LWPOLYLINE
  5
207
330
1F
100
AcDbEntity
  8
0
100
AcDbPolyline
 90
        4
 70
     1
 43
0.0
 10
11.02280225521744
 20
17.57970726006649
 10
11.02280225521743
 20
16.57970726006649
 10
11.21030225521743
 20
16.57970726006649
 10
11.21030225521744
 20
17.5797072600665
  0
LWPOLYLINE
  5
208
330
1F
100
AcDbEntity
  8
0
100
AcDbPolyline
 90
        4
 70
     1
 43
0.0
 10
25.83530225521745
 20
15.57970726006649
 10
26.02280225521745
 20
15.57970726006649
 10
26.02280225521745
 20
14.57970726006649
 10
25.83530225521745
 20
14.57970726006649
  0
LWPOLYLINE
  5
209
330
1F
100
AcDbEntity
  8
0
100
AcDbPolyline
 90
        4
 70
     1
 43
0.0
 10
21.08530225521743
 20
17.57970726006649
 10
21.08530225521743
 20
16.57970726006649
 10
20.89780225521744
 20
16.57970726006649
 10
20.89780225521744
 20
17.57970726006649
  0
LWPOLYLINE
  5
210
330
1F
100
AcDbEntity
  8
0
100
AcDbPolyline
 90
        4
 70
     1
 43
0.0
 10
1.147802255217439
 20
3.901611277147697
 10
1.147802255217439
 20
2.901611277147697
 10
1.335302255217439
 20
2.901611277147697
 10
1.335302255217439
 20
3.901611277147697
  0
LWPOLYLINE
  5
211
330
1F
100
AcDbEntity
  8
0
100
AcDbPolyline
 90
        4
 70
     1
 43
0.0
 10
25.8269724374095
 20
21.8147649960996
 10
25.8269724374095
 20
22.8147649960996
 10
26.0144724374095
 20
22.8147649960996
 10
26.0144724374095
 20
21.8147649960996
  0
LWPOLYLINE
  5
212
330
1F
100
AcDbEntity
  8
0
100
AcDbPolyline
 90
        4
 70
     1
 43
0.0
 10
20.8894724374095
 20
23.8147649960996
 10
20.8894724374095
 20
24.8147649960996
 10
21.0769724374095
 20
24.8147649960996
 10
21.0769724374095
 20
23.8147649960996
  0
LWPOLYLINE
  5
213
330
1F
100
AcDbEntity
  8
0
100
AcDbPolyline
 90
        4
 70
     1
 43
0.0
 10
21.0769724374095
 20
26.8147649960996
 10
21.0769724374095
 20
25.8147649960996
 10
20.8894724374095
 20
25.8147649960996
 10
20.8894724374095
 20
26.8147649960996
  0
LWPOLYLINE
  5
214
330
1F
100
AcDbEntity
  8
0
100
AcDbPolyline
 90
        4
 70
     1
 43
0.0
 10
45.58530225521746
 20
15.57970726006648
 10
45.77280225521744
 20
15.57970726006648
 10
45.77280225521744
 20
14.57970726006648
 10
45.58530225521746
 20
14.57970726006648
  0
LWPOLYLINE
  5
215
330
1F
100
AcDbEntity
  8
0
100
AcDbPolyline
 90
        4
 70
     1
 43
0.0
 10
45.77280225521744
 20
19.57970726006648
 10
45.77280225521744
 20
18.57970726006648
 10
45.58530225521746
 20
18.57970726006648
 10
45.58530225521746
 20
19.57970726006648
  0
LWPOLYLINE
  5
216
330
1F
100
AcDbEntity
  8
0
100
AcDbPolyline
 90
        4
 70
     1
 43
0.0
 10
6.076972437409498
 20
23.8147649960996
 10
6.2644724374095
 20
23.8147649960996
 10
6.264472437409501
 20
24.8147649960996
 10
6.076972437409499
 20
24.8147649960996
  0
LINE
  5
217
330
1F
100
AcDbEntity
  8
0
100
AcDbLine
 10
0.1394724374095006
 20
30.8147649960996
 30
0.0
 11
0.1394724374094988
 21
20.81476499609961
 31
0.0
  0
LWPOLYLINE
  5
218
330
1F
100
AcDbEntity
  8
0
100
AcDbPolyline
 90
        4
 70
     1
 43
0.0
 10
25.83530225521744
 20
5.901611277147694
 10
25.83530225521744
 20
4.901611277147694
 10
26.02280225521744
 20
4.901611277147694
 10
26.02280225521744
 20
5.901611277147694
  0
LWPOLYLINE
  5
219
330
1F
100
AcDbEntity
  8
0
100
AcDbPolyline
 90
        4
 70
     1
 43
0.0
 10
6.085302255217441
 20
9.901611277147697
 10
6.085302255217441
 20
8.901611277147697
 10
6.27280225521744
 20
8.901611277147697
 10
6.272802255217441
 20
9.901611277147697
  0
LWPOLYLINE
  5
220
330
1F
100
AcDbEntity
  8
0
100
AcDbPolyline
 90
        4
 70
     1
 43
0.0
 10
30.96030225521744
 20
7.90161127714769
 10
30.77280225521744
 20
7.90161127714769
 10
30.77280225521744
 20
6.90161127714769
 10
30.96030225521744
 20
6.90161127714769
  0
LWPOLYLINE
  5
221
330
1F
100
AcDbEntity
  8
0
100
AcDbPolyline
 90
        4
 70
     1
 43
0.0
 10
6.272802255217441
 20
11.9016112771477
 10
6.085302255217443
 20
11.9016112771477
 10
6.085302255217443
 20
10.9016112771477
 10
6.272802255217443
 20
10.9016112771477
  0
LWPOLYLINE
  5
222
330
1F
100
AcDbEntity
  8
0
100
AcDbPolyline
 90
        4
 70
     1
 43
0.0
 10
30.7644724374095
 20
23.81476499609959
 10
30.9519724374095
 20
23.81476499609959
 10
30.9519724374095
 20
24.81476499609959
 10
30.7644724374095
 20
24.81476499609959
  0
LWPOLYLINE
  5
223
330
1F
100
AcDbEntity
  8
0
100
AcDbPolyline
 90
        4
 70
     1
 43
0.0
 10
16.14780225521744
 20
9.901611277147694
 10
16.14780225521744
 20
8.901611277147694
 10
15.96030225521744
 20
8.901611277147694
 10
15.96030225521744
 20
9.901611277147694
  0
LWPOLYLINE
  5
224
330
1F
100
AcDbEntity
  8
0
100
AcDbPolyline
 90
        4
 70
     1
 43
0.0
 10
40.6394724374095
 20
25.81476499609959
 10
40.6394724374095
 20
26.81476499609959
 10
40.82697243740949
 20
26.8147649960996
 10
40.82697243740949
 20
25.81476499609959
  0
LINE
  5
225
330
1F
100
AcDbEntity
  8
0
100
AcDbLine
 10
17.13947243740949
 20
30.8147649960996
 30
0.0
 11
17.13947243740949
 21
30.8147649960996
 31
0.0
  0
SPLINE
  5
226
330
1F
100
AcDbEntity
  8
0
100
AcDbSpline
210
0.0
220
0.0
230
1.0
 70
  1160
 71
     3
 72
     8
 73
     4
 74
     0
 42
0.000000001
 43
0.0000000001
 40
0.0
 40
0.0
 40
0.0
 40
0.0
 40
1.0
 40
1.0
 40
1.0
 40
1.0
 10
44.83167909573142
 20
4.503752142375795
 30
0.0
 10
44.77461277755565
 20
4.688926521762489
 30
0.0
 10
44.60690767924316
 20
4.810046870543732
 30
0.0
 10
44.37281931284864
 20
4.835668482785912
 30
0.0
  0
SPLINE
  5
227
330
1F
100
AcDbEntity
  8
0
100
AcDbSpline
210
0.0
220
0.0
230
1.0
 70
  1160
 71
     3
 72
     8
 73
     4
 74
     0
 42
0.000000001
 43
0.0000000001
 40
0.0
 40
0.0
 40
0.0
 40
0.0
 40
1.0
 40
1.0
 40
1.0
 40
1.0
 10
44.37281931284864
 20
4.835668482785912
 30
0.0
 10
44.28081443252444
 20
4.846150051430448
 30
0.0
 10
44.1107800967354
 20
4.831010007832794
 30
0.0
 10
43.98383665426275
 20
4.800729920637479
 30
0.0
  0
SPLINE
  5
228
330
1F
100
AcDbEntity
  8
0
100
AcDbSpline
210
0.0
220
0.0
230
1.0
 70
  1160
 71
     3
 72
     8
 73
     4
 74
     0
 42
0.000000001
 43
0.0000000001
 40
0.0
 40
0.0
 40
0.0
 40
0.0
 40
1.0
 40
1.0
 40
1.0
 40
1.0
 10
43.98383665426275
 20
4.800729920637479
 30
0.0
 10
43.93142881104011
 20
4.787919114516391
 30
0.0
 10
43.88251482403229
 20
4.777437545871865
 30
0.0
 10
43.8755271116026
 20
4.777437545871865
 30
0.0
  0
SPLINE
  5
229
330
1F
100
AcDbEntity
  8
0
100
AcDbSpline
210
0.0
220
0.0
230
1.0
 70
  1160
 71
     3
 72
     8
 73
     4
 74
     0
 42
0.000000001
 43
0.0000000001
 40
0.0
 40
0.0
 40
0.0
 40
0.0
 40
1.0
 40
1.0
 40
1.0
 40
1.0
 10
43.8755271116026
 20
4.777437545871865
 30
0.0
 10
43.86504554295807
 20
4.777437545871865
 30
0.0
 10
43.86038706800496
 20
4.79956530189921
 30
0.0
 10
43.86038706800496
 20
4.850808526383577
 30
0.0
  0
SPLINE
  5
230
330
1F
100
AcDbEntity
  8
0
100
AcDbSpline
210
0.0
220
0.0
230
1.0
 70
  1160
 71
     3
 72
     8
 73
     4
 74
     0
 42
0.000000001
 43
0.0000000001
 40
0.0
 40
0.0
 40
0.0
 40
0.0
 40
1.0
 40
1.0
 40
1.0
 40
1.0
 10
43.86038706800496
 20
4.850808526383577
 30
0.0
 10
43.86038706800496
 20
4.927673363110127
 30
0.0
 10
43.83127159954792
 20
5.041805999461686
 30
0.0
 10
43.76139447525105
 20
5.239791184969469
 30
0.0
  0
SPLINE
  5
231
330
1F
100
AcDbEntity
  8
0
100
AcDbSpline
210
0.0
220
0.0
230
1.0
 70
  1160
 71
     3
 72
     8
 73
     4
 74
     0
 42
0.000000001
 43
0.0000000001
 40
0.0
 40
0.0
 40
0.0
 40
0.0
 40
1.0
 40
1.0
 40
1.0
 40
1.0
 10
43.76139447525105
 20
5.239791184969469
 30
0.0
 10
43.6903527322159
 20
5.441270226692115
 30
0.0
 10
43.69501120716903
 20
5.536768963231157
 30
0.0
 10
43.77886375632527
 20
5.617127656172563
 30
0.0
  0
SPLINE
  5
232
330
1F
100
AcDbEntity
  8
0
100
AcDbSpline
210
0.0
220
0.0
230
1.0
 70
  1160
 71
     3
 72
     8
 73
     4
 74
     0
 42
0.000000001
 43
0.0000000001
 40
0.0
 40
0.0
 40
0.0
 40
0.0
 40
1.0
 40
1.0
 40
1.0
 40
1.0
 10
43.77886375632527
 20
5.617127656172563
 30
0.0
 10
43.82894236207135
 20
5.664877024442095
 30
0.0
 10
43.91745338618073
 20
5.692827874160837
 30
0.0
 10
43.97684894183305
 20
5.680017068039742
 30
0.0
  0
SPLINE
  5
233
330
1F
100
AcDbEntity
  8
0
100
AcDbSpline
210
0.0
220
0.0
230
1.0
 70
  1160
 71
     3
 72
     8
 73
     4
 74
     0
 42
0.000000001
 43
0.0000000001
 40
0.0
 40
0.0
 40
0.0
 40
0.0
 40
1.0
 40
1.0
 40
1.0
 40
1.0
 10
43.97684894183305
 20
5.680017068039742
 30
0.0
 10
44.02925678505573
 20
5.668370880656933
 30
0.0
 10
44.07817077206352
 20
5.622950749863974
 30
0.0
 10
44.08632310323151
 20
5.576366000332729
 30
0.0
  0
SPLINE
  5
234
330
1F
100
AcDbEntity
  8
0
100
AcDbSpline
210
0.0
220
0.0
230
1.0
 70
  1160
 71
     3
 72
     8
 73
     4
 74
     0
 42
0.000000001
 43
0.0000000001
 40
0.0
 40
0.0
 40
0.0
 40
0.0
 40
1.0
 40
1.0
 40
1.0
 40
1.0
 10
44.08632310323151
 20
5.576366000332729
 30
0.0
 10
44.10845085925883
 20
5.46106874524289
 30
0.0
 10
43.98733051047759
 20
5.38420390851633
 30
0.0
 10
43.86621016169636
 20
5.4354471330007
 30
0.0
  0
SPLINE
  5
235
330
1F
100
AcDbEntity
  8
0
100
AcDbSpline
210
0.0
220
0.0
230
1.0
 70
  1160
 71
     3
 72
     8
 73
     4
 74
     0
 42
0.000000001
 43
0.0000000001
 40
0.0
 40
0.0
 40
0.0
 40
0.0
 40
1.0
 40
1.0
 40
1.0
 40
1.0
 10
43.86621016169636
 20
5.4354471330007
 30
0.0
 10
43.8266131245948
 20
5.451751795336637
 30
0.0
 10
43.82544850585651
 20
5.450587176598354
 30
0.0
 10
43.83709469323934
 20
5.428459420571012
 30
0.0
  0
SPLINE
  5
236
330
1F
100
AcDbEntity
  8
0
100
AcDbSpline
210
0.0
220
0.0
230
1.0
 70
  1160
 71
     3
 72
     8
 73
     4
 74
     0
 42
0.000000001
 43
0.0000000001
 40
0.0
 40
0.0
 40
0.0
 40
0.0
 40
1.0
 40
1.0
 40
1.0
 40
1.0
 10
43.83709469323934
 20
5.428459420571012
 30
0.0
 10
43.86155168674323
 20
5.38420390851633
 30
0.0
 10
43.93725190473151
 20
5.345771490153062
 30
0.0
 10
44.0001413165987
 20
5.345771490153062
 30
0.0
  0
SPLINE
  5
237
330
1F
100
AcDbEntity
  8
0
100
AcDbSpline
210
0.0
220
0.0
230
1.0
 70
  1160
 71
     3
 72
     8
 73
     4
 74
     0
 42
0.000000001
 43
0.0000000001
 40
0.0
 40
0.0
 40
0.0
 40
0.0
 40
1.0
 40
1.0
 40
1.0
 40
1.0
 10
44.0001413165987
 20
5.345771490153062
 30
0.0
 10
44.20744345201273
 20
5.345771490153062
 30
0.0
 10
44.27033286387991
 20
5.646243124629588
 30
0.0
 10
44.09098157818461
 20
5.777845042055353
 30
0.0
  0
SPLINE
  5
238
330
1F
100
AcDbEntity
  8
0
100
AcDbSpline
210
0.0
220
0.0
230
1.0
 70
  1160
 71
     3
 72
     8
 73
     4
 74
     0
 42
0.000000001
 43
0.0000000001
 40
0.0
 40
0.0
 40
0.0
 40
0.0
 40
1.0
 40
1.0
 40
1.0
 40
1.0
 10
44.09098157818461
 20
5.777845042055353
 30
0.0
 10
43.92793495482525
 20
5.897800772098317
 30
0.0
 10
43.72994976931746
 20
5.819771316633477
 30
0.0
 10
43.62396946413387
 20
5.594999900145221
 30
0.0
  0
SPLINE
  5
239
330
1F
100
AcDbEntity
  8
0
100
AcDbSpline
210
0.0
220
0.0
230
1.0
 70
  1160
 71
     3
 72
     8
 73
     4
 74
     0
 42
0.000000001
 43
0.0000000001
 40
0.0
 40
0.0
 40
0.0
 40
0.0
 40
1.0
 40
1.0
 40
1.0
 40
1.0
 10
43.62396946413387
 20
5.594999900145221
 30
0.0
 10
43.58670166450889
 20
5.518135063418664
 30
0.0
 10
43.58670166450889
 20
5.515805825942102
 30
0.0
 10
43.58786628324717
 20
5.336454540246812
 30
0.0
  0
SPLINE
  5
240
330
1F
100
AcDbEntity
  8
0
100
AcDbSpline
210
0.0
220
0.0
230
1.0
 70
  1160
 71
     3
 72
     8
 73
     4
 74
     0
 42
0.000000001
 43
0.0000000001
 40
0.0
 40
0.0
 40
0.0
 40
0.0
 40
1.0
 40
1.0
 40
1.0
 40
1.0
 10
43.58786628324717
 20
5.336454540246812
 30
0.0
 10
43.58786628324717
 20
5.193206435438227
 30
0.0
 10
43.59368937693857
 20
5.131481642309328
 30
0.0
 10
43.61465251422763
 20
5.039476761985117
 30
0.0
  0
SPLINE
  5
241
330
1F
100
AcDbEntity
  8
0
100
AcDbSpline
210
0.0
220
0.0
230
1.0
 70
  1160
 71
     3
 72
     8
 73
     4
 74
     0
 42
0.000000001
 43
0.0000000001
 40
0.0
 40
0.0
 40
0.0
 40
0.0
 40
1.0
 40
1.0
 40
1.0
 40
1.0
 10
43.61465251422763
 20
5.039476761985117
 30
0.0
 10
43.65657878880575
 20
4.849643907645294
 30
0.0
 10
43.65541417006748
 20
4.858960857551533
 30
0.0
 10
43.63561565151669
 20
4.858960857551533
 30
0.0
  0
SPLINE
  5
242
330
1F
100
AcDbEntity
  8
0
100
AcDbSpline
210
0.0
220
0.0
230
1.0
 70
  1160
 71
     3
 72
     8
 73
     4
 74
     0
 42
0.000000001
 43
0.0000000001
 40
0.0
 40
0.0
 40
0.0
 40
0.0
 40
1.0
 40
1.0
 40
1.0
 40
1.0
 10
43.63561565151669
 20
4.858960857551533
 30
0.0
 10
43.60766480179795
 20
4.858960857551533
 30
0.0
 10
43.52847072759482
 20
4.956788831567155
 30
0.0
 10
43.50983682778232
 20
5.012690531004654
 30
0.0
  0
SPLINE
  5
243
330
1F
100
AcDbEntity
  8
0
100
AcDbSpline
210
0.0
220
0.0
230
1.0
 70
  1160
 71
     3
 72
     8
 73
     4
 74
     0
 42
0.000000001
 43
0.0000000001
 40
0.0
 40
0.0
 40
0.0
 40
0.0
 40
1.0
 40
1.0
 40
1.0
 40
1.0
 10
43.50983682778232
 20
5.012690531004654
 30
0.0
 10
43.4993552591378
 20
5.047629093153087
 30
0.0
 10
43.49353216544639
 20
5.129152404832765
 30
0.0
 10
43.4923675467081
 20
5.289869790715567
 30
0.0
  0
SPLINE
  5
244
330
1F
100
AcDbEntity
  8
0
100
AcDbSpline
210
0.0
220
0.0
230
1.0
 70
  1160
 71
     3
 72
     8
 73
     4
 74
     0
 42
0.000000001
 43
0.0000000001
 40
0.0
 40
0.0
 40
0.0
 40
0.0
 40
1.0
 40
1.0
 40
1.0
 40
1.0
 10
43.4923675467081
 20
5.289869790715567
 30
0.0
 10
43.49120292796984
 20
5.541427438184296
 30
0.0
 10
43.4807213593253
 20
5.596164518883504
 30
0.0
 10
43.4189965661964
 20
5.68351092425458
 30
0.0
  0
SPLINE
  5
245
330
1F
100
AcDbEntity
  8
0
100
AcDbSpline
210
0.0
220
0.0
230
1.0
 70
  1160
 71
     3
 72
     8
 73
     4
 74
     0
 42
0.000000001
 43
0.0000000001
 40
0.0
 40
0.0
 40
0.0
 40
0.0
 40
1.0
 40
1.0
 40
1.0
 40
1.0
 10
43.4189965661964
 20
5.68351092425458
 30
0.0
 10
43.31301626101281
 20
5.827923647801451
 30
0.0
 10
43.06844632597378
 20
5.843063691399102
 30
0.0
 10
42.93451517107144
 20
5.712626392711612
 30
0.0
  0
SPLINE
  5
246
330
1F
100
AcDbEntity
  8
0
100
AcDbSpline
210
0.0
220
0.0
230
1.0
 70
  1160
 71
     3
 72
     8
 73
     4
 74
     0
 42
0.000000001
 43
0.0000000001
 40
0.0
 40
0.0
 40
0.0
 40
0.0
 40
1.0
 40
1.0
 40
1.0
 40
1.0
 10
42.93451517107144
 20
5.712626392711612
 30
0.0
 10
42.87279037794255
 20
5.653230837059279
 30
0.0
 10
42.84716876570036
 20
5.590341425192093
 30
0.0
 10
42.84716876570036
 20
5.499501163606172
 30
0.0
  0
SPLINE
  5
247
330
1F
100
AcDbEntity
  8
0
100
AcDbSpline
210
0.0
220
0.0
230
1.0
 70
  1160
 71
     3
 72
     8
 73
     4
 74
     0
 42
0.000000001
 43
0.0000000001
 40
0.0
 40
0.0
 40
0.0
 40
0.0
 40
1.0
 40
1.0
 40
1.0
 40
1.0
 10
42.84716876570036
 20
5.499501163606172
 30
0.0
 10
42.84716876570036
 20
5.390027002207741
 30
0.0
 10
42.88327194658708
 20
5.320149877910871
 30
0.0
 10
42.9682891144816
 20
5.261918940996814
 30
0.0
  0
SPLINE
  5
248
330
1F
100
AcDbEntity
  8
0
100
AcDbSpline
210
0.0
220
0.0
230
1.0
 70
  1160
 71
     3
 72
     8
 73
     4
 74
     0
 42
0.000000001
 43
0.0000000001
 40
0.0
 40
0.0
 40
0.0
 40
0.0
 40
1.0
 40
1.0
 40
1.0
 40
1.0
 10
42.9682891144816
 20
5.261918940996814
 30
0.0
 10
43.05330628237611
 20
5.204852622821039
 30
0.0
 10
43.17093277494252
 20
5.22814499758665
 30
0.0
 10
43.21751752447377
 20
5.311997546742901
 30
0.0
  0
SPLINE
  5
249
330
1F
100
AcDbEntity
  8
0
100
AcDbSpline
210
0.0
220
0.0
230
1.0
 70
  1160
 71
     3
 72
     8
 73
     4
 74
     0
 42
0.000000001
 43
0.0000000001
 40
0.0
 40
0.0
 40
0.0
 40
0.0
 40
1.0
 40
1.0
 40
1.0
 40
1.0
 10
43.21751752447377
 20
5.311997546742901
 30
0.0
 10
43.2466329929308
 20
5.363240771227275
 30
0.0
 10
43.25245608662219
 20
5.40167318959055
 30
0.0
 10
43.22566985564173
 20
5.364405389965551
 30
0.0
  0
SPLINE
  5
250
330
1F
100
AcDbEntity
  8
0
100
AcDbSpline
210
0.0
220
0.0
230
1.0
 70
  1160
 71
     3
 72
     8
 73
     4
 74
     0
 42
0.000000001
 43
0.0000000001
 40
0.0
 40
0.0
 40
0.0
 40
0.0
 40
1.0
 40
1.0
 40
1.0
 40
1.0
 10
43.22566985564173
 20
5.364405389965551
 30
0.0
 10
43.20121286213783
 20
5.329466827817118
 30
0.0
 10
43.13715883153236
 20
5.301515978098368
 30
0.0
 10
43.08009251335659
 20
5.301515978098368
 30
0.0
  0
SPLINE
  5
251
330
1F
100
AcDbEntity
  8
0
100
AcDbSpline
210
0.0
220
0.0
230
1.0
 70
  1160
 71
     3
 72
     8
 73
     4
 74
     0
 42
0.000000001
 43
0.0000000001
 40
0.0
 40
0.0
 40
0.0
 40
0.0
 40
1.0
 40
1.0
 40
1.0
 40
1.0
 10
43.08009251335659
 20
5.301515978098368
 30
0.0
 10
42.96246602079019
 20
5.301515978098368
 30
0.0
 10
42.90307046513786
 20
5.469221076410853
 30
0.0
 10
42.9799353018644
 20
5.584518331500692
 30
0.0
  0
SPLINE
  5
252
330
1F
100
AcDbEntity
  8
0
100
AcDbSpline
210
0.0
220
0.0
230
1.0
 70
  1160
 71
     3
 72
     8
 73
     4
 74
     0
 42
0.000000001
 43
0.0000000001
 40
0.0
 40
0.0
 40
0.0
 40
0.0
 40
1.0
 40
1.0
 40
1.0
 40
1.0
 10
42.9799353018644
 20
5.584518331500692
 30
0.0
 10
43.01370924527456
 20
5.634596937246776
 30
0.0
 10
43.09406793821596
 20
5.674193974348344
 30
0.0
 10
43.1651096812511
 20
5.674193974348344
 30
0.0
  0
SPLINE
  5
253
330
1F
100
AcDbEntity
  8
0
100
AcDbSpline
210
0.0
220
0.0
230
1.0
 70
  1160
 71
     3
 72
     8
 73
     4
 74
     0
 42
0.000000001
 43
0.0000000001
 40
0.0
 40
0.0
 40
0.0
 40
0.0
 40
1.0
 40
1.0
 40
1.0
 40
1.0
 10
43.1651096812511
 20
5.674193974348344
 30
0.0
 10
43.2512914678839
 20
5.674193974348344
 30
0.0
 10
43.30835778605969
 20
5.635761555985059
 30
0.0
 10
43.35494253559094
 20
5.546085913137414
 30
0.0
  0
SPLINE
  5
254
330
1F
100
AcDbEntity
  8
0
100
AcDbSpline
210
0.0
220
0.0
230
1.0
 70
  1160
 71
     3
 72
     8
 73
     4
 74
     0
 42
0.000000001
 43
0.0000000001
 40
0.0
 40
0.0
 40
0.0
 40
0.0
 40
1.0
 40
1.0
 40
1.0
 40
1.0
 10
43.35494253559094
 20
5.546085913137414
 30
0.0
 10
43.3817287665714
 20
5.494842688653044
 30
0.0
 10
43.3817287665714
 20
5.349265346367889
 30
0.0
 10
43.35494253559094
 20
5.208346479035885
 30
0.0
  0
SPLINE
  5
255
330
1F
100
AcDbEntity
  8
0
100
AcDbSpline
210
0.0
220
0.0
230
1.0
 70
  1160
 71
     3
 72
     8
 73
     4
 74
     0
 42
0.000000001
 43
0.0000000001
 40
0.0
 40
0.0
 40
0.0
 40
0.0
 40
1.0
 40
1.0
 40
1.0
 40
1.0
 10
43.35494253559094
 20
5.208346479035885
 30
0.0
 10
43.30486392984486
 20
4.945142644184343
 30
0.0
 10
43.30486392984486
 20
4.899722513391381
 30
0.0
 10
43.35494253559094
 20
4.716877371481238
 30
0.0
  0
SPLINE
  5
256
330
1F
100
AcDbEntity
  8
0
100
AcDbSpline
210
0.0
220
0.0
230
1.0
 70
  1160
 71
     3
 72
     8
 73
     4
 74
     0
 42
0.000000001
 43
0.0000000001
 40
0.0
 40
0.0
 40
0.0
 40
0.0
 40
1.0
 40
1.0
 40
1.0
 40
1.0
 10
43.35494253559094
 20
4.716877371481238
 30
0.0
 10
43.36658872297375
 20
4.673786478164831
 30
0.0
 10
43.37241181666515
 20
4.63535405980156
 30
0.0
 10
43.36891796045033
 20
4.630695584848432
 30
0.0
  0
SPLINE
  5
257
330
1F
100
AcDbEntity
  8
0
100
AcDbSpline
210
0.0
220
0.0
230
1.0
 70
  1160
 71
     3
 72
     8
 73
     4
 74
     0
 42
0.000000001
 43
0.0000000001
 40
0.0
 40
0.0
 40
0.0
 40
0.0
 40
1.0
 40
1.0
 40
1.0
 40
1.0
 10
43.36891796045033
 20
4.630695584848432
 30
0.0
 10
43.36425948549718
 20
4.627201728633586
 30
0.0
 10
43.29904083615344
 20
4.650494103399211
 30
0.0
 10
43.22334061816517
 20
4.683103428071085
 30
0.0
  0
SPLINE
  5
258
330
1F
100
AcDbEntity
  8
0
100
AcDbSpline
210
0.0
220
0.0
230
1.0
 70
  1160
 71
     3
 72
     8
 73
     4
 74
     0
 42
0.000000001
 43
0.0000000001
 40
0.0
 40
0.0
 40
0.0
 40
0.0
 40
1.0
 40
1.0
 40
1.0
 40
1.0
 10
43.22334061816517
 20
4.683103428071085
 30
0.0
 10
43.02535543265737
 20
4.768120595965616
 30
0.0
 10
42.95780754583706
 20
4.78209602082498
 30
0.0
 10
42.74235307925506
 20
4.78209602082498
 30
0.0
  0
SPLINE
  5
259
330
1F
100
AcDbEntity
  8
0
100
AcDbSpline
210
0.0
220
0.0
230
1.0
 70
  1160
 71
     3
 72
     8
 73
     4
 74
     0
 42
0.000000001
 43
0.0000000001
 40
0.0
 40
0.0
 40
0.0
 40
0.0
 40
1.0
 40
1.0
 40
1.0
 40
1.0
 10
42.74235307925506
 20
4.78209602082498
 30
0.0
 10
42.58163569337226
 20
4.78209602082498
 30
0.0
 10
42.5420386562707
 20
4.778602164610145
 30
0.0
 10
42.38365050786446
 20
4.744828221199991
 30
0.0
  0
SPLINE
  5
260
330
1F
100
AcDbEntity
  8
0
100
AcDbSpline
210
0.0
220
0.0
230
1.0
 70
  1160
 71
     3
 72
     8
 73
     4
 74
     0
 42
0.000000001
 43
0.0000000001
 40
0.0
 40
0.0
 40
0.0
 40
0.0
 40
1.0
 40
1.0
 40
1.0
 40
1.0
 10
42.38365050786446
 20
4.744828221199991
 30
0.0
 10
42.25321320917698
 20
4.716877371481238
 30
0.0
 10
42.19148841604808
 20
4.708725040313272
 30
0.0
 10
42.1530559976848
 20
4.714548134004676
 30
0.0
  0
SPLINE
  5
261
330
1F
100
AcDbEntity
  8
0
100
AcDbSpline
210
0.0
220
0.0
230
1.0
 70
  1160
 71
     3
 72
     8
 73
     4
 74
     0
 42
0.000000001
 43
0.0000000001
 40
0.0
 40
0.0
 40
0.0
 40
0.0
 40
1.0
 40
1.0
 40
1.0
 40
1.0
 10
42.1530559976848
 20
4.714548134004676
 30
0.0
 10
42.02261869899731
 20
4.734346652555455
 30
0.0
 10
41.95041233722387
 20
4.857796238813257
 30
0.0
 10
42.00398479918482
 20
4.97076425642653
 30
0.0
  0
SPLINE
  5
262
330
1F
100
AcDbEntity
  8
0
100
AcDbSpline
210
0.0
220
0.0
230
1.0
 70
  1160
 71
     3
 72
     8
 73
     4
 74
     0
 42
0.000000001
 43
0.0000000001
 40
0.0
 40
0.0
 40
0.0
 40
0.0
 40
1.0
 40
1.0
 40
1.0
 40
1.0
 10
42.00398479918482
 20
4.97076425642653
 30
0.0
 10
42.05173416745433
 20
5.070921467918708
 30
0.0
 10
42.19964074721605
 20
5.100036936375733
 30
0.0
 10
42.28815177132541
 20
5.026665955864025
 30
0.0
  0
SPLINE
  5
263
330
1F
100
AcDbEntity
  8
0
100
AcDbSpline
210
0.0
220
0.0
230
1.0
 70
  1160
 71
     3
 72
     8
 73
     4
 74
     0
 42
0.000000001
 43
0.0000000001
 40
0.0
 40
0.0
 40
0.0
 40
0.0
 40
1.0
 40
1.0
 40
1.0
 40
1.0
 10
42.28815177132541
 20
5.026665955864025
 30
0.0
 10
42.33473652085665
 20
4.987068918762471
 30
0.0
 10
42.33706575833322
 20
4.925344125633564
 30
0.0
 10
42.29397486501682
 20
4.878759376102316
 30
0.0
  0
LINE
  5
264
330
1F
100
AcDbEntity
  8
0
100
AcDbLine
 10
42.29397486501682
 20
4.878759376102316
 30
0.0
 11
42.26369477782151
 21
4.847314670168724
 31
0.0
  0
LINE
  5
265
330
1F
100
AcDbEntity
  8
0
100
AcDbLine
 10
42.26369477782151
 20
4.847314670168724
 30
0.0
 11
42.29048100880198
 21
4.847314670168724
 31
0.0
  0
SPLINE
  5
266
330
1F
100
AcDbEntity
  8
0
100
AcDbSpline
210
0.0
220
0.0
230
1.0
 70
  1160
 71
     3
 72
     8
 73
     4
 74
     0
 42
0.000000001
 43
0.0000000001
 40
0.0
 40
0.0
 40
0.0
 40
0.0
 40
1.0
 40
1.0
 40
1.0
 40
1.0
 10
42.29048100880198
 20
4.847314670168724
 30
0.0
 10
42.32891342716526
 20
4.847314670168724
 30
0.0
 10
42.38947360155586
 20
4.888076326008572
 30
0.0
 10
42.41625983253634
 20
4.931167219324972
 30
0.0
  0
SPLINE
  5
267
330
1F
100
AcDbEntity
  8
0
100
AcDbSpline
210
0.0
220
0.0
230
1.0
 70
  1160
 71
     3
 72
     8
 73
     4
 74
     0
 42
0.000000001
 43
0.0000000001
 40
0.0
 40
0.0
 40
0.0
 40
0.0
 40
1.0
 40
1.0
 40
1.0
 40
1.0
 10
42.41625983253634
 20
4.931167219324972
 30
0.0
 10
42.46750305702071
 20
5.016184387219492
 30
0.0
 10
42.42674140118087
 20
5.133810879785887
 30
0.0
 10
42.3265841896887
 20
5.193206435438227
 30
0.0
  0
SPLINE
  5
268
330
1F
100
AcDbEntity
  8
0
100
AcDbSpline
210
0.0
220
0.0
230
1.0
 70
  1160
 71
     3
 72
     8
 73
     4
 74
     0
 42
0.000000001
 43
0.0000000001
 40
0.0
 40
0.0
 40
0.0
 40
0.0
 40
1.0
 40
1.0
 40
1.0
 40
1.0
 10
42.3265841896887
 20
5.193206435438227
 30
0.0
 10
42.24855473422386
 20
5.238626566231193
 30
0.0
 10
42.10880048563011
 20
5.24561427866088
 30
0.0
 10
42.02261869899731
 20
5.208346479035885
 30
0.0
  0
SPLINE
  5
269
330
1F
100
AcDbEntity
  8
0
100
AcDbSpline
210
0.0
220
0.0
230
1.0
 70
  1160
 71
     3
 72
     8
 73
     4
 74
     0
 42
0.000000001
 43
0.0000000001
 40
0.0
 40
0.0
 40
0.0
 40
0.0
 40
1.0
 40
1.0
 40
1.0
 40
1.0
 10
42.02261869899731
 20
5.208346479035885
 30
0.0
 10
41.93993076857935
 20
5.172243298149172
 30
0.0
 10
41.88635830661841
 20
5.107024648805424
 30
0.0
 10
41.85491360068482
 20
5.006867437313246
 30
0.0
  0
SPLINE
  5
270
330
1F
100
AcDbEntity
  8
0
100
AcDbSpline
210
0.0
220
0.0
230
1.0
 70
  1160
 71
     3
 72
     8
 73
     4
 74
     0
 42
0.000000001
 43
0.0000000001
 40
0.0
 40
0.0
 40
0.0
 40
0.0
 40
1.0
 40
1.0
 40
1.0
 40
1.0
 10
41.85491360068482
 20
5.006867437313246
 30
0.0
 10
41.80250575746217
 20
4.831010007832794
 30
0.0
 10
41.86772440680591
 20
4.669128003211714
 30
0.0
 10
42.02028946152075
 20
4.599250878914848
 30
0.0
  0
SPLINE
  5
271
330
1F
100
AcDbEntity
  8
0
100
AcDbSpline
210
0.0
220
0.0
230
1.0
 70
  1160
 71
     3
 72
     8
 73
     4
 74
     0
 42
0.000000001
 43
0.0000000001
 40
0.0
 40
0.0
 40
0.0
 40
0.0
 40
1.0
 40
1.0
 40
1.0
 40
1.0
 10
42.02028946152075
 20
4.599250878914848
 30
0.0
 10
42.0913312045559
 20
4.566641554242973
 30
0.0
 10
42.21711002829026
 20
4.567806172981253
 30
0.0
 10
42.39879055146212
 20
4.602744735129689
 30
0.0
  0
SPLINE
  5
272
330
1F
100
AcDbEntity
  8
0
100
AcDbSpline
210
0.0
220
0.0
230
1.0
 70
  1160
 71
     3
 72
     8
 73
     4
 74
     0
 42
0.000000001
 43
0.0000000001
 40
0.0
 40
0.0
 40
0.0
 40
0.0
 40
1.0
 40
1.0
 40
1.0
 40
1.0
 10
42.39879055146212
 20
4.602744735129689
 30
0.0
 10
42.56998950598946
 20
4.63535405980156
 30
0.0
 10
42.70275604215349
 20
4.63768329727813
 30
0.0
 10
42.78544397257146
 20
4.60973244755937
 30
0.0
  0
SPLINE
  5
273
330
1F
100
AcDbEntity
  8
0
100
AcDbSpline
210
0.0
220
0.0
230
1.0
 70
  1160
 71
     3
 72
     8
 73
     4
 74
     0
 42
0.000000001
 43
0.0000000001
 40
0.0
 40
0.0
 40
0.0
 40
0.0
 40
1.0
 40
1.0
 40
1.0
 40
1.0
 10
42.78544397257146
 20
4.60973244755937
 30
0.0
 10
42.81921791598161
 20
4.599250878914848
 30
0.0
 10
42.89258889649333
 20
4.560818460551573
 30
0.0
 10
42.94849059593082
 20
4.524715279664849
 30
0.0
  0
SPLINE
  5
274
330
1F
100
AcDbEntity
  8
0
100
AcDbSpline
210
0.0
220
0.0
230
1.0
 70
  1160
 71
     3
 72
     8
 73
     4
 74
     0
 42
0.000000001
 43
0.0000000001
 40
0.0
 40
0.0
 40
0.0
 40
0.0
 40
1.0
 40
1.0
 40
1.0
 40
1.0
 10
42.94849059593082
 20
4.524715279664849
 30
0.0
 10
43.07426941966517
 20
4.44552120546173
 30
0.0
 10
43.21285904952064
 20
4.375644081164868
 30
0.0
 10
43.26410227400502
 20
4.363997893782048
 30
0.0
  0
SPLINE
  5
275
330
1F
100
AcDbEntity
  8
0
100
AcDbSpline
210
0.0
220
0.0
230
1.0
 70
  1160
 71
     3
 72
     8
 73
     4
 74
     0
 42
0.000000001
 43
0.0000000001
 40
0.0
 40
0.0
 40
0.0
 40
0.0
 40
1.0
 40
1.0
 40
1.0
 40
1.0
 10
43.26410227400502
 20
4.363997893782048
 30
0.0
 10
43.31883935470422
 20
4.352351706399247
 30
0.0
 10
43.29904083615344
 20
4.339540900278155
 30
0.0
 10
43.19073129349329
 20
4.317413144250814
 30
0.0
  0
SPLINE
  5
276
330
1F
100
AcDbEntity
  8
0
100
AcDbSpline
210
0.0
220
0.0
230
1.0
 70
  1160
 71
     3
 72
     8
 73
     4
 74
     0
 42
0.000000001
 43
0.0000000001
 40
0.0
 40
0.0
 40
0.0
 40
0.0
 40
1.0
 40
1.0
 40
1.0
 40
1.0
 10
43.19073129349329
 20
4.317413144250814
 30
0.0
 10
43.04398933246986
 20
4.287133057055502
 30
0.0
 10
42.88443656532535
 20
4.28247458210237
 30
0.0
 10
42.72138994196601
 20
4.304602338129711
 30
0.0
  0
SPLINE
  5
277
330
1F
100
AcDbEntity
  8
0
100
AcDbSpline
210
0.0
220
0.0
230
1.0
 70
  1160
 71
     3
 72
     8
 73
     4
 74
     0
 42
0.000000001
 43
0.0000000001
 40
0.0
 40
0.0
 40
0.0
 40
0.0
 40
1.0
 40
1.0
 40
1.0
 40
1.0
 10
42.72138994196601
 20
4.304602338129711
 30
0.0
 10
42.42091830748946
 20
4.344199375231276
 30
0.0
 10
42.24506087800901
 20
4.315083906774255
 30
0.0
 10
42.1227759104895
 20
4.207938982852382
 30
0.0
  0
SPLINE
  5
278
330
1F
100
AcDbEntity
  8
0
100
AcDbSpline
210
0.0
220
0.0
230
1.0
 70
  1160
 71
     3
 72
     8
 73
     4
 74
     0
 42
0.000000001
 43
0.0000000001
 40
0.0
 40
0.0
 40
0.0
 40
0.0
 40
1.0
 40
1.0
 40
1.0
 40
1.0
 10
42.1227759104895
 20
4.207938982852382
 30
0.0
 10
41.98884475558715
 20
4.090312490285988
 30
0.0
 10
41.98535089937232
 20
3.860882598844604
 30
0.0
 10
42.11462357932153
 20
3.712976019082891
 30
0.0
  0
SPLINE
  5
279
330
1F
100
AcDbEntity
  8
0
100
AcDbSpline
210
0.0
220
0.0
230
1.0
 70
  1160
 71
     3
 72
     8
 73
     4
 74
     0
 42
0.000000001
 43
0.0000000001
 40
0.0
 40
0.0
 40
0.0
 40
0.0
 40
1.0
 40
1.0
 40
1.0
 40
1.0
 10
42.11462357932153
 20
3.712976019082891
 30
0.0
 10
42.19498227226292
 20
3.622135757496973
 30
0.0
 10
42.27534096520432
 20
3.597678763993062
 30
0.0
 10
42.38597974534104
 20
3.629123469926653
 30
0.0
  0
SPLINE
  5
280
330
1F
100
AcDbEntity
  8
0
100
AcDbSpline
210
0.0
220
0.0
230
1.0
 70
  1160
 71
     3
 72
     8
 73
     4
 74
     0
 42
0.000000001
 43
0.0000000001
 40
0.0
 40
0.0
 40
0.0
 40
0.0
 40
1.0
 40
1.0
 40
1.0
 40
1.0
 10
42.38597974534104
 20
3.629123469926653
 30
0.0
 10
42.50127700043086
 20
3.662897413336807
 30
0.0
 10
42.5606725560832
 20
3.754902293661015
 30
0.0
 10
42.53272170636446
 20
3.857388742629758
 30
0.0
  0
SPLINE
  5
281
330
1F
100
AcDbEntity
  8
0
100
AcDbSpline
210
0.0
220
0.0
230
1.0
 70
  1160
 71
     3
 72
     8
 73
     4
 74
     0
 42
0.000000001
 43
0.0000000001
 40
0.0
 40
0.0
 40
0.0
 40
0.0
 40
1.0
 40
1.0
 40
1.0
 40
1.0
 10
42.53272170636446
 20
3.857388742629758
 30
0.0
 10
42.51991090024335
 20
3.906302729637577
 30
0.0
 10
42.46866767575899
 20
3.950558241692252
 30
0.0
 10
42.42557678244258
 20
3.950558241692252
 30
0.0
  0
SPLINE
  5
282
330
1F
100
AcDbEntity
  8
0
100
AcDbSpline
210
0.0
220
0.0
230
1.0
 70
  1160
 71
     3
 72
     8
 73
     4
 74
     0
 42
0.000000001
 43
0.0000000001
 40
0.0
 40
0.0
 40
0.0
 40
0.0
 40
1.0
 40
1.0
 40
1.0
 40
1.0
 10
42.42557678244258
 20
3.950558241692252
 30
0.0
 10
42.394132076509
 20
3.950558241692252
 30
0.0
 10
42.3999551702004
 20
3.935418198094591
 30
0.0
 10
42.43838758856369
 20
3.913290442067257
 30
0.0
  0
SPLINE
  5
283
330
1F
100
AcDbEntity
  8
0
100
AcDbSpline
210
0.0
220
0.0
230
1.0
 70
  1160
 71
     3
 72
     8
 73
     4
 74
     0
 42
0.000000001
 43
0.0000000001
 40
0.0
 40
0.0
 40
0.0
 40
0.0
 40
1.0
 40
1.0
 40
1.0
 40
1.0
 10
42.43838758856369
 20
3.913290442067257
 30
0.0
 10
42.50710009412227
 20
3.874858023703971
 30
0.0
 10
42.4931246692629
 20
3.760725387352422
 30
0.0
 10
42.41625983253634
 20
3.729280681418835
 30
0.0
  0
SPLINE
  5
284
330
1F
100
AcDbEntity
  8
0
100
AcDbSpline
210
0.0
220
0.0
230
1.0
 70
  1160
 71
     3
 72
     8
 73
     4
 74
     0
 42
0.000000001
 43
0.0000000001
 40
0.0
 40
0.0
 40
0.0
 40
0.0
 40
1.0
 40
1.0
 40
1.0
 40
1.0
 10
42.41625983253634
 20
3.729280681418835
 30
0.0
 10
42.36268737057541
 20
3.707152925391493
 30
0.0
 10
42.27301172772776
 20
3.719963731512581
 30
0.0
 10
42.22526235945823
 20
3.756066912399298
 30
0.0
  0
SPLINE
  5
285
330
1F
100
AcDbEntity
  8
0
100
AcDbSpline
210
0.0
220
0.0
230
1.0
 70
  1160
 71
     3
 72
     8
 73
     4
 74
     0
 42
0.000000001
 43
0.0000000001
 40
0.0
 40
0.0
 40
0.0
 40
0.0
 40
1.0
 40
1.0
 40
1.0
 40
1.0
 10
42.22526235945823
 20
3.756066912399298
 30
0.0
 10
42.20429922216916
 20
3.773536193473518
 30
0.0
 10
42.17401913497385
 20
3.810803993098506
 30
0.0
 10
42.16004371011448
 20
3.839919461555542
 30
0.0
  0
SPLINE
  5
286
330
1F
100
AcDbEntity
  8
0
100
AcDbSpline
210
0.0
220
0.0
230
1.0
 70
  1160
 71
     3
 72
     8
 73
     4
 74
     0
 42
0.000000001
 43
0.0000000001
 40
0.0
 40
0.0
 40
0.0
 40
0.0
 40
1.0
 40
1.0
 40
1.0
 40
1.0
 10
42.16004371011448
 20
3.839919461555542
 30
0.0
 10
42.08201425464966
 20
4.000636847438336
 30
0.0
 10
42.22642697819651
 20
4.1636834707977
 30
0.0
 10
42.46051534459102
 20
4.17998813313363
 30
0.0
  0
SPLINE
  5
287
330
1F
100
AcDbEntity
  8
0
100
AcDbSpline
210
0.0
220
0.0
230
1.0
 70
  1160
 71
     3
 72
     8
 73
     4
 74
     0
 42
0.000000001
 43
0.0000000001
 40
0.0
 40
0.0
 40
0.0
 40
0.0
 40
1.0
 40
1.0
 40
1.0
 40
1.0
 10
42.46051534459102
 20
4.17998813313363
 30
0.0
 10
42.56882488725117
 20
4.188140464301607
 30
0.0
 10
42.67713442991132
 20
4.173000420703942
 30
0.0
 10
42.87046114046598
 20
4.125251052434421
 30
0.0
  0
SPLINE
  5
288
330
1F
100
AcDbEntity
  8
0
100
AcDbSpline
210
0.0
220
0.0
230
1.0
 70
  1160
 71
     3
 72
     8
 73
     4
 74
     0
 42
0.000000001
 43
0.0000000001
 40
0.0
 40
0.0
 40
0.0
 40
0.0
 40
1.0
 40
1.0
 40
1.0
 40
1.0
 10
42.87046114046598
 20
4.125251052434421
 30
0.0
 10
43.04515395120815
 20
4.080995540379738
 30
0.0
 10
43.19538976844643
 20
4.055373928137552
 30
0.0
 10
43.27458384264953
 20
4.055373928137552
 30
0.0
  0
LINE
  5
289
330
1F
100
AcDbEntity
  8
0
100
AcDbLine
 10
43.27458384264953
 20
4.055373928137559
 30
0.0
 11
43.33747325451672
 21
4.055373928137552
 31
0.0
  0
LINE
  5
290
330
1F
100
AcDbEntity
  8
0
100
AcDbLine
 10
43.33747325451672
 20
4.055373928137552
 30
0.0
 11
43.23964528050109
 21
3.945899766739131
 31
0.0
  0
SPLINE
  5
291
330
1F
100
AcDbEntity
  8
0
100
AcDbSpline
210
0.0
220
0.0
230
1.0
 70
  1160
 71
     3
 72
     8
 73
     4
 74
     0
 42
0.000000001
 43
0.0000000001
 40
0.0
 40
0.0
 40
0.0
 40
0.0
 40
1.0
 40
1.0
 40
1.0
 40
1.0
 10
43.23964528050109
 20
3.945899766739131
 30
0.0
 10
43.02652005139565
 20
3.70598830665321
 30
0.0
 10
42.9799353018644
 20
3.596514145254779
 30
0.0
 10
42.94616135845426
 20
3.251786998723563
 30
0.0
  0
SPLINE
  5
292
330
1F
100
AcDbEntity
  8
0
100
AcDbSpline
210
0.0
220
0.0
230
1.0
 70
  1160
 71
     3
 72
     8
 73
     4
 74
     0
 42
0.000000001
 43
0.0000000001
 40
0.0
 40
0.0
 40
0.0
 40
0.0
 40
1.0
 40
1.0
 40
1.0
 40
1.0
 10
42.94616135845426
 20
3.251786998723563
 30
0.0
 10
42.92636283990347
 20
3.037497150879836
 30
0.0
 10
42.91355203378238
 20
2.99324163882515
 30
0.0
 10
42.85881495308315
 20
2.936175320649372
 30
0.0
  0
SPLINE
  5
293
330
1F
100
AcDbEntity
  8
0
100
AcDbSpline
210
0.0
220
0.0
230
1.0
 70
  1160
 71
     3
 72
     8
 73
     4
 74
     0
 42
0.000000001
 43
0.0000000001
 40
0.0
 40
0.0
 40
0.0
 40
0.0
 40
1.0
 40
1.0
 40
1.0
 40
1.0
 10
42.85881495308315
 20
2.936175320649372
 30
0.0
 10
42.74351769799333
 20
2.815054971868136
 30
0.0
 10
42.56766026851289
 20
2.873285908782193
 30
0.0
 10
42.56766026851289
 20
3.032838675926711
 30
0.0
  0
SPLINE
  5
294
330
1F
100
AcDbEntity
  8
0
100
AcDbSpline
210
0.0
220
0.0
230
1.0
 70
  1160
 71
     3
 72
     8
 73
     4
 74
     0
 42
0.000000001
 43
0.0000000001
 40
0.0
 40
0.0
 40
0.0
 40
0.0
 40
1.0
 40
1.0
 40
1.0
 40
1.0
 10
42.56766026851289
 20
3.032838675926711
 30
0.0
 10
42.56766026851289
 20
3.139983599848577
 30
0.0
 10
42.62472658668866
 20
3.216848436575133
 30
0.0
 10
42.70392066089177
 20
3.216848436575133
 30
0.0
  0
SPLINE
  5
295
330
1F
100
AcDbEntity
  8
0
100
AcDbSpline
210
0.0
220
0.0
230
1.0
 70
  1160
 71
     3
 72
     8
 73
     4
 74
     0
 42
0.000000001
 43
0.0000000001
 40
0.0
 40
0.0
 40
0.0
 40
0.0
 40
1.0
 40
1.0
 40
1.0
 40
1.0
 10
42.70392066089177
 20
3.216848436575133
 30
0.0
 10
42.75632850411443
 20
3.216848436575133
 30
0.0
 10
42.78660859130974
 20
3.200543774239193
 30
0.0
 10
42.83319334084099
 20
3.149300549754826
 30
0.0
  0
SPLINE
  5
296
330
1F
100
AcDbEntity
  8
0
100
AcDbSpline
210
0.0
220
0.0
230
1.0
 70
  1160
 71
     3
 72
     8
 73
     4
 74
     0
 42
0.000000001
 43
0.0000000001
 40
0.0
 40
0.0
 40
0.0
 40
0.0
 40
1.0
 40
1.0
 40
1.0
 40
1.0
 10
42.83319334084099
 20
3.149300549754826
 30
0.0
 10
42.86813190298941
 20
3.110868131391544
 30
0.0
 10
42.87162575920426
 20
3.109703512653265
 30
0.0
 10
42.86463804677457
 20
3.135325124895455
 30
0.0
  0
SPLINE
  5
297
330
1F
100
AcDbEntity
  8
0
100
AcDbSpline
210
0.0
220
0.0
230
1.0
 70
  1160
 71
     3
 72
     8
 73
     4
 74
     0
 42
0.000000001
 43
0.0000000001
 40
0.0
 40
0.0
 40
0.0
 40
0.0
 40
1.0
 40
1.0
 40
1.0
 40
1.0
 10
42.86463804677457
 20
3.135325124895455
 30
0.0
 10
42.85415647813005
 20
3.17492216199701
 30
0.0
 10
42.80058401616911
 20
3.240140811340758
 30
0.0
 10
42.75399926663785
 20
3.271585517274342
 30
0.0
  0
SPLINE
  5
298
330
1F
100
AcDbEntity
  8
0
100
AcDbSpline
210
0.0
220
0.0
230
1.0
 70
  1160
 71
     3
 72
     8
 73
     4
 74
     0
 42
0.000000001
 43
0.0000000001
 40
0.0
 40
0.0
 40
0.0
 40
0.0
 40
1.0
 40
1.0
 40
1.0
 40
1.0
 10
42.75399926663785
 20
3.271585517274342
 30
0.0
 10
42.68878061729412
 20
3.317005648067311
 30
0.0
 10
42.56416641229805
 20
3.296042510778246
 30
0.0
 10
42.50710009412227
 20
3.233153098911063
 30
0.0
  0
SPLINE
  5
299
330
1F
100
AcDbEntity
  8
0
100
AcDbSpline
210
0.0
220
0.0
230
1.0
 70
  1160
 71
     3
 72
     8
 73
     4
 74
     0
 42
0.000000001
 43
0.0000000001
 40
0.0
 40
0.0
 40
0.0
 40
0.0
 40
1.0
 40
1.0
 40
1.0
 40
1.0
 10
42.50710009412227
 20
3.233153098911063
 30
0.0
 10
42.4302352573957
 20
3.145806693539981
 30
0.0
 10
42.43489373234883
 20
2.978101595227496
 30
0.0
 10
42.51641704402852
 20
2.870956671305634
 30
0.0
  0
SPLINE
  5
300
330
1F
100
AcDbEntity
  8
0
100
AcDbSpline
210
0.0
220
0.0
230
1.0
 70
  1160
 71
     3
 72
     8
 73
     4
 74
     0
 42
0.000000001
 43
0.0000000001
 40
0.0
 40
0.0
 40
0.0
 40
0.0
 40
1.0
 40
1.0
 40
1.0
 40
1.0
 10
42.51641704402852
 20
2.870956671305634
 30
0.0
 10
42.5664956497746
 20
2.805738021961886
 30
0.0
 10
42.62822044290349
 20
2.780116409719703
 30
0.0
 10
42.74235307925506
 20
2.780116409719703
 30
0.0
  0
SPLINE
  5
301
330
1F
100
AcDbEntity
  8
0
100
AcDbSpline
210
0.0
220
0.0
230
1.0
 70
  1160
 71
     3
 72
     8
 73
     4
 74
     0
 42
0.000000001
 43
0.0000000001
 40
0.0
 40
0.0
 40
0.0
 40
0.0
 40
1.0
 40
1.0
 40
1.0
 40
1.0
 10
42.74235307925506
 20
2.780116409719703
 30
0.0
 10
42.85765033434489
 20
2.780116409719703
 30
0.0
 10
42.91005817756754
 20
2.802244165747051
 30
0.0
 10
42.97877068312612
 20
2.877944383735325
 30
0.0
  0
SPLINE
  5
302
330
1F
100
AcDbEntity
  8
0
100
AcDbSpline
210
0.0
220
0.0
230
1.0
 70
  1160
 71
     3
 72
     8
 73
     4
 74
     0
 42
0.000000001
 43
0.0000000001
 40
0.0
 40
0.0
 40
0.0
 40
0.0
 40
1.0
 40
1.0
 40
1.0
 40
1.0
 10
42.97877068312612
 20
2.877944383735325
 30
0.0
 10
43.03700162004018
 20
2.941998414340783
 30
0.0
 10
43.05214166363785
 20
2.9839246889189
 30
0.0
 10
43.085915607048
 20
3.170263687043888
 30
0.0
  0
SPLINE
  5
303
330
1F
100
AcDbEntity
  8
0
100
AcDbSpline
210
0.0
220
0.0
230
1.0
 70
  1160
 71
     3
 72
     8
 73
     4
 74
     0
 42
0.000000001
 43
0.0000000001
 40
0.0
 40
0.0
 40
0.0
 40
0.0
 40
1.0
 40
1.0
 40
1.0
 40
1.0
 10
43.085915607048
 20
3.170263687043888
 30
0.0
 10
43.13366497531753
 20
3.434632140633702
 30
0.0
 10
43.17559124989563
 20
3.521978546004792
 30
0.0
 10
43.33048554208704
 20
3.676872838196182
 30
0.0
  0
SPLINE
  5
304
330
1F
100
AcDbEntity
  8
0
100
AcDbSpline
210
0.0
220
0.0
230
1.0
 70
  1160
 71
     3
 72
     8
 73
     4
 74
     0
 42
0.000000001
 43
0.0000000001
 40
0.0
 40
0.0
 40
0.0
 40
0.0
 40
1.0
 40
1.0
 40
1.0
 40
1.0
 10
43.33048554208704
 20
3.676872838196182
 30
0.0
 10
43.42016118493469
 20
3.767713099782106
 30
0.0
 10
43.50634297156749
 20
3.830602511649296
 30
0.0
 10
43.52031839642686
 20
3.816627086789917
 30
0.0
  0
SPLINE
  5
305
330
1F
100
AcDbEntity
  8
0
100
AcDbSpline
210
0.0
220
0.0
230
1.0
 70
  1160
 71
     3
 72
     8
 73
     4
 74
     0
 42
0.000000001
 43
0.0000000001
 40
0.0
 40
0.0
 40
0.0
 40
0.0
 40
1.0
 40
1.0
 40
1.0
 40
1.0
 10
43.52031839642686
 20
3.816627086789917
 30
0.0
 10
43.52264763390341
 20
3.814297849313351
 30
0.0
 10
43.5179891589503
 20
3.771206955996952
 30
0.0
 10
43.5110014465206
 20
3.721128350250868
 30
0.0
  0
SPLINE
  5
306
330
1F
100
AcDbEntity
  8
0
100
AcDbSpline
210
0.0
220
0.0
230
1.0
 70
  1160
 71
     3
 72
     8
 73
     4
 74
     0
 42
0.000000001
 43
0.0000000001
 40
0.0
 40
0.0
 40
0.0
 40
0.0
 40
1.0
 40
1.0
 40
1.0
 40
1.0
 10
43.5110014465206
 20
3.721128350250868
 30
0.0
 10
43.4993552591378
 20
3.644263513524315
 30
0.0
 10
43.50051987787608
 20
3.610489570114154
 30
0.0
 10
43.51565992147373
 20
3.521978546004792
 30
0.0
  0
SPLINE
  5
307
330
1F
100
AcDbEntity
  8
0
100
AcDbSpline
210
0.0
220
0.0
230
1.0
 70
  1160
 71
     3
 72
     8
 73
     4
 74
     0
 42
0.000000001
 43
0.0000000001
 40
0.0
 40
0.0
 40
0.0
 40
0.0
 40
1.0
 40
1.0
 40
1.0
 40
1.0
 10
43.51565992147373
 20
3.521978546004792
 30
0.0
 10
43.53895229623935
 20
3.388047391102453
 30
0.0
 10
43.57156162091123
 20
3.307688698161058
 30
0.0
 10
43.66938959492684
 20
3.138818981110294
 30
0.0
  0
SPLINE
  5
308
330
1F
100
AcDbEntity
  8
0
100
AcDbSpline
210
0.0
220
0.0
230
1.0
 70
  1160
 71
     3
 72
     8
 73
     4
 74
     0
 42
0.000000001
 43
0.0000000001
 40
0.0
 40
0.0
 40
0.0
 40
0.0
 40
1.0
 40
1.0
 40
1.0
 40
1.0
 10
43.66938959492684
 20
3.138818981110294
 30
0.0
 10
43.78585146875496
 20
2.937339939387651
 30
0.0
 10
43.81613155595026
 20
2.823207303036102
 30
0.0
 10
43.77304066263387
 20
2.739354753879862
 30
0.0
  0
SPLINE
  5
309
330
1F
100
AcDbEntity
  8
0
100
AcDbSpline
210
0.0
220
0.0
230
1.0
 70
  1160
 71
     3
 72
     8
 73
     4
 74
     0
 42
0.000000001
 43
0.0000000001
 40
0.0
 40
0.0
 40
0.0
 40
0.0
 40
1.0
 40
1.0
 40
1.0
 40
1.0
 10
43.77304066263387
 20
2.739354753879862
 30
0.0
 10
43.7148097257198
 20
2.626386736266596
 30
0.0
 10
43.50867220904404
 20
2.618234405098629
 30
0.0
 10
43.43530122853233
 20
2.725379329020491
 30
0.0
  0
SPLINE
  5
310
330
1F
100
AcDbEntity
  8
0
100
AcDbSpline
210
0.0
220
0.0
230
1.0
 70
  1160
 71
     3
 72
     8
 73
     4
 74
     0
 42
0.000000001
 43
0.0000000001
 40
0.0
 40
0.0
 40
0.0
 40
0.0
 40
1.0
 40
1.0
 40
1.0
 40
1.0
 10
43.43530122853233
 20
2.725379329020491
 30
0.0
 10
43.39104571647765
 20
2.790597978364228
 30
0.0
 10
43.39803342890733
 20
2.881438239950156
 30
0.0
 10
43.45160589086827
 20
2.922199895790011
 30
0.0
  0
SPLINE
  5
311
330
1F
100
AcDbEntity
  8
0
100
AcDbSpline
210
0.0
220
0.0
230
1.0
 70
  1160
 71
     3
 72
     8
 73
     4
 74
     0
 42
0.000000001
 43
0.0000000001
 40
0.0
 40
0.0
 40
0.0
 40
0.0
 40
1.0
 40
1.0
 40
1.0
 40
1.0
 10
43.45160589086827
 20
2.922199895790011
 30
0.0
 10
43.49469678418468
 20
2.955973839200154
 30
0.0
 10
43.60067708936826
 20
2.928022989481416
 30
0.0
 10
43.62862793908702
 20
2.877944383735325
 30
0.0
  0
SPLINE
  5
312
330
1F
100
AcDbEntity
  8
0
100
AcDbSpline
210
0.0
220
0.0
230
1.0
 70
  1160
 71
     3
 72
     8
 73
     4
 74
     0
 42
0.000000001
 43
0.0000000001
 40
0.0
 40
0.0
 40
0.0
 40
0.0
 40
1.0
 40
1.0
 40
1.0
 40
1.0
 10
43.62862793908702
 20
2.877944383735325
 30
0.0
 10
43.63561565151669
 20
2.862804340137664
 30
0.0
 10
43.63794488899325
 20
2.832524252942352
 30
0.0
 10
43.63328641404012
 20
2.802244165747051
 30
0.0
  0
SPLINE
  5
313
330
1F
100
AcDbEntity
  8
0
100
AcDbSpline
210
0.0
220
0.0
230
1.0
 70
  1160
 71
     3
 72
     8
 73
     4
 74
     0
 42
0.000000001
 43
0.0000000001
 40
0.0
 40
0.0
 40
0.0
 40
0.0
 40
1.0
 40
1.0
 40
1.0
 40
1.0
 10
43.63328641404012
 20
2.802244165747051
 30
0.0
 10
43.62513408287216
 20
2.745177847571262
 30
0.0
 10
43.63794488899325
 20
2.735860897665016
 30
0.0
 10
43.66706035745028
 20
2.776622553504864
 30
0.0
  0
SPLINE
  5
314
330
1F
100
AcDbEntity
  8
0
100
AcDbSpline
210
0.0
220
0.0
230
1.0
 70
  1160
 71
     3
 72
     8
 73
     4
 74
     0
 42
0.000000001
 43
0.0000000001
 40
0.0
 40
0.0
 40
0.0
 40
0.0
 40
1.0
 40
1.0
 40
1.0
 40
1.0
 10
43.66706035745028
 20
2.776622553504864
 30
0.0
 10
43.7148097257198
 20
2.844170440325171
 30
0.0
 10
43.69384658843074
 20
2.960632314153276
 30
0.0
 10
43.62396946413387
 20
3.009546301161094
 30
0.0
  0
SPLINE
  5
315
330
1F
100
AcDbEntity
  8
0
100
AcDbSpline
210
0.0
220
0.0
230
1.0
 70
  1160
 71
     3
 72
     8
 73
     4
 74
     0
 42
0.000000001
 43
0.0000000001
 40
0.0
 40
0.0
 40
0.0
 40
0.0
 40
1.0
 40
1.0
 40
1.0
 40
1.0
 10
43.62396946413387
 20
3.009546301161094
 30
0.0
 10
43.57389085838779
 20
3.045649482047796
 30
0.0
 10
43.46791055320422
 20
3.046814100786082
 30
0.0
 10
43.42132580367297
 20
3.011875538637649
 30
0.0
  0
SPLINE
  5
316
330
1F
100
AcDbEntity
  8
0
100
AcDbSpline
210
0.0
220
0.0
230
1.0
 70
  1160
 71
     3
 72
     8
 73
     4
 74
     0
 42
0.000000001
 43
0.0000000001
 40
0.0
 40
0.0
 40
0.0
 40
0.0
 40
1.0
 40
1.0
 40
1.0
 40
1.0
 10
43.42132580367297
 20
3.011875538637649
 30
0.0
 10
43.27458384264953
 20
2.903565995977501
 30
0.0
 10
43.3071931673214
 20
2.696263860563455
 30
0.0
 10
43.48770907175498
 20
2.594942030333008
 30
0.0
  0
SPLINE
  5
317
330
1F
100
AcDbEntity
  8
0
100
AcDbSpline
210
0.0
220
0.0
230
1.0
 70
  1160
 71
     3
 72
     8
 73
     4
 74
     0
 42
0.000000001
 43
0.0000000001
 40
0.0
 40
0.0
 40
0.0
 40
0.0
 40
1.0
 40
1.0
 40
1.0
 40
1.0
 10
43.48770907175498
 20
2.594942030333008
 30
0.0
 10
43.54477538993076
 20
2.562332705661134
 30
0.0
 10
43.56224467100498
 20
2.558838849446289
 30
0.0
 10
43.64493260142294
 20
2.558838849446289
 30
0.0
  0
SPLINE
  5
318
330
1F
100
AcDbEntity
  8
0
100
AcDbSpline
210
0.0
220
0.0
230
1.0
 70
  1160
 71
     3
 72
     8
 73
     4
 74
     0
 42
0.000000001
 43
0.0000000001
 40
0.0
 40
0.0
 40
0.0
 40
0.0
 40
1.0
 40
1.0
 40
1.0
 40
1.0
 10
43.64493260142294
 20
2.558838849446289
 30
0.0
 10
43.7462544316534
 20
2.558838849446289
 30
0.0
 10
43.79283918118465
 20
2.576308130520505
 30
0.0
 10
43.84641164314557
 20
2.632209829957997
 30
0.0
  0
SPLINE
  5
319
330
1F
100
AcDbEntity
  8
0
100
AcDbSpline
210
0.0
220
0.0
230
1.0
 70
  1160
 71
     3
 72
     8
 73
     4
 74
     0
 42
0.000000001
 43
0.0000000001
 40
0.0
 40
0.0
 40
0.0
 40
0.0
 40
1.0
 40
1.0
 40
1.0
 40
1.0
 10
43.84641164314557
 20
2.632209829957997
 30
0.0
 10
43.95122732959089
 20
2.744013228832979
 30
0.0
 10
43.94307499842291
 20
2.90822447093063
 30
0.0
 10
43.82195464964168
 20
3.171428305782171
 30
0.0
  0
SPLINE
  5
320
330
1F
100
AcDbEntity
  8
0
100
AcDbSpline
210
0.0
220
0.0
230
1.0
 70
  1160
 71
     3
 72
     8
 73
     4
 74
     0
 42
0.000000001
 43
0.0000000001
 40
0.0
 40
0.0
 40
0.0
 40
0.0
 40
1.0
 40
1.0
 40
1.0
 40
1.0
 10
43.82195464964168
 20
3.171428305782171
 30
0.0
 10
43.73693748174715
 20
3.3542734476923
 30
0.0
 10
43.71248048824325
 20
3.453266040446205
 30
0.0
 10
43.72645591310262
 20
3.560410964368063
 30
0.0
  0
SPLINE
  5
321
330
1F
100
AcDbEntity
  8
0
100
AcDbSpline
210
0.0
220
0.0
230
1.0
 70
  1160
 71
     3
 72
     8
 73
     4
 74
     0
 42
0.000000001
 43
0.0000000001
 40
0.0
 40
0.0
 40
0.0
 40
0.0
 40
1.0
 40
1.0
 40
1.0
 40
1.0
 10
43.72645591310262
 20
3.560410964368063
 30
0.0
 10
43.74159595670027
 20
3.682695931887582
 30
0.0
 10
43.79167456244636
 20
3.690848263055549
 30
0.0
 10
43.82777774333308
 20
3.576715626704007
 30
0.0
  0
SPLINE
  5
322
330
1F
100
AcDbEntity
  8
0
100
AcDbSpline
210
0.0
220
0.0
230
1.0
 70
  1160
 71
     3
 72
     8
 73
     4
 74
     0
 42
0.000000001
 43
0.0000000001
 40
0.0
 40
0.0
 40
0.0
 40
0.0
 40
1.0
 40
1.0
 40
1.0
 40
1.0
 10
43.82777774333308
 20
3.576715626704007
 30
0.0
 10
43.83825931197761
 20
3.541777064555574
 30
0.0
 10
43.86038706800496
 20
3.463747609090731
 30
0.0
 10
43.87785634907917
 20
3.403187434700114
 30
0.0
  0
SPLINE
  5
323
330
1F
100
AcDbEntity
  8
0
100
AcDbSpline
210
0.0
220
0.0
230
1.0
 70
  1160
 71
     3
 72
     8
 73
     4
 74
     0
 42
0.000000001
 43
0.0000000001
 40
0.0
 40
0.0
 40
0.0
 40
0.0
 40
1.0
 40
1.0
 40
1.0
 40
1.0
 10
43.87785634907917
 20
3.403187434700114
 30
0.0
 10
43.95821504202056
 20
3.10504503770014
 30
0.0
 10
44.09680467187601
 20
2.957138457938437
 30
0.0
 10
44.29711909486037
 20
2.955973839200154
 30
0.0
  0
SPLINE
  5
324
330
1F
100
AcDbEntity
  8
0
100
AcDbSpline
210
0.0
220
0.0
230
1.0
 70
  1160
 71
     3
 72
     8
 73
     4
 74
     0
 42
0.000000001
 43
0.0000000001
 40
0.0
 40
0.0
 40
0.0
 40
0.0
 40
1.0
 40
1.0
 40
1.0
 40
1.0
 10
44.29711909486037
 20
2.955973839200154
 30
0.0
 10
44.48578733046193
 20
2.955973839200154
 30
0.0
 10
44.62204772284081
 20
3.085246519149364
 30
0.0
 10
44.62204772284081
 20
3.265762423582934
 30
0.0
  0
SPLINE
  5
325
330
1F
100
AcDbEntity
  8
0
100
AcDbSpline
210
0.0
220
0.0
230
1.0
 70
  1160
 71
     3
 72
     8
 73
     4
 74
     0
 42
0.000000001
 43
0.0000000001
 40
0.0
 40
0.0
 40
0.0
 40
0.0
 40
1.0
 40
1.0
 40
1.0
 40
1.0
 10
44.62204772284081
 20
3.265762423582934
 30
0.0
 10
44.62204772284081
 20
3.459089134137606
 30
0.0
 10
44.46133033695803
 20
3.597678763993062
 30
0.0
 10
44.29828371359866
 20
3.542941683293854
 30
0.0
  0
SPLINE
  5
326
330
1F
100
AcDbEntity
  8
0
100
AcDbSpline
210
0.0
220
0.0
230
1.0
 70
  1160
 71
     3
 72
     8
 73
     4
 74
     0
 42
0.000000001
 43
0.0000000001
 40
0.0
 40
0.0
 40
0.0
 40
0.0
 40
1.0
 40
1.0
 40
1.0
 40
1.0
 10
44.29828371359866
 20
3.542941683293854
 30
0.0
 10
44.21908963939554
 20
3.517320071051663
 30
0.0
 10
44.15503560879008
 20
3.404352053438397
 30
0.0
 10
44.18531569598538
 20
3.346121116524333
 30
0.0
  0
SPLINE
  5
327
330
1F
100
AcDbEntity
  8
0
100
AcDbSpline
210
0.0
220
0.0
230
1.0
 70
  1160
 71
     3
 72
     8
 73
     4
 74
     0
 42
0.000000001
 43
0.0000000001
 40
0.0
 40
0.0
 40
0.0
 40
0.0
 40
1.0
 40
1.0
 40
1.0
 40
1.0
 10
44.18531569598538
 20
3.346121116524333
 30
0.0
 10
44.20511421453618
 20
3.310017935637624
 30
0.0
 10
44.2214188768721
 20
3.315841029329028
 30
0.0
 10
44.2214188768721
 20
3.360096541383711
 30
0.0
  0
SPLINE
  5
328
330
1F
100
AcDbEntity
  8
0
100
AcDbSpline
210
0.0
220
0.0
230
1.0
 70
  1160
 71
     3
 72
     8
 73
     4
 74
     0
 42
0.000000001
 43
0.0000000001
 40
0.0
 40
0.0
 40
0.0
 40
0.0
 40
1.0
 40
1.0
 40
1.0
 40
1.0
 10
44.2214188768721
 20
3.360096541383711
 30
0.0
 10
44.2214188768721
 20
3.40551667217667
 30
0.0
 10
44.245875870376
 20
3.443949090539952
 30
0.0
 10
44.29129600116897
 20
3.467241465305576
 30
0.0
  0
SPLINE
  5
329
330
1F
100
AcDbEntity
  8
0
100
AcDbSpline
210
0.0
220
0.0
230
1.0
 70
  1160
 71
     3
 72
     8
 73
     4
 74
     0
 42
0.000000001
 43
0.0000000001
 40
0.0
 40
0.0
 40
0.0
 40
0.0
 40
1.0
 40
1.0
 40
1.0
 40
1.0
 10
44.29129600116897
 20
3.467241465305576
 30
0.0
 10
44.36699621915725
 20
3.506838502407131
 30
0.0
 10
44.45201338705176
 20
3.470735321520418
 30
0.0
 10
44.49859813658301
 20
3.379895059934494
 30
0.0
  0
SPLINE
  5
330
330
1F
100
AcDbEntity
  8
0
100
AcDbSpline
210
0.0
220
0.0
230
1.0
 70
  1160
 71
     3
 72
     8
 73
     4
 74
     0
 42
0.000000001
 43
0.0000000001
 40
0.0
 40
0.0
 40
0.0
 40
0.0
 40
1.0
 40
1.0
 40
1.0
 40
1.0
 10
44.49859813658301
 20
3.379895059934494
 30
0.0
 10
44.57895682952442
 20
3.219177674051689
 30
0.0
 10
44.44619029336037
 20
3.040991007094675
 30
0.0
 10
44.26567438892679
 20
3.07127109428999
 30
0.0
  0
SPLINE
  5
331
330
1F
100
AcDbEntity
  8
0
100
AcDbSpline
210
0.0
220
0.0
230
1.0
 70
  1160
 71
     3
 72
     8
 73
     4
 74
     0
 42
0.000000001
 43
0.0000000001
 40
0.0
 40
0.0
 40
0.0
 40
0.0
 40
1.0
 40
1.0
 40
1.0
 40
1.0
 10
44.26567438892679
 20
3.07127109428999
 30
0.0
 10
44.22840658930179
 20
3.07825880671967
 30
0.0
 10
44.2027849770596
 20
3.092234231579052
 30
0.0
 10
44.16784641491118
 20
3.128337412465764
 30
0.0
  0
SPLINE
  5
332
330
1F
100
AcDbEntity
  8
0
100
AcDbSpline
210
0.0
220
0.0
230
1.0
 70
  1160
 71
     3
 72
     8
 73
     4
 74
     0
 42
0.000000001
 43
0.0000000001
 40
0.0
 40
0.0
 40
0.0
 40
0.0
 40
1.0
 40
1.0
 40
1.0
 40
1.0
 10
44.16784641491118
 20
3.128337412465764
 30
0.0
 10
44.10845085925883
 20
3.186568349379818
 30
0.0
 10
44.09214619692289
 20
3.238976192602471
 30
0.0
 10
44.05720763477447
 20
3.464912227829014
 30
0.0
  0
SPLINE
  5
333
330
1F
100
AcDbEntity
  8
0
100
AcDbSpline
210
0.0
220
0.0
230
1.0
 70
  1160
 71
     3
 72
     8
 73
     4
 74
     0
 42
0.000000001
 43
0.0000000001
 40
0.0
 40
0.0
 40
0.0
 40
0.0
 40
1.0
 40
1.0
 40
1.0
 40
1.0
 10
44.05720763477447
 20
3.464912227829014
 30
0.0
 10
44.03275064127057
 20
3.62795885118837
 30
0.0
 10
43.99897669786041
 20
3.761890006090702
 30
0.0
 10
43.96054427949713
 20
3.850401030200078
 30
0.0
  0
LINE
  5
334
330
1F
100
AcDbEntity
  8
0
100
AcDbLine
 10
43.96054427949714
 20
3.850401030200078
 30
0.0
 11
43.93958114220807
 21
3.895821160993037
 31
0.0
  0
LINE
  5
335
330
1F
100
AcDbEntity
  8
0
100
AcDbLine
 10
43.93958114220807
 20
3.895821160993037
 30
0.0
 11
44.00247055407525
 21
3.887668829825074
 31
0.0
  0
SPLINE
  5
336
330
1F
100
AcDbEntity
  8
0
100
AcDbSpline
210
0.0
220
0.0
230
1.0
 70
  1160
 71
     3
 72
     8
 73
     4
 74
     0
 42
0.000000001
 43
0.0000000001
 40
0.0
 40
0.0
 40
0.0
 40
0.0
 40
1.0
 40
1.0
 40
1.0
 40
1.0
 10
44.00247055407525
 20
3.887668829825063
 30
0.0
 10
44.21676040191898
 20
3.859717980106317
 30
0.0
 10
44.28780214495413
 20
3.856224123891472
 30
0.0
 10
44.38679473770802
 20
3.869034930012574
 30
0.0
  0
SPLINE
  5
337
330
1F
100
AcDbEntity
  8
0
100
AcDbSpline
210
0.0
220
0.0
230
1.0
 70
  1160
 71
     3
 72
     8
 73
     4
 74
     0
 42
0.000000001
 43
0.0000000001
 40
0.0
 40
0.0
 40
0.0
 40
0.0
 40
1.0
 40
1.0
 40
1.0
 40
1.0
 10
44.38679473770802
 20
3.869034930012574
 30
0.0
 10
44.6045784417666
 20
3.894656542254757
 30
0.0
 10
44.75132040279002
 20
3.985496803840685
 30
0.0
 10
44.81886828961033
 20
4.135732621078954
 30
0.0
  0
SPLINE
  5
338
330
1F
100
AcDbEntity
  8
0
100
AcDbSpline
210
0.0
220
0.0
230
1.0
 70
  1160
 71
     3
 72
     8
 73
     4
 74
     0
 42
0.000000001
 43
0.0000000001
 40
0.0
 40
0.0
 40
0.0
 40
0.0
 40
1.0
 40
1.0
 40
1.0
 40
1.0
 10
44.81886828961033
 20
4.135732621078954
 30
0.0
 10
44.85147761428222
 20
4.206774364114099
 30
0.0
 10
44.8584653267119
 20
4.416405737004705
 30
0.0
 10
44.83167909573142
 20
4.503752142375795
 30
0.0
  0
SPLINE
  5
339
330
1F
100
AcDbEntity
  8
0
100
AcDbSpline
210
0.0
220
0.0
230
1.0
 70
  1160
 71
     3
 72
     8
 73
     4
 74
     0
 42
0.000000001
 43
0.0000000001
 40
0.0
 40
0.0
 40
0.0
 40
0.0
 40
1.0
 40
1.0
 40
1.0
 40
1.0
 10
44.13989556519242
 20
4.099629440192238
 30
0.0
 10
44.08632310323151
 20
4.029752315895368
 30
0.0
 10
43.96170889823541
 20
4.025093840942243
 30
0.0
 10
43.90464258005965
 20
4.089147871547705
 30
0.0
  0
SPLINE
  5
340
330
1F
100
AcDbEntity
  8
0
100
AcDbSpline
210
0.0
220
0.0
230
1.0
 70
  1160
 71
     3
 72
     8
 73
     4
 74
     0
 42
0.000000001
 43
0.0000000001
 40
0.0
 40
0.0
 40
0.0
 40
0.0
 40
1.0
 40
1.0
 40
1.0
 40
1.0
 10
43.90464258005965
 20
4.089147871547705
 30
0.0
 10
43.80448536856746
 20
4.200951270422699
 30
0.0
 10
43.95355656706745
 20
4.339540900278155
 30
0.0
 10
44.09913390935258
 20
4.269663775981285
 30
0.0
  0
SPLINE
  5
341
330
1F
100
AcDbEntity
  8
0
100
AcDbSpline
210
0.0
220
0.0
230
1.0
 70
  1160
 71
     3
 72
     8
 73
     4
 74
     0
 42
0.000000001
 43
0.0000000001
 40
0.0
 40
0.0
 40
0.0
 40
0.0
 40
1.0
 40
1.0
 40
1.0
 40
1.0
 10
44.09913390935258
 20
4.269663775981285
 30
0.0
 10
44.16318793995804
 20
4.239383688785974
 30
0.0
 10
44.18415107724711
 20
4.154366520891453
 30
0.0
 10
44.13989556519242
 20
4.099629440192238
 30
0.0
  0
SPLINE
  5
342
330
1F
100
AcDbEntity
  8
0
100
AcDbSpline
210
0.0
220
0.0
230
1.0
 70
  1160
 71
     3
 72
     8
 73
     4
 74
     0
 42
0.000000001
 43
0.0000000001
 40
0.0
 40
0.0
 40
0.0
 40
0.0
 40
1.0
 40
1.0
 40
1.0
 40
1.0
 10
44.104957003044
 20
4.472307436442207
 30
0.0
 10
44.00829364776665
 20
4.383796412332831
 30
0.0
 10
43.83127159954792
 20
4.4536735366297
 30
0.0
 10
43.85339935557527
 20
4.572464647934385
 30
0.0
  0
SPLINE
  5
343
330
1F
100
AcDbEntity
  8
0
100
AcDbSpline
210
0.0
220
0.0
230
1.0
 70
  1160
 71
     3
 72
     8
 73
     4
 74
     0
 42
0.000000001
 43
0.0000000001
 40
0.0
 40
0.0
 40
0.0
 40
0.0
 40
1.0
 40
1.0
 40
1.0
 40
1.0
 10
43.85339935557527
 20
4.572464647934385
 30
0.0
 10
43.86504554295807
 20
4.63535405980156
 30
0.0
 10
43.92444109861041
 20
4.673786478164831
 30
0.0
 10
44.00829364776665
 20
4.676115715641397
 30
0.0
  0
SPLINE
  5
344
330
1F
100
AcDbEntity
  8
0
100
AcDbSpline
210
0.0
220
0.0
230
1.0
 70
  1160
 71
     3
 72
     8
 73
     4
 74
     0
 42
0.000000001
 43
0.0000000001
 40
0.0
 40
0.0
 40
0.0
 40
0.0
 40
1.0
 40
1.0
 40
1.0
 40
1.0
 10
44.00829364776665
 20
4.676115715641397
 30
0.0
 10
44.13174323402445
 20
4.677280334379677
 30
0.0
 10
44.19230340841507
 20
4.551501510645312
 30
0.0
 10
44.104957003044
 20
4.472307436442207
 30
0.0
  0
SPLINE
  5
345
330
1F
100
AcDbEntity
  8
0
100
AcDbSpline
210
0.0
220
0.0
230
1.0
 70
  1160
 71
     3
 72
     8
 73
     4
 74
     0
 42
0.000000001
 43
0.0000000001
 40
0.0
 40
0.0
 40
0.0
 40
0.0
 40
1.0
 40
1.0
 40
1.0
 40
1.0
 10
44.08632310323151
 20
4.211432839067224
 30
0.0
 10
44.0245983101026
 20
4.274322250934407
 30
0.0
 10
43.90930105501275
 20
4.219585170235191
 30
0.0
 10
43.93608728599323
 20
4.141555714770355
 30
0.0
  0
SPLINE
  5
346
330
1F
100
AcDbEntity
  8
0
100
AcDbSpline
210
0.0
220
0.0
230
1.0
 70
  1160
 71
     3
 72
     8
 73
     4
 74
     0
 42
0.000000001
 43
0.0000000001
 40
0.0
 40
0.0
 40
0.0
 40
0.0
 40
1.0
 40
1.0
 40
1.0
 40
1.0
 10
43.93608728599323
 20
4.141555714770355
 30
0.0
 10
43.96403813571197
 20
4.063526259305515
 30
0.0
 10
44.104957003044
 20
4.08448939659458
 30
0.0
 10
44.104957003044
 20
4.166012708274259
 30
0.0
  0
SPLINE
  5
347
330
1F
100
AcDbEntity
  8
0
100
AcDbSpline
210
0.0
220
0.0
230
1.0
 70
  1160
 71
     3
 72
     8
 73
     4
 74
     0
 42
0.000000001
 43
0.0000000001
 40
0.0
 40
0.0
 40
0.0
 40
0.0
 40
1.0
 40
1.0
 40
1.0
 40
1.0
 10
44.104957003044
 20
4.166012708274259
 30
0.0
 10
44.104957003044
 20
4.181152751871916
 30
0.0
 10
44.09680467187601
 20
4.202115889160971
 30
0.0
 10
44.08632310323151
 20
4.211432839067224
 30
0.0
  0
ELLIPSE
  5
348
330
1F
100
AcDbEntity
  8
0
100
AcDbEllipse
 10
44.00181091402188
 20
4.560106296193104
 30
0.0
 11
-0.0848920179649076
 21
0.0
 31
0.0
210
0.0
220
0.0
230
1.0
 40
0.8584975636738684
 41
-1.570796326794896
 42
4.712388980384689
  0
ENDSEC
  0
SECTION
  2
OBJECTS
  0
DICTIONARY
  5
C
330
0
100
AcDbDictionary
281
     1
  3
ACAD_CIP_PREVIOUS_PRODUCT_INFO
350
101005A
  3
ACAD_COLOR
350
1010036
  3
ACAD_DETAILVIEWSTYLE
350
1010050
  3
ACAD_GROUP
350
D
  3
ACAD_LAYOUT
350
1010053
  3
ACAD_MATERIAL
350
1010004
  3
ACAD_MLEADERSTYLE
350
101004C
  3
ACAD_MLINESTYLE
350
17
  3
ACAD_PLOTSETTINGS
350
1010054
  3
ACAD_PLOTSTYLENAME
350
1010002
  3
ACAD_SCALELIST
350
101003A
  3
ACAD_SECTIONVIEWSTYLE
350
101004E
  3
ACAD_TABLESTYLE
350
1010037
  3
ACAD_VISUALSTYLE
350
101001D
  3
ACDB_RECOMPOSE_DATA
350
1010093
  3
AcDbVariableDictionary
350
1010083
  0
DICTIONARY
  5
1010067
330
2
100
AcDbDictionary
280
     1
281
     1
  3
ACAD_LAYERSTATES
360
1010068
  0
DICTIONARY
  5
1010062
330
50
100
AcDbDictionary
280
     1
281
     1
  3
ADSK_XREC_LAYER_RECONCILED
360
1010063
  0
XRECORD
  5
101005A
102
{ACAD_REACTORS
330
C
102
}
330
C
100
AcDbXrecord
280
     1
300
ACDMAC
300
2017
300
ACDMAC_F_S
  0
DICTIONARY
  5
1010036
102
{ACAD_REACTORS
330
C
102
}
330
C
100
AcDbDictionary
281
     1
  0
DICTIONARY
  5
1010050
102
{ACAD_REACTORS
330
C
102
}
330
C
100
AcDbDictionary
281
     1
  3
Imperial24
350
1010051
  0
DICTIONARY
  5
D
330
C
100
AcDbDictionary
281
     1
  0
DICTIONARY
  5
1010053
102
{ACAD_REACTORS
330
C
102
}
330
C
100
AcDbDictionary
281
     1
  3
Layout1
350
1010056
  3
Model
350
1010055
  0
DICTIONARY
  5
1010004
102
{ACAD_REACTORS
330
C
102
}
330
C
100
AcDbDictionary
281
     1
  3
ByBlock
350
101000D
  3
ByLayer
350
1010005
  3
Global
350
1010015
  0
DICTIONARY
  5
101004C
102
{ACAD_REACTORS
330
C
102
}
330
C
100
AcDbDictionary
281
     1
  3
Standard
350
101004D
  0
DICTIONARY
  5
17
330
C
100
AcDbDictionary
281
     1
  3
Standard
350
1010039
  0
DICTIONARY
  5
1010054
102
{ACAD_REACTORS
330
C
102
}
330
C
100
AcDbDictionary
281
     1
  0
ACDBDICTIONARYWDFLT
  5
1010002
102
{ACAD_REACTORS
330
C
102
}
330
C
100
AcDbDictionary
281
     1
  3
Normal
350
1010003
100
AcDbDictionaryWithDefault
340
1010003
  0
DICTIONARY
  5
101003A
102
{ACAD_REACTORS
330
C
102
}
330
C
100
AcDbDictionary
281
     1
  3
A0
350
101003B
  3
A1
350
101003C
  3
A2
350
101003D
  3
A3
350
101003E
  3
A4
350
101003F
  3
A5
350
1010040
  3
A6
350
1010041
  3
A7
350
1010042
  3
A8
350
1010043
  3
A9
350
1010044
  3
B0
350
1010045
  3
B1
350
1010046
  3
B2
350
1010047
  3
B3
350
1010048
  3
B4
350
1010049
  3
B5
350
101004A
  3
B6
350
101004B
  0
DICTIONARY
  5
101004E
102
{ACAD_REACTORS
330
C
102
}
330
C
100
AcDbDictionary
281
     1
  3
Imperial24
350
101004F
  0
DICTIONARY
  5
1010037
102
{ACAD_REACTORS
330
C
102
}
330
C
100
AcDbDictionary
281
     1
  3
Standard
350
1010038
  0
DICTIONARY
  5
101001D
102
{ACAD_REACTORS
330
C
102
}
330
C
100
AcDbDictionary
281
     1
  3
2dWireframe
350
1010023
  3
Basic
350
1010022
  3
Brighten
350
1010029
  3
ColorChange
350
101002D
  3
Conceptual
350
1010026
  3
Dim
350
1010028
  3
EdgeColorOff
350
1010035
  3
Facepattern
350
101002C
  3
Flat
350
101001E
  3
FlatWithEdges
350
101001F
  3
Gouraud
350
1010020
  3
GouraudWithEdges
350
1010021
  3
Hidden
350
1010025
  3
JitterOff
350
1010033
  3
Linepattern
350
101002B
  3
OverhangOff
350
1010034
  3
Realistic
350
1010027
  3
Shaded
350
1010032
  3
Shaded with edges
350
1010031
  3
Shades of Gray
350
101002E
  3
Sketchy
350
101002F
  3
Thicken
350
101002A
  3
Wireframe
350
1010024
  3
X-Ray
350
1010030
  0
XRECORD
  5
1010093
102
{ACAD_REACTORS
330
C
102
}
330
C
100
AcDbXrecord
280
     1
 90
        1
330
1010038
330
101004F
330
1010051
  0
DICTIONARY
  5
1010083
102
{ACAD_REACTORS
330
C
102
}
330
C
100
AcDbDictionary
281
     1
  3
CANNOSCALE
350
1010089
  3
CMLEADERSTYLE
350
1010085
  3
CTABLESTYLE
350
1010084
  3
CVIEWDETAILSTYLE
350
1010086
  3
CVIEWSECTIONSTYLE
350
1010087
  3
LAYEREVAL
350
101008B
  3
LAYERNOTIFY
350
101008C
  3
LIGHTINGUNITS
350
101008A
  3
MSLTSCALE
350
1010088
  0
DICTIONARY
  5
1010068
102
{ACAD_REACTORS
330
1010067
102
}
330
1010067
100
AcDbDictionary
281
     1
  0
XRECORD
  5
1010063
102
{ACAD_REACTORS
330
1010062
102
}
330
1010062
100
AcDbXrecord
280
     1
290
     1
  0
ACDBDETAILVIEWSTYLE
  5
1010051
102
{ACAD_XDICTIONARY
360
1010091
102
}
102
{ACAD_REACTORS
330
1010050
102
}
330
1010050
100
AcDbModelDocViewStyle
 70
     0
  3
Imperial24
290
     0
100
AcDbDetailViewStyle
 70
     0
 71
     0
 90
        3
 71
     1
340
11
 62
   256
 40
0.24
340
0
 62
   256
 40
0.24
300

 40
0.36
280
     3
 71
     2
340
0
 90
       25
 62
   256
 71
     3
340
11
 62
   256
 40
0.24
 90
        1
 40
0.75
 90
        1
300
%<\AcVar ViewType \f "%tc1">% %<\AcVar ViewDetailId>%\PSCALE %<\AcVar ViewScale \f "%sn">%
 71
     4
340
0
 90
       25
 62
   256
340
0
 90
       25
 62
   256
280
     0
  0
LAYOUT
  5
1010056
102
{ACAD_REACTORS
330
1010053
102
}
330
1010053
100
AcDbPlotSettings
  1

  2

  4

  6

 40
0.0
 41
0.0
 42
0.0
 43
0.0
 44
0.0
 45
0.0
 46
0.0
 47
0.0
 48
0.0
 49
0.0
140
0.0
141
0.0
142
1.0
143
1.0
 70
   688
 72
     0
 73
     0
 74
     5
  7

 75
    16
147
1.0
 76
     0
 77
     2
 78
   300
148
0.0
149
0.0
100
AcDbLayout
  1
Layout1
 70
     1
 71
     1
 10
0.0
 20
0.0
 11
12.0
 21
9.0
 12
0.0
 22
0.0
 32
0.0
 14
1.000000000000000E+20
 24
1.000000000000000E+20
 34
1.000000000000000E+20
 15
-1.000000000000000E+20
 25
-1.000000000000000E+20
 35
-1.000000000000000E+20
146
0.0
 13
0.0
 23
0.0
 33
0.0
 16
1.0
 26
0.0
 36
0.0
 17
0.0
 27
1.0
 37
0.0
 76
     0
330
1B
  0
LAYOUT
  5
1010055
102
{ACAD_REACTORS
330
1010053
102
}
330
1010053
100
AcDbPlotSettings
  1

  2

  4

  6

 40
0.0
 41
0.0
 42
0.0
 43
0.0
 44
0.0
 45
0.0
 46
0.0
 47
0.0
 48
0.0
 49
0.0
140
0.0
141
0.0
142
1.0
143
1.0
 70
  1712
 72
     0
 73
     0
 74
     0
  7

 75
     0
147
1.0
 76
     0
 77
     2
 78
   300
148
0.0
149
0.0
100
AcDbLayout
  1
Model
 70
     1
 71
     0
 10
0.0
 20
0.0
 11
12.0
 21
9.0
 12
0.0
 22
0.0
 32
0.0
 14
0.0
 24
0.0
 34
0.0
 15
0.0
 25
0.0
 35
0.0
146
0.0
 13
0.0
 23
0.0
 33
0.0
 16
1.0
 26
0.0
 36
0.0
 17
0.0
 27
1.0
 37
0.0
 76
     0
330
1F
331
1010059
  0
MATERIAL
  5
101000D
102
{ACAD_XDICTIONARY
360
101000E
102
}
102
{ACAD_REACTORS
330
1010004
102
}
330
1010004
100
AcDbMaterial
  1
ByBlock
 72
     0
 43
0.0208333333333333
 43
0.0
 43
0.0
 43
0.0
 43
0.0
 43
0.0208333333333333
 43
0.0
 43
0.0
 43
0.0
 43
0.0
 43
1.0
 43
0.0
 43
0.0
 43
0.0
 43
0.0
 43
1.0
 77
     0
 47
0.0208333333333333
 47
0.0
 47
0.0
 47
0.0
 47
0.0
 47
0.0208333333333333
 47
0.0
 47
0.0
 47
0.0
 47
0.0
 47
1.0
 47
0.0
 47
0.0
 47
0.0
 47
0.0
 47
1.0
171
     0
 49
0.0208333333333333
 49
0.0
 49
0.0
 49
0.0
 49
0.0
 49
0.0208333333333333
 49
0.0
 49
0.0
 49
0.0
 49
0.0
 49
1.0
 49
0.0
 49
0.0
 49
0.0
 49
0.0
 49
1.0
175
     0
142
0.0208333333333333
142
0.0
142
0.0
142
0.0
142
0.0
142
0.0208333333333333
142
0.0
142
0.0
142
0.0
142
0.0
142
1.0
142
0.0
142
0.0
142
0.0
142
0.0
142
1.0
179
     0
144
0.0208333333333333
144
0.0
144
0.0
144
0.0
144
0.0
144
0.0208333333333333
144
0.0
144
0.0
144
0.0
144
0.0
144
1.0
144
0.0
144
0.0
144
0.0
144
0.0
144
1.0
147
0.0208333333333333
147
0.0
147
0.0
147
0.0
147
0.0
147
0.0208333333333333
147
0.0
147
0.0
147
0.0
147
0.0
147
1.0
147
0.0
147
0.0
147
0.0
147
0.0
147
1.0
  0
MATERIAL
  5
1010005
102
{ACAD_XDICTIONARY
360
1010006
102
}
102
{ACAD_REACTORS
330
1010004
102
}
330
1010004
100
AcDbMaterial
  1
ByLayer
 72
     0
 43
0.0208333333333333
 43
0.0
 43
0.0
 43
0.0
 43
0.0
 43
0.0208333333333333
 43
0.0
 43
0.0
 43
0.0
 43
0.0
 43
1.0
 43
0.0
 43
0.0
 43
0.0
 43
0.0
 43
1.0
 77
     0
 47
0.0208333333333333
 47
0.0
 47
0.0
 47
0.0
 47
0.0
 47
0.0208333333333333
 47
0.0
 47
0.0
 47
0.0
 47
0.0
 47
1.0
 47
0.0
 47
0.0
 47
0.0
 47
0.0
 47
1.0
171
     0
 49
0.0208333333333333
 49
0.0
 49
0.0
 49
0.0
 49
0.0
 49
0.0208333333333333
 49
0.0
 49
0.0
 49
0.0
 49
0.0
 49
1.0
 49
0.0
 49
0.0
 49
0.0
 49
0.0
 49
1.0
175
     0
142
0.0208333333333333
142
0.0
142
0.0
142
0.0
142
0.0
142
0.0208333333333333
142
0.0
142
0.0
142
0.0
142
0.0
142
1.0
142
0.0
142
0.0
142
0.0
142
0.0
142
1.0
179
     0
144
0.0208333333333333
144
0.0
144
0.0
144
0.0
144
0.0
144
0.0208333333333333
144
0.0
144
0.0
144
0.0
144
0.0
144
1.0
144
0.0
144
0.0
144
0.0
144
0.0
144
1.0
147
0.0208333333333333
147
0.0
147
0.0
147
0.0
147
0.0
147
0.0208333333333333
147
0.0
147
0.0
147
0.0
147
0.0
147
1.0
147
0.0
147
0.0
147
0.0
147
0.0
147
1.0
  0
MATERIAL
  5
1010015
102
{ACAD_XDICTIONARY
360
1010016
102
}
102
{ACAD_REACTORS
330
1010004
102
}
330
1010004
100
AcDbMaterial
  1
Global
 72
     0
 43
0.0208333333333333
 43
0.0
 43
0.0
 43
0.0
 43
0.0
 43
0.0208333333333333
 43
0.0
 43
0.0
 43
0.0
 43
0.0
 43
1.0
 43
0.0
 43
0.0
 43
0.0
 43
0.0
 43
1.0
 77
     0
 47
0.0208333333333333
 47
0.0
 47
0.0
 47
0.0
 47
0.0
 47
0.0208333333333333
 47
0.0
 47
0.0
 47
0.0
 47
0.0
 47
1.0
 47
0.0
 47
0.0
 47
0.0
 47
0.0
 47
1.0
171
     0
 49
0.0208333333333333
 49
0.0
 49
0.0
 49
0.0
 49
0.0
 49
0.0208333333333333
 49
0.0
 49
0.0
 49
0.0
 49
0.0
 49
1.0
 49
0.0
 49
0.0
 49
0.0
 49
0.0
 49
1.0
175
     0
142
0.0208333333333333
142
0.0
142
0.0
142
0.0
142
0.0
142
0.0208333333333333
142
0.0
142
0.0
142
0.0
142
0.0
142
1.0
142
0.0
142
0.0
142
0.0
142
0.0
142
1.0
179
     0
144
0.0208333333333333
144
0.0
144
0.0
144
0.0
144
0.0
144
0.0208333333333333
144
0.0
144
0.0
144
0.0
144
0.0
144
1.0
144
0.0
144
0.0
144
0.0
144
0.0
144
1.0
147
0.0208333333333333
147
0.0
147
0.0
147
0.0
147
0.0
147
0.0208333333333333
147
0.0
147
0.0
147
0.0
147
0.0
147
1.0
147
0.0
147
0.0
147
0.0
147
0.0
147
1.0
  0
MLEADERSTYLE
  5
101004D
102
{ACAD_REACTORS
330
101004C
102
}
330
101004C
100
AcDbMLeaderStyle
179
     2
170
     2
171
     1
172
     0
 90
        2
 40
0.0
 41
0.0
173
     1
 91
-1056964608
340
14
 92
       -2
290
     1
 42
0.09
291
     1
 43
0.36
  3
Standard
 44
0.18
300

342
11
174
     1
178
     6
175
     1
176
     0
 93
-1056964608
 45
0.18
292
     0
297
     0
 46
0.18
 94
-1056964608
 47
1.0
 49
1.0
140
1.0
293
     1
141
0.0
294
     1
177
     0
142
1.0
295
     0
296
     0
143
0.125
271
     0
272
     9
273
     9
298
     0
  0
MLINESTYLE
  5
1010039
102
{ACAD_REACTORS
330
17
102
}
330
17
100
AcDbMlineStyle
  2
STANDARD
 70
     0
  3

 62
   256
 51
90.0
 52
90.0
 71
     2
 49
0.5
 62
   256
  6
BYLAYER
 49
-0.5
 62
   256
  6
BYLAYER
  0
ACDBPLACEHOLDER
  5
1010003
102
{ACAD_REACTORS
330
1010002
102
}
330
1010002
  0
SCALE
  5
101003B
102
{ACAD_REACTORS
330
101003A
102
}
330
101003A
100
AcDbScale
 70
     0
300
1:1
140
1.0
141
1.0
290
     1
  0
SCALE
  5
101003C
102
{ACAD_REACTORS
330
101003A
102
}
330
101003A
100
AcDbScale
 70
     0
300
1/128" = 1'-0"
140
0.0078125
141
12.0
290
     0
  0
SCALE
  5
101003D
102
{ACAD_REACTORS
330
101003A
102
}
330
101003A
100
AcDbScale
 70
     0
300
1/64" = 1'-0"
140
0.015625
141
12.0
290
     0
  0
SCALE
  5
101003E
102
{ACAD_REACTORS
330
101003A
102
}
330
101003A
100
AcDbScale
 70
     0
300
1/32" = 1'-0"
140
0.03125
141
12.0
290
     0
  0
SCALE
  5
101003F
102
{ACAD_REACTORS
330
101003A
102
}
330
101003A
100
AcDbScale
 70
     0
300
1/16" = 1'-0"
140
0.0625
141
12.0
290
     0
  0
SCALE
  5
1010040
102
{ACAD_REACTORS
330
101003A
102
}
330
101003A
100
AcDbScale
 70
     0
300
3/32" = 1'-0"
140
0.09375
141
12.0
290
     0
  0
SCALE
  5
1010041
102
{ACAD_REACTORS
330
101003A
102
}
330
101003A
100
AcDbScale
 70
     0
300
1/8" = 1'-0"
140
0.125
141
12.0
290
     0
  0
SCALE
  5
1010042
102
{ACAD_REACTORS
330
101003A
102
}
330
101003A
100
AcDbScale
 70
     0
300
3/16" = 1'-0"
140
0.1875
141
12.0
290
     0
  0
SCALE
  5
1010043
102
{ACAD_REACTORS
330
101003A
102
}
330
101003A
100
AcDbScale
 70
     0
300
1/4" = 1'-0"
140
0.25
141
12.0
290
     0
  0
SCALE
  5
1010044
102
{ACAD_REACTORS
330
101003A
102
}
330
101003A
100
AcDbScale
 70
     0
300
3/8" = 1'-0"
140
0.375
141
12.0
290
     0
  0
SCALE
  5
1010045
102
{ACAD_REACTORS
330
101003A
102
}
330
101003A
100
AcDbScale
 70
     0
300
1/2" = 1'-0"
140
0.5
141
12.0
290
     0
  0
SCALE
  5
1010046
102
{ACAD_REACTORS
330
101003A
102
}
330
101003A
100
AcDbScale
 70
     0
300
3/4" = 1'-0"
140
0.75
141
12.0
290
     0
  0
SCALE
  5
1010047
102
{ACAD_REACTORS
330
101003A
102
}
330
101003A
100
AcDbScale
 70
     0
300
1" = 1'-0"
140
1.0
141
12.0
290
     0
  0
SCALE
  5
1010048
102
{ACAD_REACTORS
330
101003A
102
}
330
101003A
100
AcDbScale
 70
     0
300
1-1/2" = 1'-0"
140
1.5
141
12.0
290
     0
  0
SCALE
  5
1010049
102
{ACAD_REACTORS
330
101003A
102
}
330
101003A
100
AcDbScale
 70
     0
300
3" = 1'-0"
140
3.0
141
12.0
290
     0
  0
SCALE
  5
101004A
102
{ACAD_REACTORS
330
101003A
102
}
330
101003A
100
AcDbScale
 70
     0
300
6" = 1'-0"
140
6.0
141
12.0
290
     0
  0
SCALE
  5
101004B
102
{ACAD_REACTORS
330
101003A
102
}
330
101003A
100
AcDbScale
 70
     0
300
1'-0" = 1'-0"
140
12.0
141
12.0
290
     0
  0
ACDBSECTIONVIEWSTYLE
  5
101004F
102
{ACAD_XDICTIONARY
360
101008F
102
}
102
{ACAD_REACTORS
330
101004E
102
}
330
101004E
100
AcDbModelDocViewStyle
 70
     0
  3
Imperial24
290
     0
100
AcDbSectionViewStyle
 70
     0
 71
     0
 90
       78
 71
     1
340
11
 62
   256
 40
0.24
340
0
340
0
 62
   256
 40
0.24
300
I, O, Q, S, X, Z
 40
0.48
 90
        3
 40
0.18
 90
        1
 71
     2
340
0
 90
       25
 62
   256
340
0
 90
       50
 62
   256
 40
0.24
 40
0.0
 40
0.24
 71
     3
340
11
 62
   256
 40
0.24
 90
        1
 40
0.75
 90
        1
300
%<\AcVar ViewType \f "%tc1">% %<\AcVar ViewSectionStartId>%-%<\AcVar ViewSectionEndId>%\PSCALE %<\AcVar ViewScale \f "%sn">%
 71
     4
 62
   256
 62
   257
300
ANSI31
 40
1.0
 90
        0
290
     0
290
     0
 90
        6
 40
0.0
 40
1.570796326794896
 40
0.2617993877991494
 40
1.308996938995747
 40
-0.2617993877991494
 40
1.832595714594046
  0
TABLESTYLE
  5
1010038
102
{ACAD_XDICTIONARY
360
101008D
102
}
102
{ACAD_REACTORS
330
1010037
102
}
330
1010037
100
AcDbTableStyle
280
     0
  3
Standard
 70
     0
 71
     0
 40
0.06
 41
0.06
280
     0
281
     0
  7
STANDARD
140
0.18
170
     2
 62
     0
 63
     7
283
     0
 90
      512
 91
        0
  1

274
    -2
284
     1
 64
     0
275
    -2
285
     1
 65
     0
276
    -2
286
     1
 66
     0
277
    -2
287
     1
 67
     0
278
    -2
288
     1
 68
     0
279
    -2
289
     1
 69
     0
  7
STANDARD
140
0.25
170
     5
 62
     0
 63
     7
283
     0
 90
      512
 91
        0
  1

274
    -2
284
     1
 64
     0
275
    -2
285
     1
 65
     0
276
    -2
286
     1
 66
     0
277
    -2
287
     1
 67
     0
278
    -2
288
     1
 68
     0
279
    -2
289
     1
 69
     0
  7
STANDARD
140
0.18
170
     5
 62
     0
 63
     7
283
     0
 90
      512
 91
        0
  1

274
    -2
284
     1
 64
     0
275
    -2
285
     1
 65
     0
276
    -2
286
     1
 66
     0
277
    -2
287
     1
 67
     0
278
    -2
288
     1
 68
     0
279
    -2
289
     1
 69
     0
  0
VISUALSTYLE
  5
1010023
102
{ACAD_REACTORS
330
101001D
102
}
330
101001D
100
AcDbVisualStyle
  2
2dWireframe
 70
     4
177
     3
291
     0
 70
    58
 90
        0
176
     1
 90
        2
176
     1
 90
        0
176
     1
 90
        0
176
     1
 40
0.6
176
     1
 40
30.0
176
     1
 62
     7
420
 16777215
176
     1
 90
        1
176
     1
 90
        4
176
     1
 62
     7
176
     1
 62
   257
176
     1
 90
        1
176
     1
 90
        1
176
     1
 40
1.0
176
     1
 90
        0
176
     1
 62
   257
176
     1
 40
1.0
176
     1
 90
        1
176
     1
 90
        6
176
     1
 90
        2
176
     1
 62
     7
176
     1
 90
        5
176
     1
 90
        0
176
     1
 90
        0
176
     1
290
     0
176
     1
 90
        1
176
     1
 40
0.0
176
     1
 90
        0
176
     1
290
     1
176
     1
290
     1
176
     1
290
     0
176
     1
290
     0
176
     1
290
     0
176
     1
290
     0
176
     1
290
     0
176
     1
290
     0
176
     1
290
     0
176
     1
 90
       50
176
     1
 40
0.0
176
     1
 40
1.0
176
     1
 90
        0
176
     1
 62
    18
420
        0
176
     1
 90
       50
176
     1
 90
        3
176
     1
 62
     5
420
      255
176
     1
290
     0
176
     1
 90
       50
176
     1
 90
       50
176
     1
 90
       50
176
     1
290
     0
176
     1
 90
       50
176
     1
 62
   256
176
     0
 40
1.0
176
     0
 90
        2
176
     1
  1
strokes_ogs.tif
176
     1
290
     0
176
     1
 40
1.0
176
     1
 40
1.0
176
     1
  0
VISUALSTYLE
  5
1010022
102
{ACAD_REACTORS
330
101001D
102
}
330
101001D
100
AcDbVisualStyle
  2
Basic
 70
     7
177
     3
291
     1
 70
    58
 90
        1
176
     1
 90
        0
176
     1
 90
        1
176
     1
 90
        0
176
     1
 40
0.6
176
     1
 40
30.0
176
     1
 62
     7
420
 16777215
176
     1
 90
        0
176
     1
 90
        4
176
     1
 62
     7
176
     1
 62
   257
176
     1
 90
        1
176
     1
 90
        1
176
     1
 40
1.0
176
     1
 90
        8
176
     1
 62
     7
176
     1
 40
1.0
176
     1
 90
        1
176
     1
 90
        6
176
     1
 90
        2
176
     1
 62
     7
176
     1
 90
        5
176
     1
 90
        0
176
     1
 90
        0
176
     1
290
     0
176
     1
 90
        1
176
     1
 40
0.0
176
     1
 90
        0
176
     1
290
     0
176
     1
290
     1
176
     1
290
     1
176
     1
290
     0
176
     1
290
     0
176
     1
290
     0
176
     1
290
     0
176
     1
290
     0
176
     1
290
     0
176
     1
 90
       50
176
     1
 40
0.0
176
     1
 40
1.0
176
     1
 90
        0
176
     1
 62
    18
420
        0
176
     1
 90
       50
176
     1
 90
        3
176
     1
 62
     5
420
      255
176
     1
290
     0
176
     1
 90
       50
176
     1
 90
       50
176
     1
 90
       50
176
     1
290
     0
176
     1
 90
       50
176
     1
 62
   256
176
     0
 40
1.0
176
     0
 90
        2
176
     1
  1
strokes_ogs.tif
176
     1
290
     0
176
     1
 40
1.0
176
     1
 40
1.0
176
     1
  0
VISUALSTYLE
  5
1010029
102
{ACAD_REACTORS
330
101001D
102
}
330
101001D
100
AcDbVisualStyle
  2
Brighten
 70
    12
177
     3
291
     1
 70
    58
 90
        2
176
     1
 90
        2
176
     1
 90
        0
176
     1
 90
        0
176
     1
 40
0.6
176
     1
 40
30.0
176
     1
 62
     7
420
 16777215
176
     1
 90
        1
176
     1
 90
        4
176
     1
 62
     7
176
     1
 62
   257
176
     1
 90
        1
176
     1
 90
        1
176
     1
 40
1.0
176
     1
 90
        8
176
     1
 62
     7
176
     1
 40
1.0
176
     1
 90
        1
176
     1
 90
        6
176
     1
 90
        2
176
     1
 62
     7
176
     1
 90
        5
176
     1
 90
        0
176
     1
 90
        0
176
     1
290
     0
176
     1
 90
        1
176
     1
 40
50.0
176
     1
 90
        0
176
     1
290
     0
176
     1
290
     1
176
     1
290
     1
176
     1
290
     0
176
     1
290
     0
176
     1
290
     0
176
     1
290
     0
176
     1
290
     0
176
     1
290
     0
176
     1
 90
       50
176
     1
 40
0.0
176
     1
 40
1.0
176
     1
 90
        0
176
     1
 62
    18
420
        0
176
     1
 90
       50
176
     1
 90
        3
176
     1
 62
     5
420
      255
176
     1
290
     0
176
     1
 90
       50
176
     1
 90
       50
176
     1
 90
       50
176
     1
290
     0
176
     1
 90
       50
176
     1
 62
   256
176
     0
 40
1.0
176
     0
 90
        2
176
     1
  1
strokes_ogs.tif
176
     1
290
     0
176
     1
 40
1.0
176
     1
 40
1.0
176
     1
  0
VISUALSTYLE
  5
101002D
102
{ACAD_REACTORS
330
101001D
102
}
330
101001D
100
AcDbVisualStyle
  2
ColorChange
 70
    16
177
     3
291
     1
 70
    58
 90
        2
176
     1
 90
        2
176
     1
 90
        3
176
     1
 90
        0
176
     1
 40
0.6
176
     1
 40
30.0
176
     1
 62
     8
420
  8421504
176
     1
 90
        1
176
     1
 90
        4
176
     1
 62
     7
176
     1
 62
   257
176
     1
 90
        1
176
     1
 90
        1
176
     1
 40
1.0
176
     1
 90
        8
176
     1
 62
     8
420
  8421504
176
     1
 40
1.0
176
     1
 90
        1
176
     1
 90
        6
176
     1
 90
        2
176
     1
 62
     7
176
     1
 90
        5
176
     1
 90
        0
176
     1
 90
        0
176
     1
290
     0
176
     1
 90
        1
176
     1
 40
0.0
176
     1
 90
        0
176
     1
290
     0
176
     1
290
     1
176
     1
290
     1
176
     1
290
     0
176
     1
290
     0
176
     1
290
     0
176
     1
290
     0
176
     1
290
     0
176
     1
290
     0
176
     1
 90
       50
176
     1
 40
0.0
176
     1
 40
1.0
176
     1
 90
        0
176
     1
 62
    18
420
        0
176
     1
 90
       50
176
     1
 90
        3
176
     1
 62
     5
420
      255
176
     1
290
     0
176
     1
 90
       50
176
     1
 90
       50
176
     1
 90
       50
176
     1
290
     0
176
     1
 90
       50
176
     1
 62
   256
176
     0
 40
1.0
176
     0
 90
        2
176
     1
  1
strokes_ogs.tif
176
     1
290
     0
176
     1
 40
1.0
176
     1
 40
1.0
176
     1
  0
VISUALSTYLE
  5
1010026
102
{ACAD_REACTORS
330
101001D
102
}
330
101001D
100
AcDbVisualStyle
  2
Conceptual
 70
     9
177
     3
291
     0
 70
    58
 90
        3
176
     1
 90
        2
176
     1
 90
        0
176
     1
 90
        0
176
     1
 40
0.6
176
     1
 40
30.0
176
     1
 62
     7
420
 16777215
176
     1
 90
        2
176
     1
 90
        2
176
     1
 62
     7
176
     1
 62
   257
176
     1
 90
        1
176
     1
 90
        1
176
     1
 40
179.0
176
     1
 90
        8
176
     1
 62
     7
176
     1
 40
1.0
176
     1
 90
        1
176
     1
 90
        6
176
     1
 90
        2
176
     1
 62
     7
176
     1
 90
        3
176
     1
 90
        0
176
     1
 90
        0
176
     1
290
     0
176
     1
 90
        1
176
     1
 40
0.0
176
     1
 90
        0
176
     1
290
     0
176
     1
290
     1
176
     1
290
     1
176
     1
290
     0
176
     1
290
     0
176
     1
290
     0
176
     1
290
     0
176
     1
290
     0
176
     1
290
     0
176
     1
 90
       50
176
     1
 40
0.0
176
     1
 40
1.0
176
     1
 90
        0
176
     1
 62
    18
420
        0
176
     1
 90
       50
176
     1
 90
        3
176
     1
 62
     5
420
      255
176
     1
290
     0
176
     1
 90
       50
176
     1
 90
       50
176
     1
 90
       50
176
     1
290
     0
176
     1
 90
       50
176
     1
 62
   256
176
     0
 40
1.0
176
     0
 90
        2
176
     1
  1
strokes_ogs.tif
176
     1
290
     0
176
     1
 40
1.0
176
     1
 40
1.0
176
     1
  0
VISUALSTYLE
  5
1010028
102
{ACAD_REACTORS
330
101001D
102
}
330
101001D
100
AcDbVisualStyle
  2
Dim
 70
    11
177
     3
291
     1
 70
    58
 90
        2
176
     1
 90
        2
176
     1
 90
        0
176
     1
 90
        0
176
     1
 40
0.6
176
     1
 40
30.0
176
     1
 62
     7
420
 16777215
176
     1
 90
        1
176
     1
 90
        4
176
     1
 62
     7
176
     1
 62
   257
176
     1
 90
        1
176
     1
 90
        1
176
     1
 40
1.0
176
     1
 90
        8
176
     1
 62
     7
176
     1
 40
1.0
176
     1
 90
        1
176
     1
 90
        6
176
     1
 90
        2
176
     1
 62
     7
176
     1
 90
        5
176
     1
 90
        0
176
     1
 90
        0
176
     1
290
     0
176
     1
 90
        1
176
     1
 40
-50.0
176
     1
 90
        0
176
     1
290
     0
176
     1
290
     1
176
     1
290
     1
176
     1
290
     0
176
     1
290
     0
176
     1
290
     0
176
     1
290
     0
176
     1
290
     0
176
     1
290
     0
176
     1
 90
       50
176
     1
 40
0.0
176
     1
 40
1.0
176
     1
 90
        0
176
     1
 62
    18
420
        0
176
     1
 90
       50
176
     1
 90
        3
176
     1
 62
     5
420
      255
176
     1
290
     0
176
     1
 90
       50
176
     1
 90
       50
176
     1
 90
       50
176
     1
290
     0
176
     1
 90
       50
176
     1
 62
   256
176
     0
 40
1.0
176
     0
 90
        2
176
     1
  1
strokes_ogs.tif
176
     1
290
     0
176
     1
 40
1.0
176
     1
 40
1.0
176
     1
  0
VISUALSTYLE
  5
1010035
102
{ACAD_REACTORS
330
101001D
102
}
330
101001D
100
AcDbVisualStyle
  2
EdgeColorOff
 70
    22
177
     3
291
     1
 70
    58
 90
        2
176
     0
 90
        2
176
     0
 90
        0
176
     0
 90
        0
176
     0
 40
0.6
176
     0
 40
30.0
176
     0
 62
     7
420
 16777215
176
     0
 90
        1
176
     0
 90
        4
176
     0
 62
     7
176
     0
 62
   257
176
     0
 90
        1
176
     0
 90
        1
176
     0
 40
1.0
176
     0
 90
        8
176
     2
 62
     7
176
     0
 40
1.0
176
     0
 90
        1
176
     0
 90
        6
176
     0
 90
        2
176
     0
 62
     7
176
     0
 90
        5
176
     0
 90
        0
176
     0
 90
        0
176
     0
290
     0
176
     0
 90
        1
176
     0
 40
0.0
176
     0
 90
        0
176
     0
290
     0
176
     1
290
     1
176
     1
290
     1
176
     1
290
     0
176
     1
290
     0
176
     1
290
     0
176
     1
290
     0
176
     1
290
     0
176
     1
290
     0
176
     1
 90
       50
176
     0
 40
0.0
176
     0
 40
1.0
176
     0
 90
        0
176
     0
 62
    18
420
        0
176
     0
 90
       50
176
     0
 90
        3
176
     0
 62
     5
420
      255
176
     0
290
     0
176
     1
 90
       50
176
     0
 90
       50
176
     0
 90
       50
176
     0
290
     0
176
     1
 90
       50
176
     0
 62
   256
176
     0
 40
1.0
176
     0
 90
        2
176
     0
  1
strokes_ogs.tif
176
     0
290
     0
176
     1
 40
1.0
176
     0
 40
1.0
176
     0
  0
VISUALSTYLE
  5
101002C
102
{ACAD_REACTORS
330
101001D
102
}
330
101001D
100
AcDbVisualStyle
  2
Facepattern
 70
    15
177
     3
291
     1
 70
    58
 90
        2
176
     1
 90
        2
176
     1
 90
        0
176
     1
 90
        0
176
     1
 40
0.6
176
     1
 40
30.0
176
     1
 62
     7
420
 16777215
176
     1
 90
        1
176
     1
 90
        4
176
     1
 62
     7
176
     1
 62
   257
176
     1
 90
        1
176
     1
 90
        1
176
     1
 40
1.0
176
     1
 90
        8
176
     1
 62
     7
176
     1
 40
1.0
176
     1
 90
        1
176
     1
 90
        6
176
     1
 90
        2
176
     1
 62
     7
176
     1
 90
        5
176
     1
 90
        0
176
     1
 90
        0
176
     1
290
     0
176
     1
 90
        1
176
     1
 40
0.0
176
     1
 90
        0
176
     1
290
     0
176
     1
290
     1
176
     1
290
     1
176
     1
290
     0
176
     1
290
     0
176
     1
290
     0
176
     1
290
     0
176
     1
290
     0
176
     1
290
     0
176
     1
 90
       50
176
     1
 40
0.0
176
     1
 40
1.0
176
     1
 90
        0
176
     1
 62
    18
420
        0
176
     1
 90
       50
176
     1
 90
        3
176
     1
 62
     5
420
      255
176
     1
290
     0
176
     1
 90
       50
176
     1
 90
       50
176
     1
 90
       50
176
     1
290
     0
176
     1
 90
       50
176
     1
 62
   256
176
     0
 40
1.0
176
     0
 90
        2
176
     1
  1
strokes_ogs.tif
176
     1
290
     0
176
     1
 40
1.0
176
     1
 40
1.0
176
     1
  0
VISUALSTYLE
  5
101001E
102
{ACAD_REACTORS
330
101001D
102
}
330
101001D
100
AcDbVisualStyle
  2
Flat
 70
     0
177
     3
291
     1
 70
    58
 90
        2
176
     1
 90
        1
176
     1
 90
        1
176
     1
 90
        2
176
     1
 40
0.6
176
     1
 40
30.0
176
     1
 62
     7
420
 16777215
176
     1
 90
        0
176
     1
 90
        0
176
     1
 62
     7
176
     1
 62
   257
176
     1
 90
        1
176
     1
 90
        1
176
     1
 40
1.0
176
     1
 90
        8
176
     1
 62
     7
176
     1
 40
1.0
176
     1
 90
        1
176
     1
 90
        6
176
     1
 90
        2
176
     1
 62
     7
176
     1
 90
        5
176
     1
 90
        0
176
     1
 90
        0
176
     1
290
     0
176
     1
 90
       13
176
     1
 40
0.0
176
     1
 90
        0
176
     1
290
     0
176
     1
290
     1
176
     1
290
     1
176
     1
290
     0
176
     1
290
     0
176
     1
290
     0
176
     1
290
     0
176
     1
290
     0
176
     1
290
     0
176
     1
 90
       50
176
     1
 40
0.0
176
     1
 40
1.0
176
     1
 90
        0
176
     1
 62
    18
420
        0
176
     1
 90
       50
176
     1
 90
        3
176
     1
 62
     5
420
      255
176
     1
290
     0
176
     1
 90
       50
176
     1
 90
       50
176
     1
 90
       50
176
     1
290
     0
176
     1
 90
       50
176
     1
 62
   256
176
     0
 40
1.0
176
     0
 90
        2
176
     1
  1
strokes_ogs.tif
176
     1
290
     0
176
     1
 40
1.0
176
     1
 40
1.0
176
     1
  0
VISUALSTYLE
  5
101001F
102
{ACAD_REACTORS
330
101001D
102
}
330
101001D
100
AcDbVisualStyle
  2
FlatWithEdges
 70
     1
177
     3
291
     1
 70
    58
 90
        2
176
     1
 90
        1
176
     1
 90
        1
176
     1
 90
        2
176
     1
 40
0.6
176
     1
 40
30.0
176
     1
 62
     7
420
 16777215
176
     1
 90
        1
176
     1
 90
        0
176
     1
 62
     7
176
     1
 62
   257
176
     1
 90
        1
176
     1
 90
        1
176
     1
 40
1.0
176
     1
 90
        0
176
     1
 62
   257
176
     1
 40
1.0
176
     1
 90
        1
176
     1
 90
        6
176
     1
 90
        2
176
     1
 62
     7
176
     1
 90
        5
176
     1
 90
        0
176
     1
 90
        0
176
     1
290
     0
176
     1
 90
       13
176
     1
 40
0.0
176
     1
 90
        0
176
     1
290
     0
176
     1
290
     1
176
     1
290
     1
176
     1
290
     0
176
     1
290
     0
176
     1
290
     0
176
     1
290
     0
176
     1
290
     0
176
     1
290
     0
176
     1
 90
       50
176
     1
 40
0.0
176
     1
 40
1.0
176
     1
 90
        0
176
     1
 62
    18
420
        0
176
     1
 90
       50
176
     1
 90
        3
176
     1
 62
     5
420
      255
176
     1
290
     0
176
     1
 90
       50
176
     1
 90
       50
176
     1
 90
       50
176
     1
290
     0
176
     1
 90
       50
176
     1
 62
   256
176
     0
 40
1.0
176
     0
 90
        2
176
     1
  1
strokes_ogs.tif
176
     1
290
     0
176
     1
 40
1.0
176
     1
 40
1.0
176
     1
  0
VISUALSTYLE
  5
1010020
102
{ACAD_REACTORS
330
101001D
102
}
330
101001D
100
AcDbVisualStyle
  2
Gouraud
 70
     2
177
     3
291
     1
 70
    58
 90
        2
176
     1
 90
        2
176
     1
 90
        1
176
     1
 90
        2
176
     1
 40
0.6
176
     1
 40
30.0
176
     1
 62
     7
420
 16777215
176
     1
 90
        0
176
     1
 90
        0
176
     1
 62
     7
176
     1
 62
   257
176
     1
 90
        1
176
     1
 90
        1
176
     1
 40
1.0
176
     1
 90
        0
176
     1
 62
     7
176
     1
 40
1.0
176
     1
 90
        1
176
     1
 90
        6
176
     1
 90
        2
176
     1
 62
     7
176
     1
 90
        5
176
     1
 90
        0
176
     1
 90
        0
176
     1
290
     0
176
     1
 90
       13
176
     1
 40
0.0
176
     1
 90
        0
176
     1
290
     0
176
     1
290
     1
176
     1
290
     1
176
     1
290
     0
176
     1
290
     0
176
     1
290
     0
176
     1
290
     0
176
     1
290
     0
176
     1
290
     0
176
     1
 90
       50
176
     1
 40
0.0
176
     1
 40
1.0
176
     1
 90
        0
176
     1
 62
    18
420
        0
176
     1
 90
       50
176
     1
 90
        3
176
     1
 62
     5
420
      255
176
     1
290
     0
176
     1
 90
       50
176
     1
 90
       50
176
     1
 90
       50
176
     1
290
     0
176
     1
 90
       50
176
     1
 62
   256
176
     0
 40
1.0
176
     0
 90
        2
176
     1
  1
strokes_ogs.tif
176
     1
290
     0
176
     1
 40
1.0
176
     1
 40
1.0
176
     1
  0
VISUALSTYLE
  5
1010021
102
{ACAD_REACTORS
330
101001D
102
}
330
101001D
100
AcDbVisualStyle
  2
GouraudWithEdges
 70
     3
177
     3
291
     1
 70
    58
 90
        2
176
     1
 90
        2
176
     1
 90
        1
176
     1
 90
        2
176
     1
 40
0.6
176
     1
 40
30.0
176
     1
 62
     7
420
 16777215
176
     1
 90
        1
176
     1
 90
        0
176
     1
 62
     7
176
     1
 62
   257
176
     1
 90
        1
176
     1
 90
        1
176
     1
 40
1.0
176
     1
 90
        0
176
     1
 62
   257
176
     1
 40
1.0
176
     1
 90
        1
176
     1
 90
        6
176
     1
 90
        2
176
     1
 62
     7
176
     1
 90
        5
176
     1
 90
        0
176
     1
 90
        0
176
     1
290
     0
176
     1
 90
       13
176
     1
 40
0.0
176
     1
 90
        0
176
     1
290
     0
176
     1
290
     1
176
     1
290
     1
176
     1
290
     0
176
     1
290
     0
176
     1
290
     0
176
     1
290
     0
176
     1
290
     0
176
     1
290
     0
176
     1
 90
       50
176
     1
 40
0.0
176
     1
 40
1.0
176
     1
 90
        0
176
     1
 62
    18
420
        0
176
     1
 90
       50
176
     1
 90
        3
176
     1
 62
     5
420
      255
176
     1
290
     0
176
     1
 90
       50
176
     1
 90
       50
176
     1
 90
       50
176
     1
290
     0
176
     1
 90
       50
176
     1
 62
   256
176
     0
 40
1.0
176
     0
 90
        2
176
     1
  1
strokes_ogs.tif
176
     1
290
     0
176
     1
 40
1.0
176
     1
 40
1.0
176
     1
  0
VISUALSTYLE
  5
1010025
102
{ACAD_REACTORS
330
101001D
102
}
330
101001D
100
AcDbVisualStyle
  2
Hidden
 70
     6
177
     3
291
     0
 70
    58
 90
        1
176
     1
 90
        2
176
     1
 90
        2
176
     1
 90
        0
176
     1
 40
0.6
176
     1
 40
30.0
176
     1
 62
     7
420
 16777215
176
     1
 90
        2
176
     1
 90
        2
176
     1
 62
     7
176
     1
 62
   257
176
     1
 90
        2
176
     1
 90
        1
176
     1
 40
40.0
176
     1
 90
        0
176
     1
 62
   257
176
     1
 40
1.0
176
     1
 90
        1
176
     1
 90
        6
176
     1
 90
        2
176
     1
 62
     7
176
     1
 90
        3
176
     1
 90
        0
176
     1
 90
        0
176
     1
290
     0
176
     1
 90
        1
176
     1
 40
0.0
176
     1
 90
        0
176
     1
290
     0
176
     1
290
     1
176
     1
290
     1
176
     1
290
     0
176
     1
290
     0
176
     1
290
     0
176
     1
290
     0
176
     1
290
     0
176
     1
290
     0
176
     1
 90
       50
176
     1
 40
0.0
176
     1
 40
1.0
176
     1
 90
        0
176
     1
 62
    18
420
        0
176
     1
 90
       50
176
     1
 90
        3
176
     1
 62
     5
420
      255
176
     1
290
     0
176
     1
 90
       50
176
     1
 90
       50
176
     1
 90
       50
176
     1
290
     0
176
     1
 90
       50
176
     1
 62
   256
176
     0
 40
1.0
176
     0
 90
        2
176
     1
  1
strokes_ogs.tif
176
     1
290
     0
176
     1
 40
1.0
176
     1
 40
1.0
176
     1
  0
VISUALSTYLE
  5
1010033
102
{ACAD_REACTORS
330
101001D
102
}
330
101001D
100
AcDbVisualStyle
  2
JitterOff
 70
    20
177
     3
291
     1
 70
    58
 90
        2
176
     0
 90
        2
176
     0
 90
        0
176
     0
 90
        0
176
     0
 40
0.6
176
     0
 40
30.0
176
     0
 62
     7
420
 16777215
176
     0
 90
        1
176
     0
 90
        4
176
     0
 62
     7
176
     0
 62
   257
176
     0
 90
        1
176
     0
 90
        1
176
     0
 40
1.0
176
     0
 90
       10
176
     2
 62
     7
176
     0
 40
1.0
176
     0
 90
        1
176
     0
 90
        6
176
     0
 90
        2
176
     0
 62
     7
176
     0
 90
        5
176
     0
 90
        0
176
     0
 90
        0
176
     0
290
     0
176
     0
 90
        1
176
     0
 40
0.0
176
     0
 90
        0
176
     0
290
     0
176
     1
290
     1
176
     1
290
     1
176
     1
290
     0
176
     1
290
     0
176
     1
290
     0
176
     1
290
     0
176
     1
290
     0
176
     1
290
     0
176
     1
 90
       50
176
     0
 40
0.0
176
     0
 40
1.0
176
     0
 90
        0
176
     0
 62
    18
420
        0
176
     0
 90
       50
176
     0
 90
        3
176
     0
 62
     5
420
      255
176
     0
290
     0
176
     1
 90
       50
176
     0
 90
       50
176
     0
 90
       50
176
     0
290
     0
176
     1
 90
       50
176
     0
 62
   256
176
     0
 40
1.0
176
     0
 90
        2
176
     0
  1
strokes_ogs.tif
176
     0
290
     0
176
     1
 40
1.0
176
     0
 40
1.0
176
     0
  0
VISUALSTYLE
  5
101002B
102
{ACAD_REACTORS
330
101001D
102
}
330
101001D
100
AcDbVisualStyle
  2
Linepattern
 70
    14
177
     3
291
     1
 70
    58
 90
        2
176
     1
 90
        2
176
     1
 90
        0
176
     1
 90
        0
176
     1
 40
0.6
176
     1
 40
30.0
176
     1
 62
     7
420
 16777215
176
     1
 90
        1
176
     1
 90
        4
176
     1
 62
     7
176
     1
 62
   257
176
     1
 90
        7
176
     1
 90
        7
176
     1
 40
1.0
176
     1
 90
        8
176
     1
 62
     7
176
     1
 40
1.0
176
     1
 90
        1
176
     1
 90
        6
176
     1
 90
        2
176
     1
 62
     7
176
     1
 90
        5
176
     1
 90
        0
176
     1
 90
        0
176
     1
290
     0
176
     1
 90
        1
176
     1
 40
0.0
176
     1
 90
        0
176
     1
290
     0
176
     1
290
     1
176
     1
290
     1
176
     1
290
     0
176
     1
290
     0
176
     1
290
     0
176
     1
290
     0
176
     1
290
     0
176
     1
290
     0
176
     1
 90
       50
176
     1
 40
0.0
176
     1
 40
1.0
176
     1
 90
        0
176
     1
 62
    18
420
        0
176
     1
 90
       50
176
     1
 90
        3
176
     1
 62
     5
420
      255
176
     1
290
     0
176
     1
 90
       50
176
     1
 90
       50
176
     1
 90
       50
176
     1
290
     0
176
     1
 90
       50
176
     1
 62
   256
176
     0
 40
1.0
176
     0
 90
        2
176
     1
  1
strokes_ogs.tif
176
     1
290
     0
176
     1
 40
1.0
176
     1
 40
1.0
176
     1
  0
VISUALSTYLE
  5
1010034
102
{ACAD_REACTORS
330
101001D
102
}
330
101001D
100
AcDbVisualStyle
  2
OverhangOff
 70
    21
177
     3
291
     1
 70
    58
 90
        2
176
     0
 90
        2
176
     0
 90
        0
176
     0
 90
        0
176
     0
 40
0.6
176
     0
 40
30.0
176
     0
 62
     7
420
 16777215
176
     0
 90
        1
176
     0
 90
        4
176
     0
 62
     7
176
     0
 62
   257
176
     0
 90
        1
176
     0
 90
        1
176
     0
 40
1.0
176
     0
 90
        9
176
     2
 62
     7
176
     0
 40
1.0
176
     0
 90
        1
176
     0
 90
        6
176
     0
 90
        2
176
     0
 62
     7
176
     0
 90
        5
176
     0
 90
        0
176
     0
 90
        0
176
     0
290
     0
176
     0
 90
        1
176
     0
 40
0.0
176
     0
 90
        0
176
     0
290
     0
176
     1
290
     1
176
     1
290
     1
176
     1
290
     0
176
     1
290
     0
176
     1
290
     0
176
     1
290
     0
176
     1
290
     0
176
     1
290
     0
176
     1
 90
       50
176
     0
 40
0.0
176
     0
 40
1.0
176
     0
 90
        0
176
     0
 62
    18
420
        0
176
     0
 90
       50
176
     0
 90
        3
176
     0
 62
     5
420
      255
176
     0
290
     0
176
     1
 90
       50
176
     0
 90
       50
176
     0
 90
       50
176
     0
290
     0
176
     1
 90
       50
176
     0
 62
   256
176
     0
 40
1.0
176
     0
 90
        2
176
     0
  1
strokes_ogs.tif
176
     0
290
     0
176
     1
 40
1.0
176
     0
 40
1.0
176
     0
  0
VISUALSTYLE
  5
1010027
102
{ACAD_REACTORS
330
101001D
102
}
330
101001D
100
AcDbVisualStyle
  2
Realistic
 70
     8
177
     3
291
     0
 70
    58
 90
        2
176
     1
 90
        3
176
     1
 90
        0
176
     1
 90
        2
176
     1
 40
0.6
176
     1
 40
30.0
176
     1
 62
     7
420
 16777215
176
     1
 90
        0
176
     1
 90
        0
176
     1
 62
     7
176
     1
 62
   257
176
     1
 90
        1
176
     1
 90
        1
176
     1
 40
1.0
176
     1
 90
        8
176
     1
 62
   257
176
     1
 40
1.0
176
     1
 90
        1
176
     1
 90
        6
176
     1
 90
        2
176
     1
 62
     7
176
     1
 90
        3
176
     1
 90
        0
176
     1
 90
        0
176
     1
290
     0
176
     1
 90
       13
176
     1
 40
0.0
176
     1
 90
        0
176
     1
290
     0
176
     1
290
     1
176
     1
290
     1
176
     1
290
     0
176
     1
290
     0
176
     1
290
     0
176
     1
290
     0
176
     1
290
     0
176
     1
290
     0
176
     1
 90
       50
176
     1
 40
0.0
176
     1
 40
1.0
176
     1
 90
        0
176
     1
 62
    18
420
        0
176
     1
 90
       50
176
     1
 90
        3
176
     1
 62
     5
420
      255
176
     1
290
     0
176
     1
 90
       50
176
     1
 90
       50
176
     1
 90
       50
176
     1
290
     0
176
     1
 90
       50
176
     1
 62
   256
176
     0
 40
1.0
176
     0
 90
        2
176
     1
  1
strokes_ogs.tif
176
     1
290
     0
176
     1
 40
1.0
176
     1
 40
1.0
176
     1
  0
VISUALSTYLE
  5
1010032
102
{ACAD_REACTORS
330
101001D
102
}
330
101001D
100
AcDbVisualStyle
  2
Shaded
 70
    27
177
     3
291
     0
 70
    58
 90
        2
176
     1
 90
        2
176
     1
 90
        1
176
     1
 90
        2
176
     1
 40
0.6
176
     1
 40
30.0
176
     1
 62
     7
420
 16777215
176
     1
 90
        0
176
     1
 90
        4
176
     1
 62
     7
176
     1
 62
   257
176
     1
 90
        1
176
     1
 90
        1
176
     1
 40
1.0
176
     1
 90
        8
176
     1
 62
   257
176
     1
 40
1.0
176
     1
 90
        1
176
     1
 90
        6
176
     1
 90
        2
176
     1
 62
     8
420
  7895160
176
     1
 90
        3
176
     1
 90
        0
176
     1
 90
        0
176
     1
290
     0
176
     1
 90
        5
176
     1
 40
0.0
176
     1
 90
        0
176
     1
290
     0
176
     1
290
     1
176
     1
290
     1
176
     1
290
     0
176
     1
290
     0
176
     1
290
     0
176
     1
290
     0
176
     1
290
     0
176
     1
290
     0
176
     1
 90
       50
176
     1
 40
0.0
176
     1
 40
1.0
176
     1
 90
        0
176
     1
 62
    18
420
        0
176
     1
 90
       50
176
     1
 90
        3
176
     1
 62
     5
420
      255
176
     1
290
     0
176
     1
 90
       50
176
     1
 90
       50
176
     1
 90
       50
176
     1
290
     0
176
     1
 90
       50
176
     1
 62
   256
176
     0
 40
1.0
176
     0
 90
        2
176
     1
  1
strokes_ogs.tif
176
     1
290
     0
176
     1
 40
1.0
176
     1
 40
1.0
176
     1
  0
VISUALSTYLE
  5
1010031
102
{ACAD_REACTORS
330
101001D
102
}
330
101001D
100
AcDbVisualStyle
  2
Shaded with edges
 70
    26
177
     3
291
     0
 70
    58
 90
        2
176
     1
 90
        2
176
     1
 90
        1
176
     1
 90
        2
176
     1
 40
0.6
176
     1
 40
30.0
176
     1
 62
     7
420
 16777215
176
     1
 90
        1
176
     1
 90
        2
176
     1
 62
     7
176
     1
 62
   257
176
     1
 90
        2
176
     1
 90
        1
176
     1
 40
1.0
176
     1
 90
        8
176
     1
 62
   257
176
     1
 40
1.0
176
     1
 90
        1
176
     1
 90
        6
176
     1
 90
        2
176
     1
 62
     7
176
     1
 90
        3
176
     1
 90
        0
176
     1
 90
        0
176
     1
290
     0
176
     1
 90
        5
176
     1
 40
0.0
176
     1
 90
        0
176
     1
290
     0
176
     1
290
     1
176
     1
290
     1
176
     1
290
     0
176
     1
290
     0
176
     1
290
     0
176
     1
290
     0
176
     1
290
     0
176
     1
290
     0
176
     1
 90
       50
176
     1
 40
0.0
176
     1
 40
1.0
176
     1
 90
        0
176
     1
 62
    18
420
        0
176
     1
 90
       50
176
     1
 90
        3
176
     1
 62
     5
420
      255
176
     1
290
     0
176
     1
 90
       50
176
     1
 90
       50
176
     1
 90
       50
176
     1
290
     0
176
     1
 90
       50
176
     1
 62
   256
176
     0
 40
1.0
176
     0
 90
        2
176
     1
  1
strokes_ogs.tif
176
     1
290
     0
176
     1
 40
1.0
176
     1
 40
1.0
176
     1
  0
VISUALSTYLE
  5
101002E
102
{ACAD_REACTORS
330
101001D
102
}
330
101001D
100
AcDbVisualStyle
  2
Shades of Gray
 70
    23
177
     3
291
     0
 70
    58
 90
        2
176
     1
 90
        2
176
     1
 90
        3
176
     1
 90
        0
176
     1
 40
0.6
176
     1
 40
30.0
176
     1
 62
     7
420
 16777215
176
     1
 90
        2
176
     1
 90
        2
176
     1
 62
     7
176
     1
 62
     7
176
     1
 90
        1
176
     1
 90
        1
176
     1
 40
40.0
176
     1
 90
        8
176
     1
 62
     7
176
     1
 40
1.0
176
     1
 90
        1
176
     1
 90
        6
176
     1
 90
        2
176
     1
 62
     7
176
     1
 90
        3
176
     1
 90
        0
176
     1
 90
        0
176
     1
290
     0
176
     1
 90
        1
176
     1
 40
0.0
176
     1
 90
        0
176
     1
290
     0
176
     1
290
     1
176
     1
290
     1
176
     1
290
     0
176
     1
290
     0
176
     1
290
     0
176
     1
290
     0
176
     1
290
     0
176
     1
290
     0
176
     1
 90
       50
176
     1
 40
0.0
176
     1
 40
1.0
176
     1
 90
        0
176
     1
 62
    18
420
        0
176
     1
 90
       50
176
     1
 90
        3
176
     1
 62
     5
420
      255
176
     1
290
     0
176
     1
 90
       50
176
     1
 90
       50
176
     1
 90
       50
176
     1
290
     0
176
     1
 90
       50
176
     1
 62
   256
176
     0
 40
1.0
176
     0
 90
        2
176
     1
  1
strokes_ogs.tif
176
     1
290
     0
176
     1
 40
1.0
176
     1
 40
1.0
176
     1
  0
VISUALSTYLE
  5
101002F
102
{ACAD_REACTORS
330
101001D
102
}
330
101001D
100
AcDbVisualStyle
  2
Sketchy
 70
    24
177
     3
291
     0
 70
    58
 90
        1
176
     1
 90
        2
176
     1
 90
        2
176
     1
 90
        0
176
     1
 40
0.6
176
     1
 40
30.0
176
     1
 62
     7
420
 16777215
176
     1
 90
        2
176
     1
 90
        2
176
     1
 62
     7
176
     1
 62
     7
176
     1
 90
        1
176
     1
 90
        1
176
     1
 40
40.0
176
     1
 90
       11
176
     1
 62
     7
176
     1
 40
1.0
176
     1
 90
        1
176
     1
 90
        6
176
     1
 90
        2
176
     1
 62
     7
176
     1
 90
        6
176
     1
 90
        0
176
     1
 90
        0
176
     1
290
     0
176
     1
 90
        1
176
     1
 40
0.0
176
     1
 90
        0
176
     1
290
     0
176
     1
290
     1
176
     1
290
     1
176
     1
290
     0
176
     1
290
     0
176
     1
290
     0
176
     1
290
     0
176
     1
290
     0
176
     1
290
     0
176
     1
 90
       50
176
     1
 40
0.0
176
     1
 40
1.0
176
     1
 90
        0
176
     1
 62
    18
420
        0
176
     1
 90
       50
176
     1
 90
        3
176
     1
 62
     5
420
      255
176
     1
290
     0
176
     1
 90
       50
176
     1
 90
       50
176
     1
 90
       50
176
     1
290
     0
176
     1
 90
       50
176
     1
 62
   256
176
     0
 40
1.0
176
     0
 90
        2
176
     1
  1
strokes_ogs.tif
176
     1
290
     0
176
     1
 40
1.0
176
     1
 40
1.0
176
     1
  0
VISUALSTYLE
  5
101002A
102
{ACAD_REACTORS
330
101001D
102
}
330
101001D
100
AcDbVisualStyle
  2
Thicken
 70
    13
177
     3
291
     1
 70
    58
 90
        2
176
     1
 90
        2
176
     1
 90
        0
176
     1
 90
        0
176
     1
 40
0.6
176
     1
 40
30.0
176
     1
 62
     7
420
 16777215
176
     1
 90
        1
176
     1
 90
        4
176
     1
 62
     7
176
     1
 62
   257
176
     1
 90
        1
176
     1
 90
        1
176
     1
 40
1.0
176
     1
 90
       12
176
     1
 62
     7
176
     1
 40
1.0
176
     1
 90
        1
176
     1
 90
        6
176
     1
 90
        2
176
     1
 62
     7
176
     1
 90
        5
176
     1
 90
        0
176
     1
 90
        0
176
     1
290
     0
176
     1
 90
        1
176
     1
 40
0.0
176
     1
 90
        0
176
     1
290
     0
176
     1
290
     1
176
     1
290
     1
176
     1
290
     0
176
     1
290
     0
176
     1
290
     0
176
     1
290
     0
176
     1
290
     0
176
     1
290
     0
176
     1
 90
       50
176
     1
 40
0.0
176
     1
 40
1.0
176
     1
 90
        0
176
     1
 62
    18
420
        0
176
     1
 90
       50
176
     1
 90
        3
176
     1
 62
     5
420
      255
176
     1
290
     0
176
     1
 90
       50
176
     1
 90
       50
176
     1
 90
       50
176
     1
290
     0
176
     1
 90
       50
176
     1
 62
   256
176
     0
 40
1.0
176
     0
 90
        2
176
     1
  1
strokes_ogs.tif
176
     1
290
     0
176
     1
 40
1.0
176
     1
 40
1.0
176
     1
  0
VISUALSTYLE
  5
1010024
102
{ACAD_REACTORS
330
101001D
102
}
330
101001D
100
AcDbVisualStyle
  2
Wireframe
 70
     5
177
     3
291
     0
 70
    58
 90
        0
176
     1
 90
        2
176
     1
 90
        0
176
     1
 90
        0
176
     1
 40
0.6
176
     1
 40
30.0
176
     1
 62
     7
420
 16777215
176
     1
 90
        1
176
     1
 90
        4
176
     1
 62
     7
176
     1
 62
   257
176
     1
 90
        1
176
     1
 90
        1
176
     1
 40
1.0
176
     1
 90
        0
176
     1
 62
   257
176
     1
 40
1.0
176
     1
 90
        1
176
     1
 90
        6
176
     1
 90
        2
176
     1
 62
     7
176
     1
 90
        3
176
     1
 90
        0
176
     1
 90
        0
176
     1
290
     0
176
     1
 90
        1
176
     1
 40
0.0
176
     1
 90
        0
176
     1
290
     0
176
     1
290
     1
176
     1
290
     1
176
     1
290
     0
176
     1
290
     0
176
     1
290
     0
176
     1
290
     0
176
     1
290
     0
176
     1
290
     0
176
     1
 90
       50
176
     1
 40
0.0
176
     1
 40
1.0
176
     1
 90
        0
176
     1
 62
    18
420
        0
176
     1
 90
       50
176
     1
 90
        3
176
     1
 62
     5
420
      255
176
     1
290
     0
176
     1
 90
       50
176
     1
 90
       50
176
     1
 90
       50
176
     1
290
     0
176
     1
 90
       50
176
     1
 62
   256
176
     0
 40
1.0
176
     0
 90
        2
176
     1
  1
strokes_ogs.tif
176
     1
290
     0
176
     1
 40
1.0
176
     1
 40
1.0
176
     1
  0
VISUALSTYLE
  5
1010030
102
{ACAD_REACTORS
330
101001D
102
}
330
101001D
100
AcDbVisualStyle
  2
X-Ray
 70
    25
177
     3
291
     0
 70
    58
 90
        2
176
     1
 90
        2
176
     1
 90
        1
176
     1
 90
        1
176
     1
 40
0.5
176
     1
 40
30.0
176
     1
 62
     7
420
 16777215
176
     1
 90
        1
176
     1
 90
        0
176
     1
 62
     7
176
     1
 62
   257
176
     1
 90
        1
176
     1
 90
        1
176
     1
 40
1.0
176
     1
 90
        8
176
     1
 62
     7
176
     1
 40
1.0
176
     1
 90
        1
176
     1
 90
        6
176
     1
 90
        2
176
     1
 62
     7
176
     1
 90
        3
176
     1
 90
        0
176
     1
 90
        0
176
     1
290
     0
176
     1
 90
       13
176
     1
 40
0.0
176
     1
 90
        0
176
     1
290
     0
176
     1
290
     1
176
     1
290
     1
176
     1
290
     0
176
     1
290
     0
176
     1
290
     0
176
     1
290
     0
176
     1
290
     0
176
     1
290
     0
176
     1
 90
       50
176
     1
 40
0.0
176
     1
 40
1.0
176
     1
 90
        0
176
     1
 62
    18
420
        0
176
     1
 90
       50
176
     1
 90
        3
176
     1
 62
     5
420
      255
176
     1
290
     0
176
     1
 90
       50
176
     1
 90
       50
176
     1
 90
       50
176
     1
290
     0
176
     1
 90
       50
176
     1
 62
   256
176
     0
 40
1.0
176
     0
 90
        2
176
     1
  1
strokes_ogs.tif
176
     1
290
     0
176
     1
 40
1.0
176
     1
 40
1.0
176
     1
  0
DICTIONARYVAR
  5
1010089
102
{ACAD_REACTORS
330
1010083
102
}
330
1010083
100
DictionaryVariables
280
     0
  1
1:1
  0
DICTIONARYVAR
  5
1010085
102
{ACAD_REACTORS
330
1010083
102
}
330
1010083
100
DictionaryVariables
280
     0
  1
STANDARD
  0
DICTIONARYVAR
  5
1010084
102
{ACAD_REACTORS
330
1010083
102
}
330
1010083
100
DictionaryVariables
280
     0
  1
STANDARD
  0
DICTIONARYVAR
  5
1010086
102
{ACAD_REACTORS
330
1010083
102
}
330
1010083
100
DictionaryVariables
280
     0
  1
Imperial24
  0
DICTIONARYVAR
  5
1010087
102
{ACAD_REACTORS
330
1010083
102
}
330
1010083
100
DictionaryVariables
280
     0
  1
Imperial24
  0
DICTIONARYVAR
  5
101008B
102
{ACAD_REACTORS
330
1010083
102
}
330
1010083
100
DictionaryVariables
280
     0
  1
1
  0
DICTIONARYVAR
  5
101008C
102
{ACAD_REACTORS
330
1010083
102
}
330
1010083
100
DictionaryVariables
280
     0
  1
15
  0
DICTIONARYVAR
  5
101008A
102
{ACAD_REACTORS
330
1010083
102
}
330
1010083
100
DictionaryVariables
280
     0
  1
0
  0
DICTIONARYVAR
  5
1010088
102
{ACAD_REACTORS
330
1010083
102
}
330
1010083
100
DictionaryVariables
280
     0
  1
0
  0
DICTIONARY
  5
1010091
330
1010051
100
AcDbDictionary
280
     1
281
     1
  3
ACAD_XREC_ROUNDTRIP
360
1010092
  0
DICTIONARY
  5
101000E
330
101000D
100
AcDbDictionary
280
     1
281
     1
  3
BUMPTILE
360
1010010
  3
DIFFUSETILE
360
101000F
  3
OPACITYTILE
360
1010013
  3
REFLECTIONTILE
360
1010012
  3
REFRACTIONTILE
360
1010014
  3
SPECULARTILE
360
1010011
  0
DICTIONARY
  5
1010006
330
1010005
100
AcDbDictionary
280
     1
281
     1
  3
BUMPTILE
360
1010008
  3
DIFFUSETILE
360
1010007
  3
OPACITYTILE
360
101000B
  3
REFLECTIONTILE
360
101000A
  3
REFRACTIONTILE
360
101000C
  3
SPECULARTILE
360
1010009
  0
DICTIONARY
  5
1010016
330
1010015
100
AcDbDictionary
280
     1
281
     1
  3
BUMPTILE
360
1010018
  3
DIFFUSETILE
360
1010017
  3
OPACITYTILE
360
101001B
  3
REFLECTIONTILE
360
101001A
  3
REFRACTIONTILE
360
101001C
  3
SPECULARTILE
360
1010019
  0
DICTIONARY
  5
101008F
330
101004F
100
AcDbDictionary
280
     1
281
     1
  3
ACAD_XREC_ROUNDTRIP
360
1010090
  0
DICTIONARY
  5
101008D
330
1010038
100
AcDbDictionary
280
     1
281
     1
  3
ACAD_ROUNDTRIP_2008_TABLESTYLE_CELLSTYLEMAP
360
101008E
  0
XRECORD
  5
1010092
102
{ACAD_REACTORS
330
1010091
102
}
330
1010091
100
AcDbXrecord
280
     1
102
DISPLAYNAME
  1
Imperial24
102
FLAGS
 90
        0
  0
XRECORD
  5
1010010
102
{ACAD_REACTORS
330
101000E
102
}
330
101000E
100
AcDbXrecord
280
     1
270
     1
271
     1
  0
XRECORD
  5
101000F
102
{ACAD_REACTORS
330
101000E
102
}
330
101000E
100
AcDbXrecord
280
     1
270
     1
271
     1
  0
XRECORD
  5
1010013
102
{ACAD_REACTORS
330
101000E
102
}
330
101000E
100
AcDbXrecord
280
     1
270
     1
271
     1
  0
XRECORD
  5
1010012
102
{ACAD_REACTORS
330
101000E
102
}
330
101000E
100
AcDbXrecord
280
     1
270
     1
271
     1
  0
XRECORD
  5
1010014
102
{ACAD_REACTORS
330
101000E
102
}
330
101000E
100
AcDbXrecord
280
     1
270
     1
271
     1
  0
XRECORD
  5
1010011
102
{ACAD_REACTORS
330
101000E
102
}
330
101000E
100
AcDbXrecord
280
     1
270
     1
271
     1
  0
XRECORD
  5
1010008
102
{ACAD_REACTORS
330
1010006
102
}
330
1010006
100
AcDbXrecord
280
     1
270
     1
271
     1
  0
XRECORD
  5
1010007
102
{ACAD_REACTORS
330
1010006
102
}
330
1010006
100
AcDbXrecord
280
     1
270
     1
271
     1
  0
XRECORD
  5
101000B
102
{ACAD_REACTORS
330
1010006
102
}
330
1010006
100
AcDbXrecord
280
     1
270
     1
271
     1
  0
XRECORD
  5
101000A
102
{ACAD_REACTORS
330
1010006
102
}
330
1010006
100
AcDbXrecord
280
     1
270
     1
271
     1
  0
XRECORD
  5
101000C
102
{ACAD_REACTORS
330
1010006
102
}
330
1010006
100
AcDbXrecord
280
     1
270
     1
271
     1
  0
XRECORD
  5
1010009
102
{ACAD_REACTORS
330
1010006
102
}
330
1010006
100
AcDbXrecord
280
     1
270
     1
271
     1
  0
XRECORD
  5
1010018
102
{ACAD_REACTORS
330
1010016
102
}
330
1010016
100
AcDbXrecord
280
     1
270
     1
271
     1
  0
XRECORD
  5
1010017
102
{ACAD_REACTORS
330
1010016
102
}
330
1010016
100
AcDbXrecord
280
     1
270
     1
271
     1
  0
XRECORD
  5
101001B
102
{ACAD_REACTORS
330
1010016
102
}
330
1010016
100
AcDbXrecord
280
     1
270
     1
271
     1
  0
XRECORD
  5
101001A
102
{ACAD_REACTORS
330
1010016
102
}
330
1010016
100
AcDbXrecord
280
     1
270
     1
271
     1
  0
XRECORD
  5
101001C
102
{ACAD_REACTORS
330
1010016
102
}
330
1010016
100
AcDbXrecord
280
     1
270
     1
271
     1
  0
XRECORD
  5
1010019
102
{ACAD_REACTORS
330
1010016
102
}
330
1010016
100
AcDbXrecord
280
     1
270
     1
271
     1
  0
XRECORD
  5
1010090
102
{ACAD_REACTORS
330
101008F
102
}
330
101008F
100
AcDbXrecord
280
     1
102
DISPLAYNAME
  1
Imperial24
102
FLAGS
 90
        0
  0
CELLSTYLEMAP
  5
101008E
102
{ACAD_REACTORS
330
101008D
102
}
330
101008D
100
AcDbCellStyleMap
 90
        3
300
CELLSTYLE
  1
TABLEFORMAT_BEGIN
 90
        5
170
     1
 91
        0
 92
    32768
 62
   257
 93
        1
300
CONTENTFORMAT
  1
CONTENTFORMAT_BEGIN
 90
        0
 91
        0
 92
      512
 93
        0
300

 40
0.0
140
1.0
 94
        5
 62
     0
340
11
144
0.25
309
CONTENTFORMAT_END
171
     0
 94
        0
309
TABLEFORMAT_END
  1
CELLSTYLE_BEGIN
 90
        1
 91
        1
300
_TITLE
309
CELLSTYLE_END
300
CELLSTYLE
  1
TABLEFORMAT_BEGIN
 90
        5
170
     1
 91
        0
 92
        0
 62
   257
 93
        1
300
CONTENTFORMAT
  1
CONTENTFORMAT_BEGIN
 90
        0
 91
        0
 92
      512
 93
        0
300

 40
0.0
140
1.0
 94
        5
 62
     0
340
11
144
0.18
309
CONTENTFORMAT_END
171
     0
 94
        0
309
TABLEFORMAT_END
  1
CELLSTYLE_BEGIN
 90
        2
 91
        1
300
_HEADER
309
CELLSTYLE_END
300
CELLSTYLE
  1
TABLEFORMAT_BEGIN
 90
        5
170
     1
 91
        0
 92
        0
 62
   257
 93
        1
300
CONTENTFORMAT
  1
CONTENTFORMAT_BEGIN
 90
        0
 91
        0
 92
      512
 93
        0
300

 40
0.0
140
1.0
 94
        2
 62
     0
340
11
144
0.18
309
CONTENTFORMAT_END
171
     0
 94
        0
309
TABLEFORMAT_END
  1
CELLSTYLE_BEGIN
 90
        3
 91
        2
300
_DATA
309
CELLSTYLE_END
  0
ENDSEC
  0
SECTION
  2
ACDSDATA
 70
     2
 71
     8
  0
ACDSSCHEMA
 90
        0
  1
AcDb_Thumbnail_Schema
  2
AcDbDs::ID
280
    10
 91
        8
  2
Thumbnail_Data
280
    15
 91
        0
101
ACDSRECORD
 95
        0
 90
        1
  2
AcDbDs::TreatedAsObjectData
280
     1
291
     1
101
ACDSRECORD
 95
        0
 90
        2
  2
AcDbDs::Legacy
280
     1
291
     1
101
ACDSRECORD
  1
AcDbDs::ID
 90
        3
  2
AcDs:Indexable
280
     1
291
     1
101
ACDSRECORD
  1
AcDbDs::ID
 90
        4
  2
AcDbDs::HandleAttribute
280
     7
282
     1
  0
ACDSSCHEMA
 90
        1
  1
AcDbDs::TreatedAsObjectDataSchema
  2
AcDbDs::TreatedAsObjectData
280
     1
 91
        0
  0
ACDSSCHEMA
 90
        2
  1
AcDbDs::LegacySchema
  2
AcDbDs::Legacy
280
     1
 91
        0
  0
ACDSSCHEMA
 90
        3
  1
AcDbDs::IndexedPropertySchema
  2
AcDs:Indexable
280
     1
 91
        0
  0
ACDSSCHEMA
 90
        4
  1
AcDbDs::HandleAttributeSchema
  2
AcDbDs::HandleAttribute
280
     7
 91
        1
284
     1
  0
ACDSRECORD
 90
        0
  2
AcDbDs::ID
280
    10
320
1010055
  2
Thumbnail_Data
280
    15
 94
     1113
310
89504E470D0A1A0A0000000D4948445200000100000000AC0803000000A305827500000300504C54452128300000000000000000000000000000000000000000000000000000000000000000330000660000990000CC0000FF0033000033330033660033990033CC0033FF0066000066330066660066990066CC0066FF0099
310
000099330099660099990099CC0099FF00CC0000CC3300CC6600CC9900CCCC00CCFF00FF0000FF3300FF6600FF9900FFCC00FFFF3300003300333300663300993300CC3300FF3333003333333333663333993333CC3333FF3366003366333366663366993366CC3366FF3399003399333399663399993399CC3399FF33CC00
310
33CC3333CC6633CC9933CCCC33CCFF33FF0033FF3333FF6633FF9933FFCC33FFFF6600006600336600666600996600CC6600FF6633006633336633666633996633CC6633FF6666006666336666666666996666CC6666FF6699006699336699666699996699CC6699FF66CC0066CC3366CC6666CC9966CCCC66CCFF66FF0066
310
FF3366FF6666FF9966FFCC66FFFF9900009900339900669900999900CC9900FF9933009933339933669933999933CC9933FF9966009966339966669966999966CC9966FF9999009999339999669999999999CC9999FF99CC0099CC3399CC6699CC9999CCCC99CCFF99FF0099FF3399FF6699FF9999FFCC99FFFFCC0000CC00
310
33CC0066CC0099CC00CCCC00FFCC3300CC3333CC3366CC3399CC33CCCC33FFCC6600CC6633CC6666CC6699CC66CCCC66FFCC9900CC9933CC9966CC9999CC99CCCC99FFCCCC00CCCC33CCCC66CCCC99CCCCCCCCCCFFCCFF00CCFF33CCFF66CCFF99CCFFCCCCFFFFFF0000FF0033FF0066FF0099FF00CCFF00FFFF3300FF3333
310
FF3366FF3399FF33CCFF33FFFF6600FF6633FF6666FF6699FF66CCFF66FFFF9900FF9933FF9966FF9999FF99CCFF99FFFFCC00FFCC33FFCC66FFCC99FFCCCCFFCCFFFFFF00FFFF33FFFF66FFFF99FFFFCCFFFFFF0000000D0D0D1A1A1A2828283535354343435050505D5D5D6B6B6B787878868686939393A1A1A1AEAEAEBB
310
BBBBC9C9C9D6D6D6E4E4E4F1F1F1FFFFFF000000000000000000000000000000000000000000000000000000000000544354A8000001144944415478DAEDDDC16AC3400C4551FDFFFF6A6F708819BC0E63C5EF1CBAE9AAE43623B9C538550000000000DCF5607B020CFEDD08907C0476BE03EE876DC2F702082040F61610C0
310
11104000010C41011C01010410C0101440003340000104300405700404104000435000017EFD93DC20E10808E052D885900002B814B6056C01334000016C015BC0163003041040006BD01A0C0AE0DFE2637907980102B80E104000010C410104300304104000435000474000010430040510E0B533E07A8C68EA10CC0EB03E
310
473639407787AEC1EBE57FDF05715BE0C900438E409D5F9DBA053EAF3E38403D3804E3034C9982B53C50DEDF0202B847C85D620208208000B95B60DBC7EC0000000000000000000000C03F39007D645BFB1CEA553B0000000049454E44AE426082
  0
ENDSEC
  0
EOF
