<?xml version="1.0" encoding="UTF-8" standalone="no"?>
<!-- Created with Inkscape (http://www.inkscape.org/) -->

<svg
   xmlns:dc="http://purl.org/dc/elements/1.1/"
   xmlns:cc="http://creativecommons.org/ns#"
   xmlns:rdf="http://www.w3.org/1999/02/22-rdf-syntax-ns#"
   xmlns:svg="http://www.w3.org/2000/svg"
   xmlns="http://www.w3.org/2000/svg"
   xmlns:sodipodi="http://sodipodi.sourceforge.net/DTD/sodipodi-0.dtd"
   xmlns:inkscape="http://www.inkscape.org/namespaces/inkscape"
   width="210mm"
   height="297mm"
   viewBox="0 0 744.09448819 1052.3622047"
   id="svg4134"
   version="1.1"
   inkscape:version="0.91 r13725"
   sodipodi:docname="2x_aframe.svg">
  <defs
     id="defs4136" />
  <sodipodi:namedview
     id="base"
     pagecolor="#ffffff"
     bordercolor="#666666"
     borderopacity="1.0"
     inkscape:pageopacity="0.0"
     inkscape:pageshadow="2"
     inkscape:zoom="0.24748737"
     inkscape:cx="-39.285714"
     inkscape:cy="862.85714"
     inkscape:document-units="px"
     inkscape:current-layer="layer1"
     showgrid="false"
     inkscape:window-width="1440"
     inkscape:window-height="851"
     inkscape:window-x="0"
     inkscape:window-y="1"
     inkscape:window-maximized="1" />
  <metadata
     id="metadata4139">
    <rdf:RDF>
      <cc:Work
         rdf:about="">
        <dc:format>image/svg+xml</dc:format>
        <dc:type
           rdf:resource="http://purl.org/dc/dcmitype/StillImage" />
        <dc:title></dc:title>
      </cc:Work>
    </rdf:RDF>
  </metadata>
  <g
     inkscape:label="Layer 1"
     inkscape:groupmode="layer"
     id="layer1">
    <path
       style="opacity:1;fill:#895a00;fill-opacity:0.99358975"
       d="M 561.1582 -477.63867 L 337.5 132.16406 L 0 1052.3613 L 180 1052.3613 L 427.5 377.36133 L 675 -297.63867 L 922.5 377.36133 L 1170 1052.3613 L 1350 1052.3613 L 1012.5 132.16406 L 788.8418 -477.63867 L 561.1582 -477.63867 z M 659.23242 -433.3457 L 690.76758 -433.3457 L 690.76758 -400.39453 L 659.23242 -400.39453 L 659.23242 -433.3457 z M 252.05469 586.16406 L 281.14258 598.34766 L 253.76562 663.71094 L 224.67773 651.5293 L 252.05469 586.16406 z "
       id="rect4581" />
    <path
       inkscape:connector-curvature="0"
       style="opacity:1;fill:#895a00;fill-opacity:0.99358975"
       d="m -26.118901,1052.3622 223.658241,-609.80273 337.5,-920.19727 -180,0 -247.50004,674.99999 -247.5,675.00001 -247.49996,-675.00001 -247.5,-674.99999 -179.99997,0 337.49997,920.19727 223.6582,609.80273 227.683559,0 z m -98.074219,-44.293 -31.53516,0 0,-32.95114 31.53516,0 0,32.95114 z m 407.17776,-1019.509689 -29.0879,-12.1836 27.3769,-65.3633 29.0879,12.1816 -27.3769,65.3653 z"
       id="rect4581-0" />
  </g>
</svg>
