<?xml version="1.0" encoding="UTF-8" standalone="no"?>
<!-- Created with Inkscape (http://www.inkscape.org/) -->

<svg
   xmlns:dc="http://purl.org/dc/elements/1.1/"
   xmlns:cc="http://creativecommons.org/ns#"
   xmlns:rdf="http://www.w3.org/1999/02/22-rdf-syntax-ns#"
   xmlns:svg="http://www.w3.org/2000/svg"
   xmlns="http://www.w3.org/2000/svg"
   xmlns:sodipodi="http://sodipodi.sourceforge.net/DTD/sodipodi-0.dtd"
   xmlns:inkscape="http://www.inkscape.org/namespaces/inkscape"
   width="210mm"
   height="297mm"
   viewBox="0 0 744.09448819 1052.3622047"
   id="svg5502"
   version="1.1"
   inkscape:version="0.91 r13725"
   sodipodi:docname="plate_narrowteeth.svg">
  <sodipodi:namedview
     id="base"
     pagecolor="#ffffff"
     bordercolor="#666666"
     borderopacity="1.0"
     inkscape:pageopacity="0.0"
     inkscape:pageshadow="2"
     inkscape:zoom="0.98994949"
     inkscape:cx="162.74479"
     inkscape:cy="317.96949"
     inkscape:document-units="px"
     inkscape:current-layer="layer1"
     showgrid="false"
     inkscape:window-width="1440"
     inkscape:window-height="851"
     inkscape:window-x="0"
     inkscape:window-y="1"
     inkscape:window-maximized="1" />
  <defs
     id="defs5504" />
  <metadata
     id="metadata5507">
    <rdf:RDF>
      <cc:Work
         rdf:about="">
        <dc:format>image/svg+xml</dc:format>
        <dc:type
           rdf:resource="http://purl.org/dc/dcmitype/StillImage" />
        <dc:title />
      </cc:Work>
    </rdf:RDF>
  </metadata>
  <g
     id="layer1"
     inkscape:groupmode="layer"
     inkscape:label="Layer 1">
    <path
       id="rect3398"
       d="M212.59766 407.48047L212.59766 549.21289L0.0 549.21289L0.0 1052.3613L396.85156 1052.3613L396.85156 407.48047L212.59766 407.48047L212.59766 407.48047M26.576172 614.76367L27.03125 614.77539L27.482422 614.81055L27.925781 614.86719L28.361328 614.94531L28.789062 615.04297L29.210938 615.16211L29.621094 615.30273L30.023438 615.46094L30.416016 615.63867L30.798828 615.83398L31.167969 616.04688L31.527344 616.27734L31.875 616.52539L32.210938 616.78711L32.53125 617.06641L32.839844 617.35938L33.132812 617.66602L33.410156 617.98828L33.673828 618.32227L33.919922 618.66992L34.150391 619.0293L34.365234 619.40039L34.560547 619.78125L34.736328 620.17383L34.896484 620.57617L35.035156 620.98828L35.154297 621.4082L35.253906 621.83789L35.332031 622.27344L35.386719 622.7168L35.421875 623.16602L35.433594 623.62109L35.421875 624.06055L35.390625 624.49805L35.335938 624.92969L35.261719 625.35742L35.166016 625.78125L35.050781 626.19922L34.916016 626.60938L34.759766 627.01172L34.583984 627.40625L34.390625 627.79297L34.177734 628.16992L33.945312 628.53711L33.695312 628.89258L33.427734 629.23633L33.142578 629.56836L32.839844 629.88672L32.521484 630.18945L32.189453 630.47461L31.845703 630.74219L31.490234 630.99219L31.125 631.22461L30.748047 631.4375L30.361328 631.63086L29.966797 631.80664L29.5625 631.96289L29.152344 632.09766L28.734375 632.21484L28.3125 632.30859L27.884766 632.38477L27.451172 632.4375L27.015625 632.4707L26.576172 632.48047L26.136719 632.4707L25.701172 632.4375L25.267578 632.38477L24.839844 632.31055L24.416016 632.21484L24.0 632.09961L23.587891 631.96289L23.185547 631.80664L22.791016 631.63281L22.404297 631.4375L22.027344 631.22461L21.660156 630.99414L21.304688 630.74414L20.960938 630.47461L20.628906 630.18945L20.310547 629.88672L20.007812 629.56836L19.722656 629.23633L19.455078 628.89258L19.205078 628.53711L18.972656 628.16992L18.759766 627.79492L18.566406 627.4082L18.390625 627.01172L18.234375 626.60938L18.099609 626.19922L17.984375 625.78125L17.888672 625.35938L17.814453 624.92969L17.759766 624.49805L17.726562 624.06055L17.714844 623.62109L17.726562 623.18359L17.759766 622.74609L17.814453 622.31445L17.888672 621.88477L17.984375 621.46289L18.099609 621.04492L18.234375 620.63477L18.390625 620.23242L18.566406 619.83789L18.759766 619.45117L18.972656 619.07422L19.205078 618.70703L19.455078 618.35156L19.722656 618.00781L20.007812 617.67578L20.310547 617.35742L20.630859 617.05469L20.960938 616.76953L21.304688 616.50195L21.660156 616.25195L22.027344 616.02148L22.404297 615.80664L22.791016 615.61328L23.185547 615.4375L23.587891 615.2832L24.0 615.14648L24.416016 615.03125L24.839844 614.93555L25.267578 614.86133L25.699219 614.80859L26.136719 614.77539L26.576172 614.76367L26.576172 614.76367M370.27344 614.76367L370.27539 614.76367L370.71484 614.77539L371.15039 614.80859L371.58203 614.86133L372.01172 614.93555L372.43359 615.03125L372.85156 615.14648L373.26172 615.2832L373.66406 615.4375L374.06055 615.61328L374.44727 615.80664L374.82227 616.02148L375.18945 616.25195L375.54492 616.50195L375.88867 616.76953L376.2207 617.05469L376.53906 617.35742L376.8418 617.67578L377.12695 618.00781L377.39453 618.35156L377.64453 618.70703L377.87695 619.07422L378.08984 619.45117L378.28516 619.83789L378.45898 620.23242L378.61523 620.63477L378.75195 621.04492L378.86719 621.46289L378.96094 621.88477L379.03711 622.31445L379.0918 622.74609L379.12305 623.18359L379.13477 623.62109L379.12305 624.06055L379.0918 624.49805L379.03711 624.92969L378.96094 625.35938L378.86719 625.78125L378.75195 626.19922L378.61523 626.60938L378.45898 627.01172L378.28516 627.4082L378.08984 627.79492L377.87695 628.16992L377.64648 628.53711L377.39648 628.89258L377.12695 629.23633L376.8418 629.56836L376.53906 629.88672L376.2207 630.18945L375.88867 630.47461L375.54492 630.74414L375.18945 630.99414L374.82422 631.22461L374.44727 631.4375L374.06055 631.63281L373.66406 631.80664L373.26172 631.96289L372.85156 632.09961L372.43359 632.21484L372.01172 632.31055L371.58203 632.38477L371.15039 632.4375L370.71289 632.4707L370.27539 632.48047L369.83594 632.4707L369.39844 632.4375L368.9668 632.38477L368.53906 632.30859L368.11523 632.21484L367.69727 632.09766L367.28711 631.96289L366.88477 631.80664L366.49023 631.63086L366.10352 631.4375L365.72656 631.22461L365.35938 630.99219L365.00391 630.74219L364.66016 630.47461L364.33008 630.18945L364.01172 629.88672L363.70898 629.56836L363.42188 629.23633L363.1543 628.89258L362.9043 628.53711L362.67383 628.16992L362.46094 627.79297L362.26562 627.40625L362.0918 627.01172L361.93555 626.60938L361.79883 626.19922L361.68359 625.78125L361.58984 625.35742L361.51367 624.92969L361.46094 624.49805L361.42773 624.06055L361.41797 623.62109L361.42969 623.16602L361.46289 622.7168L361.51953 622.27344L361.59766 621.83789L361.69531 621.4082L361.81445 620.98828L361.95508 620.57617L362.11328 620.17383L362.29102 619.78125L362.48633 619.40039L362.69922 619.0293L362.92969 618.66992L363.17773 618.32227L363.43945 617.98828L363.71875 617.66602L364.01172 617.35938L364.31836 617.06641L364.64062 616.78711L364.97461 616.52539L365.32227 616.27734L365.68164 616.04688L366.05273 615.83398L366.43359 615.63867L366.82617 615.46094L367.22852 615.30273L367.64062 615.16211L368.06055 615.04297L368.49023 614.94531L368.92578 614.86719L369.36914 614.81055L369.81836 614.77539L370.27344 614.76367L370.27344 614.76367M42.519531 641.33789L53.148438 641.33789L53.148438 676.77148L42.519531 676.77148L42.519531 641.33789L42.519531 641.33789M343.70117 641.33789L354.33008 641.33789L354.33008 676.77148L343.70117 676.77148L343.70117 641.33789L343.70117 641.33789M42.519531 712.20508L53.148438 712.20508L53.148438 747.63867L42.519531 747.63867L42.519531 712.20508L42.519531 712.20508M343.70117 712.20508L354.33008 712.20508L354.33008 747.63867L343.70117 747.63867L343.70117 712.20508L343.70117 712.20508M42.519531 783.07031L53.148438 783.07031L53.148438 818.50391L42.519531 818.50391L42.519531 783.07031L42.519531 783.07031M343.70117 783.07031L354.33008 783.07031L354.33008 818.50391L343.70117 818.50391L343.70117 783.07031L343.70117 783.07031M26.576172 827.36133L27.013672 827.37305L27.451172 827.40625L27.882812 827.45898L28.310547 827.5332L28.734375 827.62891L29.152344 827.74609L29.5625 827.88086L29.964844 828.03711L30.359375 828.21094L30.746094 828.40625L31.123047 828.61914L31.490234 828.85156L31.845703 829.10156L32.189453 829.36914L32.519531 829.6543L32.837891 829.95703L33.140625 830.27539L33.427734 830.60742L33.695312 830.95117L33.945312 831.30664L34.175781 831.67383L34.388672 832.05078L34.583984 832.43555L34.757812 832.83203L34.914062 833.23438L35.050781 833.64453L35.166016 834.0625L35.259766 834.48438L35.335938 834.91406L35.390625 835.3457L35.421875 835.7832L35.433594 836.2207L35.419922 836.67773L35.386719 837.12695L35.330078 837.57031L35.251953 838.00586L35.154297 838.43555L35.035156 838.85547L34.894531 839.26758L34.736328 839.66992L34.558594 840.06055L34.363281 840.44336L34.150391 840.81445L33.919922 841.17383L33.671875 841.52148L33.410156 841.85547L33.130859 842.17773L32.837891 842.48438L32.53125 842.77734L32.208984 843.05664L31.875 843.31836L31.527344 843.56641L31.167969 843.79688L30.796875 844.00977L30.416016 844.20508L30.023438 844.38281L29.621094 844.54102L29.208984 844.67969L28.789062 844.80078L28.359375 844.89844L27.923828 844.97656L27.480469 845.0332L27.03125 845.06641L26.576172 845.07812L26.136719 845.06836L25.699219 845.03516L25.267578 844.98242L24.839844 844.9082L24.416016 844.8125L23.998047 844.69727L23.587891 844.56055L23.185547 844.4043L22.791016 844.23047L22.404297 844.03516L22.027344 843.82227L21.660156 843.5918L21.304688 843.3418L20.960938 843.07422L20.628906 842.78711L20.310547 842.48438L20.007812 842.16602L19.722656 841.83594L19.455078 841.49219L19.205078 841.13672L18.972656 840.76953L18.759766 840.39258L18.566406 840.00586L18.390625 839.61133L18.234375 839.20898L18.099609 838.79688L17.982422 838.38086L17.888672 837.95703L17.8125 837.5293L17.759766 837.09766L17.726562 836.66016L17.714844 836.2207L17.726562 835.78125L17.759766 835.3457L17.8125 834.91406L17.888672 834.48438L17.982422 834.0625L18.099609 833.64453L18.234375 833.23438L18.390625 832.83008L18.564453 832.43555L18.759766 832.04883L18.972656 831.67188L19.205078 831.30664L19.455078 830.95117L19.722656 830.60742L20.007812 830.27539L20.310547 829.95703L20.628906 829.6543L20.960938 829.36719L21.304688 829.09961L21.660156 828.84961L22.027344 828.61914L22.404297 828.40625L22.789062 828.21094L23.185547 828.03711L23.587891 827.88086L23.998047 827.74414L24.416016 827.62891L24.839844 827.5332L25.267578 827.45898L25.699219 827.40625L26.136719 827.37305L26.576172 827.36133L26.576172 827.36133M370.27539 827.36133L370.71484 827.37305L371.15039 827.40625L371.58398 827.45898L372.01172 827.5332L372.43359 827.62891L372.85156 827.74414L373.26172 827.88086L373.66602 828.03711L374.06055 828.21094L374.44727 828.40625L374.82422 828.61914L375.18945 828.84961L375.54688 829.09961L375.89062 829.36719L376.2207 829.6543L376.53906 829.95703L376.8418 830.27539L377.12891 830.60742L377.39648 830.95117L377.64648 831.30664L377.87695 831.67188L378.0918 832.04883L378.28516 832.43555L378.46094 832.83008L378.61523 833.23438L378.75195 833.64453L378.86719 834.0625L378.96289 834.48438L379.03711 834.91406L379.0918 835.3457L379.125 835.78125L379.13477 836.2207L379.125 836.66016L379.0918 837.09766L379.03711 837.5293L378.96289 837.95703L378.86719 838.38086L378.75195 838.79688L378.61523 839.20898L378.46094 839.61133L378.28516 840.00586L378.08984 840.39258L377.87695 840.76953L377.64648 841.13672L377.39648 841.49219L377.12891 841.83594L376.8418 842.16602L376.53906 842.48438L376.2207 842.78711L375.88867 843.07422L375.54492 843.3418L375.18945 843.5918L374.82422 843.82227L374.44727 844.03516L374.06055 844.23047L373.66602 844.4043L373.26172 844.56055L372.85156 844.69727L372.43555 844.8125L372.01172 844.9082L371.58398 844.98242L371.15039 845.03516L370.71484 845.06836L370.27539 845.07812L369.82031 845.06641L369.36914 845.0332L368.92578 844.97656L368.49023 844.89844L368.0625 844.80078L367.64062 844.67969L367.23047 844.54102L366.82812 844.38281L366.43555 844.20508L366.05273 844.00977L365.68164 843.79688L365.32422 843.56641L364.97656 843.31836L364.64062 843.05664L364.32031 842.77734L364.01172 842.48438L363.71875 842.17773L363.44141 841.85547L363.17773 841.52148L362.93164 841.17383L362.70117 840.81445L362.48633 840.44336L362.29102 840.06055L362.11328 839.66992L361.95508 839.26758L361.81641 838.85547L361.69727 838.43555L361.59766 838.00586L361.51953 837.57031L361.46484 837.12695L361.42969 836.67773L361.41797 836.2207L361.42969 835.7832L361.46094 835.3457L361.51562 834.91406L361.58984 834.48438L361.68555 834.0625L361.80078 833.64453L361.93555 833.23438L362.0918 832.83203L362.26758 832.43555L362.46094 832.05078L362.67383 831.67383L362.90625 831.30664L363.15625 830.95117L363.42383 830.60742L363.70898 830.27539L364.01172 829.95703L364.33008 829.6543L364.66211 829.36914L365.00586 829.10156L365.36133 828.85156L365.72656 828.61914L366.10352 828.40625L366.49023 828.21094L366.88477 828.03711L367.28906 827.88086L367.69922 827.74609L368.11523 827.62891L368.53906 827.5332L368.9668 827.45898L369.40039 827.40625L369.83594 827.37305L370.27539 827.36133L370.27539 827.36133"
       style="fill:#0000ff;fill-rule:evenodd;stroke:#000000;stroke-width:1.0000006px;stroke-linecap:butt;stroke-linejoin:miter;stroke-opacity:1" />
  </g>
</svg>
