  0
SECTION
  2
HEADER
  9
$ACADVER
  1
AC1014
  9
$HANDSEED
  5
FFFF
  9
$MEASUREMENT
 70
     1
  0
ENDSEC
  0
SECTION
  2
TABLES
  0
TABLE
  2
VPORT
  5
8
330
0
100
AcDbSymbolTable
 70
     4
  0
VPORT
  5
2E
330
8
100
AcDbSymbolTableRecord
100
AcDbViewportTableRecord
  2
*ACTIVE
 70
     0
 10
0.0
 20
0.0
 11
1.0
 21
1.0
 12
210.0
 22
148.5
 13
0.0
 23
0.0
 14
10.0
 24
10.0
 15
10.0
 25
10.0
 16
0.0
 26
0.0
 36
1.0
 17
0.0
 27
0.0
 37
0.0
 40
341.0
 41
1.24
 42
50.0
 43
0.0
 44
0.0
 50
0.0
 51
0.0
 71
     0
 72
   100
 73
     1
 74
     3
 75
     0
 76
     0
 77
     0
 78
     0
  0
ENDTAB
  0
TABLE
  2
LTYPE
  5
5
330
0
100
AcDbSymbolTable
 70
     1
  0
LTYPE
  5
14
330
5
100
AcDbSymbolTableRecord
100
AcDbLinetypeTableRecord
  2
BYBLOCK
 70
     0
  3

 72
    65
 73
     0
 40
0.0
  0
LTYPE
  5
15
330
5
100
AcDbSymbolTableRecord
100
AcDbLinetypeTableRecord
  2
BYLAYER
 70
     0
  3

 72
    65
 73
     0
 40
0.0
  0
LTYPE
  5
16
330
5
100
AcDbSymbolTableRecord
100
AcDbLinetypeTableRecord
  2
CONTINUOUS
 70
     0
  3
Solid line
 72
    65
 73
     0
 40
0.0
  0
ENDTAB
  0
TABLE
  2
LAYER
  5
2
100
AcDbSymbolTable
 70
2
  0
LAYER
  5
50
100
AcDbSymbolTableRecord
100
AcDbLayerTableRecord
  2
0
 70
0
  6
CONTINUOUS
  0
LAYER
  5
51
100
AcDbSymbolTableRecord
100
AcDbLayerTableRecord
  2
Layer_1
 70
0
  6
CONTINUOUS
  0
ENDTAB
  0
TABLE
  2
STYLE
  5
3
330
0
100
AcDbSymbolTable
 70
     1
  0
STYLE
  5
11
330
3
100
AcDbSymbolTableRecord
100
AcDbTextStyleTableRecord
  2
STANDARD
 70
     0
 40
0.0
 41
1.0
 50
0.0
 71
     0
 42
2.5
  3
txt
  4

  0
ENDTAB
  0
TABLE
  2
VIEW
  5
6
330
0
100
AcDbSymbolTable
 70
     0
  0
ENDTAB
  0
TABLE
  2
UCS
  5
7
330
0
100
AcDbSymbolTable
 70
     0
  0
ENDTAB
  0
TABLE
  2
APPID
  5
9
330
0
100
AcDbSymbolTable
 70
     2
  0
APPID
  5
12
330
9
100
AcDbSymbolTableRecord
100
AcDbRegAppTableRecord
  2
ACAD
 70
     0
  0
ENDTAB
  0
TABLE
  2
DIMSTYLE
  5
A
330
0
100
AcDbSymbolTable
 70
     1
  0
DIMSTYLE
105
27
330
A
100
AcDbSymbolTableRecord
100
AcDbDimStyleTableRecord
  2
ISO-25
 70
     0
  3

  4

  5

  6

  7

 40
1.0
 41
2.5
 42
0.625
 43
3.75
 44
1.25
 45
0.0
 46
0.0
 47
0.0
 48
0.0
140
2.5
141
2.5
142
0.0
143
0.03937007874016
144
1.0
145
0.0
146
1.0
147
0.625
 71
     0
 72
     0
 73
     0
 74
     0
 75
     0
 76
     0
 77
     1
 78
     8
170
     0
171
     3
172
     1
173
     0
174
     0
175
     0
176
     0
177
     0
178
     0
270
     2
271
     2
272
     2
273
     2
274
     3
340
11
275
     0
280
     0
281
     0
282
     0
283
     0
284
     8
285
     0
286
     0
287
     3
288
     0
  0
ENDTAB
  0
TABLE
  2
BLOCK_RECORD
  5
1
330
0
100
AcDbSymbolTable
 70
     1
  0
BLOCK_RECORD
  5
1F
330
1
100
AcDbSymbolTableRecord
100
AcDbBlockTableRecord
  2
*MODEL_SPACE
  0
BLOCK_RECORD
  5
1B
330
1
100
AcDbSymbolTableRecord
100
AcDbBlockTableRecord
  2
*PAPER_SPACE
  0
ENDTAB
  0
ENDSEC
  0
SECTION
  2
BLOCKS
  0
BLOCK
  5
20
330
1F
100
AcDbEntity
  8
0
100
AcDbBlockBegin
  2
*MODEL_SPACE
 70
     0
 10
0.0
 20
0.0
 30
0.0
  3
*MODEL_SPACE
  1

  0
ENDBLK
  5
21
330
1F
100
AcDbEntity
  8
0
100
AcDbBlockEnd
  0
BLOCK
  5
1C
330
1B
100
AcDbEntity
 67
     1
  8
0
100
AcDbBlockBegin
  2
*PAPER_SPACE
  1

  0
ENDBLK
  5
1D
330
1B
100
AcDbEntity
 67
     1
  8
0
100
AcDbBlockEnd
  0
ENDSEC
  0
SECTION
  2
ENTITIES
  0
LWPOLYLINE
  5
100
100
AcDbEntity
  8
Layer_1
 62
7
100
AcDbPolyline
 90
8
 70
0
 10
147.000016
 20
87.000488
 30
0.0
 10
106.999978
 20
87.000488
 30
0.0
 10
106.999978
 20
147.000272
 30
0.0
 10
-34.999684
 20
147.000272
 30
0.0
 10
-34.999684
 20
34.999940
 30
0.0
 10
147.000016
 20
34.999940
 30
0.0
 10
147.000016
 20
87.000488
 30
0.0
 10
147.000016
 20
87.000488
 30
0.0
  0
LWPOLYLINE
  5
101
100
AcDbEntity
  8
Layer_1
 62
7
100
AcDbPolyline
 90
130
 70
0
 10
88.500088
 20
139.499883
 30
0.0
 10
88.496786
 20
139.371452
 30
0.0
 10
88.486852
 20
139.244119
 30
0.0
 10
88.470878
 20
139.118993
 30
0.0
 10
88.448837
 20
138.996074
 30
0.0
 10
88.421264
 20
138.875356
 30
0.0
 10
88.387640
 20
138.756295
 30
0.0
 10
88.347954
 20
138.640539
 30
0.0
 10
88.303300
 20
138.526990
 30
0.0
 10
88.253141
 20
138.416195
 30
0.0
 10
88.198023
 20
138.308158
 30
0.0
 10
88.137938
 20
138.203978
 30
0.0
 10
88.072897
 20
138.102553
 30
0.0
 10
88.002892
 20
138.004438
 30
0.0
 10
87.929029
 20
137.909629
 30
0.0
 10
87.850201
 20
137.819230
 30
0.0
 10
87.767521
 20
137.732136
 30
0.0
 10
87.680981
 20
137.649454
 30
0.0
 10
87.590029
 20
137.571182
 30
0.0
 10
87.495772
 20
137.496769
 30
0.0
 10
87.397655
 20
137.427314
 30
0.0
 10
87.296230
 20
137.362270
 30
0.0
 10
87.191503
 20
137.301637
 30
0.0
 10
87.084016
 20
137.246517
 30
0.0
 10
86.973221
 20
137.196908
 30
0.0
 10
86.859669
 20
137.151707
 30
0.0
 10
86.743362
 20
137.112571
 30
0.0
 10
86.624854
 20
137.078947
 30
0.0
 10
86.503586
 20
137.050838
 30
0.0
 10
86.380661
 20
137.028796
 30
0.0
 10
86.255535
 20
137.013359
 30
0.0
 10
86.128758
 20
137.003424
 30
0.0
 10
86.000328
 20
137.000122
 30
0.0
 10
85.876299
 20
137.003424
 30
0.0
 10
85.752827
 20
137.012230
 30
0.0
 10
85.631009
 20
137.027667
 30
0.0
 10
85.510294
 20
137.048608
 30
0.0
 10
85.390682
 20
137.075617
 30
0.0
 10
85.272722
 20
137.108137
 30
0.0
 10
85.156966
 20
137.146172
 30
0.0
 10
85.043416
 20
137.190270
 30
0.0
 10
84.932071
 20
137.239879
 30
0.0
 10
84.822930
 20
137.294449
 30
0.0
 10
84.716544
 20
137.354531
 30
0.0
 10
84.612917
 20
137.420126
 30
0.0
 10
84.512596
 20
137.490681
 30
0.0
 10
84.415582
 20
137.566198
 30
0.0
 10
84.321876
 20
137.646677
 30
0.0
 10
84.232028
 20
137.732114
 30
0.0
 10
84.146590
 20
137.821962
 30
0.0
 10
84.066112
 20
137.915668
 30
0.0
 10
83.990592
 20
138.012682
 30
0.0
 10
83.920036
 20
138.113004
 30
0.0
 10
83.854445
 20
138.216083
 30
0.0
 10
83.794363
 20
138.322466
 30
0.0
 10
83.739792
 20
138.431607
 30
0.0
 10
83.690183
 20
138.542952
 30
0.0
 10
83.646086
 20
138.657055
 30
0.0
 10
83.608048
 20
138.772808
 30
0.0
 10
83.574980
 20
138.890769
 30
0.0
 10
83.548536
 20
139.009833
 30
0.0
 10
83.527031
 20
139.130547
 30
0.0
 10
83.512158
 20
139.252916
 30
0.0
 10
83.502788
 20
139.375838
 30
0.0
 10
83.499966
 20
139.499861
 30
0.0
 10
83.502788
 20
139.623886
 30
0.0
 10
83.512158
 20
139.746805
 30
0.0
 10
83.527031
 20
139.869177
 30
0.0
 10
83.547972
 20
139.989892
 30
0.0
 10
83.574980
 20
140.109506
 30
0.0
 10
83.607501
 20
140.226916
 30
0.0
 10
83.646086
 20
140.343220
 30
0.0
 10
83.690183
 20
140.456772
 30
0.0
 10
83.739242
 20
140.568117
 30
0.0
 10
83.794363
 20
140.677258
 30
0.0
 10
83.854445
 20
140.783642
 30
0.0
 10
83.919489
 20
140.887271
 30
0.0
 10
83.990045
 20
140.987592
 30
0.0
 10
84.066112
 20
141.084606
 30
0.0
 10
84.146590
 20
141.178312
 30
0.0
 10
84.232028
 20
141.268161
 30
0.0
 10
84.321876
 20
141.353598
 30
0.0
 10
84.415582
 20
141.434076
 30
0.0
 10
84.512596
 20
141.509593
 30
0.0
 10
84.612917
 20
141.580149
 30
0.0
 10
84.716544
 20
141.645743
 30
0.0
 10
84.822377
 20
141.705825
 30
0.0
 10
84.931521
 20
141.760396
 30
0.0
 10
85.043416
 20
141.810005
 30
0.0
 10
85.156966
 20
141.854102
 30
0.0
 10
85.272722
 20
141.892137
 30
0.0
 10
85.390682
 20
141.924658
 30
0.0
 10
85.509743
 20
141.951666
 30
0.0
 10
85.631009
 20
141.972607
 30
0.0
 10
85.752827
 20
141.988045
 30
0.0
 10
85.876299
 20
141.997414
 30
0.0
 10
86.000328
 20
142.000716
 30
0.0
 10
86.123800
 20
141.997414
 30
0.0
 10
86.247272
 20
141.988045
 30
0.0
 10
86.369090
 20
141.972607
 30
0.0
 10
86.490356
 20
141.951666
 30
0.0
 10
86.609420
 20
141.924658
 30
0.0
 10
86.727377
 20
141.892137
 30
0.0
 10
86.843133
 20
141.854102
 30
0.0
 10
86.956683
 20
141.810005
 30
0.0
 10
87.068031
 20
141.760396
 30
0.0
 10
87.177169
 20
141.705825
 30
0.0
 10
87.283555
 20
141.645743
 30
0.0
 10
87.387182
 20
141.580149
 30
0.0
 10
87.487506
 20
141.509593
 30
0.0
 10
87.584520
 20
141.434076
 30
0.0
 10
87.678223
 20
141.353598
 30
0.0
 10
87.768072
 20
141.268161
 30
0.0
 10
87.853509
 20
141.177762
 30
0.0
 10
87.933987
 20
141.084606
 30
0.0
 10
88.009507
 20
140.987592
 30
0.0
 10
88.080063
 20
140.887271
 30
0.0
 10
88.145106
 20
140.783642
 30
0.0
 10
88.205739
 20
140.677258
 30
0.0
 10
88.260307
 20
140.568117
 30
0.0
 10
88.309918
 20
140.456772
 30
0.0
 10
88.353465
 20
140.343220
 30
0.0
 10
88.392051
 20
140.226916
 30
0.0
 10
88.424571
 20
140.109506
 30
0.0
 10
88.451580
 20
139.989892
 30
0.0
 10
88.472521
 20
139.869177
 30
0.0
 10
88.487394
 20
139.747358
 30
0.0
 10
88.496764
 20
139.623886
 30
0.0
 10
88.500066
 20
139.499861
 30
0.0
 10
88.500066
 20
139.499861
 30
0.0
  0
LWPOLYLINE
  5
102
100
AcDbEntity
  8
Layer_1
 62
7
100
AcDbPolyline
 90
131
 70
0
 10
88.500066
 20
42.500856
 30
0.0
 10
88.500066
 20
42.500292
 30
0.0
 10
88.496764
 20
42.376269
 30
0.0
 10
88.487394
 20
42.253347
 30
0.0
 10
88.472521
 20
42.131529
 30
0.0
 10
88.451580
 20
42.010261
 30
0.0
 10
88.424571
 20
41.891200
 30
0.0
 10
88.392051
 20
41.773236
 30
0.0
 10
88.353465
 20
41.657483
 30
0.0
 10
88.309918
 20
41.543931
 30
0.0
 10
88.260307
 20
41.432035
 30
0.0
 10
88.205739
 20
41.322894
 30
0.0
 10
88.145106
 20
41.217061
 30
0.0
 10
88.080063
 20
41.113432
 30
0.0
 10
88.009507
 20
41.013110
 30
0.0
 10
87.933987
 20
40.916097
 30
0.0
 10
87.853509
 20
40.822390
 30
0.0
 10
87.768072
 20
40.732542
 30
0.0
 10
87.678223
 20
40.647105
 30
0.0
 10
87.584520
 20
40.566626
 30
0.0
 10
87.487506
 20
40.491112
 30
0.0
 10
87.387182
 20
40.420557
 30
0.0
 10
87.283555
 20
40.354960
 30
0.0
 10
87.177169
 20
40.294880
 30
0.0
 10
87.068031
 20
40.239757
 30
0.0
 10
86.956683
 20
40.190701
 30
0.0
 10
86.843133
 20
40.146604
 30
0.0
 10
86.727377
 20
40.108015
 30
0.0
 10
86.609420
 20
40.075495
 30
0.0
 10
86.490356
 20
40.049051
 30
0.0
 10
86.369090
 20
40.027545
 30
0.0
 10
86.247272
 20
40.012108
 30
0.0
 10
86.123800
 20
40.003302
 30
0.0
 10
86.000328
 20
40.000000
 30
0.0
 10
85.876299
 20
40.003302
 30
0.0
 10
85.752827
 20
40.012108
 30
0.0
 10
85.631009
 20
40.027545
 30
0.0
 10
85.509743
 20
40.049051
 30
0.0
 10
85.390682
 20
40.075495
 30
0.0
 10
85.272722
 20
40.108015
 30
0.0
 10
85.156966
 20
40.146604
 30
0.0
 10
85.043416
 20
40.190701
 30
0.0
 10
84.931521
 20
40.239757
 30
0.0
 10
84.822377
 20
40.294880
 30
0.0
 10
84.716544
 20
40.354960
 30
0.0
 10
84.612917
 20
40.420006
 30
0.0
 10
84.512596
 20
40.490562
 30
0.0
 10
84.415582
 20
40.566626
 30
0.0
 10
84.321876
 20
40.647105
 30
0.0
 10
84.232028
 20
40.732542
 30
0.0
 10
84.146590
 20
40.822390
 30
0.0
 10
84.066112
 20
40.916097
 30
0.0
 10
83.990045
 20
41.013110
 30
0.0
 10
83.919489
 20
41.113432
 30
0.0
 10
83.854445
 20
41.216511
 30
0.0
 10
83.794363
 20
41.322894
 30
0.0
 10
83.739242
 20
41.432035
 30
0.0
 10
83.690183
 20
41.543931
 30
0.0
 10
83.646086
 20
41.657483
 30
0.0
 10
83.607501
 20
41.773236
 30
0.0
 10
83.574980
 20
41.891200
 30
0.0
 10
83.547972
 20
42.010261
 30
0.0
 10
83.527031
 20
42.131529
 30
0.0
 10
83.512158
 20
42.253347
 30
0.0
 10
83.502788
 20
42.376819
 30
0.0
 10
83.499966
 20
42.500292
 30
0.0
 10
83.502788
 20
42.624314
 30
0.0
 10
83.512158
 20
42.747786
 30
0.0
 10
83.527031
 20
42.869605
 30
0.0
 10
83.548536
 20
42.990320
 30
0.0
 10
83.574980
 20
43.109937
 30
0.0
 10
83.608048
 20
43.227894
 30
0.0
 10
83.646086
 20
43.343651
 30
0.0
 10
83.690183
 20
43.457200
 30
0.0
 10
83.739792
 20
43.568548
 30
0.0
 10
83.794363
 20
43.677686
 30
0.0
 10
83.854445
 20
43.784070
 30
0.0
 10
83.920036
 20
43.887699
 30
0.0
 10
83.990592
 20
43.988020
 30
0.0
 10
84.066112
 20
44.085034
 30
0.0
 10
84.146590
 20
44.178190
 30
0.0
 10
84.232028
 20
44.268039
 30
0.0
 10
84.321876
 20
44.353479
 30
0.0
 10
84.415582
 20
44.434505
 30
0.0
 10
84.512596
 20
44.510022
 30
0.0
 10
84.612917
 20
44.580577
 30
0.0
 10
84.716544
 20
44.645621
 30
0.0
 10
84.822930
 20
44.705703
 30
0.0
 10
84.932071
 20
44.760827
 30
0.0
 10
85.043416
 20
44.809883
 30
0.0
 10
85.156966
 20
44.853980
 30
0.0
 10
85.272722
 20
44.892565
 30
0.0
 10
85.390682
 20
44.925089
 30
0.0
 10
85.510294
 20
44.951533
 30
0.0
 10
85.631009
 20
44.973038
 30
0.0
 10
85.752827
 20
44.987911
 30
0.0
 10
85.876299
 20
44.997281
 30
0.0
 10
86.000328
 20
45.000103
 30
0.0
 10
86.128758
 20
44.996801
 30
0.0
 10
86.255535
 20
44.987431
 30
0.0
 10
86.380661
 20
44.971458
 30
0.0
 10
86.503586
 20
44.949416
 30
0.0
 10
86.624854
 20
44.921843
 30
0.0
 10
86.743362
 20
44.888219
 30
0.0
 10
86.859669
 20
44.848533
 30
0.0
 10
86.973221
 20
44.803885
 30
0.0
 10
87.084016
 20
44.753723
 30
0.0
 10
87.191503
 20
44.698602
 30
0.0
 10
87.296230
 20
44.638520
 30
0.0
 10
87.397655
 20
44.573476
 30
0.0
 10
87.495772
 20
44.503474
 30
0.0
 10
87.590029
 20
44.429608
 30
0.0
 10
87.680981
 20
44.350786
 30
0.0
 10
87.767521
 20
44.268103
 30
0.0
 10
87.850201
 20
44.181563
 30
0.0
 10
87.929029
 20
44.090614
 30
0.0
 10
88.002892
 20
43.996355
 30
0.0
 10
88.072897
 20
43.898237
 30
0.0
 10
88.137938
 20
43.796815
 30
0.0
 10
88.198023
 20
43.692085
 30
0.0
 10
88.253141
 20
43.584598
 30
0.0
 10
88.303300
 20
43.473800
 30
0.0
 10
88.347954
 20
43.360251
 30
0.0
 10
88.387640
 20
43.243947
 30
0.0
 10
88.421264
 20
43.125434
 30
0.0
 10
88.448837
 20
43.004168
 30
0.0
 10
88.470878
 20
42.881247
 30
0.0
 10
88.486852
 20
42.756120
 30
0.0
 10
88.496786
 20
42.629341
 30
0.0
 10
88.500088
 20
42.500907
 30
0.0
 10
88.500088
 20
42.500907
 30
0.0
  0
LWPOLYLINE
  5
103
100
AcDbEntity
  8
Layer_1
 62
7
100
AcDbPolyline
 90
6
 70
0
 10
81.000256
 20
135.000341
 30
0.0
 10
81.000256
 20
132.000629
 30
0.0
 10
71.000109
 20
132.000629
 30
0.0
 10
71.000109
 20
135.000341
 30
0.0
 10
81.000256
 20
135.000341
 30
0.0
 10
81.000256
 20
135.000341
 30
0.0
  0
LWPOLYLINE
  5
104
100
AcDbEntity
  8
Layer_1
 62
7
100
AcDbPolyline
 90
6
 70
0
 10
81.000256
 20
50.000189
 30
0.0
 10
81.000256
 20
47.000477
 30
0.0
 10
71.000109
 20
47.000477
 30
0.0
 10
71.000109
 20
50.000189
 30
0.0
 10
81.000256
 20
50.000189
 30
0.0
 10
81.000256
 20
50.000189
 30
0.0
  0
LWPOLYLINE
  5
105
100
AcDbEntity
  8
Layer_1
 62
7
100
AcDbPolyline
 90
6
 70
0
 10
60.999960
 20
135.000341
 30
0.0
 10
60.999960
 20
132.000629
 30
0.0
 10
50.999811
 20
132.000629
 30
0.0
 10
50.999811
 20
135.000341
 30
0.0
 10
60.999960
 20
135.000341
 30
0.0
 10
60.999960
 20
135.000341
 30
0.0
  0
LWPOLYLINE
  5
106
100
AcDbEntity
  8
Layer_1
 62
7
100
AcDbPolyline
 90
6
 70
0
 10
60.999960
 20
50.000189
 30
0.0
 10
60.999960
 20
47.000477
 30
0.0
 10
50.999811
 20
47.000477
 30
0.0
 10
50.999811
 20
50.000189
 30
0.0
 10
60.999960
 20
50.000189
 30
0.0
 10
60.999960
 20
50.000189
 30
0.0
  0
LWPOLYLINE
  5
107
100
AcDbEntity
  8
Layer_1
 62
7
100
AcDbPolyline
 90
6
 70
0
 10
41.000217
 20
135.000341
 30
0.0
 10
41.000217
 20
132.000629
 30
0.0
 10
31.000068
 20
132.000629
 30
0.0
 10
31.000068
 20
135.000341
 30
0.0
 10
41.000217
 20
135.000341
 30
0.0
 10
41.000217
 20
135.000341
 30
0.0
  0
LWPOLYLINE
  5
108
100
AcDbEntity
  8
Layer_1
 62
7
100
AcDbPolyline
 90
6
 70
0
 10
41.000217
 20
50.000189
 30
0.0
 10
41.000217
 20
47.000477
 30
0.0
 10
31.000068
 20
47.000477
 30
0.0
 10
31.000068
 20
50.000189
 30
0.0
 10
41.000217
 20
50.000189
 30
0.0
 10
41.000217
 20
50.000189
 30
0.0
  0
LWPOLYLINE
  5
109
100
AcDbEntity
  8
Layer_1
 62
7
100
AcDbPolyline
 90
130
 70
0
 10
28.500307
 20
139.499911
 30
0.0
 10
28.497005
 20
139.376439
 30
0.0
 10
28.487635
 20
139.252967
 30
0.0
 10
28.472762
 20
139.131149
 30
0.0
 10
28.451821
 20
139.010434
 30
0.0
 10
28.424813
 20
138.890819
 30
0.0
 10
28.391742
 20
138.772859
 30
0.0
 10
28.353707
 20
138.657106
 30
0.0
 10
28.309610
 20
138.543553
 30
0.0
 10
28.260548
 20
138.432208
 30
0.0
 10
28.205429
 20
138.323067
 30
0.0
 10
28.145346
 20
138.216684
 30
0.0
 10
28.079752
 20
138.113054
 30
0.0
 10
28.009197
 20
138.012733
 30
0.0
 10
27.933680
 20
137.915719
 30
0.0
 10
27.853201
 20
137.822563
 30
0.0
 10
27.767764
 20
137.732715
 30
0.0
 10
27.677916
 20
137.647278
 30
0.0
 10
27.584209
 20
137.566249
 30
0.0
 10
27.487196
 20
137.490732
 30
0.0
 10
27.386874
 20
137.420176
 30
0.0
 10
27.283245
 20
137.355133
 30
0.0
 10
27.176861
 20
137.295050
 30
0.0
 10
27.068271
 20
137.239929
 30
0.0
 10
26.956375
 20
137.190871
 30
0.0
 10
26.842823
 20
137.146774
 30
0.0
 10
26.727070
 20
137.108188
 30
0.0
 10
26.609109
 20
137.075668
 30
0.0
 10
26.490045
 20
137.049223
 30
0.0
 10
26.368780
 20
137.027718
 30
0.0
 10
26.246962
 20
137.012281
 30
0.0
 10
26.123489
 20
137.003475
 30
0.0
 10
26.000017
 20
137.000173
 30
0.0
 10
25.871033
 20
137.004040
 30
0.0
 10
25.744253
 20
137.013409
 30
0.0
 10
25.619127
 20
137.029383
 30
0.0
 10
25.496205
 20
137.051425
 30
0.0
 10
25.374937
 20
137.078998
 30
0.0
 10
25.256426
 20
137.112622
 30
0.0
 10
25.140120
 20
137.152308
 30
0.0
 10
25.026571
 20
137.196958
 30
0.0
 10
24.916326
 20
137.247118
 30
0.0
 10
24.808289
 20
137.302239
 30
0.0
 10
24.703559
 20
137.362321
 30
0.0
 10
24.602134
 20
137.427365
 30
0.0
 10
24.504019
 20
137.497370
 30
0.0
 10
24.409760
 20
137.571233
 30
0.0
 10
24.318811
 20
137.650058
 30
0.0
 10
24.232267
 20
137.732737
 30
0.0
 10
24.149588
 20
137.819281
 30
0.0
 10
24.070763
 20
137.910230
 30
0.0
 10
23.996900
 20
138.004489
 30
0.0
 10
23.926895
 20
138.102604
 30
0.0
 10
23.861851
 20
138.204029
 30
0.0
 10
23.801768
 20
138.308759
 30
0.0
 10
23.746648
 20
138.416246
 30
0.0
 10
23.696488
 20
138.527041
 30
0.0
 10
23.651838
 20
138.640590
 30
0.0
 10
23.612702
 20
138.756897
 30
0.0
 10
23.578528
 20
138.875407
 30
0.0
 10
23.550966
 20
138.996675
 30
0.0
 10
23.528919
 20
139.119597
 30
0.0
 10
23.512934
 20
139.244723
 30
0.0
 10
23.503561
 20
139.371503
 30
0.0
 10
23.500256
 20
139.499934
 30
0.0
 10
23.503022
 20
139.623959
 30
0.0
 10
23.512392
 20
139.747432
 30
0.0
 10
23.527276
 20
139.869250
 30
0.0
 10
23.548223
 20
139.989965
 30
0.0
 10
23.575232
 20
140.109579
 30
0.0
 10
23.607752
 20
140.227540
 30
0.0
 10
23.646337
 20
140.343293
 30
0.0
 10
23.690435
 20
140.456845
 30
0.0
 10
23.739493
 20
140.568190
 30
0.0
 10
23.794614
 20
140.677331
 30
0.0
 10
23.854696
 20
140.783715
 30
0.0
 10
23.919740
 20
140.887344
 30
0.0
 10
23.990296
 20
140.987666
 30
0.0
 10
24.065813
 20
141.084680
 30
0.0
 10
24.146842
 20
141.178386
 30
0.0
 10
24.232279
 20
141.268234
 30
0.0
 10
24.322127
 20
141.353671
 30
0.0
 10
24.415283
 20
141.434150
 30
0.0
 10
24.512297
 20
141.509667
 30
0.0
 10
24.612618
 20
141.580222
 30
0.0
 10
24.716248
 20
141.645816
 30
0.0
 10
24.822631
 20
141.705899
 30
0.0
 10
24.931772
 20
141.760469
 30
0.0
 10
25.043117
 20
141.810078
 30
0.0
 10
25.156669
 20
141.854175
 30
0.0
 10
25.272973
 20
141.892210
 30
0.0
 10
25.390383
 20
141.925281
 30
0.0
 10
25.509998
 20
141.951725
 30
0.0
 10
25.630712
 20
141.973231
 30
0.0
 10
25.752531
 20
141.988104
 30
0.0
 10
25.876003
 20
141.997474
 30
0.0
 10
26.000028
 20
142.000776
 30
0.0
 10
26.124051
 20
141.997474
 30
0.0
 10
26.246973
 20
141.988104
 30
0.0
 10
26.368791
 20
141.973231
 30
0.0
 10
26.490057
 20
141.951725
 30
0.0
 10
26.609120
 20
141.925281
 30
0.0
 10
26.727081
 20
141.892210
 30
0.0
 10
26.842834
 20
141.854175
 30
0.0
 10
26.956937
 20
141.810078
 30
0.0
 10
27.068282
 20
141.761019
 30
0.0
 10
27.177423
 20
141.705899
 30
0.0
 10
27.283807
 20
141.645816
 30
0.0
 10
27.386885
 20
141.580222
 30
0.0
 10
27.487207
 20
141.509667
 30
0.0
 10
27.584221
 20
141.434150
 30
0.0
 10
27.677927
 20
141.353671
 30
0.0
 10
27.767775
 20
141.268234
 30
0.0
 10
27.853212
 20
141.178386
 30
0.0
 10
27.934241
 20
141.084680
 30
0.0
 10
28.009758
 20
140.987666
 30
0.0
 10
28.080314
 20
140.887344
 30
0.0
 10
28.145358
 20
140.783715
 30
0.0
 10
28.205440
 20
140.677331
 30
0.0
 10
28.260559
 20
140.568741
 30
0.0
 10
28.309621
 20
140.456845
 30
0.0
 10
28.353718
 20
140.343293
 30
0.0
 10
28.392303
 20
140.227540
 30
0.0
 10
28.424824
 20
140.109579
 30
0.0
 10
28.451833
 20
139.989965
 30
0.0
 10
28.472773
 20
139.869250
 30
0.0
 10
28.487647
 20
139.747432
 30
0.0
 10
28.497016
 20
139.623959
 30
0.0
 10
28.500318
 20
139.499934
 30
0.0
 10
28.500318
 20
139.499934
 30
0.0
  0
LWPOLYLINE
  5
10a
100
AcDbEntity
  8
Layer_1
 62
7
100
AcDbPolyline
 90
130
 70
0
 10
28.500318
 20
42.500379
 30
0.0
 10
28.497016
 20
42.376357
 30
0.0
 10
28.487647
 20
42.253435
 30
0.0
 10
28.472773
 20
42.131066
 30
0.0
 10
28.451833
 20
42.010348
 30
0.0
 10
28.424824
 20
41.891287
 30
0.0
 10
28.392303
 20
41.773324
 30
0.0
 10
28.353718
 20
41.657570
 30
0.0
 10
28.309621
 20
41.543468
 30
0.0
 10
28.260559
 20
41.432123
 30
0.0
 10
28.205440
 20
41.322982
 30
0.0
 10
28.145358
 20
41.216598
 30
0.0
 10
28.080314
 20
41.113519
 30
0.0
 10
28.009758
 20
41.012648
 30
0.0
 10
27.934241
 20
40.915636
 30
0.0
 10
27.853212
 20
40.822478
 30
0.0
 10
27.767775
 20
40.732629
 30
0.0
 10
27.677927
 20
40.647192
 30
0.0
 10
27.584221
 20
40.566164
 30
0.0
 10
27.487207
 20
40.490649
 30
0.0
 10
27.386885
 20
40.420094
 30
0.0
 10
27.283807
 20
40.355047
 30
0.0
 10
27.177423
 20
40.294415
 30
0.0
 10
27.068282
 20
40.239844
 30
0.0
 10
26.956937
 20
40.190235
 30
0.0
 10
26.842834
 20
40.146691
 30
0.0
 10
26.727081
 20
40.108103
 30
0.0
 10
26.609120
 20
40.075582
 30
0.0
 10
26.490057
 20
40.048574
 30
0.0
 10
26.368791
 20
40.027633
 30
0.0
 10
26.246973
 20
40.012195
 30
0.0
 10
26.124051
 20
40.002825
 30
0.0
 10
26.000028
 20
40.000003
 30
0.0
 10
25.876003
 20
40.002825
 30
0.0
 10
25.752531
 20
40.012195
 30
0.0
 10
25.630712
 20
40.027633
 30
0.0
 10
25.509998
 20
40.048574
 30
0.0
 10
25.390383
 20
40.075582
 30
0.0
 10
25.272973
 20
40.108103
 30
0.0
 10
25.156669
 20
40.146691
 30
0.0
 10
25.043117
 20
40.190235
 30
0.0
 10
24.931772
 20
40.239844
 30
0.0
 10
24.822631
 20
40.294968
 30
0.0
 10
24.716248
 20
40.355047
 30
0.0
 10
24.612618
 20
40.420094
 30
0.0
 10
24.512297
 20
40.490649
 30
0.0
 10
24.415283
 20
40.566164
 30
0.0
 10
24.322127
 20
40.647192
 30
0.0
 10
24.232279
 20
40.732629
 30
0.0
 10
24.146842
 20
40.822478
 30
0.0
 10
24.065813
 20
40.916184
 30
0.0
 10
23.990296
 20
41.013198
 30
0.0
 10
23.919740
 20
41.113519
 30
0.0
 10
23.854696
 20
41.216598
 30
0.0
 10
23.794614
 20
41.322982
 30
0.0
 10
23.739493
 20
41.432123
 30
0.0
 10
23.690435
 20
41.543468
 30
0.0
 10
23.646337
 20
41.657570
 30
0.0
 10
23.607752
 20
41.773324
 30
0.0
 10
23.575232
 20
41.890734
 30
0.0
 10
23.548223
 20
42.010348
 30
0.0
 10
23.527276
 20
42.131066
 30
0.0
 10
23.512392
 20
42.253435
 30
0.0
 10
23.503022
 20
42.376357
 30
0.0
 10
23.500256
 20
42.500379
 30
0.0
 10
23.503561
 20
42.628810
 30
0.0
 10
23.512934
 20
42.756143
 30
0.0
 10
23.528919
 20
42.881269
 30
0.0
 10
23.550966
 20
43.004191
 30
0.0
 10
23.578528
 20
43.124906
 30
0.0
 10
23.612702
 20
43.243970
 30
0.0
 10
23.651838
 20
43.359723
 30
0.0
 10
23.696488
 20
43.473275
 30
0.0
 10
23.746648
 20
43.584067
 30
0.0
 10
23.801768
 20
43.692108
 30
0.0
 10
23.861851
 20
43.796838
 30
0.0
 10
23.926895
 20
43.897709
 30
0.0
 10
23.996900
 20
43.995824
 30
0.0
 10
24.070763
 20
44.090636
 30
0.0
 10
24.149588
 20
44.181032
 30
0.0
 10
24.232267
 20
44.268126
 30
0.0
 10
24.318811
 20
44.350809
 30
0.0
 10
24.409760
 20
44.429080
 30
0.0
 10
24.504019
 20
44.503497
 30
0.0
 10
24.602134
 20
44.572949
 30
0.0
 10
24.703559
 20
44.637990
 30
0.0
 10
24.808289
 20
44.698625
 30
0.0
 10
24.916326
 20
44.753746
 30
0.0
 10
25.026571
 20
44.803908
 30
0.0
 10
25.140120
 20
44.848556
 30
0.0
 10
25.256426
 20
44.887691
 30
0.0
 10
25.374937
 20
44.921315
 30
0.0
 10
25.496205
 20
44.949425
 30
0.0
 10
25.619127
 20
44.971466
 30
0.0
 10
25.744253
 20
44.986904
 30
0.0
 10
25.871033
 20
44.996810
 30
0.0
 10
26.000017
 20
45.000112
 30
0.0
 10
26.123489
 20
44.996810
 30
0.0
 10
26.246962
 20
44.988004
 30
0.0
 10
26.368780
 20
44.972567
 30
0.0
 10
26.490045
 20
44.951626
 30
0.0
 10
26.609109
 20
44.924617
 30
0.0
 10
26.727070
 20
44.892097
 30
0.0
 10
26.842823
 20
44.854062
 30
0.0
 10
26.956375
 20
44.809964
 30
0.0
 10
27.068271
 20
44.760355
 30
0.0
 10
27.176861
 20
44.705785
 30
0.0
 10
27.283245
 20
44.645703
 30
0.0
 10
27.386874
 20
44.580109
 30
0.0
 10
27.487196
 20
44.509553
 30
0.0
 10
27.584209
 20
44.434036
 30
0.0
 10
27.677916
 20
44.353560
 30
0.0
 10
27.767764
 20
44.268120
 30
0.0
 10
27.853201
 20
44.178272
 30
0.0
 10
27.933680
 20
44.084566
 30
0.0
 10
28.009197
 20
43.987552
 30
0.0
 10
28.079752
 20
43.887230
 30
0.0
 10
28.145346
 20
43.784152
 30
0.0
 10
28.205429
 20
43.677768
 30
0.0
 10
28.260548
 20
43.568630
 30
0.0
 10
28.309610
 20
43.457282
 30
0.0
 10
28.353707
 20
43.343179
 30
0.0
 10
28.391742
 20
43.227426
 30
0.0
 10
28.424813
 20
43.110019
 30
0.0
 10
28.451821
 20
42.990402
 30
0.0
 10
28.472762
 20
42.869687
 30
0.0
 10
28.487635
 20
42.747318
 30
0.0
 10
28.497005
 20
42.624396
 30
0.0
 10
28.500307
 20
42.500374
 30
0.0
 10
28.500307
 20
42.500374
 30
0.0
  0
ENDSEC
  0
SECTION
  2
OBJECTS
  0
DICTIONARY
  5
C
330
0
100
AcDbDictionary
  3
ACAD_GROUP
350
D
  3
ACAD_MLINESTYLE
350
17
  0
DICTIONARY
  5
D
330
C
100
AcDbDictionary
  0
DICTIONARY
  5
1A
330
C
100
AcDbDictionary
  0
DICTIONARY
  5
17
330
C
100
AcDbDictionary
  3
STANDARD
350
18
  0
DICTIONARY
  5
19
330
C
100
AcDbDictionary
  0
ENDSEC
  0
EOF
