<?xml version="1.0" encoding="UTF-8" standalone="no"?>
<!-- Created with Inkscape (http://www.inkscape.org/) -->

<svg
   xmlns:dc="http://purl.org/dc/elements/1.1/"
   xmlns:cc="http://creativecommons.org/ns#"
   xmlns:rdf="http://www.w3.org/1999/02/22-rdf-syntax-ns#"
   xmlns:svg="http://www.w3.org/2000/svg"
   xmlns="http://www.w3.org/2000/svg"
   xmlns:sodipodi="http://sodipodi.sourceforge.net/DTD/sodipodi-0.dtd"
   xmlns:inkscape="http://www.inkscape.org/namespaces/inkscape"
   width="210mm"
   height="297mm"
   viewBox="0 0 744.09448819 1052.3622047"
   id="svg2"
   version="1.1"
   inkscape:version="0.91 r13725"
   sodipodi:docname="stand_components_config_082316.1936.svg">
  <sodipodi:namedview
     id="base"
     pagecolor="#ffffff"
     bordercolor="#666666"
     borderopacity="1.0"
     inkscape:pageopacity="0.0"
     inkscape:pageshadow="2"
     inkscape:zoom="0.35355339"
     inkscape:cx="1403.1893"
     inkscape:cy="857.39192"
     inkscape:document-units="mm"
     inkscape:current-layer="layer1"
     showgrid="false"
     showborder="false"
     inkscape:window-width="1440"
     inkscape:window-height="851"
     inkscape:window-x="0"
     inkscape:window-y="1"
     inkscape:window-maximized="1" />
  <defs
     id="defs4" />
  <metadata
     id="metadata7">
    <rdf:RDF>
      <cc:Work
         rdf:about="">
        <dc:format>image/svg+xml</dc:format>
        <dc:type
           rdf:resource="http://purl.org/dc/dcmitype/StillImage" />
        <dc:title></dc:title>
      </cc:Work>
    </rdf:RDF>
  </metadata>
  <g
     inkscape:label="Layer 1"
     inkscape:groupmode="layer"
     id="layer1">
    <path
       style="fill:#0000ff;fill-rule:evenodd;stroke:#000000;stroke-width:1.0000006px;stroke-linecap:butt;stroke-linejoin:miter;stroke-opacity:1"
       d="M1500.5977 -440.51953L1500.5977 -298.78711L1288.0 -298.78711L1288.0 204.3613L1684.8516 204.3613L1684.8516 -440.51953L1500.5977 -440.51953L1500.5977 -440.51953M1314.5762 -233.23633L1315.03198252 -233.224762048L1315.48178113 -233.190518956L1315.92503944 -233.134157099L1316.36120109 -233.056232854L1316.7897097 -232.957302596L1317.21000889 -232.837922702L1317.62154229 -232.698649546L1318.02375353 -232.540039505L1318.41608622 -232.362648954L1318.79798401 -232.16703427L1319.1688905 -231.953751828L1319.52824933 -231.723358004L1319.87550413 -231.476409173L1320.21009851 -231.213461712L1320.53147611 -230.935071996L1320.83908054 -230.641796402L1321.13235544 -230.334191304L1321.41074443 -230.012813079L1321.67369114 -229.678218102L1321.92063919 -229.330962749L1322.1510322 -228.971603397L1322.3643138 -228.60069642L1322.55992762 -228.218798195L1322.73731729 -227.826465098L1322.89592642 -227.424253503L1323.03519865 -227.012719788L1323.15457759 -226.592420327L1323.25350688 -226.163911498L1323.33143014 -225.727749674L1323.387791 -225.284491233L1323.42203308 -224.834692549L1323.4336 -224.37891L1323.42276802 -223.939644639L1323.39036193 -223.503358041L1323.33668239 -223.07077635L1323.26203008 -222.642625711L1323.16670569 -222.219632268L1323.05100989 -221.802522166L1322.91524336 -221.392021547L1322.75970677 -220.988856558L1322.58470081 -220.593753342L1322.39052615 -220.207438043L1322.17748347 -219.830636805L1321.94587344 -219.464075774L1321.69599676 -219.108481092L1321.42815408 -218.764578905L1321.1426461 -218.433095357L1320.83977349 -218.114756592L1320.52150243 -217.811812832L1320.1900827 -217.526230765L1319.84624039 -217.25831123L1319.49070157 -217.008355068L1319.12419232 -216.776663118L1318.74743871 -216.563536221L1318.36116682 -216.369275218L1317.96610273 -216.194180947L1317.56297252 -216.03855425L1317.15250225 -215.902695967L1316.73541802 -215.786906937L1316.3124459 -215.691488001L1315.88431195 -215.616739999L1315.45174227 -215.562963772L1315.01546293 -215.530460159L1314.5762 -215.51953L1314.1368702 -215.530364164L1313.70052042 -215.562778719L1313.26787712 -215.616472821L1312.83966672 -215.691145621L1312.41661568 -215.786496272L1311.99945043 -215.902223928L1311.58889741 -216.038027742L1311.18568307 -216.193606867L1310.79053384 -216.368660456L1310.40417617 -216.562887662L1310.0273365 -216.775987638L1309.66074127 -217.007659537L1309.30511692 -217.257602512L1308.9611899 -217.525515717L1308.62968663 -217.811098304L1308.31133357 -218.114049427L1308.00838173 -218.432401803L1307.72279839 -218.763904424L1307.45488441 -219.107830847L1307.20494063 -219.463454633L1306.97326791 -219.830049341L1306.76016708 -220.20688853L1306.565939 -220.593245761L1306.39088452 -220.988394592L1306.23530449 -221.391608583L1306.09949975 -221.802161293L1305.98377115 -222.219326283L1305.88841954 -222.642377111L1305.81374577 -223.070587338L1305.7600507 -223.503230522L1305.72763516 -223.939580223L1305.7168 -224.37891L1305.72772923 -224.818174242L1305.76023205 -225.254454921L1305.81400761 -225.687025954L1305.88875507 -226.115161257L1305.9841736 -226.538134745L1306.09996234 -226.955220337L1306.23582046 -227.365691947L1306.39144712 -227.768823493L1306.56654147 -228.16388889L1306.76080267 -228.550162055L1306.97392988 -228.926916905L1307.20562225 -229.293427355L1307.45557896 -229.648967322L1307.72349914 -229.992810722L1308.00908197 -230.324231472L1308.31202659 -230.642503489L1308.63036631 -230.945376968L1308.96185089 -231.230885709L1309.30575416 -231.498729032L1309.66134999 -231.748606258L1310.02791222 -231.980216707L1310.4047147 -232.1932597L1310.79103127 -232.387434557L1311.1861358 -232.562440598L1311.58930212 -232.717977143L1311.99980408 -232.853743514L1312.41691555 -232.969439029L1312.83991035 -233.064763011L1313.26806235 -233.139414778L1313.70064539 -233.193093652L1314.13693333 -233.225498952L1314.5762 -233.23633L1314.5762 -233.23633M1658.2754 -233.23633L1658.71466667 -233.225498952L1659.15095461 -233.193093652L1659.58353765 -233.139414778L1660.01168965 -233.064763011L1660.43468445 -232.969439029L1660.85179592 -232.853743514L1661.26229788 -232.717977143L1661.6654642 -232.562440598L1662.06056873 -232.387434557L1662.4468853 -232.1932597L1662.82368778 -231.980216707L1663.19025001 -231.748606258L1663.54584584 -231.498729032L1663.88974911 -231.230885709L1664.22123369 -230.945376968L1664.53957341 -230.642503489L1664.84251803 -230.324231472L1665.12810086 -229.992810722L1665.39602104 -229.648967322L1665.64597775 -229.293427355L1665.87767012 -228.926916905L1666.09079733 -228.550162055L1666.28505853 -228.16388889L1666.46015288 -227.768823493L1666.61577954 -227.365691947L1666.75163766 -226.955220337L1666.8674264 -226.538134745L1666.96284493 -226.115161257L1667.03759239 -225.687025954L1667.09136795 -225.254454921L1667.12387077 -224.818174242L1667.1348 -224.37891L1667.12396484 -223.939580223L1667.0915493 -223.503230522L1667.03785423 -223.070587338L1666.96318046 -222.642377111L1666.86782885 -222.219326283L1666.75210025 -221.802161293L1666.61629551 -221.391608583L1666.46071548 -220.988394592L1666.285661 -220.593245761L1666.09143292 -220.20688853L1665.87833209 -219.830049341L1665.64665937 -219.463454633L1665.39671559 -219.107830847L1665.12880161 -218.763904424L1664.84321827 -218.432401803L1664.54026643 -218.114049427L1664.22191337 -217.811098304L1663.8904101 -217.525515717L1663.54648308 -217.257602512L1663.19085873 -217.007659537L1662.8242635 -216.775987638L1662.44742383 -216.562887662L1662.06106616 -216.368660456L1661.66591693 -216.193606867L1661.26270259 -216.038027742L1660.85214957 -215.902223928L1660.43498432 -215.786496272L1660.01193328 -215.691145621L1659.58372288 -215.616472821L1659.15107958 -215.562778719L1658.7147298 -215.530364164L1658.2754 -215.51953L1657.83613707 -215.530460159L1657.39985773 -215.562963772L1656.96728805 -215.616739999L1656.5391541 -215.691488001L1656.11618198 -215.786906937L1655.69909775 -215.902695967L1655.28862748 -216.03855425L1654.88549727 -216.194180947L1654.49043318 -216.369275218L1654.10416129 -216.563536221L1653.72740768 -216.776663118L1653.36089843 -217.008355068L1653.00535961 -217.25831123L1652.6615173 -217.526230765L1652.33009757 -217.811812832L1652.01182651 -218.114756592L1651.7089539 -218.433095357L1651.42344592 -218.764578905L1651.15560324 -219.108481092L1650.90572656 -219.464075774L1650.67411653 -219.830636805L1650.46107385 -220.207438043L1650.26689919 -220.593753342L1650.09189323 -220.988856558L1649.93635664 -221.392021547L1649.80059011 -221.802522166L1649.68489431 -222.219632268L1649.58956992 -222.642625711L1649.51491761 -223.07077635L1649.46123807 -223.503358041L1649.42883198 -223.939644639L1649.418 -224.37891L1649.42956692 -224.834692549L1649.463809 -225.284491233L1649.52016986 -225.727749674L1649.59809312 -226.163911498L1649.69702241 -226.592420327L1649.81640135 -227.012719788L1649.95567358 -227.424253503L1650.11428271 -227.826465098L1650.29167238 -228.218798195L1650.4872862 -228.60069642L1650.7005678 -228.971603397L1650.93096081 -229.330962749L1651.17790886 -229.678218102L1651.44085557 -230.012813079L1651.71924456 -230.334191304L1652.01251946 -230.641796402L1652.32012389 -230.935071996L1652.64150149 -231.213461712L1652.97609587 -231.476409173L1653.32335067 -231.723358004L1653.6827095 -231.953751828L1654.05361599 -232.16703427L1654.43551378 -232.362648954L1654.82784647 -232.540039505L1655.23005771 -232.698649546L1655.64159111 -232.837922702L1656.0618903 -232.957302596L1656.49039891 -233.056232854L1656.92656056 -233.134157099L1657.36981887 -233.190518956L1657.81961748 -233.224762048L1658.2754 -233.23633L1658.2754 -233.23633M1305.7168 -206.66211L1341.1504 -206.66211L1341.1504 -171.22852L1305.7168 -171.22852L1305.7168 -206.66211L1305.7168 -206.66211M1631.7012 -206.66211L1667.1348 -206.66211L1667.1348 -171.22852L1631.7012 -171.22852L1631.7012 -206.66211L1631.7012 -206.66211M1305.7168 -135.79492L1341.1504 -135.79492L1341.1504 -100.36133L1305.7168 -100.36133L1305.7168 -135.79492L1305.7168 -135.79492M1631.7012 -135.79492L1667.1348 -135.79492L1667.1348 -100.36133L1631.7012 -100.36133L1631.7012 -135.79492L1631.7012 -135.79492M1305.7168 -64.92969L1341.1504 -64.92969L1341.1504 -29.49609L1305.7168 -29.49609L1305.7168 -64.92969L1305.7168 -64.92969M1631.7012 -64.92969L1667.1348 -64.92969L1667.1348 -29.49609L1631.7012 -29.49609L1631.7012 -64.92969L1631.7012 -64.92969M1314.5762 -20.63867L1315.01546261 -20.6277398572L1315.45174164 -20.5952362913L1315.88431101 -20.5414601414L1316.31244465 -20.466712247L1316.73541649 -20.3712934472L1317.15250045 -20.2555045815L1317.56297045 -20.1196464891L1317.96610042 -19.9640200094L1318.36116428 -19.7889259816L1318.74743596 -19.594665245L1319.12418938 -19.3815386391L1319.49069847 -19.149847003L1319.84623714 -18.8998911761L1320.19007933 -18.6319719978L1320.52149896 -18.3463903072L1320.83976995 -18.0434469438L1321.14264253 -17.7251085885L1321.42815051 -17.393625458L1321.69599321 -17.0497236946L1321.94586997 -16.6941294409L1322.17748009 -16.3275688392L1322.3905229 -15.9507680321L1322.58469773 -15.5644531619L1322.7597039 -15.1693503712L1322.91524072 -14.7661858024L1323.05100753 -14.3556855979L1323.16670364 -13.9385759003L1323.26202837 -13.5155828519L1323.33668105 -13.0874325952L1323.390361 -12.6548512727L1323.42276754 -12.2185650268L1323.4336 -11.7793L1323.42203307 -11.3235174542L1323.38779099 -10.8737187748L1323.33143013 -10.4304603375L1323.25350687 -9.99429851799L1323.15457757 -9.56578969218L1323.03519862 -9.14549023581L1322.8959264 -8.73395652466L1322.73731726 -8.33174493451L1322.55992759 -7.93941184114L1322.36431377 -7.55751362033L1322.15103216 -7.18660664786L1321.92063915 -6.82724729951L1321.6736911 -6.47999195107L1321.4107444 -6.14539697831L1321.13235541 -5.82401875701L1320.83908051 -5.51641366295L1320.53147607 -5.22313807192L1320.21009848 -4.94474835969L1319.87550409 -4.68180090205L1319.5282493 -4.43485207477L1319.16889047 -4.20445825364L1318.79798398 -3.99117581443L1318.4160862 -3.79556113293L1318.0237535 -3.61817058492L1317.62154227 -3.45956054617L1317.21000887 -3.32028739248L1316.78970968 -3.20090749961L1316.36120108 -3.10197724335L1315.92503943 -3.02405299947L1315.48178112 -2.96769114377L1315.03198252 -2.93344805202L1314.5762 -2.9218801L1314.13693333 -2.93271114749L1313.7006454 -2.96511644755L1313.26806236 -3.01879532056L1312.83991036 -3.09344708689L1312.41691556 -3.18877106691L1311.9998041 -3.30446658097L1311.58930214 -3.44023294947L1311.18613582 -3.59576949276L1310.7910313 -3.77077553121L1310.40471472 -3.96495038519L1310.02791225 -4.17799337508L1309.66135002 -4.40960382124L1309.3057542 -4.65948104404L1308.96185092 -4.92732436385L1308.63036635 -5.21283310104L1308.31202663 -5.51570657598L1308.009082 -5.83397858808L1307.72349918 -6.16539933406L1307.45557899 -6.50924273028L1307.20562229 -6.86478269313L1306.97392991 -7.23129313895L1306.7608027 -7.60804798412L1306.5665415 -7.99432114499L1306.39144715 -8.38938653794L1306.23582049 -8.79251807933L1306.09996237 -9.20298968552L1305.98417362 -9.62007527288L1305.88875509 -10.0430487578L1305.81400762 -10.4711840566L1305.76023206 -10.9037550856L1305.72772924 -11.3400357613L1305.7168 -11.7793L1305.72763564 -12.2186294431L1305.76005162 -12.6549787919L1305.81374711 -13.0876216076L1305.88842125 -13.5158314517L1305.9837732 -13.9388818854L1306.09950211 -14.35604647L1306.23530712 -14.7665987668L1306.39088739 -15.1698123373L1306.56594208 -15.5649607426L1306.76017032 -15.9513175442L1306.97327128 -16.3281563033L1307.20494411 -16.6947505814L1307.45488796 -17.0503739396L1307.72280197 -17.3942999393L1308.0083853 -17.7258021418L1308.31133711 -18.0441541086L1308.6296901 -18.3471048351L1308.96119327 -18.6326870455L1309.30512017 -18.9005998936L1309.66074438 -19.1505425335L1310.02733944 -19.3822141191L1310.40417892 -19.5953138042L1310.79053638 -19.7895407429L1311.18568538 -19.9645940891L1311.58889948 -20.1201729967L1311.99945223 -20.2559766196L1312.41661721 -20.3717041118L1312.83966797 -20.4670546273L1313.26787806 -20.5417273199L1313.70052106 -20.5954213436L1314.13687052 -20.6278358523L1314.5762 -20.63867L1314.5762 -20.63867M1658.2754 -20.63867L1658.71472948 -20.6278358523L1659.15107894 -20.5954213436L1659.58372194 -20.5417273199L1660.01193203 -20.4670546273L1660.43498279 -20.3717041118L1660.85214777 -20.2559766196L1661.26270052 -20.1201729967L1661.66591462 -19.9645940891L1662.06106362 -19.7895407429L1662.44742108 -19.5953138042L1662.82426056 -19.3822141191L1663.19085562 -19.1505425335L1663.54647983 -18.9005998936L1663.89040673 -18.6326870455L1664.2219099 -18.3471048351L1664.54026289 -18.0441541086L1664.8432147 -17.7258021418L1665.12879803 -17.3942999393L1665.39671204 -17.0503739396L1665.64665589 -16.6947505814L1665.87832872 -16.3281563033L1666.09142968 -15.9513175442L1666.28565792 -15.5649607426L1666.46071261 -15.1698123373L1666.61629288 -14.7665987668L1666.75209789 -14.35604647L1666.8678268 -13.9388818854L1666.96317875 -13.5158314517L1667.03785289 -13.0876216076L1667.09154838 -12.6549787919L1667.12396436 -12.2186294431L1667.1348 -11.7793L1667.12387076 -11.3400357613L1667.09136794 -10.9037550856L1667.03759238 -10.4711840566L1666.96284491 -10.0430487578L1666.86742638 -9.62007527288L1666.75163763 -9.20298968552L1666.61577951 -8.79251807933L1666.46015285 -8.38938653794L1666.2850585 -7.99432114499L1666.0907973 -7.60804798412L1665.87767009 -7.23129313895L1665.64597771 -6.86478269313L1665.39602101 -6.50924273028L1665.12810082 -6.16539933406L1664.842518 -5.83397858808L1664.53957337 -5.51570657598L1664.22123365 -5.21283310104L1663.88974908 -4.92732436385L1663.5458458 -4.65948104404L1663.19024998 -4.40960382124L1662.82368775 -4.17799337508L1662.44688528 -3.96495038519L1662.0605687 -3.77077553121L1661.66546418 -3.59576949276L1661.26229786 -3.44023294947L1660.8517959 -3.30446658097L1660.43468444 -3.18877106691L1660.01168964 -3.09344708689L1659.58353764 -3.01879532056L1659.1509546 -2.96511644755L1658.71466667 -2.93271114749L1658.2754 -2.9218801L1657.81961748 -2.93344805202L1657.36981888 -2.96769114377L1656.92656057 -3.02405299947L1656.49039892 -3.10197724335L1656.06189032 -3.20090749961L1655.64159113 -3.32028739247L1655.23005773 -3.45956054617L1654.8278465 -3.61817058492L1654.4355138 -3.79556113293L1654.05361602 -3.99117581443L1653.68270953 -4.20445825364L1653.3233507 -4.43485207477L1652.97609591 -4.68180090205L1652.64150152 -4.94474835969L1652.32012393 -5.22313807192L1652.01251949 -5.51641366295L1651.71924459 -5.824018757L1651.4408556 -6.1453969783L1651.1779089 -6.47999195106L1650.93096085 -6.82724729951L1650.70056784 -7.18660664786L1650.48728623 -7.55751362032L1650.29167241 -7.93941184113L1650.11428274 -8.3317449345L1649.9556736 -8.73395652465L1649.81640138 -9.1454902358L1649.69702243 -9.56578969217L1649.59809313 -9.99429851798L1649.52016987 -10.4304603375L1649.46380901 -10.8737187748L1649.42956693 -11.3235174542L1649.418 -11.7793L1649.42883246 -12.2185650268L1649.461239 -12.6548512727L1649.51491895 -13.0874325952L1649.58957163 -13.5155828519L1649.68489636 -13.9385759003L1649.80059247 -14.3556855979L1649.93635928 -14.7661858024L1650.0918961 -15.1693503712L1650.26690227 -15.5644531619L1650.4610771 -15.9507680321L1650.67411991 -16.3275688392L1650.90573003 -16.6941294409L1651.15560679 -17.0497236946L1651.42344949 -17.393625458L1651.70895747 -17.7251085885L1652.01183005 -18.0434469438L1652.33010104 -18.3463903072L1652.66152067 -18.6319719978L1653.00536286 -18.8998911761L1653.36090153 -19.149847003L1653.72741062 -19.3815386391L1654.10416404 -19.594665245L1654.49043572 -19.7889259816L1654.88549958 -19.9640200094L1655.28862955 -20.1196464891L1655.69909955 -20.2555045815L1656.11618351 -20.3712934472L1656.53915535 -20.466712247L1656.96728899 -20.5414601414L1657.39985836 -20.5952362913L1657.83613739 -20.6277398572L1658.2754 -20.63867L1658.2754 -20.63867"
       id="rect3398"
       inkscape:connector-curvature="0" />
    <path
       style="fill:#ff9800;fill-opacity:1"
       d="m 866.31467,875.19622 -1.96872,0.0218 -1.95969,0.0647 -1.95017,0.1073 -1.94013,0.14945 -1.9296,0.1912 -1.91856,0.23252 -1.90702,0.27344 -1.89496,0.31394 -1.88241,0.35404 -1.86936,0.39371 -1.85578,0.43299 -1.84173,0.47184 -1.82715,0.51028 -1.81207,0.54832 -1.79649,0.58594 -1.78041,0.62315 -1.76381,0.65994 -1.74672,0.69633 -1.72912,0.73229 -1.71102,0.76786 -1.6924,0.80301 -1.6733,0.83775 -1.65367,0.87206 -1.63356,0.90598 -1.61292,0.93948 -1.5918,0.97257 -1.57016,1.00525 -1.54801,1.03751 -1.52538,1.06936 -1.50222,1.1008 -1.47857,1.13183 -1.45441,1.16245 -1.42974,1.19265 -1.40458,1.22244 -1.3789,1.25182 -1.35273,1.28079 -1.32605,1.30935 -1.29886,1.33749 -1.27116,1.36522 -1.24298,1.39254 -1.21427,1.41945 -1.18507,1.44595 -1.15535,1.47203 -1.12515,1.4977 -1.09442,1.52296 -1.06321,1.54782 -1.03147,1.57224 -0.99925,1.59627 -0.9665,1.61989 -0.93327,1.64308 -0.89952,1.66587 -0.86527,1.68824 -0.83051,1.71021 -0.79526,1.73177 -0.75949,1.7529 -0.72322,1.77363 -0.68645,1.79394 -0.64917,1.81385 -0.61139,1.83335 -0.5731,1.85242 -0.53431,1.87109 -0.49502,1.88934 -0.45521,1.90719 -0.41491,1.92462 104.50391,0 0,35.4316 -104.41407,0 0.41456,1.92309 0.4548,1.90569 0.49455,1.88788 0.53378,1.86967 0.57252,1.85103 0.61075,1.83199 0.64848,1.81254 0.6857,1.79267 0.72242,1.7724 0.75864,1.75171 0.79436,1.73061 0.82957,1.7091 0.86428,1.6872 0.89848,1.6648 0.93218,1.6421 0.96539,1.619 0.99808,1.5954 1.03027,1.5714 1.06196,1.547 1.09314,1.5222 1.12383,1.497 1.15401,1.4713 1.18369,1.4454 1.21285,1.4189 1.24153,1.392 1.26969,1.3648 1.29736,1.337 1.32452,1.309 1.35117,1.2805 1.37733,1.2516 1.40298,1.2222 1.42812,1.1926 1.45277,1.1623 1.47691,1.1318 1.50055,1.1008 1.52368,1.0695 1.54631,1.0376 1.56844,1.0055 1.59006,0.9728 1.61119,0.9398 1.6318,0.9064 1.65192,0.8725 1.67153,0.8382 1.69063,0.8036 1.70925,0.7685 1.72734,0.733 1.74494,0.6971 1.76204,0.6608 1.77863,0.624 1.79472,0.5869 1.8103,0.5493 1.82539,0.5114 1.83996,0.473 1.85405,0.4342 1.86761,0.3951 1.88068,0.3554 1.89325,0.3154 1.90531,0.2749 1.91688,0.2341 1.92793,0.1929 1.93848,0.1512 1.94853,0.1091 1.95808,0.067 1.96712,0.024 2.19956,-0.027 2.19302,-0.082 2.18557,-0.1356 2.1772,-0.189 2.16793,-0.2423 2.15776,-0.2951 2.14667,-0.3475 2.13468,-0.3996 2.12179,-0.4512 2.10797,-0.5026 2.09326,-0.5534 2.07764,-0.604 2.06111,-0.6542 2.04367,-0.704 2.02532,-0.7534 2.00608,-0.8025 1.98591,-0.8511 1.96485,-0.8994 1.94287,-0.9474 1.91999,-0.9948 1.89619,-1.0421 1.8715,-1.0888 1.84589,-1.1353 1.81938,-1.1812 1.79196,-1.227 1.76363,-1.2722 1.7344,-1.3172 1.70425,-1.3616 1.6732,-1.4059 1.64124,-1.4496 1.60837,-1.493 1.5746,-1.5361 1.53602,-1.5746 1.49299,-1.6084 1.44958,-1.6413 1.4058,-1.6732 1.36164,-1.7043 1.3171,-1.7344 1.2722,-1.7637 1.2269,-1.792 1.18125,-1.8194 1.1352,-1.8459 1.08879,-1.8715 1.042,-1.8962 0.99484,-1.92 0.94729,-1.9429 0.89938,-1.96491 0.85108,-1.98593 0.8024,-2.00609 0.75337,-2.02535 0.70394,-2.04368 0.65414,-2.06112 0.60397,-2.07766 0.55342,-2.09327 0.5025,-2.10799 0.45119,-2.12179 0.39952,-2.13469 0.34746,-2.14668 0.29503,-2.15776 0.24223,-2.16794 0.18905,-2.17721 0.13549,-2.18557 0.0815,-2.19302 0.0272,-2.19956 -0.029,-2.28633 -0.0864,-2.27207 -0.14305,-2.25711 -0.19905,-2.24146 -0.25437,-2.2251 -0.30899,-2.20805 -0.3629,-2.19031 -0.41613,-2.17188 -0.46865,-2.15273 -0.52049,-2.13291 -0.57163,-2.11238 -0.62207,-2.09116 -0.67181,-2.06925 -0.72086,-2.04662 -0.76922,-2.02332 -0.81688,-1.99932 -0.86384,-1.97462 -0.9101,-1.94922 -0.95568,-1.92312 -1.00055,-1.89635 -1.04474,-1.86885 -1.08821,-1.84068 -1.13101,-1.81181 -1.1731,-1.78223 -1.21449,-1.75197 -1.2552,-1.72101 -1.2952,-1.68935 -1.33452,-1.65699 -1.37313,-1.62395 -1.41104,-1.5902 -1.44827,-1.55577 -1.4848,-1.52062 -1.52063,-1.4848 -1.55576,-1.44827 -1.5902,-1.41104 -1.62395,-1.37313 -1.657,-1.33451 -1.68935,-1.29521 -1.72101,-1.25519 -1.75197,-1.2145 -1.78223,-1.1731 -1.8118,-1.131 -1.84068,-1.08822 -1.86886,-1.04473 -1.89634,-1.00056 -1.92313,-0.95567 -1.94922,-0.91011 -1.97462,-0.86384 -1.99931,-0.81687 -2.02332,-0.76922 -2.04663,-0.72086 -2.06925,-0.67181 -2.09116,-0.62207 -2.11238,-0.57163 -2.13291,-0.52048 -2.15273,-0.46866 -2.17188,-0.41613 -2.19031,-0.3629 -2.20805,-0.30898 -2.2251,-0.25437 -2.24146,-0.19906 -2.25711,-0.14305 -2.27207,-0.0863 -2.28633,-0.0289 0,0 m 0,44.291 0.43926,0.0109 0.43628,0.0325 0.43258,0.0538 0.42813,0.0747 0.42297,0.0954 0.41709,0.11579 0.41047,0.13586 0.40313,0.15563 0.39507,0.17509 0.38627,0.19426 0.37676,0.21313 0.36651,0.23169 0.35554,0.24996 0.34384,0.26792 0.33142,0.28558 0.31827,0.30295 0.30288,0.31834 0.2855,0.33148 0.26785,0.3439 0.24988,0.3556 0.23161,0.36656 0.21304,0.3768 0.19417,0.38632 0.17501,0.39511 0.15554,0.40316 0.13576,0.4105 0.1157,0.41712 0.0953,0.42299 0.0746,0.42815 0.0537,0.43259 0.0324,0.43628 0.0108,0.43927 -0.0116,0.45578 -0.0342,0.4498 -0.0564,0.44326 -0.0779,0.43616 -0.0989,0.42851 -0.11938,0.4203 -0.13927,0.41153 -0.15861,0.40221 -0.17739,0.39234 -0.19562,0.38189 -0.21328,0.37091 -0.23039,0.35936 -0.24695,0.34725 -0.26295,0.3346 -0.27839,0.32138 -0.29327,0.3076 -0.30761,0.29328 -0.32138,0.27838 -0.33459,0.26295 -0.34726,0.24695 -0.35936,0.23039 -0.3709,0.21328 -0.3819,0.19562 -0.39234,0.17739 -0.40221,0.15861 -0.41153,0.13927 -0.4203,0.11938 -0.42851,0.0989 -0.43616,0.0779 -0.44326,0.0564 -0.4498,0.0342 -0.45578,0.0116 -0.45578,-0.0116 -0.4498,-0.0342 -0.44326,-0.0564 -0.43616,-0.0779 -0.42851,-0.0989 -0.4203,-0.11938 -0.41153,-0.13927 -0.40222,-0.15861 -0.39233,-0.17739 -0.3819,-0.19562 -0.3709,-0.21328 -0.35936,-0.23039 -0.34726,-0.24695 -0.33459,-0.26295 -0.32138,-0.27838 -0.30761,-0.29328 -0.29327,-0.3076 -0.27839,-0.32138 -0.26295,-0.3346 -0.24695,-0.34725 -0.23039,-0.35936 -0.21329,-0.37091 -0.19561,-0.38189 -0.17739,-0.39234 -0.15861,-0.40221 -0.13927,-0.41153 -0.11938,-0.4203 -0.0989,-0.42851 -0.0779,-0.43616 -0.0564,-0.44326 -0.0342,-0.4498 -0.0116,-0.45578 0.0108,-0.43927 0.0324,-0.43628 0.0537,-0.43259 0.0747,-0.42815 0.0953,-0.42299 0.1157,-0.41712 0.13576,-0.4105 0.15554,-0.40316 0.175,-0.39511 0.19418,-0.38632 0.21304,-0.3768 0.23161,-0.36656 0.24988,-0.3556 0.26784,-0.3439 0.28551,-0.33148 0.30288,-0.31834 0.31827,-0.30295 0.33142,-0.28558 0.34384,-0.26792 0.35554,-0.24996 0.36651,-0.23169 0.37676,-0.21313 0.38627,-0.19426 0.39507,-0.17509 0.40313,-0.15563 0.41047,-0.13586 0.41708,-0.11579 0.42298,-0.0954 0.42813,-0.0747 0.43257,-0.0538 0.43628,-0.0325 0.43927,-0.0109 0,0 m 0,70.8672 0.45578,0.0116 0.4498,0.0342 0.44326,0.0564 0.43616,0.0779 0.42851,0.0989 0.4203,0.11938 0.41153,0.13927 0.40221,0.15861 0.39234,0.17739 0.3819,0.19562 0.3709,0.21328 0.35936,0.23039 0.34726,0.24695 0.33459,0.26295 0.32138,0.27838 0.30761,0.29328 0.29327,0.3076 0.27839,0.32138 0.26295,0.3346 0.24695,0.34725 0.23039,0.35936 0.21328,0.37091 0.19562,0.38189 0.17739,0.39234 0.15861,0.40221 0.13927,0.41153 0.11938,0.4203 0.0989,0.42851 0.0779,0.43616 0.0564,0.44326 0.0342,0.4498 0.0116,0.45578 -0.0108,0.43927 -0.0324,0.43628 -0.0537,0.4326 -0.0746,0.4281 -0.0953,0.423 -0.1157,0.4172 -0.13576,0.4105 -0.15554,0.4031 -0.17501,0.3951 -0.19417,0.3863 -0.21304,0.3768 -0.23161,0.3666 -0.24988,0.3556 -0.26785,0.3439 -0.2855,0.3315 -0.30288,0.3183 -0.31827,0.303 -0.33142,0.2856 -0.34384,0.2679 -0.35554,0.2499 -0.36651,0.2317 -0.37676,0.2132 -0.38627,0.1942 -0.39507,0.1751 -0.40313,0.1556 -0.41047,0.1359 -0.41709,0.1158 -0.42297,0.095 -0.42813,0.075 -0.43258,0.054 -0.43628,0.033 -0.43926,0.011 -0.43927,-0.011 -0.43628,-0.033 -0.43257,-0.054 -0.42813,-0.075 -0.42298,-0.095 -0.41708,-0.1158 -0.41047,-0.1359 -0.40313,-0.1556 -0.39507,-0.1751 -0.38627,-0.1942 -0.37676,-0.2132 -0.36651,-0.2317 -0.35554,-0.2499 -0.34384,-0.2679 -0.33142,-0.2856 -0.31827,-0.303 -0.30288,-0.3183 -0.28551,-0.3315 -0.26784,-0.3439 -0.24988,-0.3556 -0.23161,-0.3666 -0.21304,-0.3768 -0.19418,-0.3863 -0.175,-0.3951 -0.15554,-0.4031 -0.13576,-0.4105 -0.1157,-0.4172 -0.0953,-0.423 -0.0747,-0.4281 -0.0537,-0.4326 -0.0324,-0.43628 -0.0108,-0.43927 0.0116,-0.45578 0.0342,-0.4498 0.0564,-0.44326 0.0779,-0.43616 0.0989,-0.42851 0.11938,-0.4203 0.13927,-0.41153 0.15861,-0.40221 0.17739,-0.39234 0.19561,-0.38189 0.21329,-0.37091 0.23039,-0.35936 0.24695,-0.34725 0.26295,-0.3346 0.27839,-0.32138 0.29327,-0.3076 0.30761,-0.29328 0.32138,-0.27838 0.33459,-0.26295 0.34726,-0.24695 0.35936,-0.23039 0.3709,-0.21328 0.3819,-0.19562 0.39233,-0.17739 0.40222,-0.15861 0.41153,-0.13927 0.4203,-0.11938 0.42851,-0.0989 0.43616,-0.0779 0.44326,-0.0564 0.4498,-0.0342 0.45578,-0.0116 0,0"
       id="path4473"
       inkscape:connector-curvature="0" />
    <g
       id="g5487"
       transform="translate(-140.40157,43.001173)">
      <path
         id="rect4524"
         d="m 441.58203,832.19727 -2.28634,0.029 -2.27207,0.0863 -2.25711,0.14305 -2.24145,0.19906 -2.2251,0.25437 -2.20806,0.30898 -2.19031,0.3629 -2.17187,0.41613 -2.15274,0.46866 -2.13291,0.52049 -2.11238,0.57162 -2.09116,0.62207 -2.06924,0.67181 -2.04663,0.72086 -2.02332,0.76922 -1.99932,0.81688 -1.97462,0.86384 -1.94922,0.9101 -1.92313,0.95568 -1.89634,1.00055 -1.86886,1.04473 -1.84068,1.08822 -1.8118,1.13101 -1.78224,1.1731 -1.75196,1.21449 -1.72101,1.2552 -1.68935,1.2952 -1.657,1.33452 -1.62395,1.37312 -1.5902,1.41105 -1.55577,1.44827 -1.52062,1.4848 -1.4848,1.52062 -1.44827,1.55577 -1.41105,1.5902 -1.37312,1.62395 -1.33452,1.657 -1.2952,1.68935 -1.2552,1.72101 -1.21449,1.75196 -1.1731,1.78224 -1.13101,1.8118 -1.08822,1.84068 -1.04473,1.86886 -1.00055,1.89634 -0.95568,1.92313 -0.9101,1.94922 -0.86384,1.97462 -0.81688,1.99932 -0.76922,2.02332 -0.72086,2.04663 -0.67181,2.06924 -0.62207,2.09116 -0.57162,2.11238 -0.52049,2.13291 -0.46866,2.15274 -0.41613,2.17187 -0.3629,2.19031 -0.30898,2.20806 -0.25437,2.2251 -0.19906,2.24145 -0.14305,2.25711 -0.0863,2.27207 -0.029,2.28634 0.029,2.28633 0.0863,2.27207 0.14305,2.25711 0.19905,2.24146 0.25437,2.2251 0.30898,2.20805 0.36291,2.19031 0.41613,2.17188 0.46865,2.15273 0.52049,2.13291 0.57163,2.11238 0.62207,2.09116 0.67181,2.06925 0.72086,2.04662 0.76922,2.02332 0.81688,1.99932 0.86383,1.97462 0.91011,1.94922 0.95568,1.92312 1.00055,1.89635 1.04473,1.86885 1.08822,1.84068 1.13101,1.81181 1.1731,1.78223 1.21449,1.75197 1.2552,1.72101 1.2952,1.68935 1.33452,1.65699 1.37312,1.62395 1.41105,1.5902 1.44827,1.55577 1.4848,1.52062 1.52062,1.4848 1.55577,1.44827 1.5902,1.41104 1.62395,1.37313 1.657,1.33451 1.68935,1.29521 1.72101,1.25519 1.75196,1.2145 1.78224,1.1731 1.8118,1.131 1.84068,1.08822 1.86886,1.04473 1.89634,1.00056 1.92313,0.95569 1.94922,0.9101 1.97462,0.8638 1.99931,0.8169 2.02332,0.7692 2.04663,0.7209 2.06925,0.6718 2.09116,0.622 2.11238,0.5717 2.1329,0.5205 2.15274,0.4686 2.17188,0.4161 2.19031,0.3629 2.20805,0.309 2.2251,0.2544 2.24146,0.1991 2.25711,0.143 2.27207,0.086 2.28633,0.029 124.01563,0 0,-35.43159 -35.43164,0 0,-35.43361 35.43164,0 0,-35.43359 -35.43164,0 0,-35.43164 35.43164,0 0,-35.43359 -124.01563,0 0,0 m 0,44.29101 0.43927,0.0108 0.43628,0.0324 0.43259,0.0537 0.42815,0.0747 0.42299,0.0953 0.41711,0.11569 0.4105,0.13577 0.40317,0.15554 0.3951,0.175 0.38632,0.19418 0.3768,0.21304 0.36656,0.23161 0.3556,0.24988 0.3439,0.26784 0.33148,0.28551 0.31834,0.30287 0.30294,0.31828 0.28559,0.33142 0.26792,0.34384 0.24995,0.35554 0.23169,0.36651 0.21313,0.37675 0.19426,0.38628 0.17509,0.39506 0.15563,0.40313 0.13586,0.41047 0.11579,0.41709 0.0954,0.42297 0.0747,0.42814 0.0538,0.43257 0.0325,0.43628 0.0109,0.43926 -0.0108,0.43933 -0.0324,0.43635 -0.0537,0.43264 -0.0747,0.42821 -0.0953,0.42305 -0.11573,0.41717 -0.1358,0.41055 -0.15558,0.40321 -0.17506,0.39515 -0.19422,0.38636 -0.2131,0.37683 -0.23168,0.3666 -0.24994,0.35562 -0.26791,0.34393 -0.28559,0.3315 -0.30295,0.31835 -0.31835,0.30295 -0.3315,0.28559 -0.34393,0.26791 -0.35562,0.24994 -0.3666,0.23168 -0.37683,0.2131 -0.38636,0.19422 -0.39515,0.17506 -0.40321,0.15558 -0.41055,0.1358 -0.41717,0.11573 -0.42305,0.0953 -0.42821,0.0747 -0.43264,0.0537 -0.43635,0.0324 -0.43933,0.0108 -0.43926,-0.0109 -0.43628,-0.0325 -0.43257,-0.0538 -0.42814,-0.0747 -0.42297,-0.0954 -0.41709,-0.11579 -0.41047,-0.13586 -0.40313,-0.15563 -0.39506,-0.17509 -0.38628,-0.19426 -0.37675,-0.21313 -0.36651,-0.23169 -0.35554,-0.24995 -0.34384,-0.26792 -0.33142,-0.28559 -0.31828,-0.30294 -0.30287,-0.31834 -0.28551,-0.33148 -0.26784,-0.3439 -0.24988,-0.3556 -0.23161,-0.36656 -0.21304,-0.3768 -0.19418,-0.38632 -0.175,-0.3951 -0.15554,-0.40317 -0.13577,-0.4105 -0.11569,-0.41711 -0.0953,-0.42299 -0.0747,-0.42815 -0.0537,-0.43259 -0.0324,-0.43628 -0.0108,-0.43927 0.0116,-0.45578 0.0342,-0.4498 0.0564,-0.44326 0.0779,-0.43616 0.0989,-0.42851 0.11938,-0.4203 0.13928,-0.41154 0.1586,-0.40221 0.17739,-0.39233 0.19562,-0.3819 0.21328,-0.37091 0.2304,-0.35936 0.24694,-0.34725 0.26295,-0.3346 0.27839,-0.32138 0.29328,-0.3076 0.3076,-0.29328 0.32138,-0.27839 0.3346,-0.26295 0.34725,-0.24694 0.35936,-0.2304 0.37091,-0.21328 0.3819,-0.19562 0.39233,-0.17739 0.40221,-0.1586 0.41154,-0.13928 0.4203,-0.11938 0.42851,-0.0989 0.43616,-0.0779 0.44326,-0.0564 0.4498,-0.0342 0.45578,-0.0116 0,0 m -17.7168,26.57422 35.4336,0 0,35.43359 -35.4336,0 0,-35.43359 0,0 m 17.7168,44.29102 0.43933,0.0108 0.43635,0.0324 0.43264,0.0537 0.42821,0.0747 0.42305,0.0954 0.41716,0.11573 0.41056,0.1358 0.40321,0.15558 0.39515,0.17506 0.38635,0.19422 0.37684,0.2131 0.3666,0.23167 0.35562,0.24995 0.34393,0.26791 0.3315,0.28558 0.31835,0.30295 0.30295,0.31835 0.28558,0.33151 0.26792,0.34392 0.24994,0.35563 0.23167,0.36659 0.2131,0.37684 0.19423,0.38635 0.17505,0.39515 0.15558,0.40322 0.13581,0.41055 0.11573,0.41716 0.0953,0.42305 0.0747,0.42821 0.0537,0.43264 0.0324,0.43635 0.0108,0.43933 -0.0109,0.43926 -0.0325,0.43628 -0.0538,0.43257 -0.0747,0.42814 -0.0954,0.42297 -0.11579,0.41708 -0.13586,0.41048 -0.15563,0.40313 -0.17509,0.39506 -0.19426,0.38627 -0.21313,0.37676 -0.23169,0.36651 -0.24996,0.35554 -0.26792,0.34384 -0.28558,0.33142 -0.30294,0.31827 -0.31834,0.30287 -0.33149,0.28551 -0.3439,0.26784 -0.35559,0.24988 -0.36656,0.23161 -0.37681,0.21304 -0.38631,0.19418 -0.3951,0.17501 -0.40317,0.15553 -0.4105,0.13577 -0.41711,0.1157 -0.42299,0.0953 -0.42816,0.0747 -0.43258,0.0537 -0.43628,0.0324 -0.43927,0.0108 -0.45578,-0.0116 -0.4498,-0.0342 -0.44326,-0.0564 -0.43616,-0.0779 -0.42851,-0.0989 -0.4203,-0.11938 -0.41154,-0.13927 -0.40221,-0.15861 -0.39233,-0.17739 -0.3819,-0.19562 -0.37091,-0.21328 -0.35936,-0.23039 -0.34725,-0.24695 -0.3346,-0.26295 -0.32137,-0.27839 -0.30761,-0.29327 -0.29328,-0.30761 -0.27839,-0.32138 -0.26294,-0.33459 -0.24695,-0.34726 -0.2304,-0.35936 -0.21328,-0.3709 -0.19561,-0.3819 -0.17739,-0.39233 -0.15861,-0.40221 -0.13928,-0.41154 -0.11937,-0.4203 -0.0989,-0.42851 -0.0779,-0.43616 -0.0564,-0.44326 -0.0342,-0.4498 -0.0116,-0.45578 0.0108,-0.43927 0.0324,-0.43628 0.0537,-0.43258 0.0747,-0.42816 0.0953,-0.42299 0.11569,-0.41711 0.13577,-0.4105 0.15554,-0.40316 0.175,-0.39511 0.19418,-0.38631 0.21304,-0.3768 0.23161,-0.36657 0.24988,-0.35559 0.26785,-0.3439 0.2855,-0.33149 0.30288,-0.31833 0.31827,-0.30295 0.33142,-0.28558 0.34384,-0.26792 0.35554,-0.24995 0.36651,-0.2317 0.37676,-0.21312 0.38627,-0.19426 0.39506,-0.1751 0.40313,-0.15562 0.41048,-0.13586 0.41708,-0.11579 0.42297,-0.0954 0.42814,-0.0747 0.43257,-0.0538 0.43628,-0.0325 0.43926,-0.0109 0,0"
         style="fill:#ff0000;fill-opacity:1"
         inkscape:connector-curvature="0" />
      <path
         id="path4544"
         d="m 494.73228,920.77954 -0.0164,1.31973 -0.0489,1.31581 -0.0813,1.31133 -0.11345,1.30632 -0.14535,1.30075 -0.17704,1.29465 -0.20849,1.288 -0.23973,1.28081 -0.27073,1.27306 -0.30152,1.26478 -0.33206,1.25596 -0.3624,1.24658 -0.3925,1.23666 -0.42238,1.2262 -0.45203,1.21519 -0.48146,1.20365 -0.51066,1.19154 -0.53964,1.17891 -0.56839,1.16572 -0.59691,1.152 -0.62521,1.13771 -0.65329,1.1229 -0.68113,1.10754 -0.70876,1.09163 -0.73615,1.07518 -0.76333,1.05818 -0.79027,1.04064 -0.81699,1.02255 -0.84349,1.00393 -0.86975,0.98475 -0.8958,0.96503 -0.92162,0.94476 -0.94476,0.92162 -0.96503,0.8958 -0.98475,0.86975 -1.00393,0.84349 -1.02255,0.81699 -1.04064,0.79027 -1.05818,0.76333 -1.07518,0.73615 -1.09163,0.70876 -1.10754,0.68113 -1.1229,0.65329 -1.13771,0.62521 -1.152,0.59691 -1.16572,0.56839 -1.17891,0.53964 -1.19154,0.51066 -1.20365,0.48146 -1.21519,0.45203 -1.2262,0.42238 -1.23666,0.3925 -1.24658,0.3624 -1.25596,0.33206 -1.26478,0.30152 -1.27306,0.27073 -1.28081,0.23973 -1.288,0.20849 -1.29465,0.17704 -1.30075,0.14535 -1.30632,0.11345 -1.31133,0.0813 -1.31581,0.0489 -1.31973,0.0164 -1.31973,-0.0164 -1.31581,-0.0489 -1.31133,-0.0813 -1.30632,-0.11345 -1.30075,-0.14535 -1.29465,-0.17704 -1.288,-0.2085 -1.2808,-0.23972 -1.27307,-0.27073 -1.26478,-0.30152 -1.25595,-0.33207 -1.24658,-0.36239 -1.23667,-0.3925 -1.2262,-0.42238 -1.21519,-0.45204 -1.20364,-0.48145 -1.19155,-0.51067 -1.17891,-0.53963 -1.16572,-0.56839 -1.15199,-0.59691 -1.13772,-0.62521 -1.1229,-0.65329 -1.10754,-0.68113 -1.09163,-0.70876 -1.07517,-0.73615 -1.05819,-0.76333 -1.04063,-0.79027 -1.02256,-0.81699 -1.00392,-0.84349 -0.98475,-0.86975 -0.96503,-0.8958 -0.94476,-0.92162 -0.92162,-0.94477 -0.8958,-0.96503 -0.86976,-0.98475 -0.84348,-1.00392 -0.817,-1.02255 -0.79027,-1.04064 -0.76332,-1.05818 -0.73615,-1.07518 -0.70876,-1.09163 -0.68113,-1.10754 -0.65329,-1.1229 -0.62521,-1.13772 -0.59691,-1.15199 -0.56839,-1.16572 -0.53964,-1.17891 -0.51066,-1.19155 -0.48146,-1.20364 -0.45203,-1.21519 -0.42238,-1.2262 -0.3925,-1.23667 -0.3624,-1.24658 -0.33207,-1.25595 -0.30151,-1.26478 -0.27073,-1.27307 -0.23973,-1.2808 -0.20849,-1.288 -0.17704,-1.29465 -0.14535,-1.30075 -0.11345,-1.30632 -0.0813,-1.31133 -0.0489,-1.31581 -0.0164,-1.31973 0.0174,-1.37182 0.0518,-1.36325 0.0858,-1.35428 0.11943,-1.34489 0.15261,-1.33507 0.18538,-1.32485 0.21774,-1.3142 0.24967,-1.30314 0.28119,-1.29165 0.31229,-1.27976 0.34297,-1.26745 0.37324,-1.2547 0.40309,-1.24156 0.43251,-1.22799 0.46153,-1.21401 0.49013,-1.1996 0.5183,-1.18478 0.54607,-1.16955 0.57341,-1.15389 0.60033,-1.13781 0.62684,-1.12133 0.65294,-1.10442 0.6786,-1.08709 0.70387,-1.06936 0.7287,-1.05119 0.75312,-1.03261 0.77713,-1.01362 0.80072,-0.99421 0.82388,-0.97438 0.84663,-0.95413 0.86897,-0.93347 0.89089,-0.91238 0.91238,-0.89089 0.93347,-0.86897 0.95413,-0.84663 0.97438,-0.82388 0.99421,-0.80072 1.01362,-0.77713 1.03261,-0.75312 1.05119,-0.7287 1.06936,-0.70387 1.08709,-0.6786 1.10442,-0.65294 1.12133,-0.62684 1.13781,-0.60033 1.15389,-0.57341 1.16955,-0.54607 1.18478,-0.5183 1.1996,-0.49013 1.21401,-0.46153 1.22799,-0.43251 1.24156,-0.40309 1.2547,-0.37324 1.26745,-0.34297 1.27976,-0.31229 1.29165,-0.28119 1.30314,-0.24967 1.3142,-0.21774 1.32485,-0.18538 1.33507,-0.15261 1.34489,-0.11943 1.35428,-0.0858 1.36325,-0.0518 1.37182,-0.0174 1.37182,0.0174 1.36325,0.0518 1.35428,0.0858 1.34489,0.11942 1.33507,0.15262 1.32485,0.18538 1.3142,0.21774 1.30314,0.24967 1.29166,0.28119 1.27975,0.31229 1.26745,0.34297 1.25471,0.37324 1.24156,0.40309 1.22799,0.43251 1.214,0.46153 1.19961,0.49013 1.18478,0.5183 1.16954,0.54607 1.15389,0.5734 1.13782,0.60034 1.12133,0.62684 1.10441,0.65293 1.0871,0.67861 1.06935,0.70386 1.05119,0.72871 1.03262,0.75312 1.01362,0.77713 0.99421,0.80071 0.97437,0.82389 0.95414,0.84663 0.93346,0.86897 0.91239,0.89089 0.89088,0.91238 0.86897,0.93347 0.84664,0.95413 0.82388,0.97438 0.80072,0.9942 0.77712,1.01362 0.75313,1.03262 0.7287,1.05119 0.70386,1.06935 0.67861,1.0871 0.65293,1.10442 0.62685,1.12132 0.60033,1.13782 0.57341,1.15389 0.54606,1.16954 0.51831,1.18479 0.49012,1.1996 0.46153,1.214 0.43252,1.22799 0.40309,1.24156 0.37324,1.25471 0.34297,1.26745 0.31229,1.27975 0.28119,1.29166 0.24967,1.30314 0.21774,1.3142 0.18538,1.32485 0.15261,1.33507 0.11943,1.34489 0.0858,1.35428 0.0518,1.36325 0.0174,1.37182 0,0"
         style="opacity:0.56499999;fill:#ffea00;fill-opacity:0.99358975"
         inkscape:connector-curvature="0" />
    </g>
    <path
       style="opacity:1;fill:#895a00;fill-opacity:0.99358975"
       d="m 2328.9251,-435.21136 -223.6582,609.80273 -337.5,920.19723 180,0 247.5,-674.99996 247.5,-675 247.5,675 247.5,674.99996 180,0 -337.5,-920.19723 -223.6582,-609.80273 -227.6836,0 0,0"
       id="rect4581"
       inkscape:connector-curvature="0" />
    <path
       inkscape:connector-curvature="0"
       id="path4587"
       d="m 2329.2985,-966.95572 -223.658,609.80275 -337.5,920.19728 180,0 247.5,-675.00001 247.5,-675 247.5,675 247.5,675.00001 180,0 -337.5,-920.19728 -223.658,-609.80275 -227.684,0 0,0"
       style="opacity:1;fill:#895a00;fill-opacity:0.99358975" />
    <g
       id="g5483"
       transform="matrix(1,0,0,-1,-352.99999,1676.5595)">
      <path
         inkscape:connector-curvature="0"
         style="fill:#ff0000;fill-opacity:1"
         d="m 441.58203,624.19727 -2.28634,0.029 -2.27207,0.0863 -2.25711,0.14305 -2.24145,0.19906 -2.2251,0.25437 -2.20806,0.30898 -2.19031,0.3629 -2.17187,0.41613 -2.15274,0.46866 -2.13291,0.52049 -2.11238,0.57162 -2.09116,0.62207 -2.06924,0.67181 -2.04663,0.72086 -2.02332,0.76922 -1.99932,0.81688 -1.97462,0.86384 -1.94922,0.9101 -1.92313,0.95568 -1.89634,1.00055 -1.86886,1.04473 -1.84068,1.08822 -1.8118,1.13101 -1.78224,1.1731 -1.75196,1.21449 -1.72101,1.2552 -1.68935,1.2952 -1.657,1.33452 -1.62395,1.37312 -1.5902,1.41105 -1.55577,1.44827 -1.52062,1.4848 -1.4848,1.52062 -1.44827,1.55577 -1.41105,1.5902 -1.37312,1.62395 -1.33452,1.657 -1.2952,1.68935 -1.2552,1.72101 -1.21449,1.75196 -1.1731,1.78224 -1.13101,1.8118 -1.08822,1.84068 -1.04473,1.86886 -1.00055,1.89634 -0.95568,1.92313 -0.9101,1.94922 -0.86384,1.97462 -0.81688,1.99932 -0.76922,2.02332 -0.72086,2.04663 -0.67181,2.06924 -0.62207,2.09116 -0.57162,2.11238 -0.52049,2.13291 -0.46866,2.15274 -0.41613,2.17187 -0.3629,2.19031 -0.30898,2.20806 -0.25437,2.2251 -0.19906,2.24145 -0.14305,2.25711 -0.0863,2.27207 -0.029,2.28634 0.029,2.28633 0.0863,2.27207 0.14305,2.25711 0.19905,2.24146 0.25437,2.2251 0.30898,2.20805 0.36291,2.19031 0.41613,2.17188 0.46865,2.15273 0.52049,2.13291 0.57163,2.11238 0.62207,2.09116 0.67181,2.06925 0.72086,2.04662 0.76922,2.02332 0.81688,1.99932 0.86383,1.97462 0.91011,1.94922 0.95568,1.92312 1.00055,1.89635 1.04473,1.86885 1.08822,1.84068 1.13101,1.81181 1.1731,1.78223 1.21449,1.75197 1.2552,1.72101 1.2952,1.68935 1.33452,1.65699 1.37312,1.62395 1.41105,1.5902 1.44827,1.55577 1.4848,1.52062 1.52062,1.4848 1.55577,1.44827 1.5902,1.41104 1.62395,1.37313 1.657,1.33451 1.68935,1.29521 1.72101,1.25519 1.75196,1.2145 1.78224,1.1731 1.8118,1.131 1.84068,1.08822 1.86886,1.04473 1.89634,1.00056 1.92313,0.95567 1.94922,0.91011 1.97462,0.86384 1.99931,0.81687 2.02332,0.76922 2.04663,0.72086 2.06925,0.67181 2.09116,0.62207 2.11238,0.57163 2.1329,0.52048 2.15274,0.46866 2.17188,0.41613 2.19031,0.3629 2.20805,0.30898 2.2251,0.25437 2.24146,0.19906 2.25711,0.14305 2.27207,0.0863 2.28633,0.029 124.01563,0 0,-35.4316 -35.43164,0 0,-35.43361 35.43164,0 0,-35.43359 -35.43164,0 0,-35.43164 35.43164,0 0,-35.43359 -124.01563,0 0,0 m 0,44.29101 0.43927,0.0108 0.43628,0.0324 0.43259,0.0537 0.42815,0.0747 0.42299,0.0953 0.41711,0.11569 0.4105,0.13577 0.40317,0.15554 0.3951,0.175 0.38632,0.19418 0.3768,0.21304 0.36656,0.23161 0.3556,0.24988 0.3439,0.26784 0.33148,0.28551 0.31834,0.30287 0.30294,0.31828 0.28559,0.33142 0.26792,0.34384 0.24995,0.35554 0.23169,0.36651 0.21313,0.37675 0.19426,0.38628 0.17509,0.39506 0.15563,0.40313 0.13586,0.41047 0.11579,0.41709 0.0954,0.42297 0.0747,0.42814 0.0538,0.43257 0.0325,0.43628 0.0109,0.43926 -0.0108,0.43933 -0.0324,0.43635 -0.0537,0.43264 -0.0747,0.42821 -0.0953,0.42305 -0.11573,0.41717 -0.1358,0.41055 -0.15558,0.40321 -0.17506,0.39515 -0.19422,0.38636 -0.2131,0.37683 -0.23168,0.3666 -0.24994,0.35562 -0.26791,0.34393 -0.28559,0.3315 -0.30295,0.31835 -0.31835,0.30295 -0.3315,0.28559 -0.34393,0.26791 -0.35562,0.24994 -0.3666,0.23168 -0.37683,0.2131 -0.38636,0.19422 -0.39515,0.17506 -0.40321,0.15558 -0.41055,0.1358 -0.41717,0.11573 -0.42305,0.0953 -0.42821,0.0747 -0.43264,0.0537 -0.43635,0.0324 -0.43933,0.0108 -0.43926,-0.0109 -0.43628,-0.0325 -0.43257,-0.0538 -0.42814,-0.0747 -0.42297,-0.0954 -0.41709,-0.11579 -0.41047,-0.13586 -0.40313,-0.15563 -0.39506,-0.17509 -0.38628,-0.19426 -0.37675,-0.21313 -0.36651,-0.23169 -0.35554,-0.24995 -0.34384,-0.26792 -0.33142,-0.28559 -0.31828,-0.30294 -0.30287,-0.31834 -0.28551,-0.33148 -0.26784,-0.3439 -0.24988,-0.3556 -0.23161,-0.36656 -0.21304,-0.3768 -0.19418,-0.38632 -0.175,-0.3951 -0.15554,-0.40317 -0.13577,-0.4105 -0.11569,-0.41711 -0.0953,-0.42299 -0.0747,-0.42815 -0.0537,-0.43259 -0.0324,-0.43628 -0.0108,-0.43927 0.0116,-0.45578 0.0342,-0.4498 0.0564,-0.44326 0.0779,-0.43616 0.0989,-0.42851 0.11938,-0.4203 0.13928,-0.41154 0.1586,-0.40221 0.17739,-0.39233 0.19562,-0.3819 0.21328,-0.37091 0.2304,-0.35936 0.24694,-0.34725 0.26295,-0.3346 0.27839,-0.32138 0.29328,-0.3076 0.3076,-0.29328 0.32138,-0.27839 0.3346,-0.26295 0.34725,-0.24694 0.35936,-0.2304 0.37091,-0.21328 0.3819,-0.19562 0.39233,-0.17739 0.40221,-0.1586 0.41154,-0.13928 0.4203,-0.11938 0.42851,-0.0989 0.43616,-0.0779 0.44326,-0.0564 0.4498,-0.0342 0.45578,-0.0116 0,0 m -17.7168,26.57422 35.4336,0 0,35.43359 -35.4336,0 0,-35.43359 0,0 m 17.7168,44.29102 0.43933,0.0108 0.43635,0.0324 0.43264,0.0537 0.42821,0.0747 0.42305,0.0954 0.41716,0.11573 0.41056,0.1358 0.40321,0.15558 0.39515,0.17506 0.38635,0.19422 0.37684,0.2131 0.3666,0.23167 0.35562,0.24995 0.34393,0.26791 0.3315,0.28558 0.31835,0.30295 0.30295,0.31835 0.28558,0.33151 0.26792,0.34392 0.24994,0.35563 0.23167,0.36659 0.2131,0.37684 0.19423,0.38635 0.17505,0.39515 0.15558,0.40322 0.13581,0.41055 0.11573,0.41716 0.0953,0.42305 0.0747,0.42821 0.0537,0.43264 0.0324,0.43635 0.0108,0.43933 -0.0109,0.43926 -0.0325,0.43628 -0.0538,0.43257 -0.0747,0.42814 -0.0954,0.42297 -0.11579,0.41708 -0.13586,0.41048 -0.15563,0.40313 -0.17509,0.39506 -0.19426,0.38627 -0.21313,0.37676 -0.23169,0.36651 -0.24996,0.35554 -0.26792,0.34384 -0.28558,0.33142 -0.30294,0.31827 -0.31834,0.30287 -0.33149,0.28551 -0.3439,0.26784 -0.35559,0.24988 -0.36656,0.23161 -0.37681,0.21304 -0.38631,0.19418 -0.3951,0.17501 -0.40317,0.15553 -0.4105,0.13577 -0.41711,0.1157 -0.42299,0.0953 -0.42816,0.0747 -0.43258,0.0537 -0.43628,0.0324 -0.43927,0.0108 -0.45578,-0.0116 -0.4498,-0.0342 -0.44326,-0.0564 -0.43616,-0.0779 -0.42851,-0.0989 -0.4203,-0.11938 -0.41154,-0.13927 -0.40221,-0.15861 -0.39233,-0.17739 -0.3819,-0.19562 -0.37091,-0.21328 -0.35936,-0.23039 -0.34725,-0.24695 -0.3346,-0.26295 -0.32137,-0.27839 -0.30761,-0.29327 -0.29328,-0.30761 -0.27839,-0.32138 -0.26294,-0.33459 -0.24695,-0.34726 -0.2304,-0.35936 -0.21328,-0.3709 -0.19561,-0.3819 -0.17739,-0.39233 -0.15861,-0.40221 -0.13928,-0.41154 -0.11937,-0.4203 -0.0989,-0.42851 -0.0779,-0.43616 -0.0564,-0.44326 -0.0342,-0.4498 -0.0116,-0.45578 0.0108,-0.43927 0.0324,-0.43628 0.0537,-0.43258 0.0747,-0.42816 0.0953,-0.42299 0.11569,-0.41711 0.13577,-0.4105 0.15554,-0.40316 0.175,-0.39511 0.19418,-0.38631 0.21304,-0.3768 0.23161,-0.36657 0.24988,-0.35559 0.26785,-0.3439 0.2855,-0.33149 0.30288,-0.31833 0.31827,-0.30295 0.33142,-0.28558 0.34384,-0.26792 0.35554,-0.24995 0.36651,-0.2317 0.37676,-0.21312 0.38627,-0.19426 0.39506,-0.1751 0.40313,-0.15562 0.41048,-0.13586 0.41708,-0.11579 0.42297,-0.0954 0.42814,-0.0747 0.43257,-0.0538 0.43628,-0.0325 0.43926,-0.0109 0,0"
         id="path4622" />
      <path
         id="circle4624"
         d="m 494.73228,712.77954 -0.0164,1.31973 -0.0489,1.31581 -0.0813,1.31133 -0.11345,1.30632 -0.14535,1.30075 -0.17704,1.29465 -0.20849,1.288 -0.23973,1.28081 -0.27073,1.27306 -0.30152,1.26478 -0.33206,1.25596 -0.3624,1.24658 -0.3925,1.23666 -0.42238,1.2262 -0.45203,1.21519 -0.48146,1.20365 -0.51066,1.19154 -0.53964,1.17891 -0.56839,1.16572 -0.59691,1.152 -0.62521,1.13771 -0.65329,1.1229 -0.68113,1.10754 -0.70876,1.09163 -0.73615,1.07518 -0.76333,1.05818 -0.79027,1.04064 -0.81699,1.02255 -0.84349,1.00393 -0.86975,0.98475 -0.8958,0.96503 -0.92162,0.94476 -0.94476,0.92162 -0.96503,0.8958 -0.98475,0.86975 -1.00393,0.84349 -1.02255,0.81699 -1.04064,0.79027 -1.05818,0.76333 -1.07518,0.73615 -1.09163,0.70876 -1.10754,0.68113 -1.1229,0.65329 -1.13771,0.62521 -1.152,0.59691 -1.16572,0.56839 -1.17891,0.53964 -1.19154,0.51066 -1.20365,0.48146 -1.21519,0.45203 -1.2262,0.42238 -1.23666,0.3925 -1.24658,0.3624 -1.25596,0.33206 -1.26478,0.30152 -1.27306,0.27073 -1.28081,0.23973 -1.288,0.20849 -1.29465,0.17704 -1.30075,0.14535 -1.30632,0.11345 -1.31133,0.0813 -1.31581,0.0489 -1.31973,0.0164 -1.31973,-0.0164 -1.31581,-0.0489 -1.31133,-0.0813 -1.30632,-0.11345 -1.30075,-0.14535 -1.29465,-0.17704 -1.288,-0.2085 -1.2808,-0.23972 -1.27307,-0.27073 -1.26478,-0.30152 -1.25595,-0.33207 -1.24658,-0.36239 -1.23667,-0.3925 -1.2262,-0.42238 -1.21519,-0.45204 -1.20364,-0.48145 -1.19155,-0.51067 -1.17891,-0.53963 -1.16572,-0.56839 -1.15199,-0.59691 -1.13772,-0.62521 -1.1229,-0.65329 -1.10754,-0.68113 -1.09163,-0.70876 -1.07517,-0.73615 -1.05819,-0.76333 -1.04063,-0.79027 -1.02256,-0.81699 -1.00392,-0.84349 -0.98475,-0.86975 -0.96503,-0.8958 -0.94476,-0.92162 -0.92162,-0.94477 -0.8958,-0.96503 -0.86976,-0.98475 -0.84348,-1.00392 -0.817,-1.02255 -0.79027,-1.04064 -0.76332,-1.05818 -0.73615,-1.07518 -0.70876,-1.09163 -0.68113,-1.10754 -0.65329,-1.1229 -0.62521,-1.13772 -0.59691,-1.15199 -0.56839,-1.16572 -0.53964,-1.17891 -0.51066,-1.19155 -0.48146,-1.20364 -0.45203,-1.21519 -0.42238,-1.2262 -0.3925,-1.23667 -0.3624,-1.24658 -0.33207,-1.25595 -0.30151,-1.26478 -0.27073,-1.27307 -0.23973,-1.2808 -0.20849,-1.288 -0.17704,-1.29465 -0.14535,-1.30075 -0.11345,-1.30632 -0.0813,-1.31133 -0.0489,-1.31581 -0.0164,-1.31973 0.0174,-1.37182 0.0518,-1.36325 0.0858,-1.35428 0.11943,-1.34489 0.15261,-1.33507 0.18538,-1.32485 0.21774,-1.3142 0.24967,-1.30314 0.28119,-1.29165 0.31229,-1.27976 0.34297,-1.26745 0.37324,-1.2547 0.40309,-1.24156 0.43251,-1.22799 0.46153,-1.21401 0.49013,-1.1996 0.5183,-1.18478 0.54607,-1.16955 0.57341,-1.15389 0.60033,-1.13781 0.62684,-1.12133 0.65294,-1.10442 0.6786,-1.08709 0.70387,-1.06936 0.7287,-1.05119 0.75312,-1.03261 0.77713,-1.01362 0.80072,-0.99421 0.82388,-0.97438 0.84663,-0.95413 0.86897,-0.93347 0.89089,-0.91238 0.91238,-0.89089 0.93347,-0.86897 0.95413,-0.84663 0.97438,-0.82388 0.99421,-0.80072 1.01362,-0.77713 1.03261,-0.75312 1.05119,-0.7287 1.06936,-0.70387 1.08709,-0.6786 1.10442,-0.65294 1.12133,-0.62684 1.13781,-0.60033 1.15389,-0.57341 1.16955,-0.54607 1.18478,-0.5183 1.1996,-0.49013 1.21401,-0.46153 1.22799,-0.43251 1.24156,-0.40309 1.2547,-0.37324 1.26745,-0.34297 1.27976,-0.31229 1.29165,-0.28119 1.30314,-0.24967 1.3142,-0.21774 1.32485,-0.18538 1.33507,-0.15261 1.34489,-0.11943 1.35428,-0.0858 1.36325,-0.0518 1.37182,-0.0174 1.37182,0.0174 1.36325,0.0518 1.35428,0.0858 1.34489,0.11942 1.33507,0.15262 1.32485,0.18538 1.3142,0.21774 1.30314,0.24967 1.29166,0.28119 1.27975,0.31229 1.26745,0.34297 1.25471,0.37324 1.24156,0.40309 1.22799,0.43251 1.214,0.46153 1.19961,0.49013 1.18478,0.5183 1.16954,0.54607 1.15389,0.5734 1.13782,0.60034 1.12133,0.62684 1.10441,0.65293 1.0871,0.67861 1.06935,0.70386 1.05119,0.72871 1.03262,0.75312 1.01362,0.77713 0.99421,0.80071 0.97437,0.82389 0.95414,0.84663 0.93346,0.86897 0.91239,0.89089 0.89088,0.91238 0.86897,0.93347 0.84664,0.95413 0.82388,0.97438 0.80072,0.9942 0.77712,1.01362 0.75313,1.03262 0.7287,1.05119 0.70386,1.06935 0.67861,1.0871 0.65293,1.10442 0.62685,1.12132 0.60033,1.13782 0.57341,1.15389 0.54606,1.16954 0.51831,1.18479 0.49012,1.1996 0.46153,1.214 0.43252,1.22799 0.40309,1.24156 0.37324,1.25471 0.34297,1.26745 0.31229,1.27975 0.28119,1.29166 0.24967,1.30314 0.21774,1.3142 0.18538,1.32485 0.15261,1.33507 0.11943,1.34489 0.0858,1.35428 0.0518,1.36325 0.0174,1.37182 0,0"
         style="opacity:0.56499999;fill:#ffea00;fill-opacity:0.99358975"
         inkscape:connector-curvature="0" />
    </g>
    <path
       inkscape:connector-curvature="0"
       id="path4626"
       d="m 1043.48,875.19622 -1.9687,0.0218 -1.9597,0.0647 -1.9501,0.1073 -1.9402,0.14946 -1.9296,0.19119 -1.9185,0.23252 -1.9071,0.27344 -1.8949,0.31395 -1.8824,0.35403 -1.8694,0.39372 -1.8558,0.43298 -1.8417,0.47184 -1.8271,0.51029 -1.8121,0.54832 -1.7965,0.58594 -1.7804,0.62314 -1.7638,0.65994 -1.7468,0.69633 -1.7291,0.7323 -1.711,0.76786 -1.6924,0.80301 -1.6733,0.83774 -1.6537,0.87207 -1.63352,0.90598 -1.61293,0.93948 -1.59179,0.97257 -1.57016,1.00524 -1.54802,1.03751 -1.52537,1.06936 -1.50222,1.10081 -1.47857,1.13183 -1.45441,1.16244 -1.42975,1.19265 -1.40457,1.22244 -1.37891,1.25183 -1.35273,1.28079 -1.32604,1.30934 -1.29886,1.33749 -1.27117,1.36523 -1.24297,1.39254 -1.21427,1.41945 -1.18507,1.44594 -1.15536,1.47204 -1.12514,1.4977 -1.09443,1.52296 -1.0632,1.54781 -1.03148,1.57225 -0.99924,1.59627 -0.96651,1.61988 -0.93326,1.64308 -0.89952,1.66587 -0.86527,1.68825 -0.83052,1.71021 -0.79525,1.73176 -0.75949,1.7529 -0.72323,1.77363 -0.68645,1.79395 -0.64917,1.81385 -0.61139,1.83334 -0.5731,1.85242 -0.53431,1.87109 -0.49501,1.88935 -0.45522,1.90719 -0.41491,1.92462 104.50389,0 0,35.4316 -104.41405,0 0.41456,1.92308 0.45481,1.9057 0.49454,1.88788 0.53379,1.86967 0.57252,1.85103 0.61075,1.83199 0.64847,1.81254 0.6857,1.79267 0.72243,1.7724 0.75864,1.75171 0.79436,1.7306 0.82956,1.7091 0.86428,1.6872 0.89848,1.6648 0.93219,1.6421 0.96538,1.619 0.99808,1.5954 1.03027,1.5714 1.06196,1.547 1.09315,1.5222 1.12383,1.497 1.15401,1.4713 1.18368,1.4454 1.21286,1.4189 1.24153,1.392 1.26969,1.3648 1.29736,1.337 1.32451,1.309 1.35118,1.2805 1.37733,1.2516 1.40297,1.2222 1.42813,1.1926 1.45277,1.1623 1.47691,1.1318 1.50054,1.1008 1.52368,1.0695 1.54631,1.0376 1.56844,1.0055 1.59007,0.9728 1.61118,0.9398 1.63185,0.9064 1.6519,0.8725 1.6715,0.8383 1.6906,0.8035 1.7093,0.7685 1.7273,0.733 1.745,0.6971 1.762,0.6608 1.7786,0.624 1.7948,0.5869 1.8103,0.5494 1.8253,0.5113 1.84,0.473 1.8541,0.4343 1.8676,0.395 1.8807,0.3554 1.8932,0.3154 1.9053,0.2749 1.9169,0.2341 1.9279,0.1929 1.9385,0.1512 1.9485,0.1091 1.9581,0.067 1.9671,0.024 2.1996,-0.027 2.193,-0.082 2.1856,-0.1356 2.1772,-0.1891 2.1679,-0.2422 2.1578,-0.2951 2.1466,-0.3475 2.1347,-0.3996 2.1218,-0.4512 2.108,-0.5026 2.0932,-0.5534 2.0777,-0.604 2.0611,-0.6542 2.0437,-0.704 2.0253,-0.7534 2.0061,-0.8025 1.9859,-0.8511 1.9648,-0.8994 1.9429,-0.9474 1.92,-0.9948 1.8962,-1.0421 1.8715,-1.0888 1.8459,-1.1353 1.8193,-1.1812 1.792,-1.227 1.7636,-1.2722 1.7344,-1.3172 1.7043,-1.3616 1.6732,-1.4059 1.6412,-1.4496 1.6084,-1.493 1.5746,-1.5361 1.536,-1.5746 1.493,-1.6084 1.4496,-1.6413 1.4058,-1.6732 1.3616,-1.7043 1.3171,-1.7344 1.2722,-1.7637 1.2269,-1.792 1.1813,-1.8194 1.1352,-1.8459 1.0888,-1.8715 1.042,-1.8962 0.9948,-1.9201 0.9473,-1.9428 0.8994,-1.96491 0.851,-1.98593 0.8025,-2.0061 0.7533,-2.02534 0.704,-2.04369 0.6541,-2.06112 0.604,-2.07765 0.5534,-2.09327 0.5025,-2.10799 0.4512,-2.12179 0.3995,-2.13469 0.3475,-2.14668 0.295,-2.15777 0.2422,-2.16794 0.1891,-2.1772 0.1355,-2.18557 0.082,-2.19302 0.027,-2.19956 -0.029,-2.28634 -0.086,-2.27207 -0.1431,-2.25711 -0.1991,-2.24145 -0.2543,-2.2251 -0.309,-2.20806 -0.3629,-2.19031 -0.4161,-2.17187 -0.4687,-2.15274 -0.5205,-2.13291 -0.5716,-2.11238 -0.6221,-2.09116 -0.6718,-2.06924 -0.7209,-2.04663 -0.7692,-2.02332 -0.8168,-1.99931 -0.8639,-1.97462 -0.9101,-1.94922 -0.9557,-1.92313 -1.0005,-1.89634 -1.0448,-1.86886 -1.0882,-1.84068 -1.131,-1.8118 -1.1731,-1.78223 -1.2145,-1.75197 -1.2552,-1.72101 -1.2952,-1.68935 -1.3345,-1.657 -1.3731,-1.62394 -1.4111,-1.59021 -1.4482,-1.55576 -1.4848,-1.52063 -1.5207,-1.48479 -1.5557,-1.44827 -1.5902,-1.41105 -1.624,-1.37313 -1.657,-1.33451 -1.6893,-1.2952 -1.721,-1.2552 -1.752,-1.21449 -1.7822,-1.1731 -1.8118,-1.13101 -1.8407,-1.08821 -1.8689,-1.04474 -1.8963,-1.00055 -1.9231,-0.95568 -1.9493,-0.9101 -1.9746,-0.86384 -1.9993,-0.81688 -2.0233,-0.76921 -2.0466,-0.72086 -2.0693,-0.67182 -2.0911,-0.62206 -2.1124,-0.57163 -2.1329,-0.52049 -2.1528,-0.46865 -2.1718,-0.41613 -2.1904,-0.3629 -2.208,-0.30899 -2.2251,-0.25436 -2.2415,-0.19906 -2.2571,-0.14305 -2.272,-0.0864 -2.2864,-0.0289 0,0 m 0,44.291 0.4393,0.0109 0.4363,0.0325 0.4325,0.0538 0.4282,0.0747 0.4229,0.0954 0.4171,0.11579 0.4105,0.13586 0.4031,0.15562 0.3951,0.1751 0.3863,0.19426 0.3767,0.21313 0.3665,0.23169 0.3556,0.24995 0.3438,0.26793 0.3314,0.28558 0.3183,0.30294 0.3029,0.31834 0.2855,0.33149 0.2678,0.3439 0.2499,0.3556 0.2316,0.36656 0.2131,0.3768 0.1941,0.38632 0.175,0.3951 0.1556,0.40317 0.1358,0.4105 0.1156,0.41711 0.095,0.423 0.075,0.42815 0.054,0.43258 0.032,0.43629 0.011,0.43927 -0.012,0.45578 -0.034,0.4498 -0.056,0.44326 -0.078,0.43616 -0.099,0.42851 -0.1193,0.42029 -0.1393,0.41154 -0.1586,0.40221 -0.1774,0.39233 -0.1956,0.3819 -0.2133,0.37091 -0.2304,0.35936 -0.247,0.34725 -0.2629,0.33459 -0.2784,0.32138 -0.2933,0.30761 -0.3076,0.29327 -0.3213,0.27839 -0.3346,0.26295 -0.3473,0.24695 -0.3594,0.23039 -0.3709,0.21328 -0.3819,0.19561 -0.3923,0.17739 -0.4022,0.15861 -0.4115,0.13927 -0.4203,0.11938 -0.4285,0.0989 -0.4362,0.0779 -0.4433,0.0564 -0.4498,0.0342 -0.4558,0.0116 -0.4557,-0.0116 -0.4498,-0.0342 -0.4433,-0.0564 -0.4362,-0.0779 -0.4285,-0.0989 -0.4203,-0.11938 -0.4115,-0.13927 -0.4022,-0.15861 -0.3923,-0.17739 -0.3819,-0.19561 -0.3709,-0.21328 -0.3594,-0.23039 -0.3473,-0.24695 -0.3346,-0.26295 -0.3213,-0.27839 -0.3076,-0.29327 -0.2933,-0.30761 -0.2784,-0.32138 -0.263,-0.33459 -0.2469,-0.34725 -0.2304,-0.35936 -0.2133,-0.37091 -0.1956,-0.3819 -0.1774,-0.39233 -0.1586,-0.40221 -0.1393,-0.41154 -0.1193,-0.42029 -0.099,-0.42851 -0.078,-0.43616 -0.056,-0.44326 -0.034,-0.4498 -0.012,-0.45578 0.011,-0.43927 0.032,-0.43629 0.054,-0.43258 0.075,-0.42815 0.095,-0.423 0.1157,-0.41711 0.1357,-0.4105 0.1556,-0.40317 0.175,-0.3951 0.1941,-0.38632 0.2131,-0.3768 0.2316,-0.36656 0.2499,-0.3556 0.2678,-0.3439 0.2855,-0.33149 0.3029,-0.31834 0.3183,-0.30294 0.3314,-0.28558 0.3438,-0.26793 0.3556,-0.24995 0.3665,-0.23169 0.3767,-0.21313 0.3863,-0.19426 0.3951,-0.1751 0.4031,-0.15562 0.4105,-0.13586 0.4171,-0.11579 0.4229,-0.0954 0.4282,-0.0747 0.4325,-0.0538 0.4363,-0.0325 0.4393,-0.0109 0,0 m 0,70.8672 0.4558,0.0116 0.4498,0.0342 0.4432,0.0564 0.4362,0.0779 0.4285,0.0989 0.4203,0.11938 0.4115,0.13927 0.4022,0.15861 0.3924,0.17739 0.3819,0.19561 0.3709,0.21328 0.3593,0.2304 0.3473,0.24694 0.3346,0.26295 0.3214,0.27839 0.3076,0.29328 0.2933,0.3076 0.2783,0.32138 0.263,0.33459 0.2469,0.34726 0.2304,0.35936 0.2133,0.3709 0.1956,0.3819 0.1774,0.39233 0.1586,0.40221 0.1393,0.41154 0.1194,0.4203 0.099,0.4285 0.078,0.43617 0.056,0.44325 0.034,0.4498 0.012,0.45579 -0.011,0.43926 -0.032,0.43629 -0.054,0.4326 -0.075,0.4281 -0.095,0.423 -0.1157,0.4171 -0.1358,0.4105 -0.1555,0.4032 -0.175,0.3951 -0.1942,0.3863 -0.213,0.3768 -0.2316,0.3666 -0.2499,0.3556 -0.2679,0.3439 -0.2855,0.3315 -0.3028,0.3183 -0.3183,0.303 -0.3314,0.2856 -0.3439,0.2679 -0.3555,0.2499 -0.3665,0.2317 -0.3768,0.2131 -0.3863,0.1943 -0.395,0.1751 -0.4032,0.1556 -0.4104,0.1359 -0.4171,0.1158 -0.423,0.095 -0.4281,0.075 -0.4326,0.054 -0.4363,0.033 -0.4392,0.011 -0.4393,-0.011 -0.4363,-0.033 -0.4326,-0.054 -0.4281,-0.075 -0.423,-0.095 -0.4171,-0.1158 -0.4104,-0.1359 -0.4032,-0.1556 -0.395,-0.1751 -0.3863,-0.1943 -0.3767,-0.2131 -0.3666,-0.2317 -0.3555,-0.2499 -0.3438,-0.2679 -0.3315,-0.2856 -0.3182,-0.303 -0.3029,-0.3183 -0.2855,-0.3315 -0.2679,-0.3439 -0.2498,-0.3556 -0.2316,-0.3666 -0.2131,-0.3768 -0.1942,-0.3863 -0.175,-0.3951 -0.1555,-0.4032 -0.1358,-0.4105 -0.1157,-0.4171 -0.095,-0.423 -0.075,-0.4281 -0.054,-0.4326 -0.032,-0.43629 -0.011,-0.43926 0.012,-0.45579 0.034,-0.4498 0.056,-0.44325 0.078,-0.43617 0.099,-0.4285 0.1194,-0.4203 0.1393,-0.41154 0.1586,-0.40221 0.1774,-0.39233 0.1956,-0.3819 0.2133,-0.3709 0.2304,-0.35936 0.2469,-0.34726 0.263,-0.33459 0.2784,-0.32138 0.2932,-0.3076 0.3076,-0.29328 0.3214,-0.27839 0.3346,-0.26295 0.3473,-0.24694 0.3593,-0.2304 0.3709,-0.21328 0.3819,-0.19561 0.3924,-0.17739 0.4022,-0.15861 0.4115,-0.13927 0.4203,-0.11938 0.4285,-0.0989 0.4362,-0.0779 0.4432,-0.0564 0.4498,-0.0342 0.4558,-0.0116 0,0"
       style="fill:#ff9800;fill-opacity:1" />
    <path
       style="fill:#ff9800;fill-opacity:1"
       d="m 689.14931,875.19622 -1.96871,0.0218 -1.95969,0.0647 -1.95017,0.1073 -1.94014,0.14945 -1.9296,0.1912 -1.91856,0.23252 -1.90701,0.27344 -1.89497,0.31394 -1.88241,0.35404 -1.86935,0.39371 -1.85579,0.43299 -1.84172,0.47184 -1.82715,0.51028 -1.81207,0.54832 -1.79649,0.58594 -1.78041,0.62315 -1.76382,0.65994 -1.74672,0.69633 -1.72912,0.73229 -1.71101,0.76786 -1.69241,0.80301 -1.67329,0.83775 -1.65368,0.87206 -1.63355,0.90598 -1.61293,0.93948 -1.59179,0.97257 -1.57016,1.00525 -1.54802,1.03751 -1.52537,1.06936 -1.50222,1.1008 -1.47857,1.13183 -1.45441,1.16245 -1.42975,1.19265 -1.40457,1.22244 -1.37891,1.25182 -1.35273,1.28079 -1.32604,1.30935 -1.29886,1.33749 -1.27117,1.36522 -1.24297,1.39254 -1.21427,1.41945 -1.18507,1.44595 -1.15536,1.47203 -1.12514,1.4977 -1.09443,1.52296 -1.0632,1.54782 -1.03148,1.57224 -0.99924,1.59627 -0.96651,1.61989 -0.93326,1.64308 -0.89952,1.66587 -0.86527,1.68824 -0.83052,1.71021 -0.79525,1.73177 -0.75949,1.7529 -0.72323,1.77363 -0.68644,1.79394 -0.64918,1.81385 -0.61138,1.83335 -0.57311,1.85242 -0.53431,1.87109 -0.49501,1.88934 -0.45522,1.90719 -0.41491,1.92462 104.50391,0 0,35.4316 -104.41407,0 0.41457,1.92309 0.4548,1.90569 0.49455,1.88788 0.53378,1.86967 0.57252,1.85103 0.61075,1.83199 0.64847,1.81254 0.6857,1.79267 0.72243,1.7724 0.75864,1.75171 0.79436,1.73061 0.82957,1.7091 0.86427,1.6872 0.89848,1.6648 0.93219,1.6421 0.96538,1.619 0.99808,1.5954 1.03027,1.5714 1.06196,1.547 1.09315,1.5222 1.12383,1.497 1.15401,1.4713 1.18368,1.4454 1.21286,1.4189 1.24153,1.392 1.26969,1.3648 1.29736,1.337 1.32451,1.309 1.35118,1.2805 1.37733,1.2516 1.40297,1.2222 1.42813,1.1926 1.45277,1.1623 1.47691,1.1318 1.50054,1.1008 1.52368,1.0695 1.54632,1.0376 1.56843,1.0055 1.59007,0.9728 1.61118,0.9398 1.63181,0.9064 1.65191,0.8725 1.67153,0.8382 1.69064,0.8036 1.70924,0.7685 1.72735,0.733 1.74494,0.6971 1.76204,0.6608 1.77863,0.624 1.79471,0.5869 1.81031,0.5493 1.82538,0.5114 1.83997,0.473 1.85404,0.4342 1.86762,0.3951 1.88068,0.3554 1.89325,0.3154 1.90531,0.2749 1.91687,0.2341 1.92793,0.1929 1.93848,0.1512 1.94853,0.1091 1.95808,0.067 1.96712,0.024 2.19957,-0.027 2.19302,-0.082 2.18556,-0.1356 2.1772,-0.189 2.16794,-0.2423 2.15775,-0.2951 2.14668,-0.3475 2.13468,-0.3996 2.12178,-0.4512 2.10798,-0.5026 2.09326,-0.5534 2.07763,-0.604 2.06111,-0.6542 2.04367,-0.704 2.02533,-0.7534 2.00607,-0.8025 1.98592,-0.8511 1.96484,-0.8994 1.94287,-0.9474 1.91999,-0.9948 1.8962,-1.0421 1.8715,-1.0888 1.84589,-1.1353 1.81938,-1.1812 1.79196,-1.227 1.76363,-1.2722 1.73439,-1.3172 1.70425,-1.3616 1.6732,-1.4059 1.64124,-1.4496 1.60838,-1.493 1.57459,-1.5361 1.53602,-1.5746 1.49299,-1.6084 1.44958,-1.6413 1.4058,-1.6732 1.36164,-1.7043 1.31711,-1.7344 1.27219,-1.7637 1.22691,-1.792 1.18124,-1.8194 1.13521,-1.8459 1.08879,-1.8715 1.042,-1.8962 0.99483,-1.92 0.9473,-1.9429 0.89937,-1.96491 0.85108,-1.98593 0.80241,-2.00609 0.75336,-2.02535 0.70395,-2.04368 0.65414,-2.06112 0.60397,-2.07766 0.55342,-2.09327 0.5025,-2.10799 0.45119,-2.12179 0.39951,-2.13469 0.34747,-2.14668 0.29503,-2.15776 0.24223,-2.16794 0.18904,-2.17721 0.13549,-2.18557 0.0816,-2.19302 0.0272,-2.19956 -0.0289,-2.28633 -0.0864,-2.27207 -0.14305,-2.25711 -0.19906,-2.24146 -0.25437,-2.2251 -0.30898,-2.20805 -0.3629,-2.19031 -0.41613,-2.17188 -0.46866,-2.15273 -0.52049,-2.13291 -0.57162,-2.11238 -0.62207,-2.09116 -0.67181,-2.06925 -0.72087,-2.04662 -0.76922,-2.02332 -0.81687,-1.99932 -0.86384,-1.97462 -0.91011,-1.94922 -0.95567,-1.92312 -1.00056,-1.89635 -1.04473,-1.86885 -1.08822,-1.84068 -1.131,-1.81181 -1.1731,-1.78223 -1.2145,-1.75197 -1.2552,-1.72101 -1.2952,-1.68935 -1.33451,-1.65699 -1.37313,-1.62395 -1.41105,-1.5902 -1.44827,-1.55577 -1.48479,-1.52062 -1.52063,-1.4848 -1.55576,-1.44827 -1.59021,-1.41104 -1.62395,-1.37313 -1.65699,-1.33451 -1.68935,-1.29521 -1.72101,-1.25519 -1.75197,-1.2145 -1.78223,-1.1731 -1.81181,-1.131 -1.84068,-1.08822 -1.86886,-1.04473 -1.89634,-1.00056 -1.92313,-0.95567 -1.94922,-0.91011 -1.97461,-0.86384 -1.99932,-0.81687 -2.02332,-0.76922 -2.04663,-0.72086 -2.06924,-0.67181 -2.09116,-0.62207 -2.11238,-0.57163 -2.13291,-0.52048 -2.15274,-0.46866 -2.17187,-0.41613 -2.19031,-0.3629 -2.20806,-0.30898 -2.2251,-0.25437 -2.24145,-0.19906 -2.25711,-0.14305 -2.27207,-0.0863 -2.28634,-0.029 0,0 m 0,44.291 0.43927,0.0109 0.43628,0.0325 0.43257,0.0538 0.42814,0.0747 0.42297,0.0954 0.41709,0.11579 0.41047,0.13586 0.40313,0.15563 0.39506,0.17509 0.38628,0.19426 0.37675,0.21313 0.36651,0.23169 0.35554,0.24996 0.34385,0.26792 0.33142,0.28558 0.31827,0.30295 0.30287,0.31834 0.28551,0.33148 0.26784,0.3439 0.24988,0.3556 0.23161,0.36656 0.21304,0.3768 0.19418,0.38632 0.17501,0.39511 0.15553,0.40316 0.13577,0.4105 0.11569,0.41712 0.0953,0.42299 0.0747,0.42815 0.0537,0.43259 0.0324,0.43628 0.0108,0.43927 -0.0116,0.45578 -0.0343,0.4498 -0.0564,0.44326 -0.0779,0.43616 -0.0989,0.42851 -0.11938,0.4203 -0.13928,0.41153 -0.15861,0.40221 -0.17739,0.39234 -0.19561,0.38189 -0.21328,0.37091 -0.2304,0.35936 -0.24695,0.34725 -0.26294,0.3346 -0.27839,0.32138 -0.29328,0.3076 -0.3076,0.29328 -0.32138,0.27838 -0.3346,0.26295 -0.34725,0.24695 -0.35936,0.23039 -0.37091,0.21328 -0.3819,0.19562 -0.39233,0.17739 -0.40221,0.15861 -0.41154,0.13927 -0.42029,0.11938 -0.42851,0.0989 -0.43617,0.0779 -0.44325,0.0564 -0.4498,0.0342 -0.45579,0.0116 -0.45578,-0.0116 -0.4498,-0.0342 -0.44325,-0.0564 -0.43617,-0.0779 -0.42851,-0.0989 -0.4203,-0.11938 -0.41153,-0.13927 -0.40221,-0.15861 -0.39233,-0.17739 -0.3819,-0.19562 -0.37091,-0.21328 -0.35936,-0.23039 -0.34725,-0.24695 -0.3346,-0.26295 -0.32138,-0.27838 -0.3076,-0.29328 -0.29328,-0.3076 -0.27839,-0.32138 -0.26294,-0.3346 -0.24695,-0.34725 -0.2304,-0.35936 -0.21328,-0.37091 -0.19561,-0.38189 -0.17739,-0.39234 -0.15861,-0.40221 -0.13928,-0.41153 -0.11938,-0.4203 -0.0989,-0.42851 -0.0779,-0.43616 -0.0564,-0.44326 -0.0343,-0.4498 -0.0116,-0.45578 0.0108,-0.43927 0.0324,-0.43628 0.0537,-0.43259 0.0747,-0.42815 0.0953,-0.42299 0.11569,-0.41712 0.13577,-0.4105 0.15553,-0.40316 0.17501,-0.39511 0.19418,-0.38632 0.21304,-0.3768 0.23161,-0.36656 0.24988,-0.3556 0.26784,-0.3439 0.28551,-0.33148 0.30287,-0.31834 0.31827,-0.30295 0.33142,-0.28558 0.34385,-0.26792 0.35554,-0.24996 0.36651,-0.23169 0.37675,-0.21313 0.38628,-0.19426 0.39506,-0.17509 0.40313,-0.15563 0.41047,-0.13586 0.41709,-0.11579 0.42297,-0.0954 0.42814,-0.0747 0.43257,-0.0538 0.43628,-0.0325 0.43926,-0.0109 0,0 m 0,70.8672 0.45579,0.0116 0.4498,0.0342 0.44325,0.0564 0.43617,0.0779 0.42851,0.0989 0.42029,0.11938 0.41154,0.13927 0.40221,0.15861 0.39233,0.17739 0.3819,0.19562 0.37091,0.21328 0.35936,0.23039 0.34725,0.24695 0.3346,0.26295 0.32138,0.27838 0.3076,0.29328 0.29328,0.3076 0.27839,0.32138 0.26294,0.3346 0.24695,0.34725 0.2304,0.35936 0.21328,0.37091 0.19561,0.38189 0.17739,0.39234 0.15861,0.40221 0.13928,0.41153 0.11938,0.4203 0.0989,0.42851 0.0779,0.43616 0.0564,0.44326 0.0343,0.4498 0.0116,0.45578 -0.0108,0.43927 -0.0324,0.43628 -0.0537,0.4326 -0.0747,0.4281 -0.0953,0.423 -0.11569,0.4172 -0.13577,0.4105 -0.15553,0.4031 -0.17501,0.3951 -0.19418,0.3863 -0.21304,0.3768 -0.23161,0.3666 -0.24988,0.3556 -0.26784,0.3439 -0.28551,0.3315 -0.30287,0.3183 -0.31827,0.303 -0.33142,0.2856 -0.34385,0.2679 -0.35554,0.2499 -0.36651,0.2317 -0.37675,0.2132 -0.38628,0.1942 -0.39506,0.1751 -0.40313,0.1556 -0.41047,0.1359 -0.41709,0.1158 -0.42297,0.095 -0.42814,0.075 -0.43257,0.054 -0.43628,0.033 -0.43927,0.011 -0.43926,-0.011 -0.43628,-0.033 -0.43257,-0.054 -0.42814,-0.075 -0.42297,-0.095 -0.41709,-0.1158 -0.41047,-0.1359 -0.40313,-0.1556 -0.39506,-0.1751 -0.38628,-0.1942 -0.37675,-0.2132 -0.36651,-0.2317 -0.35554,-0.2499 -0.34385,-0.2679 -0.33142,-0.2856 -0.31827,-0.303 -0.30287,-0.3183 -0.28551,-0.3315 -0.26784,-0.3439 -0.24988,-0.3556 -0.23161,-0.3666 -0.21304,-0.3768 -0.19418,-0.3863 -0.17501,-0.3951 -0.15553,-0.4031 -0.13577,-0.4105 -0.11569,-0.4172 -0.0953,-0.423 -0.0747,-0.4281 -0.0537,-0.4326 -0.0324,-0.43628 -0.0108,-0.43927 0.0116,-0.45578 0.0343,-0.4498 0.0564,-0.44326 0.0779,-0.43616 0.0989,-0.42851 0.11938,-0.4203 0.13928,-0.41153 0.15861,-0.40221 0.17739,-0.39234 0.19561,-0.38189 0.21328,-0.37091 0.2304,-0.35936 0.24695,-0.34725 0.26294,-0.3346 0.27839,-0.32138 0.29328,-0.3076 0.3076,-0.29328 0.32138,-0.27838 0.3346,-0.26295 0.34725,-0.24695 0.35936,-0.23039 0.37091,-0.21328 0.3819,-0.19562 0.39233,-0.17739 0.40221,-0.15861 0.41153,-0.13927 0.4203,-0.11938 0.42851,-0.0989 0.43617,-0.0779 0.44325,-0.0564 0.4498,-0.0342 0.45578,-0.0116 0,0"
       id="path4628"
       inkscape:connector-curvature="0" />
    <path
       inkscape:connector-curvature="0"
       id="path4630"
       d="m 511.98396,875.19622 -1.96871,0.0218 -1.9597,0.0647 -1.95016,0.1073 -1.94014,0.14945 -1.9296,0.1912 -1.91856,0.23252 -1.90701,0.27344 -1.89497,0.31394 -1.88241,0.35404 -1.86935,0.39371 -1.85579,0.43299 -1.84173,0.47184 -1.82714,0.51028 -1.81208,0.54832 -1.79649,0.58594 -1.7804,0.62315 -1.76382,0.65994 -1.74672,0.69633 -1.72912,0.73229 -1.71102,0.76786 -1.6924,0.80301 -1.6733,0.83775 -1.65367,0.87206 -1.63356,0.90598 -1.61292,0.93948 -1.5918,0.97257 -1.57016,1.00525 -1.54801,1.03751 -1.52538,1.06936 -1.50222,1.1008 -1.47857,1.13183 -1.4544,1.16245 -1.42975,1.19265 -1.40458,1.22244 -1.3789,1.25182 -1.35273,1.28079 -1.32604,1.30935 -1.29886,1.33749 -1.27117,1.36522 -1.24297,1.39254 -1.21428,1.41945 -1.18506,1.44595 -1.15536,1.47203 -1.12515,1.4977 -1.09442,1.52296 -1.06321,1.54782 -1.03147,1.57224 -0.99925,1.59627 -0.9665,1.61989 -0.93327,1.64308 -0.89952,1.66587 -0.86527,1.68824 -0.83051,1.71021 -0.79526,1.73177 -0.75949,1.7529 -0.72322,1.77363 -0.68645,1.79394 -0.64917,1.81385 -0.61139,1.83335 -0.5731,1.85242 -0.53431,1.87109 -0.49502,1.88934 -0.45521,1.90719 -0.41491,1.92462 104.50391,0 0,35.4316 -104.41407,0 0.41456,1.92309 0.45481,1.90569 0.49454,1.88788 0.53378,1.86967 0.57252,1.85103 0.61075,1.83199 0.64848,1.81254 0.6857,1.79267 0.72242,1.7724 0.75865,1.75171 0.79435,1.73061 0.82957,1.7091 0.86428,1.6872 0.89848,1.6648 0.93218,1.6421 0.96539,1.619 0.99808,1.5954 1.03027,1.5714 1.06196,1.547 1.09315,1.5222 1.12382,1.497 1.15401,1.4713 1.18369,1.4454 1.21286,1.4189 1.24152,1.392 1.2697,1.3648 1.29735,1.337 1.32452,1.309 1.35117,1.2805 1.37733,1.2516 1.40298,1.2222 1.42812,1.1926 1.45277,1.1623 1.47691,1.1318 1.50055,1.1008 1.52368,1.0695 1.54631,1.0376 1.56844,1.0055 1.59006,0.9728 1.61119,0.9398 1.6318,0.9064 1.65192,0.8725 1.67153,0.8382 1.69064,0.8036 1.70924,0.7685 1.72734,0.733 1.74494,0.6971 1.76204,0.6608 1.77863,0.624 1.79472,0.5869 1.8103,0.5493 1.82539,0.5114 1.83997,0.473 1.85404,0.4342 1.86761,0.3951 1.88068,0.3554 1.89325,0.3154 1.90532,0.2749 1.91687,0.2341 1.92793,0.1929 1.93848,0.1512 1.94853,0.1091 1.95808,0.067 1.96712,0.024 2.19956,-0.027 2.19302,-0.082 2.18557,-0.1356 2.1772,-0.189 2.16793,-0.2423 2.15776,-0.2951 2.14667,-0.3475 2.13468,-0.3996 2.12179,-0.4512 2.10797,-0.5026 2.09326,-0.5534 2.07764,-0.604 2.06111,-0.6542 2.04367,-0.704 2.02533,-0.7534 2.00607,-0.8025 1.98591,-0.8511 1.96485,-0.8994 1.94287,-0.9474 1.91999,-0.9948 1.89619,-1.0421 1.8715,-1.0888 1.8459,-1.1353 1.81937,-1.1812 1.79196,-1.227 1.76363,-1.2722 1.7344,-1.3172 1.70425,-1.3616 1.6732,-1.4059 1.64124,-1.4496 1.60837,-1.493 1.5746,-1.5361 1.53602,-1.5746 1.49299,-1.6084 1.44958,-1.6413 1.4058,-1.6732 1.36164,-1.7043 1.3171,-1.7344 1.2722,-1.7637 1.2269,-1.792 1.18125,-1.8194 1.1352,-1.8459 1.0888,-1.8715 1.042,-1.8962 0.99483,-1.92 0.94729,-1.9429 0.89938,-1.96491 0.85108,-1.98593 0.80241,-2.00609 0.75336,-2.02535 0.70394,-2.04368 0.65415,-2.06112 0.60397,-2.07766 0.55342,-2.09327 0.50249,-2.10799 0.45119,-2.12179 0.39952,-2.13469 0.34746,-2.14668 0.29503,-2.15776 0.24223,-2.16794 0.18905,-2.17721 0.13549,-2.18557 0.0815,-2.19302 0.0273,-2.19956 -0.029,-2.28633 -0.0864,-2.27207 -0.14305,-2.25711 -0.19905,-2.24146 -0.25437,-2.2251 -0.30898,-2.20805 -0.36291,-2.19031 -0.41613,-2.17188 -0.46865,-2.15273 -0.52049,-2.13291 -0.57163,-2.11238 -0.62207,-2.09116 -0.67181,-2.06925 -0.72086,-2.04662 -0.76922,-2.02332 -0.81688,-1.99932 -0.86383,-1.97462 -0.91011,-1.94922 -0.95568,-1.92312 -1.00055,-1.89635 -1.04473,-1.86885 -1.08822,-1.84068 -1.13101,-1.81181 -1.1731,-1.78223 -1.21449,-1.75197 -1.2552,-1.72101 -1.2952,-1.68935 -1.33452,-1.65699 -1.37312,-1.62395 -1.41105,-1.5902 -1.44827,-1.55577 -1.4848,-1.52062 -1.52062,-1.4848 -1.55577,-1.44827 -1.5902,-1.41104 -1.62395,-1.37313 -1.657,-1.33451 -1.68935,-1.29521 -1.721,-1.25519 -1.75197,-1.2145 -1.78224,-1.1731 -1.8118,-1.131 -1.84068,-1.08822 -1.86886,-1.04473 -1.89634,-1.00056 -1.92313,-0.95567 -1.94922,-0.91011 -1.97462,-0.86384 -1.99931,-0.81687 -2.02332,-0.76922 -2.04663,-0.72086 -2.06925,-0.67181 -2.09116,-0.62207 -2.11238,-0.57163 -2.1329,-0.52048 -2.15274,-0.46866 -2.17187,-0.41613 -2.19032,-0.3629 -2.20805,-0.30898 -2.2251,-0.25437 -2.24146,-0.19906 -2.25711,-0.14305 -2.27207,-0.0863 -2.28633,-0.029 0,0 m 0,44.291 0.43926,0.0109 0.43629,0.0325 0.43257,0.0538 0.42813,0.0747 0.42298,0.0954 0.41708,0.11579 0.41047,0.13586 0.40313,0.15563 0.39507,0.17509 0.38627,0.19426 0.37676,0.21313 0.36651,0.23169 0.35554,0.24996 0.34384,0.26792 0.33142,0.28558 0.31827,0.30295 0.30288,0.31834 0.28551,0.33148 0.26784,0.3439 0.24988,0.3556 0.23161,0.36656 0.21304,0.3768 0.19417,0.38632 0.17501,0.39511 0.15554,0.40316 0.13576,0.4105 0.1157,0.41712 0.0953,0.42299 0.0747,0.42815 0.0537,0.43259 0.0324,0.43628 0.0108,0.43927 -0.0116,0.45578 -0.0342,0.4498 -0.0564,0.44326 -0.0779,0.43616 -0.0989,0.42851 -0.11938,0.4203 -0.13927,0.41153 -0.15861,0.40221 -0.17739,0.39234 -0.19562,0.38189 -0.21328,0.37091 -0.23039,0.35936 -0.24695,0.34725 -0.26295,0.3346 -0.27839,0.32138 -0.29327,0.3076 -0.30761,0.29328 -0.32138,0.27838 -0.33459,0.26295 -0.34726,0.24695 -0.35936,0.23039 -0.3709,0.21328 -0.3819,0.19562 -0.39233,0.17739 -0.40222,0.15861 -0.41153,0.13927 -0.4203,0.11938 -0.42851,0.0989 -0.43616,0.0779 -0.44326,0.0564 -0.4498,0.0342 -0.45578,0.0116 -0.45578,-0.0116 -0.4498,-0.0342 -0.44326,-0.0564 -0.43616,-0.0779 -0.42851,-0.0989 -0.4203,-0.11938 -0.41153,-0.13927 -0.40221,-0.15861 -0.39234,-0.17739 -0.3819,-0.19562 -0.3709,-0.21328 -0.35936,-0.23039 -0.34726,-0.24695 -0.33459,-0.26295 -0.32138,-0.27838 -0.30761,-0.29328 -0.29327,-0.3076 -0.27839,-0.32138 -0.26295,-0.3346 -0.24695,-0.34725 -0.23039,-0.35936 -0.21328,-0.37091 -0.19562,-0.38189 -0.17739,-0.39234 -0.15861,-0.40221 -0.13927,-0.41153 -0.11938,-0.4203 -0.0989,-0.42851 -0.0779,-0.43616 -0.0564,-0.44326 -0.0342,-0.4498 -0.0116,-0.45578 0.0108,-0.43927 0.0324,-0.43628 0.0537,-0.43259 0.0747,-0.42815 0.0953,-0.42299 0.1157,-0.41712 0.13576,-0.4105 0.15554,-0.40316 0.17501,-0.39511 0.19417,-0.38632 0.21304,-0.3768 0.23161,-0.36656 0.24988,-0.3556 0.26784,-0.3439 0.28551,-0.33148 0.30288,-0.31834 0.31827,-0.30295 0.33142,-0.28558 0.34384,-0.26792 0.35554,-0.24996 0.36651,-0.23169 0.37676,-0.21313 0.38627,-0.19426 0.39507,-0.17509 0.40313,-0.15563 0.41047,-0.13586 0.41709,-0.11579 0.42297,-0.0954 0.42813,-0.0747 0.43258,-0.0538 0.43628,-0.0325 0.43926,-0.0109 0,0 m 0,70.8672 0.45578,0.0116 0.4498,0.0342 0.44326,0.0564 0.43616,0.0779 0.42851,0.0989 0.4203,0.11938 0.41153,0.13927 0.40222,0.15861 0.39233,0.17739 0.3819,0.19562 0.3709,0.21328 0.35936,0.23039 0.34726,0.24695 0.33459,0.26295 0.32138,0.27838 0.30761,0.29328 0.29327,0.3076 0.27839,0.32138 0.26295,0.3346 0.24695,0.34725 0.23039,0.35936 0.21328,0.37091 0.19562,0.38189 0.17739,0.39234 0.15861,0.40221 0.13927,0.41153 0.11938,0.4203 0.0989,0.42851 0.0779,0.43616 0.0564,0.44326 0.0342,0.4498 0.0116,0.45578 -0.0108,0.43927 -0.0324,0.43628 -0.0537,0.4326 -0.0747,0.4281 -0.0953,0.423 -0.1157,0.4172 -0.13576,0.4105 -0.15554,0.4031 -0.17501,0.3951 -0.19417,0.3863 -0.21304,0.3768 -0.23161,0.3666 -0.24988,0.3556 -0.26784,0.3439 -0.28551,0.3315 -0.30288,0.3183 -0.31827,0.303 -0.33142,0.2856 -0.34384,0.2679 -0.35554,0.2499 -0.36651,0.2317 -0.37676,0.2132 -0.38627,0.1942 -0.39507,0.1751 -0.40313,0.1556 -0.41047,0.1359 -0.41708,0.1158 -0.42298,0.095 -0.42813,0.075 -0.43257,0.054 -0.43629,0.033 -0.43926,0.011 -0.43926,-0.011 -0.43628,-0.033 -0.43258,-0.054 -0.42813,-0.075 -0.42297,-0.095 -0.41709,-0.1158 -0.41047,-0.1359 -0.40313,-0.1556 -0.39507,-0.1751 -0.38627,-0.1942 -0.37676,-0.2132 -0.36651,-0.2317 -0.35554,-0.2499 -0.34384,-0.2679 -0.33142,-0.2856 -0.31827,-0.303 -0.30288,-0.3183 -0.28551,-0.3315 -0.26784,-0.3439 -0.24988,-0.3556 -0.23161,-0.3666 -0.21304,-0.3768 -0.19417,-0.3863 -0.17501,-0.3951 -0.15554,-0.4031 -0.13576,-0.4105 -0.1157,-0.4172 -0.0953,-0.423 -0.0747,-0.4281 -0.0537,-0.4326 -0.0324,-0.43628 -0.0108,-0.43927 0.0116,-0.45578 0.0342,-0.4498 0.0564,-0.44326 0.0779,-0.43616 0.0989,-0.42851 0.11938,-0.4203 0.13927,-0.41153 0.15861,-0.40221 0.17739,-0.39234 0.19562,-0.38189 0.21328,-0.37091 0.23039,-0.35936 0.24695,-0.34725 0.26295,-0.3346 0.27839,-0.32138 0.29327,-0.3076 0.30761,-0.29328 0.32138,-0.27838 0.33459,-0.26295 0.34726,-0.24695 0.35936,-0.23039 0.3709,-0.21328 0.3819,-0.19562 0.39234,-0.17739 0.40221,-0.15861 0.41153,-0.13927 0.4203,-0.11938 0.42851,-0.0989 0.43616,-0.0779 0.44326,-0.0564 0.4498,-0.0342 0.45578,-0.0116 0,0"
       style="fill:#ff9800;fill-opacity:1" />
    <path
       style="opacity:1;fill:#e25947;fill-opacity:0.99607843"
       d="m 396.85039,662.59787 -396.85039,0 0,35.4336 396.85039,0 0,-35.4336 0,0 m -17.71675,17.7168 -0.0108,0.43932 -0.0324,0.43635 -0.0537,0.43264 -0.0747,0.4282 -0.0954,0.42305 -0.11573,0.41716 -0.13581,0.41055 -0.15558,0.40321 -0.17505,0.39515 -0.19423,0.38635 -0.2131,0.37683 -0.23166,0.36659 -0.24995,0.35562 -0.26791,0.34393 -0.28558,0.3315 -0.30295,0.31835 -0.31835,0.30294 -0.33151,0.28558 -0.34392,0.26791 -0.35562,0.24994 -0.3666,0.23167 -0.37683,0.2131 -0.38636,0.19423 -0.39513,0.17505 -0.40321,0.15558 -0.41055,0.1358 -0.41717,0.11573 -0.42304,0.0954 -0.42821,0.0747 -0.43264,0.0537 -0.43635,0.0324 -0.43931,0.0108 -0.43926,-0.0109 -0.43628,-0.0325 -0.43257,-0.0538 -0.42813,-0.0747 -0.42297,-0.0954 -0.41709,-0.11579 -0.41047,-0.13585 -0.40313,-0.15563 -0.39505,-0.17509 -0.38627,-0.19426 -0.37675,-0.21312 -0.36651,-0.23169 -0.35554,-0.24995 -0.34384,-0.26792 -0.33143,-0.28558 -0.31827,-0.30294 -0.30287,-0.31834 -0.28551,-0.33148 -0.26784,-0.3439 -0.24988,-0.35559 -0.2316,-0.36656 -0.21305,-0.37679 -0.19417,-0.38632 -0.17501,-0.3951 -0.15554,-0.40316 -0.13577,-0.4105 -0.1157,-0.41711 -0.0953,-0.42299 -0.0746,-0.42814 -0.0537,-0.43258 -0.0324,-0.43629 -0.0108,-0.43926 0.0116,-0.45579 0.0342,-0.4498 0.0564,-0.44326 0.0779,-0.43617 0.0989,-0.42851 0.11938,-0.42031 0.13927,-0.41154 0.15861,-0.40221 0.17739,-0.39234 0.19561,-0.3819 0.21328,-0.37091 0.23039,-0.35936 0.24695,-0.34726 0.26294,-0.3346 0.27839,-0.32138 0.29328,-0.30761 0.30761,-0.29328 0.32137,-0.27839 0.3346,-0.26295 0.34726,-0.24695 0.35936,-0.2304 0.37091,-0.21328 0.3819,-0.19562 0.39233,-0.17739 0.40221,-0.15861 0.41154,-0.13928 0.4203,-0.11938 0.42851,-0.0989 0.43617,-0.0779 0.44326,-0.0564 0.4498,-0.0343 0.45579,-0.0116 0.43926,0.0108 0.43629,0.0324 0.43258,0.0537 0.42815,0.0747 0.423,0.0953 0.41711,0.1157 0.4105,0.13576 0.40317,0.15554 0.3951,0.17501 0.38631,0.19418 0.37681,0.21304 0.36656,0.23162 0.35559,0.24988 0.34391,0.26784 0.33148,0.28552 0.31834,0.30287 0.30294,0.31828 0.28559,0.33142 0.26791,0.34385 0.24996,0.35554 0.23168,0.36651 0.21313,0.37676 0.19425,0.38628 0.1751,0.39507 0.15562,0.40313 0.13586,0.41047 0.11578,0.41709 0.0954,0.42298 0.0747,0.42814 0.0538,0.43257 0.0325,0.43628 0.0109,0.43927 0,0 m -343.700245,0 -0.0108,0.43926 -0.0324,0.43628 -0.0537,0.43258 -0.0747,0.42815 -0.0953,0.42299 -0.1157,0.41711 -0.13577,0.4105 -0.155539,0.40316 -0.17501,0.3951 -0.194179,0.38631 -0.21304,0.3768 -0.231609,0.36656 -0.24988,0.35559 -0.267839,0.3439 -0.285509,0.33148 -0.302869,0.31834 -0.318279,0.30294 -0.331419,0.28558 -0.34384,0.26791 -0.355539,0.24996 -0.366499,0.23168 -0.376759,0.21313 -0.386269,0.19426 -0.395059,0.17509 -0.403128,0.15562 -0.410469,0.13586 -0.417079,0.11579 -0.422969,0.0954 -0.428139,0.0747 -0.432559,0.0538 -0.436279,0.0325 -0.439258,0.0109 -0.439329,-0.0108 -0.436349,-0.0324 -0.432639,-0.0537 -0.428209,-0.0747 -0.423039,-0.0954 -0.417168,-0.11572 -0.410549,-0.1358 -0.403209,-0.15558 -0.395149,-0.17505 -0.386349,-0.19423 -0.376839,-0.2131 -0.366599,-0.23167 -0.355619,-0.24994 -0.343929,-0.26791 -0.331499,-0.28558 -0.31835,-0.30294 -0.302949,-0.31835 -0.285589,-0.3315 -0.267909,-0.34393 -0.24994,-0.35562 -0.231679,-0.36659 -0.213099,-0.37683 -0.19423,-0.38636 -0.175049,-0.39514 -0.15559,-0.40321 -0.1358,-0.41055 -0.115729,-0.41716 -0.0954,-0.42305 -0.0747,-0.42821 -0.0537,-0.43264 -0.0324,-0.43635 -0.0108,-0.43932 0.0109,-0.43927 0.0325,-0.43628 0.0538,-0.43258 0.0747,-0.42814 0.0954,-0.42297 0.115789,-0.41709 0.13586,-0.41048 0.15562,-0.40313 0.175089,-0.39507 0.19426,-0.38628 0.213129,-0.37675 0.231689,-0.36652 0.24996,-0.35554 0.267919,-0.34385 0.285579,-0.33142 0.302949,-0.31828 0.31834,-0.30287 0.331479,-0.28552 0.343909,-0.26784 0.355589,-0.24988 0.366569,-0.23162 0.376799,-0.21304 0.386319,-0.19418 0.395099,-0.17501 0.403169,-0.15553 0.410509,-0.13577 0.417108,-0.1157 0.422999,-0.0953 0.428149,-0.0747 0.432589,-0.0537 0.436289,-0.0324 0.439269,-0.0108 0.455778,0.0116 0.449809,0.0343 0.443259,0.0564 0.436159,0.0779 0.428509,0.0989 0.420309,0.11938 0.411528,0.13928 0.402219,0.15861 0.392329,0.17739 0.381899,0.19562 0.370909,0.21328 0.359359,0.2304 0.347259,0.24695 0.334589,0.26295 0.32138,0.27839 0.307609,0.29328 0.293279,0.30761 0.278379,0.32138 0.26295,0.3346 0.246949,0.34726 0.230389,0.35936 0.21328,0.37091 0.195619,0.3819 0.17739,0.39234 0.158599,0.40222 0.13927,0.41153 0.11938,0.42031 0.0989,0.42851 0.0779,0.43617 0.0564,0.44326 0.0342,0.4498 0.0116,0.45579 0,0"
       id="path4209"
       inkscape:connector-curvature="0" />
    <rect
       style="opacity:1;fill:#1f5a48;fill-opacity:0.99358975"
       id="rect5460"
       width="1620"
       height="35.433071"
       x="0"
       y="-563.38586" />
    <rect
       y="-634.25195"
       x="0"
       height="70.866142"
       width="1620"
       id="rect5462"
       style="opacity:1;fill:#1f5ab2;fill-opacity:0.99358976" />
    <path
       inkscape:connector-curvature="0"
       id="path5491"
       d="m 396.85039,627.1648 -396.85039,0 0,35.4336 396.85039,0 0,-35.4336 0,0 m -17.71675,17.7168 -0.0108,0.43932 -0.0324,0.43635 -0.0537,0.43264 -0.0747,0.4282 -0.0954,0.42305 -0.11573,0.41716 -0.13581,0.41055 -0.15558,0.40321 -0.17505,0.39515 -0.19423,0.38635 -0.2131,0.37683 -0.23166,0.36659 -0.24995,0.35562 -0.26791,0.34393 -0.28558,0.3315 -0.30295,0.31835 -0.31835,0.30294 -0.33151,0.28558 -0.34392,0.26791 -0.35562,0.24994 -0.3666,0.23167 -0.37683,0.2131 -0.38636,0.19423 -0.39513,0.17505 -0.40321,0.15558 -0.41055,0.1358 -0.41717,0.11573 -0.42304,0.0954 -0.42821,0.0747 -0.43264,0.0537 -0.43635,0.0324 -0.43931,0.0108 -0.43926,-0.0109 -0.43628,-0.0325 -0.43257,-0.0538 -0.42813,-0.0747 -0.42297,-0.0954 -0.41709,-0.11579 -0.41047,-0.13585 -0.40313,-0.15563 -0.39505,-0.17509 -0.38627,-0.19426 -0.37675,-0.21312 -0.36651,-0.23169 -0.35554,-0.24995 -0.34384,-0.26792 -0.33143,-0.28558 -0.31827,-0.30294 -0.30287,-0.31834 -0.28551,-0.33148 -0.26784,-0.3439 -0.24988,-0.35559 -0.2316,-0.36656 -0.21305,-0.37679 -0.19417,-0.38632 -0.17501,-0.3951 -0.15554,-0.40316 -0.13577,-0.4105 -0.1157,-0.41711 -0.0953,-0.42299 -0.0746,-0.42814 -0.0537,-0.43258 -0.0324,-0.43629 -0.0108,-0.43926 0.0116,-0.45579 0.0342,-0.4498 0.0564,-0.44326 0.0779,-0.43617 0.0989,-0.42851 0.11938,-0.42031 0.13927,-0.41154 0.15861,-0.40221 0.17739,-0.39234 0.19561,-0.3819 0.21328,-0.37091 0.23039,-0.35936 0.24695,-0.34726 0.26294,-0.3346 0.27839,-0.32138 0.29328,-0.30761 0.30761,-0.29328 0.32137,-0.27839 0.3346,-0.26295 0.34726,-0.24695 0.35936,-0.2304 0.37091,-0.21328 0.3819,-0.19562 0.39233,-0.17739 0.40221,-0.15861 0.41154,-0.13928 0.4203,-0.11938 0.42851,-0.0989 0.43617,-0.0779 0.44326,-0.0564 0.4498,-0.0343 0.45579,-0.0116 0.43926,0.0108 0.43629,0.0324 0.43258,0.0537 0.42815,0.0747 0.423,0.0953 0.41711,0.1157 0.4105,0.13576 0.40317,0.15554 0.3951,0.17501 0.38631,0.19418 0.37681,0.21304 0.36656,0.23162 0.35559,0.24988 0.34391,0.26784 0.33148,0.28552 0.31834,0.30287 0.30294,0.31828 0.28559,0.33142 0.26791,0.34385 0.24996,0.35554 0.23168,0.36651 0.21313,0.37676 0.19425,0.38628 0.1751,0.39507 0.15562,0.40313 0.13586,0.41047 0.11578,0.41709 0.0954,0.42298 0.0747,0.42814 0.0538,0.43257 0.0325,0.43628 0.0109,0.43927 0,0 m -343.700245,0 -0.0108,0.43926 -0.0324,0.43628 -0.0537,0.43258 -0.0747,0.42815 -0.0953,0.42299 -0.1157,0.41711 -0.13577,0.4105 -0.155539,0.40316 -0.17501,0.3951 -0.194179,0.38631 -0.21304,0.3768 -0.231609,0.36656 -0.24988,0.35559 -0.267839,0.3439 -0.285509,0.33148 -0.302869,0.31834 -0.318279,0.30294 -0.331419,0.28558 -0.34384,0.26791 -0.355539,0.24996 -0.366499,0.23168 -0.376759,0.21313 -0.386269,0.19426 -0.395059,0.17509 -0.403128,0.15562 -0.410469,0.13586 -0.417079,0.11579 -0.422969,0.0954 -0.428139,0.0747 -0.432559,0.0538 -0.436279,0.0325 -0.439258,0.0109 -0.439329,-0.0108 -0.436349,-0.0324 -0.432639,-0.0537 -0.428209,-0.0747 -0.423039,-0.0954 -0.417168,-0.11572 -0.410549,-0.1358 -0.403209,-0.15558 -0.395149,-0.17505 -0.386349,-0.19423 -0.376839,-0.2131 -0.366599,-0.23167 -0.355619,-0.24994 -0.343929,-0.26791 -0.331499,-0.28558 -0.31835,-0.30294 -0.302949,-0.31835 -0.285589,-0.3315 -0.267909,-0.34393 -0.24994,-0.35562 -0.231679,-0.36659 -0.213099,-0.37683 -0.19423,-0.38636 -0.175049,-0.39514 -0.15559,-0.40321 -0.1358,-0.41055 -0.115729,-0.41716 -0.0954,-0.42305 -0.0747,-0.42821 -0.0537,-0.43264 -0.0324,-0.43635 -0.0108,-0.43932 0.0109,-0.43927 0.0325,-0.43628 0.0538,-0.43258 0.0747,-0.42814 0.0954,-0.42297 0.115789,-0.41709 0.13586,-0.41048 0.15562,-0.40313 0.175089,-0.39507 0.19426,-0.38628 0.213129,-0.37675 0.231689,-0.36652 0.24996,-0.35554 0.267919,-0.34385 0.285579,-0.33142 0.302949,-0.31828 0.31834,-0.30287 0.331479,-0.28552 0.343909,-0.26784 0.355589,-0.24988 0.366569,-0.23162 0.376799,-0.21304 0.386319,-0.19418 0.395099,-0.17501 0.403169,-0.15553 0.410509,-0.13577 0.417108,-0.1157 0.422999,-0.0953 0.428149,-0.0747 0.432589,-0.0537 0.436289,-0.0324 0.439269,-0.0108 0.455778,0.0116 0.449809,0.0343 0.443259,0.0564 0.436159,0.0779 0.428509,0.0989 0.420309,0.11938 0.411528,0.13928 0.402219,0.15861 0.392329,0.17739 0.381899,0.19562 0.370909,0.21328 0.359359,0.2304 0.347259,0.24695 0.334589,0.26295 0.32138,0.27839 0.307609,0.29328 0.293279,0.30761 0.278379,0.32138 0.26295,0.3346 0.246949,0.34726 0.230389,0.35936 0.21328,0.37091 0.195619,0.3819 0.17739,0.39234 0.158599,0.40222 0.13927,0.41153 0.11938,0.42031 0.0989,0.42851 0.0779,0.43617 0.0564,0.44326 0.0342,0.4498 0.0116,0.45579 0,0"
       style="opacity:1;fill:#e25947;fill-opacity:0.99607843" />
  </g>
</svg>
