<?xml version="1.0" encoding="UTF-8" standalone="no"?>
<!-- Created with Inkscape (http://www.inkscape.org/) -->

<svg
   xmlns:dc="http://purl.org/dc/elements/1.1/"
   xmlns:cc="http://creativecommons.org/ns#"
   xmlns:rdf="http://www.w3.org/1999/02/22-rdf-syntax-ns#"
   xmlns:svg="http://www.w3.org/2000/svg"
   xmlns="http://www.w3.org/2000/svg"
   xmlns:sodipodi="http://sodipodi.sourceforge.net/DTD/sodipodi-0.dtd"
   xmlns:inkscape="http://www.inkscape.org/namespaces/inkscape"
   width="210mm"
   height="297mm"
   viewBox="0 0 744.09448819 1052.3622047"
   id="svg2"
   version="1.1"
   inkscape:version="0.91 r13725"
   sodipodi:docname="neveragain.svg">
  <sodipodi:namedview
     id="base"
     pagecolor="#ffffff"
     bordercolor="#666666"
     borderopacity="1.0"
     inkscape:pageopacity="0.0"
     inkscape:pageshadow="2"
     inkscape:zoom="1.979899"
     inkscape:cx="405.84145"
     inkscape:cy="520"
     inkscape:document-units="px"
     inkscape:current-layer="layer1"
     showgrid="true"
     inkscape:window-width="1440"
     inkscape:window-height="851"
     inkscape:window-x="0"
     inkscape:window-y="1"
     inkscape:window-maximized="1"
     showguides="true"
     inkscape:guide-bbox="true">
    <inkscape:grid
       id="grid3344"
       type="xygrid" />
  </sodipodi:namedview>
  <defs
     id="defs4" />
  <metadata
     id="metadata7">
    <rdf:RDF>
      <cc:Work
         rdf:about="">
        <dc:format>image/svg+xml</dc:format>
        <dc:type
           rdf:resource="http://purl.org/dc/dcmitype/StillImage" />
        <dc:title />
      </cc:Work>
    </rdf:RDF>
  </metadata>
  <g
     id="layer1"
     inkscape:groupmode="layer"
     inkscape:label="Layer 1">
    <flowRoot
       style="fill:black;stroke:none;stroke-opacity:1;stroke-width:1px;stroke-linejoin:miter;stroke-linecap:butt;fill-opacity:1;font-family:sans-serif;font-style:normal;font-weight:normal;font-size:90px;line-height:125%;letter-spacing:0px;word-spacing:0px;"
       id="flowRoot3336"
       xml:space="preserve"><flowRegion
         id="flowRegion3338"><rect
           style="font-size:90px;"
           y="352.36221"
           x="11.428572"
           height="335.71429"
           width="710"
           id="rect3340" /></flowRegion><flowPara
         id="flowPara3342" /></flowRoot>    <path
       d="M86.010746 534.19598L73.22266 534.19598L69.531254 548.87372L82.40723 548.87372L86.010746 534.19598L86.010746 534.19598M79.418949 509.1911L74.848637 527.42841L87.680668 527.42841L92.294926 509.1911L99.326176 509.1911L94.799809 527.42841L108.51075 527.42841L108.51075 534.19598L93.085941 534.19598L89.482426 548.87372L103.45704 548.87372L103.45704 555.59735L87.768559 555.59735L83.198246 573.79071L76.166996 573.79071L80.693363 555.59735L67.817387 555.59735L63.291019 573.79071L56.215824 573.79071L60.786137 555.59735L46.943363 555.59735L46.943363 548.87372L62.412113 548.87372L66.103519 534.19598L51.953129 534.19598L51.953129 527.42841L67.817387 527.42841L72.299809 509.1911L79.418949 509.1911L79.418949 509.1911"
       style="font-style:normal;font-weight:normal;font-size:medium;line-height:125%;font-family:sans-serif;letter-spacing:0px;word-spacing:0px;fill:#000000;fill-opacity:1;stroke:none;stroke-width:1px;stroke-linecap:butt;stroke-linejoin:miter;stroke-opacity:1"
       id="path3475"
       inkscape:connector-curvature="0" />
    <path
       d="M124.06739 508.18036L136.02051 508.18036L165.11231 563.06805L165.11231 508.18036L173.72559 508.18036L173.72559 573.79071L161.77246 573.79071L132.68067 518.90302L132.68067 573.79071L124.06739 573.79071L124.06739 508.18036L124.06739 508.18036"
       style="font-style:normal;font-weight:normal;font-size:medium;line-height:125%;font-family:sans-serif;letter-spacing:0px;word-spacing:0px;fill:#000000;fill-opacity:1;stroke:none;stroke-width:1px;stroke-linecap:butt;stroke-linejoin:miter;stroke-opacity:1"
       id="path3477"
       inkscape:connector-curvature="0" />
    <path
       d="M191.39161 517.11327L228.14986 517.11327L228.14986 523.5862L199.25725 523.5862L199.25725 540.41585L226.94276 540.41585L226.94276 546.88879L199.25725 546.88879L199.25725 567.48798L228.85077 567.48798L228.85077 573.96092L191.39161 573.96092L191.39161 517.11327L191.39161 517.11327"
       style="font-style:normal;font-weight:normal;font-size:medium;line-height:125%;font-family:sans-serif;letter-spacing:0px;word-spacing:0px;fill:#000000;fill-opacity:1;stroke:none;stroke-width:1px;stroke-linecap:butt;stroke-linejoin:miter;stroke-opacity:1"
       id="path3479"
       inkscape:connector-curvature="0" />
    <path
       d="M256.69203 573.96092L234.49689 517.11327L242.71298 517.11327L261.13105 564.97495L279.58806 517.11327L287.76521 517.11327L265.60902 573.96092L256.69203 573.96092L256.69203 573.96092"
       style="font-style:normal;font-weight:normal;font-size:medium;line-height:125%;font-family:sans-serif;letter-spacing:0px;word-spacing:0px;fill:#000000;fill-opacity:1;stroke:none;stroke-width:1px;stroke-linecap:butt;stroke-linejoin:miter;stroke-opacity:1"
       id="path3481"
       inkscape:connector-curvature="0" />
    <path
       d="M296.21494 517.11327L332.9732 517.11327L332.9732 523.5862L304.08059 523.5862L304.08059 540.41585L331.76609 540.41585L331.76609 546.88879L304.08059 546.88879L304.08059 567.48798L333.6741 567.48798L333.6741 573.96092L296.21494 573.96092L296.21494 517.11327L296.21494 517.11327"
       style="font-style:normal;font-weight:normal;font-size:medium;line-height:125%;font-family:sans-serif;letter-spacing:0px;word-spacing:0px;fill:#000000;fill-opacity:1;stroke:none;stroke-width:1px;stroke-linecap:butt;stroke-linejoin:miter;stroke-opacity:1"
       id="path3483"
       inkscape:connector-curvature="0" />
    <path
       inkscape:connector-curvature="0"
       id="path3485"
       d="M346.52476 517.11268L346.52476 573.96118L354.39042 573.96118L354.39042 549.9343L354.40422 549.9343L354.40422 543.61366L354.39042 543.61366L354.39042 523.43332L364.28088 523.43332L366.948191406 523.592895469L369.26505125 524.07151625L371.231460469 524.869023906L372.84742 525.98526L374.124965 527.396330625L375.0372975 529.1166075L375.58457875 531.146248125L375.76697 533.48541L375.58457875 535.829610469L375.0372975 537.87411375L374.124965 539.618765156L372.84742 541.06341L371.231460469 542.17938625L369.26505125 542.9763125L366.948191406 543.45435L364.28088 543.61366L361.38382 543.61366L361.38382 549.9343L362.95695 549.9343L365.169033281 550.051040781L367.13271375 550.40115625L368.848157344 550.984486094L370.31553 551.80087L371.688121719 552.973962656L373.08018625 554.62760375L374.491722656 556.761955469L375.92273 559.37718L383.3609 573.96118L391.80976 573.96118L383.82817 558.42612L381.41396 554.1425575L380.206854063 552.386295937L378.99975 550.88705L377.802382344 549.6353L376.58554375 548.621525L375.349233281 547.845725L374.09345 547.3079L376.381115313 546.486748125L378.3767325 545.394145L380.080303438 544.030251875L381.49183 542.39523L382.616194688 540.510457031L383.41931 538.39723125L383.901177813 536.055549844L384.0618 533.48541L383.985139219 531.494187676L383.755156875 529.632720156L383.371852969 527.900987871L382.8352275 526.29897125L382.145280469 524.826650723L381.302011875 523.484006719L380.305421719 522.271019668L379.15551 521.18767L377.849842969 520.232757871L376.385986875 519.405102344L374.763941719 518.704723457L372.9837075 518.13164125L371.045284219 517.685875762L368.948671875 517.367447031L364.28088 517.11268L346.52476 517.11268L346.52476 517.11268"
       style="font-style:normal;font-weight:normal;font-size:medium;line-height:125%;font-family:sans-serif;letter-spacing:0px;word-spacing:0px;fill:#000000;fill-opacity:1;stroke:none;stroke-width:1px;stroke-linecap:butt;stroke-linejoin:miter;stroke-opacity:1" />
    <path
       id="path3487"
       d="M442.36328 508.17969L417.31445 573.79102L426.67578 573.79102L432.65234 556.95898L435.86523 556.95898L435.86523 549.57617L435.33203 549.57617L435.86523 548.13086L435.86523 547.875L435.95898 547.875L447.37305 516.92578L459.45898 549.57617L441.86523 549.57617L441.86523 556.95898L462.22656 556.95898L468.20312 573.79102L477.43164 573.79102L452.42773 508.17969L442.36328 508.17969L442.36328 508.17969"
       style="font-style:normal;font-weight:normal;font-size:medium;line-height:125%;font-family:sans-serif;letter-spacing:0px;word-spacing:0px;fill:#000000;fill-opacity:1;stroke:none;stroke-width:1px;stroke-linecap:butt;stroke-linejoin:miter;stroke-opacity:1" />
    <path
       d="M518.08373 565.8507L518.08373 550.58218L505.43316 550.58218L505.43316 544.26154L525.75075 544.26154L525.75075 568.66833L523.450643125 570.1533L521.0355325 571.44789L518.505418125 572.5521L515.8603 573.46593L513.112156875 574.165575625L510.2729675 574.6653225L507.342731875 574.965170625L504.32145 575.06512L501.058178281 574.943752344L497.976998125 574.579649375L495.077909531 573.972811094L492.3609125 573.1232375L489.826007031 572.030928594L487.473193125 570.695884375L485.302470781 569.118104844L483.31384 567.29759L481.543837656 565.250999531L480.009835625 563.014028125L478.711833906 560.586675781L477.6498325 557.9689425L476.823831406 555.160828281L476.233830625 552.162333125L475.879830156 548.973457031L475.76183 545.5942L475.879830156 542.206615156L476.233830625 539.011790625L476.823831406 536.009726406L477.6498325 533.2004225L478.711833906 530.583878906L480.009835625 528.160095625L481.543837656 525.929072656L483.31384 523.89081L485.302470781 522.0613725L487.473193125 520.47586L489.826007031 519.1342725L492.3609125 518.03661L495.077909531 517.1828725L497.976998125 516.57306L501.058178281 516.2071725L504.32145 516.08521L507.083970625 516.17088125L509.7746125 516.427895L512.393375625 516.85625125L514.94026 517.45595L517.420059375 518.222231875L519.7992275 519.1503375L522.077764375 520.240266875L524.25567 521.49202L524.25567 529.67838L522.0753625 527.9816175L519.82797 526.50855L517.5134925 525.2591775L515.13193 524.2335L512.685676875 523.433903125L510.1771275 522.8627625L507.606281875 522.520078125L504.97314 522.40585L502.428651875 522.496875625L500.0470875 522.7699525L497.828446875 523.225080625L495.77273 523.86226L493.879936875 524.681490625L492.1500675 525.6827725L490.583121875 526.866105625L489.1791 528.23149L487.948183594 529.777143281L486.881389375 531.501278125L485.978717344 533.403894531L485.2401675 535.4849925L484.665739844 537.744572031L484.255434375 540.182633125L484.009251094 542.799175781L483.92719 545.5942L484.009251094 548.38030375L484.255434375 550.989115L484.665739844 553.42063375L485.2401675 555.67486L485.978717344 557.75179375L486.881389375 559.651435L487.948183594 561.37378375L489.1791 562.91884L490.583121875 564.284226719L492.1500675 565.467561875L493.879936875 566.468845469L495.77273 567.2880775L497.828446875 567.925257969L500.0470875 568.380386875L502.428651875 568.653464219L504.97314 568.74449L508.85457 568.5731475L512.29514 568.05912L515.3523575 567.14529L518.08373 565.8507L518.08373 565.8507"
       style="font-style:normal;font-weight:normal;font-size:medium;line-height:125%;font-family:sans-serif;letter-spacing:0px;word-spacing:0px;fill:#000000;fill-opacity:1;stroke:none;stroke-width:1px;stroke-linecap:butt;stroke-linejoin:miter;stroke-opacity:1"
       id="path3489"
       inkscape:connector-curvature="0" />
    <path
       inkscape:connector-curvature="0"
       id="path3491"
       d="M554.77037 517.11268L532.9194 573.96118L541.08561 573.96118L546.29747 559.37718L548.74411 559.37718L548.74411 552.98039L548.63676 552.98039L559.14057 524.69068L569.68185 552.98039L553.97811 552.98039L553.97811 559.37718L572.09783 559.37718L577.31139 573.96118L585.36174 573.96118L563.54824 517.11268L554.77037 517.11268L554.77037 517.11268"
       style="font-style:normal;font-weight:normal;font-size:medium;line-height:125%;font-family:sans-serif;letter-spacing:0px;word-spacing:0px;fill:#000000;fill-opacity:1;stroke:none;stroke-width:1px;stroke-linecap:butt;stroke-linejoin:miter;stroke-opacity:1" />
    <path
       d="M593.68046 517.11327L601.42413 517.11327L601.42413 573.96092L593.68046 573.96092L593.68046 517.11327L593.68046 517.11327"
       style="font-style:normal;font-weight:normal;font-size:medium;line-height:125%;font-family:sans-serif;letter-spacing:0px;word-spacing:0px;fill:#000000;fill-opacity:1;stroke:none;stroke-width:1px;stroke-linecap:butt;stroke-linejoin:miter;stroke-opacity:1"
       id="path3493"
       inkscape:connector-curvature="0" />
    <path
       d="M616.83483 517.11327L627.26196 517.11327L652.63977 564.67034L652.63977 517.11327L660.15344 517.11327L660.15344 573.96092L649.72631 573.96092L624.34851 526.40384L624.34851 573.96092L616.83483 573.96092L616.83483 517.11327L616.83483 517.11327"
       style="font-style:normal;font-weight:normal;font-size:medium;line-height:125%;font-family:sans-serif;letter-spacing:0px;word-spacing:0px;fill:#000000;fill-opacity:1;stroke:none;stroke-width:1px;stroke-linecap:butt;stroke-linejoin:miter;stroke-opacity:1"
       id="path3495"
       inkscape:connector-curvature="0" />
  </g>
</svg>
