  0
SECTION
  2
HEADER
  9
$ACADVER
  1
AC1014
  9
$HANDSEED
  5
FFFF
  9
$MEASUREMENT
 70
     1
  0
ENDSEC
  0
SECTION
  2
TABLES
  0
TABLE
  2
VPORT
  5
8
330
0
100
AcDbSymbolTable
 70
     4
  0
VPORT
  5
2E
330
8
100
AcDbSymbolTableRecord
100
AcDbViewportTableRecord
  2
*ACTIVE
 70
     0
 10
0.0
 20
0.0
 11
1.0
 21
1.0
 12
210.0
 22
148.5
 13
0.0
 23
0.0
 14
10.0
 24
10.0
 15
10.0
 25
10.0
 16
0.0
 26
0.0
 36
1.0
 17
0.0
 27
0.0
 37
0.0
 40
341.0
 41
1.24
 42
50.0
 43
0.0
 44
0.0
 50
0.0
 51
0.0
 71
     0
 72
   100
 73
     1
 74
     3
 75
     0
 76
     0
 77
     0
 78
     0
  0
ENDTAB
  0
TABLE
  2
LTYPE
  5
5
330
0
100
AcDbSymbolTable
 70
     1
  0
LTYPE
  5
14
330
5
100
AcDbSymbolTableRecord
100
AcDbLinetypeTableRecord
  2
BYBLOCK
 70
     0
  3

 72
    65
 73
     0
 40
0.0
  0
LTYPE
  5
15
330
5
100
AcDbSymbolTableRecord
100
AcDbLinetypeTableRecord
  2
BYLAYER
 70
     0
  3

 72
    65
 73
     0
 40
0.0
  0
LTYPE
  5
16
330
5
100
AcDbSymbolTableRecord
100
AcDbLinetypeTableRecord
  2
CONTINUOUS
 70
     0
  3
Solid line
 72
    65
 73
     0
 40
0.0
  0
ENDTAB
  0
TABLE
  2
LAYER
  5
2
100
AcDbSymbolTable
 70
2
  0
LAYER
  5
50
100
AcDbSymbolTableRecord
100
AcDbLayerTableRecord
  2
0
 70
0
  6
CONTINUOUS
  0
LAYER
  5
51
100
AcDbSymbolTableRecord
100
AcDbLayerTableRecord
  2
Layer_1
 70
0
  6
CONTINUOUS
  0
ENDTAB
  0
TABLE
  2
STYLE
  5
3
330
0
100
AcDbSymbolTable
 70
     1
  0
STYLE
  5
11
330
3
100
AcDbSymbolTableRecord
100
AcDbTextStyleTableRecord
  2
STANDARD
 70
     0
 40
0.0
 41
1.0
 50
0.0
 71
     0
 42
2.5
  3
txt
  4

  0
ENDTAB
  0
TABLE
  2
VIEW
  5
6
330
0
100
AcDbSymbolTable
 70
     0
  0
ENDTAB
  0
TABLE
  2
UCS
  5
7
330
0
100
AcDbSymbolTable
 70
     0
  0
ENDTAB
  0
TABLE
  2
APPID
  5
9
330
0
100
AcDbSymbolTable
 70
     2
  0
APPID
  5
12
330
9
100
AcDbSymbolTableRecord
100
AcDbRegAppTableRecord
  2
ACAD
 70
     0
  0
ENDTAB
  0
TABLE
  2
DIMSTYLE
  5
A
330
0
100
AcDbSymbolTable
 70
     1
  0
DIMSTYLE
105
27
330
A
100
AcDbSymbolTableRecord
100
AcDbDimStyleTableRecord
  2
ISO-25
 70
     0
  3

  4

  5

  6

  7

 40
1.0
 41
2.5
 42
0.625
 43
3.75
 44
1.25
 45
0.0
 46
0.0
 47
0.0
 48
0.0
140
2.5
141
2.5
142
0.0
143
0.03937007874016
144
1.0
145
0.0
146
1.0
147
0.625
 71
     0
 72
     0
 73
     0
 74
     0
 75
     0
 76
     0
 77
     1
 78
     8
170
     0
171
     3
172
     1
173
     0
174
     0
175
     0
176
     0
177
     0
178
     0
270
     2
271
     2
272
     2
273
     2
274
     3
340
11
275
     0
280
     0
281
     0
282
     0
283
     0
284
     8
285
     0
286
     0
287
     3
288
     0
  0
ENDTAB
  0
TABLE
  2
BLOCK_RECORD
  5
1
330
0
100
AcDbSymbolTable
 70
     1
  0
BLOCK_RECORD
  5
1F
330
1
100
AcDbSymbolTableRecord
100
AcDbBlockTableRecord
  2
*MODEL_SPACE
  0
BLOCK_RECORD
  5
1B
330
1
100
AcDbSymbolTableRecord
100
AcDbBlockTableRecord
  2
*PAPER_SPACE
  0
ENDTAB
  0
ENDSEC
  0
SECTION
  2
BLOCKS
  0
BLOCK
  5
20
330
1F
100
AcDbEntity
  8
0
100
AcDbBlockBegin
  2
*MODEL_SPACE
 70
     0
 10
0.0
 20
0.0
 30
0.0
  3
*MODEL_SPACE
  1

  0
ENDBLK
  5
21
330
1F
100
AcDbEntity
  8
0
100
AcDbBlockEnd
  0
BLOCK
  5
1C
330
1B
100
AcDbEntity
 67
     1
  8
0
100
AcDbBlockBegin
  2
*PAPER_SPACE
  1

  0
ENDBLK
  5
1D
330
1B
100
AcDbEntity
 67
     1
  8
0
100
AcDbBlockEnd
  0
ENDSEC
  0
SECTION
  2
ENTITIES
  0
LWPOLYLINE
  5
100
100
AcDbEntity
  8
Layer_1
 62
7
100
AcDbPolyline
 90
38
 70
0
 10
20.404887
 20
153.294869
 30
0.0
 10
19.139848
 20
148.148174
 30
0.0
 10
14.662326
 20
148.148174
 30
0.0
 10
14.662326
 20
146.238213
 30
0.0
 10
18.655881
 20
146.238213
 30
0.0
 10
17.614084
 20
142.095828
 30
0.0
 10
13.248459
 20
142.095828
 30
0.0
 10
13.248459
 20
140.197994
 30
0.0
 10
17.155473
 20
140.197994
 30
0.0
 10
15.865629
 20
135.063423
 30
0.0
 10
17.862131
 20
135.063423
 30
0.0
 10
19.139848
 20
140.197994
 30
0.0
 10
22.773459
 20
140.197994
 30
0.0
 10
21.496293
 20
135.063423
 30
0.0
 10
23.480668
 20
135.063423
 30
0.0
 10
24.770512
 20
140.197994
 30
0.0
 10
29.197873
 20
140.197994
 30
0.0
 10
29.197873
 20
142.095828
 30
0.0
 10
25.253928
 20
142.095828
 30
0.0
 10
25.267157
 20
142.150399
 30
0.0
 10
23.270655
 20
142.150399
 30
0.0
 10
23.257426
 20
142.095828
 30
0.0
 10
19.623264
 20
142.095828
 30
0.0
 10
20.665061
 20
146.238213
 30
0.0
 10
24.274418
 20
146.238213
 30
0.0
 10
23.686823
 20
143.843732
 30
0.0
 10
25.683325
 20
143.843732
 30
0.0
 10
26.270920
 20
146.238213
 30
0.0
 10
30.624419
 20
146.238213
 30
0.0
 10
30.624419
 20
148.148174
 30
0.0
 10
26.754887
 20
148.148174
 30
0.0
 10
28.032053
 20
153.294869
 30
0.0
 10
26.047678
 20
153.294869
 30
0.0
 10
24.745708
 20
148.148174
 30
0.0
 10
21.124223
 20
148.148174
 30
0.0
 10
22.414067
 20
153.294869
 30
0.0
 10
20.404887
 20
153.294869
 30
0.0
 10
20.404887
 20
153.294869
 30
0.0
  0
LWPOLYLINE
  5
101
100
AcDbEntity
  8
Layer_1
 62
7
100
AcDbPolyline
 90
12
 70
0
 10
35.014575
 20
153.580210
 30
0.0
 10
38.388011
 20
153.580210
 30
0.0
 10
46.598363
 20
138.089684
 30
0.0
 10
46.598363
 20
153.580210
 30
0.0
 10
49.029222
 20
153.580210
 30
0.0
 10
49.029222
 20
135.063511
 30
0.0
 10
45.655783
 20
135.063511
 30
0.0
 10
37.445434
 20
150.554037
 30
0.0
 10
37.445434
 20
135.063511
 30
0.0
 10
35.014575
 20
135.063511
 30
0.0
 10
35.014575
 20
153.580210
 30
0.0
 10
35.014575
 20
153.580210
 30
0.0
  0
LWPOLYLINE
  5
102
100
AcDbEntity
  8
Layer_1
 62
7
100
AcDbPolyline
 90
14
 70
0
 10
54.014965
 20
151.059144
 30
0.0
 10
64.388960
 20
151.059144
 30
0.0
 10
64.388960
 20
149.232339
 30
0.0
 10
56.234824
 20
149.232339
 30
0.0
 10
56.234824
 20
144.482638
 30
0.0
 10
64.048290
 20
144.482638
 30
0.0
 10
64.048290
 20
142.655830
 30
0.0
 10
56.234824
 20
142.655830
 30
0.0
 10
56.234824
 20
136.842281
 30
0.0
 10
64.586773
 20
136.842281
 30
0.0
 10
64.586773
 20
135.015474
 30
0.0
 10
54.014965
 20
135.015474
 30
0.0
 10
54.014965
 20
151.059144
 30
0.0
 10
54.014965
 20
151.059144
 30
0.0
  0
LWPOLYLINE
  5
103
100
AcDbEntity
  8
Layer_1
 62
7
100
AcDbPolyline
 90
9
 70
0
 10
72.444195
 20
135.015474
 30
0.0
 10
66.180233
 20
151.059144
 30
0.0
 10
68.498997
 20
151.059144
 30
0.0
 10
73.696985
 20
137.551514
 30
0.0
 10
78.905964
 20
151.059144
 30
0.0
 10
81.213737
 20
151.059144
 30
0.0
 10
74.960768
 20
135.015474
 30
0.0
 10
72.444195
 20
135.015474
 30
0.0
 10
72.444195
 20
135.015474
 30
0.0
  0
LWPOLYLINE
  5
104
100
AcDbEntity
  8
Layer_1
 62
7
100
AcDbPolyline
 90
14
 70
0
 10
83.598439
 20
151.059144
 30
0.0
 10
93.972436
 20
151.059144
 30
0.0
 10
93.972436
 20
149.232339
 30
0.0
 10
85.818300
 20
149.232339
 30
0.0
 10
85.818300
 20
144.482638
 30
0.0
 10
93.631763
 20
144.482638
 30
0.0
 10
93.631763
 20
142.655830
 30
0.0
 10
85.818300
 20
142.655830
 30
0.0
 10
85.818300
 20
136.842281
 30
0.0
 10
94.170246
 20
136.842281
 30
0.0
 10
94.170246
 20
135.015474
 30
0.0
 10
83.598439
 20
135.015474
 30
0.0
 10
83.598439
 20
151.059144
 30
0.0
 10
83.598439
 20
151.059144
 30
0.0
  0
LWPOLYLINE
  5
105
100
AcDbEntity
  8
Layer_1
 62
7
100
AcDbPolyline
 90
71
 70
0
 10
97.796988
 20
151.059310
 30
0.0
 10
97.796988
 20
135.015400
 30
0.0
 10
100.016852
 20
135.015400
 30
0.0
 10
100.016852
 20
141.796320
 30
0.0
 10
100.020747
 20
141.796320
 30
0.0
 10
100.020747
 20
143.580145
 30
0.0
 10
100.016852
 20
143.580145
 30
0.0
 10
100.016852
 20
149.275485
 30
0.0
 10
102.808159
 20
149.275485
 30
0.0
 10
103.560934
 20
149.230449
 30
0.0
 10
104.214803
 20
149.095372
 30
0.0
 10
104.769768
 20
148.870298
 30
0.0
 10
105.225827
 20
148.555271
 30
0.0
 10
105.586379
 20
148.157036
 30
0.0
 10
105.843860
 20
147.671535
 30
0.0
 10
105.998314
 20
147.098726
 30
0.0
 10
106.049789
 20
146.438562
 30
0.0
 10
105.998314
 20
145.776977
 30
0.0
 10
105.843860
 20
145.199972
 30
0.0
 10
105.586379
 20
144.707593
 30
0.0
 10
105.225827
 20
144.299882
 30
0.0
 10
104.769768
 20
143.984929
 30
0.0
 10
104.214803
 20
143.760018
 30
0.0
 10
103.560934
 20
143.625106
 30
0.0
 10
102.808159
 20
143.580145
 30
0.0
 10
101.990545
 20
143.580145
 30
0.0
 10
101.990545
 20
141.796320
 30
0.0
 10
102.434517
 20
141.796320
 30
0.0
 10
103.058816
 20
141.763373
 30
0.0
 10
103.613010
 20
141.664563
 30
0.0
 10
104.097147
 20
141.499934
 30
0.0
 10
104.511272
 20
141.269532
 30
0.0
 10
104.898648
 20
140.938459
 30
0.0
 10
105.291519
 20
140.471765
 30
0.0
 10
105.689886
 20
139.869404
 30
0.0
 10
106.093748
 20
139.131329
 30
0.0
 10
108.192965
 20
135.015400
 30
0.0
 10
110.577421
 20
135.015400
 30
0.0
 10
108.324839
 20
139.399739
 30
0.0
 10
107.643495
 20
140.608656
 30
0.0
 10
107.302823
 20
141.104312
 30
0.0
 10
106.962152
 20
141.527433
 30
0.0
 10
106.624228
 20
141.880704
 30
0.0
 10
106.280809
 20
142.166814
 30
0.0
 10
105.931895
 20
142.385762
 30
0.0
 10
105.577485
 20
142.537548
 30
0.0
 10
106.223115
 20
142.769296
 30
0.0
 10
106.786322
 20
143.077652
 30
0.0
 10
107.267108
 20
143.462573
 30
0.0
 10
107.665472
 20
143.924013
 30
0.0
 10
107.982793
 20
144.455938
 30
0.0
 10
108.209450
 20
145.052337
 30
0.0
 10
108.345444
 20
145.713211
 30
0.0
 10
108.390775
 20
146.438562
 30
0.0
 10
108.369139
 20
147.000529
 30
0.0
 10
108.304233
 20
147.525877
 30
0.0
 10
108.196056
 20
148.014610
 30
0.0
 10
108.044609
 20
148.466735
 30
0.0
 10
107.849890
 20
148.882256
 30
0.0
 10
107.611901
 20
149.261180
 30
0.0
 10
107.330641
 20
149.603512
 30
0.0
 10
107.006111
 20
149.909258
 30
0.0
 10
106.637622
 20
150.178755
 30
0.0
 10
106.224490
 20
150.412338
 30
0.0
 10
105.766712
 20
150.610000
 30
0.0
 10
105.264291
 20
150.771737
 30
0.0
 10
104.717225
 20
150.897542
 30
0.0
 10
104.125514
 20
150.987409
 30
0.0
 10
102.808159
 20
151.059310
 30
0.0
 10
97.796988
 20
151.059310
 30
0.0
 10
97.796988
 20
151.059310
 30
0.0
  0
LWPOLYLINE
  5
106
100
AcDbEntity
  8
Layer_1
 62
7
100
AcDbPolyline
 90
20
 70
0
 10
124.844748
 20
153.580399
 30
0.0
 10
117.775411
 20
135.063423
 30
0.0
 10
120.417387
 20
135.063423
 30
0.0
 10
122.104105
 20
139.813799
 30
0.0
 10
123.010854
 20
139.813799
 30
0.0
 10
123.010854
 20
141.897392
 30
0.0
 10
122.860373
 20
141.897392
 30
0.0
 10
123.010854
 20
142.305291
 30
0.0
 10
123.010854
 20
142.377500
 30
0.0
 10
123.037312
 20
142.377500
 30
0.0
 10
126.258616
 20
151.112058
 30
0.0
 10
129.669534
 20
141.897392
 30
0.0
 10
124.704187
 20
141.897392
 30
0.0
 10
124.704187
 20
139.813799
 30
0.0
 10
130.450607
 20
139.813799
 30
0.0
 10
132.137325
 20
135.063423
 30
0.0
 10
134.741818
 20
135.063423
 30
0.0
 10
127.685159
 20
153.580399
 30
0.0
 10
124.844748
 20
153.580399
 30
0.0
 10
124.844748
 20
153.580399
 30
0.0
  0
LWPOLYLINE
  5
107
100
AcDbEntity
  8
Layer_1
 62
7
100
AcDbPolyline
 90
100
 70
0
 10
146.214742
 20
137.304358
 30
0.0
 10
146.214742
 20
141.613474
 30
0.0
 10
142.644470
 20
141.613474
 30
0.0
 10
142.644470
 20
143.397299
 30
0.0
 10
148.378545
 20
143.397299
 30
0.0
 10
148.378545
 20
136.509160
 30
0.0
 10
147.729404
 20
136.090069
 30
0.0
 10
147.047806
 20
135.724707
 30
0.0
 10
146.333751
 20
135.413074
 30
0.0
 10
145.587240
 20
135.155171
 30
0.0
 10
144.811653
 20
134.957715
 30
0.0
 10
144.010371
 20
134.816676
 30
0.0
 10
143.183393
 20
134.732052
 30
0.0
 10
142.330720
 20
134.703844
 30
0.0
 10
141.409753
 20
134.738097
 30
0.0
 10
140.540175
 20
134.840855
 30
0.0
 10
139.721988
 20
135.012118
 30
0.0
 10
138.955191
 20
135.251886
 30
0.0
 10
138.239784
 20
135.560160
 30
0.0
 10
137.575768
 20
135.936939
 30
0.0
 10
136.963142
 20
136.382224
 30
0.0
 10
136.401906
 20
136.896013
 30
0.0
 10
135.902372
 20
137.473607
 30
0.0
 10
135.469442
 20
138.104930
 30
0.0
 10
135.103118
 20
138.789983
 30
0.0
 10
134.803397
 20
139.528765
 30
0.0
 10
134.570281
 20
140.321277
 30
0.0
 10
134.403770
 20
141.167519
 30
0.0
 10
134.303863
 20
142.067491
 30
0.0
 10
134.270561
 20
143.021192
 30
0.0
 10
134.303863
 20
143.977244
 30
0.0
 10
134.403770
 20
144.878895
 30
0.0
 10
134.570281
 20
145.726144
 30
0.0
 10
134.803397
 20
146.518992
 30
0.0
 10
135.103118
 20
147.257439
 30
0.0
 10
135.469442
 20
147.941484
 30
0.0
 10
135.902372
 20
148.571128
 30
0.0
 10
136.401906
 20
149.146371
 30
0.0
 10
136.963142
 20
149.662679
 30
0.0
 10
137.575768
 20
150.110146
 30
0.0
 10
138.239784
 20
150.488772
 30
0.0
 10
138.955191
 20
150.798557
 30
0.0
 10
139.721988
 20
151.039500
 30
0.0
 10
140.540175
 20
151.211603
 30
0.0
 10
141.409753
 20
151.314865
 30
0.0
 10
142.330720
 20
151.349285
 30
0.0
 10
143.110365
 20
151.325107
 30
0.0
 10
143.869724
 20
151.252572
 30
0.0
 10
144.608797
 20
151.131680
 30
0.0
 10
145.327584
 20
150.962432
 30
0.0
 10
146.027439
 20
150.746170
 30
0.0
 10
146.698893
 20
150.484238
 30
0.0
 10
147.341947
 20
150.176636
 30
0.0
 10
147.956600
 20
149.823363
 30
0.0
 10
147.956600
 20
147.512991
 30
0.0
 10
147.341269
 20
147.991855
 30
0.0
 10
146.707005
 20
148.407587
 30
0.0
 10
146.053808
 20
148.760188
 30
0.0
 10
145.381678
 20
149.049657
 30
0.0
 10
144.691291
 20
149.275321
 30
0.0
 10
143.983323
 20
149.436509
 30
0.0
 10
143.257773
 20
149.533222
 30
0.0
 10
142.514642
 20
149.565460
 30
0.0
 10
141.796531
 20
149.539771
 30
0.0
 10
141.124400
 20
149.462702
 30
0.0
 10
140.498251
 20
149.334255
 30
0.0
 10
139.918082
 20
149.154429
 30
0.0
 10
139.383893
 20
148.923224
 30
0.0
 10
138.895686
 20
148.640640
 30
0.0
 10
138.453459
 20
148.306677
 30
0.0
 10
138.057213
 20
147.921335
 30
0.0
 10
137.709821
 20
147.485117
 30
0.0
 10
137.408748
 20
146.998528
 30
0.0
 10
137.153994
 20
146.461568
 30
0.0
 10
136.945558
 20
145.874235
 30
0.0
 10
136.783442
 20
145.236532
 30
0.0
 10
136.667645
 20
144.548457
 30
0.0
 10
136.598166
 20
143.810010
 30
0.0
 10
136.575007
 20
143.021192
 30
0.0
 10
136.598166
 20
142.234892
 30
0.0
 10
136.667645
 20
141.498628
 30
0.0
 10
136.783442
 20
140.812399
 30
0.0
 10
136.945558
 20
140.176206
 30
0.0
 10
137.153994
 20
139.590049
 30
0.0
 10
137.408748
 20
139.053928
 30
0.0
 10
137.709821
 20
138.567843
 30
0.0
 10
138.057213
 20
138.131794
 30
0.0
 10
138.453459
 20
137.746452
 30
0.0
 10
138.895686
 20
137.412488
 30
0.0
 10
139.383893
 20
137.129904
 30
0.0
 10
139.918082
 20
136.898698
 30
0.0
 10
140.498251
 20
136.718872
 30
0.0
 10
141.124400
 20
136.590424
 30
0.0
 10
141.796531
 20
136.513356
 30
0.0
 10
142.514642
 20
136.487666
 30
0.0
 10
143.610068
 20
136.536023
 30
0.0
 10
144.581073
 20
136.681093
 30
0.0
 10
145.443888
 20
136.938996
 30
0.0
 10
146.214742
 20
137.304358
 30
0.0
 10
146.214742
 20
137.304358
 30
0.0
  0
LWPOLYLINE
  5
108
100
AcDbEntity
  8
Layer_1
 62
7
100
AcDbPolyline
 90
17
 70
0
 10
156.568527
 20
151.059310
 30
0.0
 10
150.401697
 20
135.015400
 30
0.0
 10
152.706383
 20
135.015400
 30
0.0
 10
154.177286
 20
139.131329
 30
0.0
 10
154.867782
 20
139.131329
 30
0.0
 10
154.867782
 20
140.936645
 30
0.0
 10
154.837486
 20
140.936645
 30
0.0
 10
157.801894
 20
148.920630
 30
0.0
 10
160.776878
 20
140.936645
 30
0.0
 10
156.344933
 20
140.936645
 30
0.0
 10
156.344933
 20
139.131329
 30
0.0
 10
161.458721
 20
139.131329
 30
0.0
 10
162.930103
 20
135.015400
 30
0.0
 10
165.202091
 20
135.015400
 30
0.0
 10
159.045837
 20
151.059310
 30
0.0
 10
156.568527
 20
151.059310
 30
0.0
 10
156.568527
 20
151.059310
 30
0.0
  0
LWPOLYLINE
  5
109
100
AcDbEntity
  8
Layer_1
 62
7
100
AcDbPolyline
 90
6
 70
0
 10
167.549819
 20
151.059144
 30
0.0
 10
169.735254
 20
151.059144
 30
0.0
 10
169.735254
 20
135.015474
 30
0.0
 10
167.549819
 20
135.015474
 30
0.0
 10
167.549819
 20
151.059144
 30
0.0
 10
167.549819
 20
151.059144
 30
0.0
  0
LWPOLYLINE
  5
10a
100
AcDbEntity
  8
Layer_1
 62
7
100
AcDbPolyline
 90
12
 70
0
 10
174.084496
 20
151.059144
 30
0.0
 10
177.027264
 20
151.059144
 30
0.0
 10
184.189446
 20
137.637482
 30
0.0
 10
184.189446
 20
151.059144
 30
0.0
 10
186.309971
 20
151.059144
 30
0.0
 10
186.309971
 20
135.015474
 30
0.0
 10
183.367203
 20
135.015474
 30
0.0
 10
176.205024
 20
148.437138
 30
0.0
 10
176.205024
 20
135.015474
 30
0.0
 10
174.084496
 20
135.015474
 30
0.0
 10
174.084496
 20
151.059144
 30
0.0
 10
174.084496
 20
151.059144
 30
0.0
  0
ENDSEC
  0
SECTION
  2
OBJECTS
  0
DICTIONARY
  5
C
330
0
100
AcDbDictionary
  3
ACAD_GROUP
350
D
  3
ACAD_MLINESTYLE
350
17
  0
DICTIONARY
  5
D
330
C
100
AcDbDictionary
  0
DICTIONARY
  5
1A
330
C
100
AcDbDictionary
  0
DICTIONARY
  5
17
330
C
100
AcDbDictionary
  3
STANDARD
350
18
  0
DICTIONARY
  5
19
330
C
100
AcDbDictionary
  0
ENDSEC
  0
EOF
