  0
SECTION
  2
HEADER
  9
$ACADVER
  1
AC1014
  9
$HANDSEED
  5
FFFF
  9
$MEASUREMENT
 70
     1
  0
ENDSEC
  0
SECTION
  2
TABLES
  0
TABLE
  2
VPORT
  5
8
330
0
100
AcDbSymbolTable
 70
     4
  0
VPORT
  5
2E
330
8
100
AcDbSymbolTableRecord
100
AcDbViewportTableRecord
  2
*ACTIVE
 70
     0
 10
0.0
 20
0.0
 11
1.0
 21
1.0
 12
210.0
 22
148.5
 13
0.0
 23
0.0
 14
10.0
 24
10.0
 15
10.0
 25
10.0
 16
0.0
 26
0.0
 36
1.0
 17
0.0
 27
0.0
 37
0.0
 40
341.0
 41
1.24
 42
50.0
 43
0.0
 44
0.0
 50
0.0
 51
0.0
 71
     0
 72
   100
 73
     1
 74
     3
 75
     0
 76
     0
 77
     0
 78
     0
  0
ENDTAB
  0
TABLE
  2
LTYPE
  5
5
330
0
100
AcDbSymbolTable
 70
     1
  0
LTYPE
  5
14
330
5
100
AcDbSymbolTableRecord
100
AcDbLinetypeTableRecord
  2
BYBLOCK
 70
     0
  3

 72
    65
 73
     0
 40
0.0
  0
LTYPE
  5
15
330
5
100
AcDbSymbolTableRecord
100
AcDbLinetypeTableRecord
  2
BYLAYER
 70
     0
  3

 72
    65
 73
     0
 40
0.0
  0
LTYPE
  5
16
330
5
100
AcDbSymbolTableRecord
100
AcDbLinetypeTableRecord
  2
CONTINUOUS
 70
     0
  3
Solid line
 72
    65
 73
     0
 40
0.0
  0
ENDTAB
  0
TABLE
  2
LAYER
  5
2
100
AcDbSymbolTable
 70
2
  0
LAYER
  5
50
100
AcDbSymbolTableRecord
100
AcDbLayerTableRecord
  2
0
 70
0
  6
CONTINUOUS
  0
LAYER
  5
51
100
AcDbSymbolTableRecord
100
AcDbLayerTableRecord
  2
Layer_1
 70
0
  6
CONTINUOUS
  0
ENDTAB
  0
TABLE
  2
STYLE
  5
3
330
0
100
AcDbSymbolTable
 70
     1
  0
STYLE
  5
11
330
3
100
AcDbSymbolTableRecord
100
AcDbTextStyleTableRecord
  2
STANDARD
 70
     0
 40
0.0
 41
1.0
 50
0.0
 71
     0
 42
2.5
  3
txt
  4

  0
ENDTAB
  0
TABLE
  2
VIEW
  5
6
330
0
100
AcDbSymbolTable
 70
     0
  0
ENDTAB
  0
TABLE
  2
UCS
  5
7
330
0
100
AcDbSymbolTable
 70
     0
  0
ENDTAB
  0
TABLE
  2
APPID
  5
9
330
0
100
AcDbSymbolTable
 70
     2
  0
APPID
  5
12
330
9
100
AcDbSymbolTableRecord
100
AcDbRegAppTableRecord
  2
ACAD
 70
     0
  0
ENDTAB
  0
TABLE
  2
DIMSTYLE
  5
A
330
0
100
AcDbSymbolTable
 70
     1
  0
DIMSTYLE
105
27
330
A
100
AcDbSymbolTableRecord
100
AcDbDimStyleTableRecord
  2
ISO-25
 70
     0
  3

  4

  5

  6

  7

 40
1.0
 41
2.5
 42
0.625
 43
3.75
 44
1.25
 45
0.0
 46
0.0
 47
0.0
 48
0.0
140
2.5
141
2.5
142
0.0
143
0.03937007874016
144
1.0
145
0.0
146
1.0
147
0.625
 71
     0
 72
     0
 73
     0
 74
     0
 75
     0
 76
     0
 77
     1
 78
     8
170
     0
171
     3
172
     1
173
     0
174
     0
175
     0
176
     0
177
     0
178
     0
270
     2
271
     2
272
     2
273
     2
274
     3
340
11
275
     0
280
     0
281
     0
282
     0
283
     0
284
     8
285
     0
286
     0
287
     3
288
     0
  0
ENDTAB
  0
TABLE
  2
BLOCK_RECORD
  5
1
330
0
100
AcDbSymbolTable
 70
     1
  0
BLOCK_RECORD
  5
1F
330
1
100
AcDbSymbolTableRecord
100
AcDbBlockTableRecord
  2
*MODEL_SPACE
  0
BLOCK_RECORD
  5
1B
330
1
100
AcDbSymbolTableRecord
100
AcDbBlockTableRecord
  2
*PAPER_SPACE
  0
ENDTAB
  0
ENDSEC
  0
SECTION
  2
BLOCKS
  0
BLOCK
  5
20
330
1F
100
AcDbEntity
  8
0
100
AcDbBlockBegin
  2
*MODEL_SPACE
 70
     0
 10
0.0
 20
0.0
 30
0.0
  3
*MODEL_SPACE
  1

  0
ENDBLK
  5
21
330
1F
100
AcDbEntity
  8
0
100
AcDbBlockEnd
  0
BLOCK
  5
1C
330
1B
100
AcDbEntity
 67
     1
  8
0
100
AcDbBlockBegin
  2
*PAPER_SPACE
  1

  0
ENDBLK
  5
1D
330
1B
100
AcDbEntity
 67
     1
  8
0
100
AcDbBlockEnd
  0
ENDSEC
  0
SECTION
  2
ENTITIES
  0
LWPOLYLINE
  5
100
100
AcDbEntity
  8
Layer_1
 62
7
100
AcDbPolyline
 90
38
 70
0
 10
14.983685
 20
164.987248
 30
0.0
 10
13.793060
 20
160.212070
 30
0.0
 10
9.601068
 20
160.212070
 30
0.0
 10
9.601068
 20
157.570645
 30
0.0
 10
13.110655
 20
157.570645
 30
0.0
 10
12.242491
 20
154.172405
 30
0.0
 10
8.174523
 20
154.172405
 30
0.0
 10
8.174523
 20
151.505625
 30
0.0
 10
11.635052
 20
151.505625
 30
0.0
 10
10.444427
 20
146.755802
 30
0.0
 10
13.209874
 20
146.755802
 30
0.0
 10
14.400499
 20
151.505625
 30
0.0
 10
17.674718
 20
151.505625
 30
0.0
 10
16.484093
 20
146.755802
 30
0.0
 10
19.225287
 20
146.755802
 30
0.0
 10
20.415912
 20
151.505625
 30
0.0
 10
24.583099
 20
151.505625
 30
0.0
 10
24.583099
 20
154.172405
 30
0.0
 10
21.060833
 20
154.172405
 30
0.0
 10
21.071306
 20
154.214298
 30
0.0
 10
18.293181
 20
154.214298
 30
0.0
 10
18.282708
 20
154.172405
 30
0.0
 10
15.008490
 20
154.172405
 30
0.0
 10
15.876654
 20
157.570645
 30
0.0
 10
19.150872
 20
157.570645
 30
0.0
 10
18.725885
 20
155.907631
 30
0.0
 10
21.497396
 20
155.907631
 30
0.0
 10
21.916319
 20
157.570645
 30
0.0
 10
26.009093
 20
157.570645
 30
0.0
 10
26.009093
 20
160.212070
 30
0.0
 10
22.573919
 20
160.212070
 30
0.0
 10
23.776671
 20
164.987248
 30
0.0
 10
21.036029
 20
164.987248
 30
0.0
 10
19.832726
 20
160.212070
 30
0.0
 10
16.558507
 20
160.212070
 30
0.0
 10
17.749132
 20
164.987248
 30
0.0
 10
14.983685
 20
164.987248
 30
0.0
 10
14.983685
 20
164.987248
 30
0.0
  0
LWPOLYLINE
  5
101
100
AcDbEntity
  8
Layer_1
 62
7
100
AcDbPolyline
 90
12
 70
0
 10
30.114466
 20
165.272261
 30
0.0
 10
35.447472
 20
165.272261
 30
0.0
 10
42.181947
 20
152.572261
 30
0.0
 10
42.181947
 20
165.272261
 30
0.0
 10
46.708802
 20
165.272261
 30
0.0
 10
46.708802
 20
146.755563
 30
0.0
 10
41.375793
 20
146.755563
 30
0.0
 10
34.641322
 20
159.455563
 30
0.0
 10
34.641322
 20
146.755563
 30
0.0
 10
30.114466
 20
146.755563
 30
0.0
 10
30.114466
 20
165.272261
 30
0.0
 10
30.114466
 20
165.272261
 30
0.0
  0
LWPOLYLINE
  5
102
100
AcDbEntity
  8
Layer_1
 62
7
100
AcDbPolyline
 90
124
 70
0
 10
58.293852
 20
161.978796
 30
0.0
 10
57.382531
 20
161.946419
 30
0.0
 10
56.521423
 20
161.849284
 30
0.0
 10
55.710526
 20
161.687396
 30
0.0
 10
54.949844
 20
161.460751
 30
0.0
 10
54.239372
 20
161.169351
 30
0.0
 10
53.579116
 20
160.813195
 30
0.0
 10
52.969067
 20
160.392283
 30
0.0
 10
52.409234
 20
159.906619
 30
0.0
 10
51.910372
 20
159.363888
 30
0.0
 10
51.478025
 20
158.771789
 30
0.0
 10
51.112191
 20
158.130326
 30
0.0
 10
50.812875
 20
157.439508
 30
0.0
 10
50.580073
 20
156.699335
 30
0.0
 10
50.413785
 20
155.909816
 30
0.0
 10
50.314016
 20
155.070955
 30
0.0
 10
50.280756
 20
154.182760
 30
0.0
 10
50.314016
 20
153.296929
 30
0.0
 10
50.413785
 20
152.460134
 30
0.0
 10
50.580073
 20
151.672382
 30
0.0
 10
50.812875
 20
150.933665
 30
0.0
 10
51.112191
 20
150.243987
 30
0.0
 10
51.478025
 20
149.603348
 30
0.0
 10
51.910372
 20
149.011749
 30
0.0
 10
52.409234
 20
148.469185
 30
0.0
 10
52.946706
 20
148.001054
 30
0.0
 10
53.530717
 20
147.592930
 30
0.0
 10
54.161230
 20
147.244772
 30
0.0
 10
54.838205
 20
146.956536
 30
0.0
 10
55.561614
 20
146.728176
 30
0.0
 10
56.331412
 20
146.559650
 30
0.0
 10
57.147573
 20
146.450915
 30
0.0
 10
58.010052
 20
146.401924
 30
0.0
 10
58.010052
 20
149.216687
 30
0.0
 10
57.613333
 20
149.257728
 30
0.0
 10
57.238206
 20
149.333064
 30
0.0
 10
56.884748
 20
149.442801
 30
0.0
 10
56.553038
 20
149.587056
 30
0.0
 10
56.243152
 20
149.765931
 30
0.0
 10
55.955170
 20
149.979542
 30
0.0
 10
55.689164
 20
150.227997
 30
0.0
 10
55.445214
 20
150.511407
 30
0.0
 10
55.208020
 20
150.854821
 30
0.0
 10
55.002470
 20
151.231226
 30
0.0
 10
54.828556
 20
151.640629
 30
0.0
 10
54.686276
 20
152.083032
 30
0.0
 10
54.575623
 20
152.558441
 30
0.0
 10
54.496595
 20
153.066861
 30
0.0
 10
54.433374
 20
154.182760
 30
0.0
 10
54.496595
 20
155.303092
 30
0.0
 10
54.575623
 20
155.813279
 30
0.0
 10
54.686276
 20
156.290144
 30
0.0
 10
54.828556
 20
156.733687
 30
0.0
 10
55.002470
 20
157.143911
 30
0.0
 10
55.208020
 20
157.520813
 30
0.0
 10
55.445214
 20
157.864396
 30
0.0
 10
55.711121
 20
158.170884
 30
0.0
 10
56.002801
 20
158.436506
 30
0.0
 10
56.320250
 20
158.661265
 30
0.0
 10
56.663466
 20
158.845158
 30
0.0
 10
57.032438
 20
158.988186
 30
0.0
 10
57.427162
 20
159.090350
 30
0.0
 10
57.847636
 20
159.151646
 30
0.0
 10
58.293852
 20
159.172079
 30
0.0
 10
58.742501
 20
159.151646
 30
0.0
 10
59.165067
 20
159.090350
 30
0.0
 10
59.561547
 20
158.988186
 30
0.0
 10
59.931943
 20
158.845158
 30
0.0
 10
60.276257
 20
158.661265
 30
0.0
 10
60.594486
 20
158.436506
 30
0.0
 10
60.886631
 20
158.170884
 30
0.0
 10
61.152690
 20
157.864396
 30
0.0
 10
61.389884
 20
157.520813
 30
0.0
 10
61.595435
 20
157.143911
 30
0.0
 10
61.769346
 20
156.733687
 30
0.0
 10
61.911625
 20
156.290144
 30
0.0
 10
62.022279
 20
155.813279
 30
0.0
 10
62.101309
 20
155.303092
 30
0.0
 10
62.164527
 20
154.182760
 30
0.0
 10
62.101309
 20
153.066861
 30
0.0
 10
62.022279
 20
152.558441
 30
0.0
 10
61.911625
 20
152.083032
 30
0.0
 10
61.769346
 20
151.640629
 30
0.0
 10
61.595435
 20
151.231226
 30
0.0
 10
61.389884
 20
150.854821
 30
0.0
 10
61.152690
 20
150.511407
 30
0.0
 10
60.792594
 20
150.112520
 30
0.0
 10
60.386118
 20
149.786243
 30
0.0
 10
59.933405
 20
149.532395
 30
0.0
 10
59.434603
 20
149.350810
 30
0.0
 10
59.434603
 20
146.450207
 30
0.0
 10
60.153832
 20
146.541833
 30
0.0
 10
60.837070
 20
146.679300
 30
0.0
 10
61.484273
 20
146.862652
 30
0.0
 10
62.095405
 20
147.091932
 30
0.0
 10
62.670430
 20
147.367180
 30
0.0
 10
63.209308
 20
147.688445
 30
0.0
 10
63.712000
 20
148.055766
 30
0.0
 10
64.178468
 20
148.469185
 30
0.0
 10
64.677330
 20
149.011749
 30
0.0
 10
65.109677
 20
149.603348
 30
0.0
 10
65.475510
 20
150.243987
 30
0.0
 10
65.774827
 20
150.933665
 30
0.0
 10
66.007629
 20
151.672382
 30
0.0
 10
66.173917
 20
152.460134
 30
0.0
 10
66.273688
 20
153.296929
 30
0.0
 10
66.306946
 20
154.182760
 30
0.0
 10
66.273688
 20
155.070955
 30
0.0
 10
66.173917
 20
155.909816
 30
0.0
 10
66.007629
 20
156.699335
 30
0.0
 10
65.774827
 20
157.439508
 30
0.0
 10
65.475510
 20
158.130326
 30
0.0
 10
65.109677
 20
158.771789
 30
0.0
 10
64.677330
 20
159.363888
 30
0.0
 10
64.178468
 20
159.906619
 30
0.0
 10
63.620915
 20
160.392283
 30
0.0
 10
63.012498
 20
160.813195
 30
0.0
 10
62.353218
 20
161.169351
 30
0.0
 10
61.643074
 20
161.460751
 30
0.0
 10
60.882064
 20
161.687396
 30
0.0
 10
60.070193
 20
161.849284
 30
0.0
 10
59.207454
 20
161.946419
 30
0.0
 10
58.293852
 20
161.978796
 30
0.0
 10
58.293852
 20
161.978796
 30
0.0
  0
LWPOLYLINE
  5
103
100
AcDbEntity
  8
Layer_1
 62
7
100
AcDbPolyline
 90
62
 70
0
 10
72.927436
 20
165.272227
 30
0.0
 10
72.927436
 20
146.755802
 30
0.0
 10
77.702063
 20
146.755802
 30
0.0
 10
77.702063
 20
146.956996
 30
0.0
 10
77.611111
 20
146.956996
 30
0.0
 10
77.611111
 20
158.245885
 30
0.0
 10
77.702063
 20
158.245885
 30
0.0
 10
77.702063
 20
161.812248
 30
0.0
 10
80.344035
 20
161.812248
 30
0.0
 10
80.998991
 20
161.770390
 30
0.0
 10
81.574831
 20
161.644817
 30
0.0
 10
82.071606
 20
161.435527
 30
0.0
 10
82.489367
 20
161.142520
 30
0.0
 10
82.820398
 20
160.772001
 30
0.0
 10
83.056912
 20
160.330167
 30
0.0
 10
83.198859
 20
159.817021
 30
0.0
 10
83.246186
 20
159.232562
 30
0.0
 10
83.198859
 20
158.647283
 30
0.0
 10
83.056912
 20
158.131715
 30
0.0
 10
82.820398
 20
157.685911
 30
0.0
 10
82.489367
 20
157.309923
 30
0.0
 10
82.071606
 20
157.016916
 30
0.0
 10
81.574831
 20
156.807627
 30
0.0
 10
80.998991
 20
156.682053
 30
0.0
 10
80.344035
 20
156.640195
 30
0.0
 10
79.304444
 20
156.640195
 30
0.0
 10
79.304444
 20
153.180216
 30
0.0
 10
80.852258
 20
153.180216
 30
0.0
 10
81.710164
 20
153.204633
 30
0.0
 10
82.516541
 20
153.277885
 30
0.0
 10
83.271384
 20
153.399971
 30
0.0
 10
83.974686
 20
153.570891
 30
0.0
 10
84.626440
 20
153.790645
 30
0.0
 10
85.226641
 20
154.059233
 30
0.0
 10
85.775282
 20
154.376655
 30
0.0
 10
86.272356
 20
154.742911
 30
0.0
 10
86.717085
 20
155.157615
 30
0.0
 10
87.102496
 20
155.614176
 30
0.0
 10
87.428595
 20
156.112595
 30
0.0
 10
87.695388
 20
156.652873
 30
0.0
 10
87.902883
 20
157.235008
 30
0.0
 10
88.051086
 20
157.859001
 30
0.0
 10
88.140002
 20
158.524853
 30
0.0
 10
88.169640
 20
159.232562
 30
0.0
 10
88.140002
 20
159.937169
 30
0.0
 10
88.051086
 20
160.599919
 30
0.0
 10
87.902883
 20
161.220811
 30
0.0
 10
87.695388
 20
161.799845
 30
0.0
 10
87.428595
 20
162.337022
 30
0.0
 10
87.102496
 20
162.832341
 30
0.0
 10
86.717085
 20
163.285802
 30
0.0
 10
86.272356
 20
163.697405
 30
0.0
 10
85.775282
 20
164.066557
 30
0.0
 10
85.226641
 20
164.386468
 30
0.0
 10
84.626440
 20
164.657144
 30
0.0
 10
83.974686
 20
164.878591
 30
0.0
 10
83.271384
 20
165.050817
 30
0.0
 10
82.516541
 20
165.173827
 30
0.0
 10
81.710164
 20
165.247628
 30
0.0
 10
80.852258
 20
165.272227
 30
0.0
 10
72.927436
 20
165.272227
 30
0.0
 10
72.927436
 20
165.272227
 30
0.0
  0
LWPOLYLINE
  5
104
100
AcDbEntity
  8
Layer_1
 62
7
100
AcDbPolyline
 90
8
 70
0
 10
91.530873
 20
161.707004
 30
0.0
 10
95.796001
 20
161.707004
 30
0.0
 10
95.796001
 20
149.615950
 30
0.0
 10
103.284903
 20
149.615950
 30
0.0
 10
103.284903
 20
146.688749
 30
0.0
 10
91.530873
 20
146.688749
 30
0.0
 10
91.530873
 20
161.707004
 30
0.0
 10
91.530873
 20
161.707004
 30
0.0
  0
LWPOLYLINE
  5
105
100
AcDbEntity
  8
Layer_1
 62
7
100
AcDbPolyline
 90
17
 70
0
 10
110.175404
 20
161.706976
 30
0.0
 10
104.049373
 20
146.688944
 30
0.0
 10
108.336413
 20
146.688944
 30
0.0
 10
109.389093
 20
149.425024
 30
0.0
 10
110.428481
 20
149.425024
 30
0.0
 10
110.428481
 20
152.574643
 30
0.0
 10
110.590962
 20
152.574643
 30
0.0
 10
112.723402
 20
158.186288
 30
0.0
 10
114.983370
 20
152.211172
 30
0.0
 10
111.941031
 20
152.211172
 30
0.0
 10
111.941031
 20
149.425024
 30
0.0
 10
116.058205
 20
149.425024
 30
0.0
 10
117.099563
 20
146.688944
 30
0.0
 10
121.386603
 20
146.688944
 30
0.0
 10
115.260569
 20
161.706976
 30
0.0
 10
110.175404
 20
161.706976
 30
0.0
 10
110.175404
 20
161.706976
 30
0.0
  0
LWPOLYLINE
  5
106
100
AcDbEntity
  8
Layer_1
 62
7
100
AcDbPolyline
 90
10
 70
0
 10
119.824743
 20
161.707004
 30
0.0
 10
135.068426
 20
161.707004
 30
0.0
 10
135.068426
 20
158.779801
 30
0.0
 10
129.584687
 20
158.779801
 30
0.0
 10
129.584687
 20
146.688749
 30
0.0
 10
125.319559
 20
146.688749
 30
0.0
 10
125.319559
 20
158.779801
 30
0.0
 10
119.824743
 20
158.779801
 30
0.0
 10
119.824743
 20
161.707004
 30
0.0
 10
119.824743
 20
161.707004
 30
0.0
  0
LWPOLYLINE
  5
107
100
AcDbEntity
  8
Layer_1
 62
7
100
AcDbPolyline
 90
12
 70
0
 10
137.261922
 20
161.707004
 30
0.0
 10
148.772231
 20
161.707004
 30
0.0
 10
148.772231
 20
158.779801
 30
0.0
 10
141.527047
 20
158.779801
 30
0.0
 10
141.527047
 20
155.983368
 30
0.0
 10
148.340177
 20
155.983368
 30
0.0
 10
148.340177
 20
153.056168
 30
0.0
 10
141.527047
 20
153.056168
 30
0.0
 10
141.527047
 20
146.688749
 30
0.0
 10
137.261922
 20
146.688749
 30
0.0
 10
137.261922
 20
161.707004
 30
0.0
 10
137.261922
 20
161.707004
 30
0.0
  0
LWPOLYLINE
  5
108
100
AcDbEntity
  8
Layer_1
 62
7
100
AcDbPolyline
 90
120
 70
0
 10
160.326922
 20
161.978796
 30
0.0
 10
159.359306
 20
161.946419
 30
0.0
 10
158.445005
 20
161.849284
 30
0.0
 10
157.584016
 20
161.687396
 30
0.0
 10
156.776344
 20
161.460751
 30
0.0
 10
156.021981
 20
161.169351
 30
0.0
 10
155.320935
 20
160.813195
 30
0.0
 10
154.673204
 20
160.392283
 30
0.0
 10
154.078785
 20
159.906619
 30
0.0
 10
153.549107
 20
159.363888
 30
0.0
 10
153.090050
 20
158.771789
 30
0.0
 10
152.701619
 20
158.130326
 30
0.0
 10
152.383812
 20
157.439508
 30
0.0
 10
152.136627
 20
156.699335
 30
0.0
 10
151.960069
 20
155.909816
 30
0.0
 10
151.854134
 20
155.070955
 30
0.0
 10
151.818823
 20
154.182760
 30
0.0
 10
151.854134
 20
153.296929
 30
0.0
 10
151.960069
 20
152.460134
 30
0.0
 10
152.136627
 20
151.672382
 30
0.0
 10
152.383812
 20
150.933665
 30
0.0
 10
152.701619
 20
150.243987
 30
0.0
 10
153.090050
 20
149.603348
 30
0.0
 10
153.549107
 20
149.011749
 30
0.0
 10
154.078785
 20
148.469185
 30
0.0
 10
154.614355
 20
148.027070
 30
0.0
 10
155.193684
 20
147.638083
 30
0.0
 10
155.816737
 20
147.302185
 30
0.0
 10
156.483473
 20
147.019333
 30
0.0
 10
157.193846
 20
146.789488
 30
0.0
 10
157.947820
 20
146.612606
 30
0.0
 10
158.745355
 20
146.488648
 30
0.0
 10
159.586402
 20
146.417570
 30
0.0
 10
159.586402
 20
149.260502
 30
0.0
 10
158.910613
 20
149.416622
 30
0.0
 10
158.304224
 20
149.676565
 30
0.0
 10
157.767901
 20
150.041205
 30
0.0
 10
157.302313
 20
150.511407
 30
0.0
 10
157.050463
 20
150.854821
 30
0.0
 10
156.832215
 20
151.231226
 30
0.0
 10
156.647560
 20
151.640629
 30
0.0
 10
156.496489
 20
152.083032
 30
0.0
 10
156.379003
 20
152.558441
 30
0.0
 10
156.295093
 20
153.066861
 30
0.0
 10
156.227966
 20
154.182760
 30
0.0
 10
156.295093
 20
155.303092
 30
0.0
 10
156.379003
 20
155.813279
 30
0.0
 10
156.496489
 20
156.290144
 30
0.0
 10
156.647560
 20
156.733687
 30
0.0
 10
156.832215
 20
157.143911
 30
0.0
 10
157.050463
 20
157.520813
 30
0.0
 10
157.302313
 20
157.864396
 30
0.0
 10
157.584645
 20
158.170884
 30
0.0
 10
157.894345
 20
158.436506
 30
0.0
 10
158.231405
 20
158.661265
 30
0.0
 10
158.595822
 20
158.845158
 30
0.0
 10
158.987586
 20
158.988186
 30
0.0
 10
159.406694
 20
159.090350
 30
0.0
 10
159.853145
 20
159.151646
 30
0.0
 10
160.326922
 20
159.172079
 30
0.0
 10
160.803288
 20
159.151646
 30
0.0
 10
161.251956
 20
159.090350
 30
0.0
 10
161.672930
 20
158.988186
 30
0.0
 10
162.066210
 20
158.845158
 30
0.0
 10
162.431792
 20
158.661265
 30
0.0
 10
162.769680
 20
158.436506
 30
0.0
 10
163.079870
 20
158.170884
 30
0.0
 10
163.362363
 20
157.864396
 30
0.0
 10
163.614213
 20
157.520813
 30
0.0
 10
163.832461
 20
157.143911
 30
0.0
 10
164.017116
 20
156.733687
 30
0.0
 10
164.168184
 20
156.290144
 30
0.0
 10
164.285673
 20
155.813279
 30
0.0
 10
164.369586
 20
155.303092
 30
0.0
 10
164.436710
 20
154.182760
 30
0.0
 10
164.369586
 20
153.066861
 30
0.0
 10
164.285673
 20
152.558441
 30
0.0
 10
164.168184
 20
152.083032
 30
0.0
 10
164.017116
 20
151.640629
 30
0.0
 10
163.832461
 20
151.231226
 30
0.0
 10
163.614213
 20
150.854821
 30
0.0
 10
163.362363
 20
150.511407
 30
0.0
 10
162.901207
 20
150.045142
 30
0.0
 10
162.369861
 20
149.682348
 30
0.0
 10
161.768920
 20
149.422252
 30
0.0
 10
161.098955
 20
149.264078
 30
0.0
 10
161.098955
 20
146.419360
 30
0.0
 10
161.936738
 20
146.491815
 30
0.0
 10
162.730807
 20
146.616681
 30
0.0
 10
163.481123
 20
146.794007
 30
0.0
 10
164.187649
 20
147.023840
 30
0.0
 10
164.850343
 20
147.306229
 30
0.0
 10
165.469169
 20
147.641218
 30
0.0
 10
166.044087
 20
148.028853
 30
0.0
 10
166.575060
 20
148.469185
 30
0.0
 10
167.104740
 20
149.011749
 30
0.0
 10
167.563794
 20
149.603348
 30
0.0
 10
167.952228
 20
150.243987
 30
0.0
 10
168.270036
 20
150.933665
 30
0.0
 10
168.517217
 20
151.672382
 30
0.0
 10
168.693778
 20
152.460134
 30
0.0
 10
168.799713
 20
153.296929
 30
0.0
 10
168.835025
 20
154.182760
 30
0.0
 10
168.799713
 20
155.070955
 30
0.0
 10
168.693778
 20
155.909816
 30
0.0
 10
168.517217
 20
156.699335
 30
0.0
 10
168.270036
 20
157.439508
 30
0.0
 10
167.952228
 20
158.130326
 30
0.0
 10
167.563794
 20
158.771789
 30
0.0
 10
167.104740
 20
159.363888
 30
0.0
 10
166.575060
 20
159.906619
 30
0.0
 10
165.983065
 20
160.392283
 30
0.0
 10
165.337064
 20
160.813195
 30
0.0
 10
164.637057
 20
161.169351
 30
0.0
 10
163.883044
 20
161.460751
 30
0.0
 10
163.075022
 20
161.687396
 30
0.0
 10
162.212996
 20
161.849284
 30
0.0
 10
161.296962
 20
161.946419
 30
0.0
 10
160.326922
 20
161.978796
 30
0.0
 10
160.326922
 20
161.978796
 30
0.0
  0
LWPOLYLINE
  5
109
100
AcDbEntity
  8
Layer_1
 62
7
100
AcDbPolyline
 90
71
 70
0
 10
172.047721
 20
161.706976
 30
0.0
 10
172.047721
 20
146.688944
 30
0.0
 10
176.312604
 20
146.688944
 30
0.0
 10
176.312604
 20
152.372121
 30
0.0
 10
176.332783
 20
152.372121
 30
0.0
 10
176.332783
 20
155.047844
 30
0.0
 10
176.312604
 20
155.047844
 30
0.0
 10
176.312604
 20
158.900708
 30
0.0
 10
178.107281
 20
158.900708
 30
0.0
 10
178.729778
 20
158.873050
 30
0.0
 10
179.256772
 20
158.790063
 30
0.0
 10
179.688216
 20
158.651748
 30
0.0
 10
180.024064
 20
158.458113
 30
0.0
 10
180.280903
 20
158.200348
 30
0.0
 10
180.464302
 20
157.869654
 30
0.0
 10
180.574307
 20
157.466031
 30
0.0
 10
180.610967
 20
156.989479
 30
0.0
 10
180.574307
 20
156.507901
 30
0.0
 10
180.464302
 20
156.099249
 30
0.0
 10
180.280903
 20
155.763529
 30
0.0
 10
180.024064
 20
155.500735
 30
0.0
 10
179.688216
 20
155.302660
 30
0.0
 10
179.256772
 20
155.161125
 30
0.0
 10
178.729778
 20
155.076176
 30
0.0
 10
178.107281
 20
155.047850
 30
0.0
 10
177.845339
 20
155.047850
 30
0.0
 10
177.845339
 20
152.360053
 30
0.0
 10
178.234814
 20
152.314180
 30
0.0
 10
178.587623
 20
152.232384
 30
0.0
 10
178.903486
 20
152.114390
 30
0.0
 10
179.182118
 20
151.959927
 30
0.0
 10
179.496463
 20
151.709039
 30
0.0
 10
179.808039
 20
151.368840
 30
0.0
 10
180.116844
 20
150.939366
 30
0.0
 10
180.422880
 20
150.420658
 30
0.0
 10
182.439124
 20
146.688950
 30
0.0
 10
186.981211
 20
146.688950
 30
0.0
 10
184.665609
 20
150.954013
 30
0.0
 10
184.311835
 20
151.561333
 30
0.0
 10
183.959494
 20
152.085662
 30
0.0
 10
183.608534
 20
152.527007
 30
0.0
 10
183.258914
 20
152.885361
 30
0.0
 10
182.903678
 20
153.178334
 30
0.0
 10
182.524860
 20
153.413467
 30
0.0
 10
182.122496
 20
153.590759
 30
0.0
 10
181.696637
 20
153.710210
 30
0.0
 10
182.443763
 20
153.967974
 30
0.0
 10
183.089849
 20
154.288607
 30
0.0
 10
183.634848
 20
154.672113
 30
0.0
 10
184.078708
 20
155.118484
 30
0.0
 10
184.427670
 20
155.629580
 30
0.0
 10
184.676931
 20
156.207272
 30
0.0
 10
184.826489
 20
156.851608
 30
0.0
 10
184.876341
 20
157.562628
 30
0.0
 10
184.852437
 20
158.082724
 30
0.0
 10
184.780775
 20
158.566687
 30
0.0
 10
184.661336
 20
159.014511
 30
0.0
 10
184.494125
 20
159.426189
 30
0.0
 10
184.279139
 20
159.801719
 30
0.0
 10
184.016376
 20
160.141092
 30
0.0
 10
183.705839
 20
160.444306
 30
0.0
 10
183.347527
 20
160.711353
 30
0.0
 10
182.940746
 20
160.944748
 30
0.0
 10
182.479267
 20
161.147005
 30
0.0
 10
181.963088
 20
161.318130
 30
0.0
 10
181.392215
 20
161.458130
 30
0.0
 10
180.766638
 20
161.567011
 30
0.0
 10
180.086364
 20
161.644777
 30
0.0
 10
178.561718
 20
161.706982
 30
0.0
 10
172.047704
 20
161.706982
 30
0.0
 10
172.047704
 20
161.706982
 30
0.0
  0
LWPOLYLINE
  5
10a
100
AcDbEntity
  8
Layer_1
 62
7
100
AcDbPolyline
 90
15
 70
0
 10
189.506984
 20
161.707004
 30
0.0
 10
194.935328
 20
161.707004
 30
0.0
 10
198.701937
 20
153.669773
 30
0.0
 10
202.490702
 20
161.707004
 30
0.0
 10
207.907969
 20
161.707004
 30
0.0
 10
207.907969
 20
146.688749
 30
0.0
 10
203.875482
 20
146.688749
 30
0.0
 10
203.875482
 20
157.673301
 30
0.0
 10
200.064562
 20
149.575713
 30
0.0
 10
197.361469
 20
149.575713
 30
0.0
 10
193.550548
 20
157.673301
 30
0.0
 10
193.550548
 20
146.688749
 30
0.0
 10
189.506984
 20
146.688749
 30
0.0
 10
189.506984
 20
161.707004
 30
0.0
 10
189.506984
 20
161.707004
 30
0.0
  0
ENDSEC
  0
SECTION
  2
OBJECTS
  0
DICTIONARY
  5
C
330
0
100
AcDbDictionary
  3
ACAD_GROUP
350
D
  3
ACAD_MLINESTYLE
350
17
  0
DICTIONARY
  5
D
330
C
100
AcDbDictionary
  0
DICTIONARY
  5
1A
330
C
100
AcDbDictionary
  0
DICTIONARY
  5
17
330
C
100
AcDbDictionary
  3
STANDARD
350
18
  0
DICTIONARY
  5
19
330
C
100
AcDbDictionary
  0
ENDSEC
  0
EOF
