<?xml version="1.0" encoding="UTF-8" standalone="no"?>
<!-- Created with Inkscape (http://www.inkscape.org/) -->

<svg
   xmlns:dc="http://purl.org/dc/elements/1.1/"
   xmlns:cc="http://creativecommons.org/ns#"
   xmlns:rdf="http://www.w3.org/1999/02/22-rdf-syntax-ns#"
   xmlns:svg="http://www.w3.org/2000/svg"
   xmlns="http://www.w3.org/2000/svg"
   xmlns:sodipodi="http://sodipodi.sourceforge.net/DTD/sodipodi-0.dtd"
   xmlns:inkscape="http://www.inkscape.org/namespaces/inkscape"
   width="210mm"
   height="297mm"
   viewBox="0 0 744.09448819 1052.3622047"
   id="svg2"
   version="1.1"
   inkscape:version="0.91 r13725"
   sodipodi:docname="noplatform.svg">
  <sodipodi:namedview
     id="base"
     pagecolor="#ffffff"
     bordercolor="#666666"
     borderopacity="1.0"
     inkscape:pageopacity="0.0"
     inkscape:pageshadow="2"
     inkscape:zoom="1.4"
     inkscape:cx="427.83126"
     inkscape:cy="520"
     inkscape:document-units="px"
     inkscape:current-layer="layer1"
     showgrid="true"
     inkscape:window-width="1440"
     inkscape:window-height="851"
     inkscape:window-x="0"
     inkscape:window-y="1"
     inkscape:window-maximized="1">
    <inkscape:grid
       id="grid3344"
       type="xygrid" />
  </sodipodi:namedview>
  <defs
     id="defs4" />
  <metadata
     id="metadata7">
    <rdf:RDF>
      <cc:Work
         rdf:about="">
        <dc:format>image/svg+xml</dc:format>
        <dc:type
           rdf:resource="http://purl.org/dc/dcmitype/StillImage" />
        <dc:title />
      </cc:Work>
    </rdf:RDF>
  </metadata>
  <g
     id="layer1"
     inkscape:groupmode="layer"
     inkscape:label="Layer 1">
    <flowRoot
       style="fill:black;stroke:none;stroke-opacity:1;stroke-width:1px;stroke-linejoin:miter;stroke-linecap:butt;fill-opacity:1;font-family:sans-serif;font-style:normal;font-weight:normal;font-size:90px;line-height:125%;letter-spacing:0px;word-spacing:0px;"
       id="flowRoot3336"
       xml:space="preserve"><flowRegion
         id="flowRegion3338"><rect
           style="font-size:90px;"
           y="352.36221"
           x="11.428572"
           height="335.71429"
           width="710"
           id="rect3340" /></flowRegion><flowPara
         id="flowPara3342" /></flowRoot>    <path
       d="M62.891323 467.76257L58.672573 484.68152L70.274136 484.68152L74.536831 467.76257L84.248745 467.76257L79.98605 484.68152L92.158901 484.68152L92.158901 494.04187L77.656948 494.04187L74.624722 506.08289L87.10519 506.08289L87.10519 515.53113L72.339565 515.53113L68.120815 532.36218L58.408901 532.36218L62.627651 515.53113L51.026089 515.53113L46.807339 532.36218L37.007534 532.36218L41.226284 515.53113L28.965542 515.53113L28.965542 506.08289L43.379604 506.08289L46.455776 494.04187L34.019253 494.04187L34.019253 484.68152L48.872768 484.68152L53.091518 467.76257L62.891323 467.76257L62.891323 467.76257M67.857143 494.04187L56.255581 494.04187L53.179409 506.08289L64.780972 506.08289L67.857143 494.04187L67.857143 494.04187"
       style="font-style:normal;font-variant:normal;font-weight:bold;font-stretch:normal;font-size:medium;line-height:125%;font-family:'sans serif';-inkscape-font-specification:'sans serif Bold';letter-spacing:0px;word-spacing:0px;fill:#000000;fill-opacity:1;stroke:none;stroke-width:1px;stroke-linecap:butt;stroke-linejoin:miter;stroke-opacity:1"
       id="path3628"
       inkscape:connector-curvature="0" />
    <path
       d="M106.7048 466.75183L125.60128 466.75183L149.46359 511.75183L149.46359 466.75183L165.50363 466.75183L165.50363 532.36218L146.60714 532.36218L122.74484 487.36218L122.74484 532.36218L106.7048 532.36218L106.7048 466.75183L106.7048 466.75183"
       style="font-style:normal;font-variant:normal;font-weight:bold;font-stretch:normal;font-size:medium;line-height:125%;font-family:'sans serif';-inkscape-font-specification:'sans serif Bold';letter-spacing:0px;word-spacing:0px;fill:#000000;fill-opacity:1;stroke:none;stroke-width:1px;stroke-linecap:butt;stroke-linejoin:miter;stroke-opacity:1"
       id="path3630"
       inkscape:connector-curvature="0" />
    <path
       id="path3632"
       d="m 206.55302,478.42159 -3.22909,0.11472 -3.05117,0.34418 -2.87326,0.57362 -2.69533,0.80307 -2.51742,1.03252 -2.33949,1.26197 -2.16159,1.49142 -1.98366,1.72086 -1.76762,1.92306 -1.53194,2.09799 -1.29626,2.2729 -1.06057,2.44778 -0.82489,2.62266 -0.58921,2.79751 -0.35351,2.97234 -0.11785,3.14715 0.11785,3.13877 0.35351,2.96502 0.58921,2.79125 0.82489,2.6175 1.06057,2.44374 1.29626,2.26998 1.53194,2.09622 1.76762,1.92247 1.90443,1.65873 2.06933,1.44611 2.2341,1.23363 2.39873,1.02131 2.56326,0.80915 2.72763,0.59714 2.89191,0.38528 3.05603,0.17359 0,-9.97357 -1.4057,-0.14542 -1.32919,-0.26694 -1.25241,-0.38883 -1.17535,-0.51114 -1.09802,-0.63381 -1.02041,-0.75689 -0.94254,-0.88035 -0.86439,-1.00421 -0.84045,-1.21682 -0.72833,-1.33372 -0.61623,-1.45064 -0.50414,-1.56757 -0.39208,-1.68452 -0.28002,-1.80149 -0.22401,-3.95397 0.22401,-3.96968 0.28002,-1.80775 0.39208,-1.68968 0.50414,-1.57161 0.61623,-1.45355 0.72833,-1.33548 0.84045,-1.21742 0.94219,-1.08598 1.03351,-0.94118 1.12482,-0.79639 1.21612,-0.65159 1.30738,-0.50679 1.39863,-0.362 1.48987,-0.21719 1.58108,-0.0724 1.5897,0.0724 1.49728,0.21719 1.40485,0.362 1.31243,0.50679 1.22001,0.65159 1.12758,0.79639 1.03516,0.94118 0.94273,1.08598 0.84045,1.21742 0.72833,1.33548 0.61622,1.45355 0.50414,1.57161 0.39208,1.68968 0.28003,1.80775 0.224,3.96968 -0.224,3.95397 -0.28003,1.80149 -0.39208,1.68452 -0.50414,1.56757 -0.61622,1.45064 -0.72833,1.33372 -0.84045,1.21682 -1.27593,1.41338 -1.44027,1.1561 -1.6041,0.89946 -1.76741,0.64341 0,10.27773 2.54845,-0.32466 2.42092,-0.48709 2.29324,-0.64967 2.16543,-0.81241 2.03749,-0.97529 1.90941,-1.13834 1.78119,-1.30153 1.65284,-1.46487 1.76762,-1.92247 1.53194,-2.09622 1.29626,-2.26998 1.06057,-2.44374 0.82489,-2.6175 0.58921,-2.79125 0.35352,-2.96502 0.11784,-3.13877 -0.11784,-3.14715 -0.35352,-2.97234 -0.58921,-2.79751 -0.82489,-2.62266 -1.06057,-2.44778 -1.29626,-2.2729 -1.53194,-2.09799 -1.76762,-1.92306 -1.97558,-1.72086 -2.15581,-1.49142 -2.33603,-1.26197 -2.51626,-1.03252 -2.69649,-0.80307 -2.87671,-0.57362 -3.05695,-0.34418 -3.23717,-0.11472 0,0"
       style="font-style:normal;font-variant:normal;font-weight:bold;font-stretch:normal;font-size:medium;line-height:125%;font-family:'sans serif';-inkscape-font-specification:'sans serif Bold';letter-spacing:0px;word-spacing:0px;fill:#000000;fill-opacity:1;stroke:none;stroke-width:1px;stroke-linecap:butt;stroke-linejoin:miter;stroke-opacity:1"
       inkscape:connector-curvature="0" />
    <path
       id="path3634"
       d="M258.4043 466.75195L258.4043 532.36133L275.32227 532.36133L275.32227 531.64844L275.0 531.64844L275.0 491.64844L275.32227 491.64844L275.32227 479.01172L284.68359 479.01172L287.004300312 479.160034688L289.0446775 479.60498L290.804903438 480.346557813L292.28516 481.38477L293.458103281 482.697635469L294.29614625 484.26318625L294.799106094 486.081421406L294.9668 488.15234L294.799106094 490.226164219L294.29614625 492.05297875L293.458103281 493.632598906L292.28516 494.96484L290.804903438 496.003052187L289.0446775 496.74463L287.004300312 497.189575312L284.68359 497.33789L281.0 497.33789L281.0 509.59766L286.48438 509.59766L289.52420166 509.511142383L292.381443906 509.251589688L295.056083887 508.819002148L297.54809875 508.21338L299.857465645 507.434723477L301.984161719 506.483032813L303.928164121 505.358308242L305.68945 504.06055L307.265261973 502.591129395L308.630890781 500.973392656L309.786359512 499.207339902L310.73169125 497.29297125L311.466909082 495.230286816L311.992036094 493.019286719L312.307095371 490.659971074L312.41211 488.15234L312.307095371 485.655699707L311.992036094 483.307373906L311.466909082 481.107362715L310.73169125 479.05566625L309.786359512 477.152284629L308.630890781 475.397217969L307.265261973 473.790466387L305.68945 472.33203L303.928164121 471.024010215L301.984161719 469.890467969L299.857465645 468.931380176L297.54809875 468.14672375L295.056083887 467.536475605L292.381443906 467.100612656L289.52420166 466.839111816L286.48438 466.75195L258.4043 466.75195L258.4043 466.75195"
       style="font-style:normal;font-variant:normal;font-weight:bold;font-stretch:normal;font-size:medium;line-height:125%;font-family:'sans serif';-inkscape-font-specification:'sans serif Bold';letter-spacing:0px;word-spacing:0px;fill:#000000;fill-opacity:1;stroke:none;stroke-width:1px;stroke-linecap:butt;stroke-linejoin:miter;stroke-opacity:1" />
    <path
       d="m 324.32199,479.38463 15.11266,0 0,42.84232 26.53548,0 0,10.37197 -41.64814,0 0,-53.21429 0,0"
       style="font-style:normal;font-variant:normal;font-weight:bold;font-stretch:normal;font-size:medium;line-height:125%;font-family:'sans serif';-inkscape-font-specification:'sans serif Bold';letter-spacing:0px;word-spacing:0px;fill:#000000;fill-opacity:1;stroke:none;stroke-width:1px;stroke-linecap:butt;stroke-linejoin:miter;stroke-opacity:1"
       id="path3636"
       inkscape:connector-curvature="0" />
    <path
       id="path3638"
       d="m 390.38529,479.38473 -21.70641,53.2135 15.1903,0 3.72997,-9.69477 3.68287,0 0,-11.16007 0.57572,0 7.55589,-19.88378 8.00776,21.17167 -10.77994,0 0,9.87218 14.58841,0 3.68985,9.69477 15.1903,0 -21.70642,-53.2135 -18.0183,0 0,0"
       style="font-style:normal;font-variant:normal;font-weight:bold;font-stretch:normal;font-size:medium;line-height:125%;font-family:'sans serif';-inkscape-font-specification:'sans serif Bold';letter-spacing:0px;word-spacing:0px;fill:#000000;fill-opacity:1;stroke:none;stroke-width:1px;stroke-linecap:butt;stroke-linejoin:miter;stroke-opacity:1"
       inkscape:connector-curvature="0" />
    <path
       d="m 424.57586,479.38463 54.01305,0 0,10.37198 -19.43057,0 0,42.84231 -15.11266,0 0,-42.84231 -19.46982,0 0,-10.37198 0,0"
       style="font-style:normal;font-variant:normal;font-weight:bold;font-stretch:normal;font-size:medium;line-height:125%;font-family:'sans serif';-inkscape-font-specification:'sans serif Bold';letter-spacing:0px;word-spacing:0px;fill:#000000;fill-opacity:1;stroke:none;stroke-width:1px;stroke-linecap:butt;stroke-linejoin:miter;stroke-opacity:1"
       id="path3640"
       inkscape:connector-curvature="0" />
    <path
       d="m 486.36114,479.38463 40.78456,0 0,10.37198 -25.67191,0 0,9.90862 24.14101,0 0,10.37197 -24.14101,0 0,22.56172 -15.11265,0 0,-53.21429 0,0"
       style="font-style:normal;font-variant:normal;font-weight:bold;font-stretch:normal;font-size:medium;line-height:125%;font-family:'sans serif';-inkscape-font-specification:'sans serif Bold';letter-spacing:0px;word-spacing:0px;fill:#000000;fill-opacity:1;stroke:none;stroke-width:1px;stroke-linecap:butt;stroke-linejoin:miter;stroke-opacity:1"
       id="path3642"
       inkscape:connector-curvature="0" />
    <path
       id="path3644"
       d="m 568.08752,478.42159 -3.42856,0.11472 -3.23965,0.34418 -3.05075,0.57362 -2.86183,0.80307 -2.67294,1.03252 -2.48402,1.26197 -2.29511,1.49142 -2.10621,1.72086 -1.87681,1.92306 -1.62658,2.09799 -1.37633,2.2729 -1.12609,2.44778 -0.87585,2.62266 -0.6256,2.79751 -0.37536,2.97234 -0.12512,3.14715 0.12512,3.13877 0.37536,2.96502 0.6256,2.79125 0.87585,2.6175 1.12609,2.44374 1.37633,2.26998 1.62658,2.09622 1.87681,1.92247 1.89769,1.56655 2.05274,1.3783 2.20767,1.19019 2.36245,1.00223 2.51707,0.81441 2.67156,0.62675 2.82591,0.43922 2.98009,0.25185 0,-10.07338 -2.39453,-0.55318 -2.14862,-0.92106 -1.90036,-1.29203 -1.64972,-1.66607 -0.89238,-1.21682 -0.77332,-1.33372 -0.65429,-1.45064 -0.53529,-1.56757 -0.41629,-1.68452 -0.29732,-1.80149 -0.23785,-3.95397 0.23785,-3.96968 0.29732,-1.80775 0.41629,-1.68968 0.53529,-1.57161 0.65429,-1.45355 0.77332,-1.33548 0.89238,-1.21742 1.00039,-1.08598 1.09736,-0.94118 1.19431,-0.79639 1.29124,-0.65159 1.38814,-0.50679 1.48503,-0.362 1.58191,-0.21719 1.67874,-0.0724 1.68791,0.0724 1.58977,0.21719 1.49164,0.362 1.39351,0.50679 1.29537,0.65159 1.19724,0.79639 1.0991,0.94118 1.00096,1.08598 0.89238,1.21742 0.77332,1.33548 0.65429,1.45355 0.53528,1.57161 0.4163,1.68968 0.29733,1.80775 0.23784,3.96968 -0.23784,3.95397 -0.29733,1.80149 -0.4163,1.68452 -0.53528,1.56757 -0.65429,1.45064 -0.77332,1.33372 -0.89238,1.21682 -1.63402,1.65212 -1.88272,1.28549 -2.12932,0.9216 -2.37389,0.56046 0,10.07971 2.96852,-0.25673 2.81363,-0.44244 2.6586,-0.62832 2.50344,-0.81437 2.34813,-1.00059 2.19269,-1.18697 2.03711,-1.37351 1.8814,-1.56023 1.87682,-1.92247 1.62657,-2.09622 1.37634,-2.26998 1.12609,-2.44374 0.87584,-2.6175 0.62561,-2.79125 0.37536,-2.96502 0.12512,-3.13877 -0.12512,-3.14715 -0.37536,-2.97234 -0.62561,-2.79751 -0.87584,-2.62266 -1.12609,-2.44778 -1.37634,-2.2729 -1.62657,-2.09799 -1.87682,-1.92306 -2.09762,-1.72086 -2.28898,-1.49142 -2.48034,-1.26197 -2.6717,-1.03252 -2.86307,-0.80307 -3.05442,-0.57362 -3.24579,-0.34418 -3.43715,-0.11472 0,0"
       style="font-style:normal;font-variant:normal;font-weight:bold;font-stretch:normal;font-size:medium;line-height:125%;font-family:'sans serif';-inkscape-font-specification:'sans serif Bold';letter-spacing:0px;word-spacing:0px;fill:#000000;fill-opacity:1;stroke:none;stroke-width:1px;stroke-linecap:butt;stroke-linejoin:miter;stroke-opacity:1"
       inkscape:connector-curvature="0" />
    <path
       id="path3646"
       d="m 609.61791,479.38473 0,53.2135 15.11179,0 0,-20.13724 0.0715,0 0,-9.48091 -0.0715,0 0,-13.65188 6.35909,0 2.2057,0.098 1.8673,0.29405 1.52874,0.49009 1.19001,0.68611 0.91006,0.91334 0.64984,1.17175 0.38978,1.43016 0.1299,1.68857 -0.1299,1.70638 -0.38978,1.44798 -0.64984,1.18956 -0.91006,0.93116 -1.19001,0.70184 -1.52874,0.5015 -1.8673,0.301 -2.2057,0.10037 -0.92814,0 0,9.52369 1.38003,0.16254 1.25011,0.28983 1.1192,0.41809 0.98728,0.54731 1.11382,0.88897 1.10401,1.20543 1.09419,1.52176 1.08438,1.83794 7.14417,13.22259 16.09401,0 -8.20489,-15.11243 -1.25353,-2.15192 -1.24845,-1.85786 -1.24356,-1.56382 -1.23881,-1.26976 -1.25871,-1.03809 -1.34227,-0.83315 -1.4257,-0.6282 -1.50895,-0.42325 2.6473,-0.91334 2.28928,-1.1361 1.9311,-1.35888 1.57273,-1.58163 1.23648,-1.81097 0.88321,-2.04694 0.52993,-2.28308 0.17664,-2.51936 -0.0847,-1.84286 -0.25392,-1.71483 -0.42321,-1.58678 -0.59248,-1.4587 -0.76176,-1.33062 -0.93105,-1.2025 -1.10033,-1.07438 -1.26961,-0.94623 -1.44135,-0.82699 -1.63516,-0.71666 -1.82898,-0.60635 -2.02278,-0.49606 -2.21661,-0.3858 -2.41042,-0.27555 -5.40229,-0.22041 -23.08115,0 0,0"
       style="font-style:normal;font-variant:normal;font-weight:bold;font-stretch:normal;font-size:medium;line-height:125%;font-family:'sans serif';-inkscape-font-specification:'sans serif Bold';letter-spacing:0px;word-spacing:0px;fill:#000000;fill-opacity:1;stroke:none;stroke-width:1px;stroke-linecap:butt;stroke-linejoin:miter;stroke-opacity:1"
       inkscape:connector-curvature="0" />
    <path
       d="m 671.48144,479.38463 19.23429,0 13.34625,28.47838 13.42476,-28.47838 19.19504,0 0,53.21429 -14.28834,0 0,-38.92164 -13.50326,28.69224 -9.57789,0 -13.50326,-28.69224 0,38.92164 -14.32759,0 0,-53.21429 0,0"
       style="font-style:normal;font-variant:normal;font-weight:bold;font-stretch:normal;font-size:medium;line-height:125%;font-family:'sans serif';-inkscape-font-specification:'sans serif Bold';letter-spacing:0px;word-spacing:0px;fill:#000000;fill-opacity:1;stroke:none;stroke-width:1px;stroke-linecap:butt;stroke-linejoin:miter;stroke-opacity:1"
       id="path3648"
       inkscape:connector-curvature="0" />
  </g>
</svg>
